M48
; DRILL file {KiCad 8.0.6} date 2025-02-28T18:50:37-0600
; FORMAT={-:-/ absolute / inch / decimal}
; #@! TF.CreationDate,2025-02-28T18:50:37-06:00
; #@! TF.GenerationSoftware,Kicad,Pcbnew,8.0.6
; #@! TF.FileFunction,Plated,1,4,PTH
FMAT,2
INCH
; #@! TA.AperFunction,Plated,PTH,ViaDrill
T1C0.0157
; #@! TA.AperFunction,Plated,PTH,ComponentDrill
T2C0.0197
; #@! TA.AperFunction,Plated,PTH,ComponentDrill
T3C0.0295
; #@! TA.AperFunction,Plated,PTH,ComponentDrill
T4C0.0315
; #@! TA.AperFunction,Plated,PTH,ComponentDrill
T5C0.0354
; #@! TA.AperFunction,Plated,PTH,ComponentDrill
T6C0.0394
; #@! TA.AperFunction,Plated,PTH,ComponentDrill
T7C0.0400
; #@! TA.AperFunction,Plated,PTH,ComponentDrill
T8C0.0433
; #@! TA.AperFunction,Plated,PTH,ComponentDrill
T9C0.0669
; #@! TA.AperFunction,Plated,PTH,ComponentDrill
T10C0.0905
; #@! TA.AperFunction,Plated,PTH,ComponentDrill
T11C0.1260
%
G90
G05
T1
X2.8068Y-5.3745
X2.9149Y-8.502
X3.081Y-9.5117
X3.2339Y-3.1789
X3.3673Y-8.3204
X3.3881Y-11.4551
X3.4003Y-6.5736
X3.4745Y-11.0243
X3.4755Y-5.9615
X3.4965Y-10.7564
X3.5111Y-3.0561
X3.5195Y-8.8523
X3.5298Y-10.9478
X3.5303Y-10.8302
X3.5523Y-3.0906
X3.5587Y-8.8703
X3.6315Y-7.8897
X3.6991Y-7.9261
X3.7029Y-10.1764
X3.8252Y-9.3084
X3.8968Y-7.5918
X3.8998Y-8.1803
X3.9264Y-11.3608
X3.9328Y-7.0702
X3.933Y-7.1702
X3.961Y-8.2065
X3.9709Y-10.0679
X4.0002Y-9.1949
X4.0072Y-8.3208
X4.0599Y-9.6352
X4.0818Y-11.2181
X4.1307Y-8.0009
X4.1478Y-9.5851
X4.21Y-8.6139
X4.2731Y-7.699
X4.2807Y-11.3969
X4.3315Y-7.0176
X4.3315Y-7.1039
X4.3378Y-6.0436
X4.3406Y-9.6811
X4.3507Y-6.7356
X4.3589Y-11.0435
X4.3596Y-5.9447
X4.3611Y-9.6458
X4.3881Y-8.7865
X4.4111Y-6.8681
X4.4409Y-7.5261
X4.4435Y-7.2279
X4.4441Y-6.8277
X4.4685Y-9.0096
X4.4685Y-10.3544
X4.4868Y-8.7579
X4.512Y-9.6564
X4.5204Y-10.0111
X4.5331Y-11.0135
X4.5634Y-10.6792
X4.5818Y-3.0958
X4.5991Y-11.2461
X4.6171Y-3.5424
X4.6375Y-3.1514
X4.6445Y-11.1747
X4.7005Y-10.5064
X4.7089Y-9.6117
X4.717Y-7.8666
X4.7281Y-6.0438
X4.7404Y-5.8212
X4.7438Y-11.1262
X4.768Y-9.7553
X4.7905Y-7.7952
X4.8094Y-8.0378
X4.8152Y-6.2667
X4.823Y-11.1571
X4.8275Y-9.9336
X4.8539Y-10.4552
X4.855Y-6.2124
X4.885Y-11.17
X4.9119Y-11.1988
X4.9346Y-9.3143
X4.9411Y-9.7011
X4.9471Y-10.0369
X4.9583Y-10.7516
X4.9619Y-10.5048
X4.9866Y-6.5659
X4.9929Y-6.5233
X4.9948Y-10.7764
X5.0239Y-6.4944
X5.0304Y-6.4476
X5.0356Y-9.8576
X5.0459Y-9.1518
X5.0488Y-8.1609
X5.0534Y-9.0208
X5.0753Y-10.5559
X5.0787Y-11.0195
X5.1185Y-10.5616
X5.1346Y-6.0404
X5.1485Y-10.536
X5.1771Y-10.5741
X5.1788Y-9.0851
X5.2053Y-11.5082
X5.2186Y-7.4416
X5.2766Y-7.4499
X5.2795Y-8.4952
X5.2905Y-7.5063
X5.3184Y-9.6014
X5.3306Y-9.2839
X5.3754Y-7.2917
X5.3791Y-9.9901
X5.3808Y-11.0436
X5.4157Y-8.2738
X5.4323Y-7.4748
X5.4544Y-11.07
X5.4805Y-7.5336
X5.4906Y-7.7996
X5.4931Y-11.3089
X5.5088Y-7.8916
X5.5114Y-9.8509
X5.546Y-6.2303
X5.5813Y-3.2919
X5.5898Y-3.5217
X5.6337Y-6.5479
X5.6429Y-6.1813
X5.6971Y-3.7009
X5.7255Y-7.1555
X5.7262Y-7.5452
X5.7263Y-8.4168
X5.741Y-6.2503
X5.756Y-7.6952
X5.7797Y-7.2739
X5.7813Y-6.724
X5.8087Y-11.2721
X5.8147Y-8.1952
X5.8416Y-9.6857
X5.8478Y-9.9327
X5.864Y-8.8728
X5.9483Y-6.7661
X5.9583Y-8.8913
X5.9804Y-6.9761
X5.9999Y-11.0514
X6.0048Y-7.3985
X6.0049Y-9.0763
X6.0158Y-6.6427
X6.0159Y-6.1565
X6.0209Y-6.2503
X6.0255Y-10.6064
X6.0509Y-3.1095
X6.0661Y-11.0837
X6.0697Y-10.6458
X6.0832Y-6.7208
X6.1239Y-4.8045
X6.1265Y-4.6981
X6.1476Y-4.1426
X6.1596Y-4.0192
X6.1613Y-5.4237
X6.1813Y-11.1909
X6.2402Y-10.3137
X6.2975Y-7.121
X6.2975Y-7.3328
X6.3003Y-5.1706
X6.3201Y-4.2831
X6.3225Y-7.5899
X6.3425Y-7.5061
X6.3438Y-7.3717
X6.3667Y-3.1628
X6.3668Y-8.1245
X6.369Y-4.6274
X6.3763Y-5.8563
X6.3781Y-6.5369
X6.3803Y-6.2958
X6.3916Y-8.4696
X6.3928Y-8.0034
X6.3945Y-5.574
X6.4028Y-8.1677
X6.4105Y-9.5139
X6.425Y-5.4402
X6.4283Y-9.3978
X6.4354Y-6.4604
X6.4563Y-8.6896
X6.4567Y-7.5895
X6.4575Y-9.8824
X6.4594Y-8.9386
X6.4701Y-8.0705
X6.4725Y-7.7334
X6.4728Y-4.021
X6.4839Y-4.6462
X6.486Y-6.1859
X6.4886Y-8.5966
X6.5142Y-8.6395
X6.5174Y-7.4154
X6.5606Y-11.5774
X6.5852Y-6.3553
X6.5992Y-10.272
X6.601Y-9.3791
X6.6054Y-4.1638
X6.6132Y-11.5312
X6.614Y-9.5661
X6.6152Y-7.0928
X6.6179Y-9.6814
X6.6195Y-9.8112
X6.6199Y-6.9202
X6.6209Y-4.0283
X6.6371Y-9.4409
X6.6391Y-5.221
X6.6441Y-10.6757
X6.6735Y-8.8395
X6.6818Y-8.7697
X6.6891Y-6.4422
X6.7006Y-10.6405
X6.7028Y-10.0253
X6.7073Y-5.0313
X6.7103Y-6.6529
X6.7172Y-9.0192
X6.7176Y-6.2504
X6.7299Y-4.4121
X6.7333Y-11.2234
X6.7588Y-10.9256
X6.759Y-4.1561
X6.7693Y-6.2032
X6.7885Y-8.9049
X6.8084Y-9.9601
X6.8217Y-6.3319
X6.8437Y-11.3185
X6.8485Y-5.1252
X6.8557Y-7.7948
X6.8741Y-7.6883
X6.9459Y-4.3834
X6.9585Y-5.6398
X6.9591Y-5.7356
X6.9707Y-4.9518
X6.9751Y-7.4546
X6.9973Y-4.9064
X7.0028Y-6.3816
X7.012Y-9.5042
X7.0168Y-6.0492
X7.0191Y-8.3596
X7.056Y-9.77
X7.0648Y-4.7564
X7.0674Y-4.295
X7.0695Y-4.5045
X7.078Y-9.9109
X7.0881Y-6.1652
X7.1076Y-5.5652
X7.1187Y-6.5159
X7.1279Y-7.2309
X7.1314Y-9.3087
X7.1324Y-7.6413
X7.181Y-7.4832
X7.1957Y-8.7715
X7.241Y-6.1187
X7.2517Y-5.7209
X7.2559Y-6.2114
X7.2646Y-5.4999
X7.2674Y-5.1747
X7.269Y-7.3296
X7.2779Y-6.0212
X7.2796Y-10.082
X7.2899Y-5.744
X7.3066Y-9.581
X7.3068Y-6.881
X7.3151Y-7.0827
X7.3189Y-9.645
X7.3189Y-4.5803
X7.3269Y-10.3089
X7.3319Y-8.5443
X7.3397Y-10.7956
X7.3444Y-6.6111
X7.3522Y-9.839
X7.353Y-9.714
X7.3787Y-10.2215
X7.3816Y-8.6192
X7.385Y-10.4313
X7.3898Y-8.7135
X7.4135Y-10.5091
X7.4204Y-10.3836
X7.4376Y-7.7359
X7.4832Y-7.7394
X7.5141Y-6.0241
X7.5311Y-8.4403
X7.5431Y-6.4441
X7.5547Y-5.4531
X7.5564Y-5.5498
X7.5579Y-6.0958
X7.5807Y-4.0626
X7.5944Y-5.4485
X7.6084Y-6.306
X7.6188Y-5.0695
X7.6411Y-8.351
X7.6412Y-5.5812
X7.6486Y-5.6882
X7.6608Y-9.0134
X7.6688Y-5.0727
X7.6845Y-6.6274
X7.6845Y-6.9202
X7.6934Y-8.9737
X7.6976Y-8.0008
X7.6985Y-10.2818
X7.7136Y-5.2132
X7.7364Y-9.1153
X7.741Y-6.3348
X7.7556Y-7.1858
X7.7871Y-9.2443
X7.793Y-9.37
X7.793Y-9.57
X7.7981Y-4.9219
X7.8028Y-10.6567
X7.8032Y-10.759
X7.8043Y-7.3681
X7.8544Y-6.0949
X7.8596Y-4.2969
X7.8662Y-8.9842
X7.9043Y-9.0501
X7.9248Y-4.3477
X7.9296Y-5.2136
X7.9327Y-5.059
X7.9608Y-11.1421
X7.9965Y-5.0721
X8.0087Y-8.1932
X8.0172Y-7.1903
X8.044Y-6.4972
X8.0468Y-5.4122
X8.0481Y-6.8224
X8.0512Y-5.8105
X8.0569Y-3.2524
X8.0655Y-11.5021
X8.0689Y-5.4464
X8.0689Y-5.9203
X8.0903Y-6.9513
X8.0934Y-11.1017
X8.1081Y-8.9214
X8.1396Y-11.0203
X8.1436Y-11.1179
X8.1514Y-3.9049
X8.1634Y-6.8208
X8.1642Y-7.5454
X8.1782Y-4.8377
X8.1811Y-6.3556
X8.1811Y-6.5369
X8.1866Y-11.2955
X8.2026Y-8.1352
X8.2057Y-7.6094
X8.2082Y-4.2305
X8.2158Y-4.9902
X8.2267Y-5.0725
X8.2516Y-8.5703
X8.2624Y-11.3251
X8.3161Y-11.6144
X8.3263Y-7.4294
X8.3345Y-6.3426
X8.335Y-8.901
X8.3414Y-11.3001
X8.3442Y-8.0017
X8.3518Y-11.0566
X8.3628Y-9.7155
X8.369Y-6.572
X8.3782Y-8.1452
X8.3793Y-8.698
X8.3801Y-7.198
X8.3888Y-11.0752
X8.3983Y-6.688
X8.4022Y-5.0176
X8.4129Y-5.2702
X8.4153Y-6.4972
X8.4245Y-9.1525
X8.4254Y-5.9988
X8.4304Y-3.6131
X8.4329Y-3.8142
X8.4396Y-11.4228
X8.442Y-5.3577
X8.4504Y-11.1513
X8.4507Y-8.0009
X8.4529Y-11.3834
X8.4591Y-11.2801
X8.4725Y-8.7265
X8.4738Y-7.9649
X8.4883Y-8.6691
X8.497Y-6.6158
X8.5305Y-11.2243
X8.5328Y-3.9459
X8.5402Y-3.8054
X8.5666Y-11.2853
X8.5724Y-11.2259
X8.5837Y-8.5301
X8.6157Y-6.0936
X8.6284Y-4.4984
X8.6301Y-3.8544
X8.6327Y-8.6007
X8.6464Y-10.7488
X8.6507Y-6.8381
X8.6673Y-9.9985
X8.6691Y-11.398
X8.6795Y-4.7276
X8.6811Y-6.0102
X8.6848Y-10.0646
X8.6884Y-10.9066
X8.6906Y-8.2897
X8.6911Y-7.6335
X8.6929Y-8.7338
X8.7335Y-7.2259
X8.7412Y-10.1059
X8.7436Y-5.0977
X8.7479Y-10.929
X8.7627Y-10.1668
X8.7659Y-5.1713
X8.7882Y-6.9868
X8.7959Y-5.14
X8.8176Y-7.7601
X8.8224Y-4.0065
X8.8265Y-3.2275
X8.8277Y-3.8633
X8.832Y-3.8199
X8.8418Y-7.6525
X8.8449Y-6.4549
X8.8526Y-7.858
X8.8699Y-6.8237
X8.8885Y-8.361
X8.8897Y-6.3541
X8.8932Y-3.7169
X8.8955Y-8.6228
X8.918Y-3.9077
X8.9285Y-5.3679
X8.9556Y-8.3621
X8.9609Y-7.2822
X8.9955Y-8.4552
X9.0101Y-6.1192
X9.0227Y-8.312
X9.0359Y-9.9985
X9.0433Y-7.2466
X9.0658Y-9.8459
X9.0773Y-10.9849
X9.0864Y-10.0646
X9.1066Y-6.7259
X9.1073Y-8.3544
X9.1646Y-11.5691
X9.2034Y-8.2947
X9.2039Y-11.5708
X9.2217Y-7.2433
X9.265Y-8.764
X9.3011Y-5.0643
X9.3127Y-8.5594
X9.3196Y-7.5067
X9.3239Y-4.7032
X9.3354Y-9.2047
X9.3583Y-5.1339
X9.3611Y-10.3038
X9.374Y-6.4518
X9.4122Y-10.1844
X9.43Y-9.6091
X9.4323Y-7.9328
X9.4699Y-6.4944
X9.4903Y-7.9484
X9.4985Y-5.9352
X9.5063Y-7.7363
X9.5103Y-9.1391
X9.5623Y-5.1039
X9.5657Y-7.036
X9.5831Y-7.2215
X9.5977Y-6.419
X9.6842Y-8.4527
X9.7017Y-5.5115
X9.7196Y-5.2052
X9.7207Y-6.5163
X9.7426Y-8.0717
X9.7622Y-6.7118
X9.775Y-6.3108
X9.7832Y-8.0702
X9.7897Y-5.2022
X9.8103Y-4.4341
X9.8144Y-9.3645
X9.8354Y-4.1366
X9.863Y-10.7381
X9.8633Y-6.3558
X9.8716Y-9.2047
X9.8725Y-6.0263
X9.9296Y-7.4063
X9.9306Y-10.5427
X9.9637Y-9.045
X9.9692Y-8.6711
X9.9866Y-4.1102
X9.9958Y-5.2626
X10.0074Y-3.8741
X10.011Y-5.6846
X10.0236Y-6.4361
X10.0564Y-7.8033
X10.061Y-6.2328
X10.0646Y-10.6684
X10.0776Y-6.9145
X10.0813Y-6.5297
X10.0831Y-7.7174
X10.117Y-10.3948
X10.127Y-7.2024
X10.135Y-7.496
X10.173Y-6.3962
X10.184Y-4.0315
X10.2113Y-5.738
X10.2124Y-6.9722
X10.2214Y-3.4292
X10.2796Y-6.4251
X10.3218Y-6.4325
X10.3274Y-11.1021
X10.3329Y-10.2157
X10.3439Y-9.9135
X10.3563Y-10.896
X10.3597Y-11.0467
X10.4177Y-6.4796
X10.4192Y-6.4399
X10.4457Y-7.1202
X10.446Y-8.0231
X10.4691Y-10.2628
X10.4811Y-2.6481
X10.5236Y-10.1436
X10.5296Y-6.7538
X10.5311Y-7.32
X10.5315Y-9.7819
X10.6428Y-5.7952
X10.7135Y-7.9676
X10.8029Y-11.7574
X10.8377Y-7.2373
X10.8713Y-6.7619
X10.8844Y-11.6341
X10.9103Y-9.5475
X10.913Y-9.1007
X10.9627Y-7.3698
X10.9734Y-9.4544
X10.98Y-5.4639
X10.9903Y-8.4542
X11.0372Y-5.1211
X11.0627Y-7.3082
X11.0697Y-7.37
X11.0949Y-7.4269
X11.1335Y-7.3461
X11.1582Y-9.5575
X11.1705Y-8.2933
X11.1812Y-9.0883
X11.2168Y-6.6177
X11.2326Y-9.5066
X11.2635Y-9.6162
X11.4051Y-6.7524
X11.4663Y-8.4286
X11.6784Y-9.6946
X11.7128Y-7.9952
X11.7666Y-7.3457
X11.7666Y-7.4145
X11.8414Y-8.3208
X11.9126Y-10.0121
X11.9426Y-9.5926
T2
X11.7029Y-6.3097
X11.7029Y-6.3688
T3
X7.4313Y-8.5661
X7.4813Y-8.5161
X7.5313Y-8.5661
T4
X2.849Y-6.5702
X2.849Y-6.6702
X2.849Y-6.7702
X2.849Y-6.8702
X2.849Y-6.9702
X2.849Y-7.0702
X2.849Y-7.1702
X2.849Y-7.2702
X2.859Y-7.5452
X2.859Y-7.6452
X2.859Y-7.7452
X2.859Y-7.8452
X2.859Y-7.9452
X2.859Y-8.0452
X2.859Y-8.1452
X2.9065Y-8.4192
X2.9757Y-11.4129
X2.9757Y-11.7129
X3.0035Y-9.5564
X3.0035Y-9.6564
X3.0035Y-9.7564
X3.0035Y-9.8564
X3.0035Y-9.9564
X3.0035Y-10.0564
X3.0035Y-10.1564
X3.0035Y-10.2564
X3.0035Y-10.3564
X3.0035Y-10.4564
X3.0035Y-10.5564
X3.0035Y-10.6564
X3.0035Y-10.7564
X3.0035Y-10.8564
X3.0035Y-10.9564
X3.0035Y-11.0564
X3.1034Y-8.4192
X3.149Y-6.5702
X3.149Y-6.6702
X3.149Y-6.7702
X3.149Y-6.8702
X3.149Y-6.9702
X3.149Y-7.0702
X3.149Y-7.1702
X3.149Y-7.2702
X3.159Y-7.5452
X3.159Y-7.6452
X3.159Y-7.7452
X3.159Y-7.8452
X3.159Y-7.9452
X3.159Y-8.0452
X3.159Y-8.1452
X3.2069Y-9.3002
X3.2427Y-7.4062
X3.2625Y-6.4012
X3.2883Y-4.6562
X3.3867Y-4.6562
X3.4037Y-9.3002
X3.4396Y-7.4062
X3.44Y-5.025
X3.44Y-5.325
X3.4594Y-6.4012
X3.5266Y-6.5702
X3.5266Y-6.6702
X3.5266Y-6.7702
X3.5266Y-6.8702
X3.5266Y-6.9702
X3.5266Y-7.0702
X3.5266Y-7.1702
X3.5266Y-7.2702
X3.5366Y-7.5452
X3.5366Y-7.6452
X3.5366Y-7.7452
X3.5366Y-7.8452
X3.5366Y-7.9452
X3.5366Y-8.0452
X3.5366Y-8.1452
X3.6035Y-9.5564
X3.6035Y-9.6564
X3.6035Y-9.7564
X3.6035Y-9.8564
X3.6035Y-9.9564
X3.6035Y-10.0564
X3.6035Y-10.1564
X3.6035Y-10.2564
X3.6035Y-10.3564
X3.6035Y-10.4564
X3.6035Y-10.5564
X3.6035Y-10.6564
X3.6035Y-10.7564
X3.6035Y-10.8564
X3.6035Y-10.9564
X3.6035Y-11.0564
X3.7185Y-10.0872
X3.8266Y-6.5702
X3.8266Y-6.6702
X3.8266Y-6.7702
X3.8266Y-6.8702
X3.8266Y-6.9702
X3.8266Y-7.0702
X3.8266Y-7.1702
X3.8266Y-7.2702
X3.8366Y-7.5452
X3.8366Y-7.6452
X3.8366Y-7.7452
X3.8366Y-7.8452
X3.8366Y-7.9452
X3.8366Y-8.0452
X3.8366Y-8.1452
X3.9154Y-10.0872
X3.9165Y-7.4112
X3.9187Y-9.0352
X3.9187Y-9.1352
X3.9187Y-9.2352
X3.9187Y-9.3352
X3.9187Y-9.4352
X3.9187Y-9.5352
X3.9187Y-9.6352
X3.9187Y-9.7352
X3.9187Y-9.8352
X3.9187Y-9.9352
X3.9187Y-10.2452
X3.9187Y-10.3452
X3.9187Y-10.4452
X3.9187Y-10.5452
X3.9187Y-10.6452
X3.9187Y-10.7452
X3.9187Y-10.8452
X3.9187Y-10.9452
X3.9187Y-11.0452
X3.9187Y-11.1452
X4.0525Y-6.3792
X4.1075Y-4.6562
X4.1134Y-7.4112
X4.2043Y-6.5702
X4.2043Y-6.6702
X4.2043Y-6.7702
X4.2043Y-6.8702
X4.2043Y-6.9702
X4.2043Y-7.0702
X4.2043Y-7.1702
X4.2043Y-7.2702
X4.2059Y-4.6562
X4.2143Y-7.5452
X4.2143Y-7.6452
X4.2143Y-7.7452
X4.2143Y-7.8452
X4.2143Y-7.9452
X4.2143Y-8.0452
X4.2143Y-8.1452
X4.2187Y-9.0352
X4.2187Y-9.1352
X4.2187Y-9.2352
X4.2187Y-9.3352
X4.2187Y-9.4352
X4.2187Y-9.5352
X4.2187Y-9.6352
X4.2187Y-9.7352
X4.2187Y-9.8352
X4.2187Y-9.9352
X4.2187Y-10.2452
X4.2187Y-10.3452
X4.2187Y-10.4452
X4.2187Y-10.5452
X4.2187Y-10.6452
X4.2187Y-10.7452
X4.2187Y-10.8452
X4.2187Y-10.9452
X4.2187Y-11.0452
X4.2187Y-11.1452
X4.2494Y-6.3792
X4.3407Y-11.3482
X4.3407Y-11.6482
X4.3607Y-10.9222
X4.3607Y-11.2222
X4.3767Y-9.0382
X4.5043Y-6.5702
X4.5043Y-6.6702
X4.5043Y-6.7702
X4.5043Y-6.8702
X4.5043Y-6.9702
X4.5043Y-7.0702
X4.5043Y-7.1702
X4.5043Y-7.2702
X4.5143Y-7.5452
X4.5143Y-7.6452
X4.5143Y-7.7452
X4.5143Y-7.8452
X4.5143Y-7.9452
X4.5143Y-8.0452
X4.5143Y-8.1452
X4.5279Y-8.7202
X4.5736Y-9.0382
X4.5985Y-7.3992
X4.6437Y-11.3352
X4.6437Y-11.6352
X4.6546Y-9.5564
X4.6546Y-9.6564
X4.6546Y-9.7564
X4.6546Y-9.8564
X4.6546Y-9.9564
X4.6546Y-10.0564
X4.6546Y-10.1564
X4.6546Y-10.2564
X4.6546Y-10.3564
X4.6546Y-10.4564
X4.6546Y-10.5564
X4.6546Y-10.6564
X4.6546Y-10.7564
X4.6546Y-10.8564
X4.6546Y-10.9564
X4.6546Y-11.0564
X4.7247Y-8.7202
X4.7437Y-11.3352
X4.7437Y-11.6352
X4.7954Y-7.3992
X4.8437Y-11.3352
X4.8437Y-11.6352
X4.8527Y-6.3382
X4.882Y-6.5702
X4.882Y-6.6702
X4.882Y-6.7702
X4.882Y-6.8702
X4.882Y-6.9702
X4.882Y-7.0702
X4.882Y-7.1702
X4.882Y-7.2702
X4.892Y-7.5452
X4.892Y-7.6452
X4.892Y-7.7452
X4.892Y-7.8452
X4.892Y-7.9452
X4.892Y-8.0452
X4.892Y-8.1452
X4.892Y-8.2452
X4.892Y-8.3452
X4.892Y-8.4452
X4.892Y-8.5452
X4.892Y-8.6452
X4.892Y-8.7452
X4.892Y-8.8452
X4.9335Y-4.6562
X4.9437Y-11.3352
X4.9437Y-11.6352
X5.0319Y-4.6562
X5.0437Y-11.3352
X5.0437Y-11.6352
X5.0496Y-6.3382
X5.1437Y-11.3352
X5.1437Y-11.6352
X5.182Y-6.5702
X5.182Y-6.6702
X5.182Y-6.7702
X5.182Y-6.8702
X5.182Y-6.9702
X5.182Y-7.0702
X5.182Y-7.1702
X5.182Y-7.2702
X5.192Y-7.5452
X5.192Y-7.6452
X5.192Y-7.7452
X5.192Y-7.8452
X5.192Y-7.9452
X5.192Y-8.0452
X5.192Y-8.1452
X5.192Y-8.2452
X5.192Y-8.3452
X5.192Y-8.4452
X5.192Y-8.5452
X5.192Y-8.6452
X5.192Y-8.7452
X5.192Y-8.8452
X5.2437Y-11.3352
X5.2437Y-11.6352
X5.2546Y-9.5564
X5.2546Y-9.6564
X5.2546Y-9.7564
X5.2546Y-9.8564
X5.2546Y-9.9564
X5.2546Y-10.0564
X5.2546Y-10.1564
X5.2546Y-10.2564
X5.2546Y-10.3564
X5.2546Y-10.4564
X5.2546Y-10.5564
X5.2546Y-10.6564
X5.2546Y-10.7564
X5.2546Y-10.8564
X5.2546Y-10.9564
X5.2546Y-11.0564
X5.3007Y-7.3562
X5.4969Y-8.8952
X5.4976Y-7.3562
X5.5597Y-6.5702
X5.5597Y-6.6702
X5.5597Y-6.7702
X5.5597Y-6.8702
X5.5597Y-6.9702
X5.5597Y-7.0702
X5.5597Y-7.1702
X5.5597Y-7.5452
X5.5597Y-7.6452
X5.5597Y-7.7452
X5.5597Y-7.8452
X5.5597Y-7.9452
X5.5597Y-8.0452
X5.5597Y-8.1452
X5.5597Y-8.2452
X5.5597Y-8.3452
X5.5597Y-8.4452
X5.5925Y-6.3432
X5.6235Y-9.1064
X5.6235Y-9.2064
X5.6235Y-9.3064
X5.6235Y-9.4064
X5.6235Y-9.5064
X5.6235Y-9.6064
X5.6235Y-9.7064
X5.6235Y-9.8064
X5.6287Y-10.4602
X5.6287Y-10.5602
X5.6287Y-10.6602
X5.6287Y-10.7602
X5.6287Y-10.8602
X5.6287Y-10.9602
X5.6287Y-11.0602
X5.6705Y-10.1562
X5.6937Y-8.8952
X5.7127Y-4.6562
X5.7894Y-6.3432
X5.8112Y-4.6562
X5.8597Y-6.5702
X5.8597Y-6.6702
X5.8597Y-6.7702
X5.8597Y-6.8702
X5.8597Y-6.9702
X5.8597Y-7.0702
X5.8597Y-7.1702
X5.8597Y-7.5452
X5.8597Y-7.6452
X5.8597Y-7.7452
X5.8597Y-7.8452
X5.8597Y-7.9452
X5.8597Y-8.0452
X5.8597Y-8.1452
X5.8597Y-8.2452
X5.8597Y-8.3452
X5.8597Y-8.4452
X5.8674Y-10.1562
X5.9235Y-9.1064
X5.9235Y-9.2064
X5.9235Y-9.3064
X5.9235Y-9.4064
X5.9235Y-9.5064
X5.9235Y-9.6064
X5.9235Y-9.7064
X5.9235Y-9.8064
X5.9287Y-10.4602
X5.9287Y-10.5602
X5.9287Y-10.6602
X5.9287Y-10.7602
X5.9287Y-10.8602
X5.9287Y-10.9602
X5.9287Y-11.0602
X5.9605Y-7.3632
X6.0527Y-11.2742
X6.1087Y-9.5434
X6.1087Y-9.7402
X6.1512Y-11.2742
X6.1574Y-7.3632
X6.2373Y-6.5702
X6.2373Y-6.6702
X6.2373Y-6.7702
X6.2373Y-6.8702
X6.2373Y-6.9702
X6.2373Y-7.0702
X6.2373Y-7.1702
X6.2473Y-7.5452
X6.2473Y-7.6452
X6.2473Y-7.7452
X6.2473Y-7.8452
X6.2473Y-7.9452
X6.2473Y-8.0452
X6.2473Y-8.1452
X6.2473Y-8.2452
X6.3037Y-9.1552
X6.3037Y-9.2552
X6.3037Y-9.3552
X6.3037Y-9.4552
X6.3037Y-9.5552
X6.3037Y-9.6552
X6.3037Y-9.7552
X6.3037Y-9.8552
X6.3037Y-9.9552
X6.3037Y-10.0552
X6.3037Y-10.1552
X6.3037Y-10.2552
X6.3037Y-10.3552
X6.3037Y-10.4552
X6.3037Y-10.5552
X6.3037Y-10.6552
X6.3037Y-10.7552
X6.3037Y-10.8552
X6.3037Y-10.9552
X6.3037Y-11.0552
X6.5285Y-6.3752
X6.5373Y-6.5702
X6.5373Y-6.6702
X6.5373Y-6.7702
X6.5373Y-6.8702
X6.5373Y-6.9702
X6.5373Y-7.0702
X6.5373Y-7.1702
X6.5473Y-7.5452
X6.5473Y-7.6452
X6.5473Y-7.7452
X6.5473Y-7.8452
X6.5473Y-7.9452
X6.5473Y-8.0452
X6.5473Y-8.1452
X6.5473Y-8.2452
X6.6387Y-7.3622
X6.7254Y-6.3752
X6.8356Y-7.3622
X6.8787Y-4.0564
X6.8787Y-4.1564
X6.8787Y-4.2564
X6.8787Y-4.3564
X6.8787Y-4.4564
X6.8787Y-4.5564
X6.8787Y-4.6564
X6.8787Y-4.7564
X6.8787Y-4.8564
X6.8787Y-4.9564
X6.8787Y-5.3652
X6.8787Y-5.4652
X6.8787Y-5.5652
X6.8787Y-5.6652
X6.8787Y-5.7652
X6.8787Y-5.8652
X6.8787Y-5.9652
X6.8787Y-6.0652
X6.8787Y-6.1652
X6.8787Y-6.2652
X6.9037Y-9.1552
X6.9037Y-9.2552
X6.9037Y-9.3552
X6.9037Y-9.4552
X6.9037Y-9.5552
X6.9037Y-9.6552
X6.9037Y-9.7552
X6.9037Y-9.8552
X6.9037Y-9.9552
X6.9037Y-10.0552
X6.9037Y-10.1552
X6.9037Y-10.2552
X6.9037Y-10.3552
X6.9037Y-10.4552
X6.9037Y-10.5552
X6.9037Y-10.6552
X6.9037Y-10.7552
X6.9037Y-10.8552
X6.9037Y-10.9552
X6.9037Y-11.0552
X6.915Y-6.5702
X6.915Y-6.6702
X6.915Y-6.7702
X6.915Y-6.8702
X6.915Y-6.9702
X6.915Y-7.0702
X6.915Y-7.1702
X6.925Y-7.5452
X6.925Y-7.6452
X6.925Y-7.7452
X6.925Y-7.8452
X6.925Y-7.9452
X6.925Y-8.0452
X6.925Y-8.1452
X7.1787Y-4.0564
X7.1787Y-4.1564
X7.1787Y-4.2564
X7.1787Y-4.3564
X7.1787Y-4.4564
X7.1787Y-4.5564
X7.1787Y-4.6564
X7.1787Y-4.7564
X7.1787Y-4.8564
X7.1787Y-4.9564
X7.1787Y-5.3652
X7.1787Y-5.4652
X7.1787Y-5.5652
X7.1787Y-5.6652
X7.1787Y-5.7652
X7.1787Y-5.8652
X7.1787Y-5.9652
X7.1787Y-6.0652
X7.1787Y-6.1652
X7.1787Y-6.2652
X7.2007Y-3.8342
X7.2037Y-8.9152
X7.2037Y-9.0152
X7.2037Y-9.1152
X7.2037Y-9.2152
X7.2037Y-9.3152
X7.2037Y-9.4152
X7.2037Y-9.5152
X7.2037Y-9.6152
X7.2037Y-9.7152
X7.2037Y-9.8152
X7.2037Y-10.1602
X7.2037Y-10.2602
X7.2037Y-10.3602
X7.2037Y-10.4602
X7.2037Y-10.5602
X7.2037Y-10.6602
X7.2037Y-10.7602
X7.2037Y-10.8602
X7.2037Y-10.9602
X7.2037Y-11.0602
X7.2065Y-6.4232
X7.2085Y-5.1592
X7.215Y-6.5702
X7.215Y-6.6702
X7.215Y-6.7702
X7.215Y-6.8702
X7.215Y-6.9702
X7.215Y-7.0702
X7.215Y-7.1702
X7.225Y-7.5452
X7.225Y-7.6452
X7.225Y-7.7452
X7.225Y-7.8452
X7.225Y-7.9452
X7.225Y-8.0452
X7.225Y-8.1452
X7.3145Y-7.3732
X7.3976Y-3.8342
X7.4034Y-6.4232
X7.4054Y-5.1592
X7.4301Y-4.0602
X7.4301Y-4.1602
X7.4301Y-4.2602
X7.4301Y-4.3602
X7.4301Y-4.4602
X7.4301Y-4.5602
X7.4301Y-4.6602
X7.4301Y-4.7602
X7.4301Y-4.8602
X7.4301Y-4.9602
X7.4301Y-5.3652
X7.4301Y-5.4652
X7.4301Y-5.5652
X7.4301Y-5.6652
X7.4301Y-5.7652
X7.4301Y-5.8652
X7.4301Y-5.9652
X7.4301Y-6.0652
X7.4301Y-6.1652
X7.4301Y-6.2652
X7.4527Y-2.4482
X7.4527Y-2.6902
X7.5037Y-8.9152
X7.5037Y-9.0152
X7.5037Y-9.1152
X7.5037Y-9.2152
X7.5037Y-9.3152
X7.5037Y-9.4152
X7.5037Y-9.5152
X7.5037Y-9.6152
X7.5037Y-9.7152
X7.5037Y-9.8152
X7.5037Y-10.1602
X7.5037Y-10.2602
X7.5037Y-10.3602
X7.5037Y-10.4602
X7.5037Y-10.5602
X7.5037Y-10.6602
X7.5037Y-10.7602
X7.5037Y-10.8602
X7.5037Y-10.9602
X7.5037Y-11.0602
X7.5114Y-7.3732
X7.5785Y-9.9952
X7.5927Y-6.5702
X7.5927Y-6.6702
X7.5927Y-6.7702
X7.5927Y-6.8702
X7.5927Y-6.9702
X7.5927Y-7.0702
X7.5927Y-7.1702
X7.6027Y-7.5452
X7.6027Y-7.6452
X7.6027Y-7.7452
X7.6027Y-7.8452
X7.6027Y-7.9452
X7.6027Y-8.0452
X7.6027Y-8.1452
X7.6337Y-11.0602
X7.6347Y-9.0682
X7.7301Y-4.0602
X7.7301Y-4.1602
X7.7301Y-4.2602
X7.7301Y-4.3602
X7.7301Y-4.4602
X7.7301Y-4.5602
X7.7301Y-4.6602
X7.7301Y-4.7602
X7.7301Y-4.8602
X7.7301Y-4.9602
X7.7301Y-5.3652
X7.7301Y-5.4652
X7.7301Y-5.5652
X7.7301Y-5.6652
X7.7301Y-5.7652
X7.7301Y-5.8652
X7.7301Y-5.9652
X7.7301Y-6.0652
X7.7301Y-6.1652
X7.7301Y-6.2652
X7.7527Y-2.4482
X7.7527Y-2.6902
X7.7754Y-9.9952
X7.7785Y-5.1752
X7.8087Y-8.4752
X7.8306Y-11.0602
X7.8316Y-9.0682
X7.8687Y-3.9642
X7.8887Y-2.4482
X7.8887Y-2.6902
X7.8887Y-2.9342
X7.8887Y-3.1922
X7.8927Y-6.5702
X7.8927Y-6.6702
X7.8927Y-6.7702
X7.8927Y-6.8702
X7.8927Y-6.9702
X7.8927Y-7.0702
X7.8927Y-7.1702
X7.9027Y-7.5452
X7.9027Y-7.6452
X7.9027Y-7.7452
X7.9027Y-7.8452
X7.9027Y-7.9452
X7.9027Y-8.0452
X7.9027Y-8.1452
X7.9087Y-8.4752
X7.9567Y-9.1568
X7.9567Y-9.2568
X7.9567Y-9.3568
X7.9567Y-9.4568
X7.9567Y-9.5568
X7.9567Y-9.6568
X7.9567Y-9.7568
X7.9567Y-9.8568
X7.9567Y-9.9568
X7.9567Y-10.0568
X7.9567Y-10.1568
X7.9567Y-10.2568
X7.9567Y-10.3568
X7.9567Y-10.4568
X7.9567Y-10.5568
X7.9567Y-10.6568
X7.9567Y-10.7568
X7.9567Y-10.8568
X7.9567Y-10.9568
X7.9567Y-11.0568
X7.9754Y-5.1752
X7.9815Y-4.2102
X7.9815Y-4.3102
X7.9815Y-4.4102
X7.9815Y-4.5102
X7.9815Y-4.6102
X7.9815Y-4.7102
X7.9815Y-4.8102
X7.9815Y-4.9102
X7.9815Y-5.3652
X7.9815Y-5.4652
X7.9815Y-5.5652
X7.9815Y-5.6652
X7.9815Y-5.7652
X7.9815Y-5.8652
X7.9815Y-5.9652
X7.9815Y-6.0652
X7.9815Y-6.1652
X7.9815Y-6.2652
X7.9865Y-7.3832
X8.0087Y-8.4752
X8.0656Y-3.9642
X8.1087Y-8.4752
X8.1185Y-8.7712
X8.1834Y-7.3832
X8.1887Y-2.4482
X8.1887Y-2.6902
X8.1887Y-2.9342
X8.1887Y-3.1922
X8.2087Y-8.4752
X8.2704Y-6.5702
X8.2704Y-6.6702
X8.2704Y-6.7702
X8.2704Y-6.8702
X8.2704Y-6.9702
X8.2704Y-7.0702
X8.2704Y-7.1702
X8.2804Y-7.5452
X8.2804Y-7.6452
X8.2804Y-7.7452
X8.2804Y-7.8452
X8.2804Y-7.9452
X8.2804Y-8.0452
X8.2804Y-8.1452
X8.2815Y-4.2102
X8.2815Y-4.3102
X8.2815Y-4.4102
X8.2815Y-4.5102
X8.2815Y-4.6102
X8.2815Y-4.7102
X8.2815Y-4.8102
X8.2815Y-4.9102
X8.2815Y-5.3652
X8.2815Y-5.4652
X8.2815Y-5.5652
X8.2815Y-5.6652
X8.2815Y-5.7652
X8.2815Y-5.8652
X8.2815Y-5.9652
X8.2815Y-6.0652
X8.2815Y-6.1652
X8.2815Y-6.2652
X8.2881Y-2.4482
X8.2881Y-2.6902
X8.2881Y-2.9342
X8.2881Y-3.1922
X8.2905Y-3.9852
X8.3085Y-5.1592
X8.3087Y-8.4752
X8.3154Y-8.7712
X8.4087Y-8.4752
X8.4874Y-3.9852
X8.5054Y-5.1592
X8.5087Y-8.4752
X8.5329Y-4.3452
X8.5329Y-4.4452
X8.5329Y-4.5452
X8.5329Y-4.6452
X8.5329Y-4.7452
X8.5329Y-4.8452
X8.5329Y-4.9452
X8.5329Y-5.3652
X8.5329Y-5.4652
X8.5329Y-5.5652
X8.5329Y-5.6652
X8.5329Y-5.7652
X8.5329Y-5.8652
X8.5329Y-5.9652
X8.5329Y-6.0652
X8.5329Y-6.1652
X8.5329Y-6.2652
X8.5567Y-9.1568
X8.5567Y-9.2568
X8.5567Y-9.3568
X8.5567Y-9.4568
X8.5567Y-9.5568
X8.5567Y-9.6568
X8.5567Y-9.7568
X8.5567Y-9.8568
X8.5567Y-9.9568
X8.5567Y-10.0568
X8.5567Y-10.1568
X8.5567Y-10.2568
X8.5567Y-10.3568
X8.5567Y-10.4568
X8.5567Y-10.5568
X8.5567Y-10.6568
X8.5567Y-10.7568
X8.5567Y-10.8568
X8.5567Y-10.9568
X8.5567Y-11.0568
X8.5704Y-6.5702
X8.5704Y-6.6702
X8.5704Y-6.7702
X8.5704Y-6.8702
X8.5704Y-6.9702
X8.5704Y-7.0702
X8.5704Y-7.1702
X8.5804Y-7.5452
X8.5804Y-7.6452
X8.5804Y-7.7452
X8.5804Y-7.8452
X8.5804Y-7.9452
X8.5804Y-8.0452
X8.5804Y-8.1452
X8.5881Y-2.4482
X8.5881Y-2.6902
X8.5881Y-2.9342
X8.5881Y-3.1922
X8.5925Y-8.8612
X8.6087Y-8.4752
X8.6825Y-7.3692
X8.7087Y-8.4752
X8.7187Y-2.4482
X8.7187Y-2.6902
X8.7187Y-2.9342
X8.7187Y-3.1922
X8.7187Y-9.9542
X8.7487Y-4.1022
X8.7894Y-8.8612
X8.8329Y-4.3452
X8.8329Y-4.4452
X8.8329Y-4.5452
X8.8329Y-4.6452
X8.8329Y-4.7452
X8.8329Y-4.8452
X8.8329Y-4.9452
X8.8329Y-5.3652
X8.8329Y-5.4652
X8.8329Y-5.5652
X8.8329Y-5.6652
X8.8329Y-5.7652
X8.8329Y-5.8652
X8.8329Y-5.9652
X8.8329Y-6.0652
X8.8329Y-6.1652
X8.8329Y-6.2652
X8.8567Y-5.1542
X8.8794Y-7.3692
X8.9156Y-9.9542
X8.9456Y-4.1022
X8.948Y-6.5702
X8.948Y-6.6702
X8.948Y-6.7702
X8.948Y-6.8702
X8.948Y-6.9702
X8.948Y-7.0702
X8.948Y-7.1702
X8.958Y-7.5452
X8.958Y-7.6452
X8.958Y-7.7452
X8.958Y-7.8452
X8.958Y-7.9452
X8.958Y-8.0452
X8.958Y-8.1452
X8.9587Y-10.1502
X8.9587Y-10.2502
X8.9587Y-10.3502
X8.9587Y-10.4502
X8.9587Y-10.5502
X8.9587Y-10.6502
X8.9587Y-10.7502
X8.9587Y-10.8502
X8.9587Y-10.9502
X8.9587Y-11.0502
X8.9627Y-8.5302
X8.9637Y-8.8852
X8.9637Y-8.9852
X8.9637Y-9.0852
X8.9637Y-9.1852
X8.9637Y-9.2852
X8.9637Y-9.3852
X8.9637Y-9.4852
X8.9637Y-9.5852
X8.9637Y-9.6852
X8.9637Y-9.7852
X9.0187Y-2.4482
X9.0187Y-2.6902
X9.0187Y-2.9342
X9.0187Y-3.1922
X9.0536Y-5.1542
X9.0627Y-8.5302
X9.0843Y-4.0502
X9.0843Y-4.1502
X9.0843Y-4.2502
X9.0843Y-4.3502
X9.0843Y-4.4502
X9.0843Y-4.5502
X9.0843Y-4.6502
X9.0843Y-4.7502
X9.0843Y-4.8502
X9.0843Y-4.9502
X9.0843Y-5.3652
X9.0843Y-5.4652
X9.0843Y-5.5652
X9.0843Y-5.6652
X9.0843Y-5.7652
X9.0843Y-5.8652
X9.0843Y-5.9652
X9.0843Y-6.0652
X9.0843Y-6.1652
X9.0843Y-6.2652
X9.1627Y-8.5302
X9.248Y-6.5702
X9.248Y-6.6702
X9.248Y-6.7702
X9.248Y-6.8702
X9.248Y-6.9702
X9.248Y-7.0702
X9.248Y-7.1702
X9.258Y-7.5452
X9.258Y-7.6452
X9.258Y-7.7452
X9.258Y-7.8452
X9.258Y-7.9452
X9.258Y-8.0452
X9.258Y-8.1452
X9.2587Y-10.1502
X9.2587Y-10.2502
X9.2587Y-10.3502
X9.2587Y-10.4502
X9.2587Y-10.5502
X9.2587Y-10.6502
X9.2587Y-10.7502
X9.2587Y-10.8502
X9.2587Y-10.9502
X9.2587Y-11.0502
X9.2627Y-8.5302
X9.2637Y-8.8852
X9.2637Y-8.9852
X9.2637Y-9.0852
X9.2637Y-9.1852
X9.2637Y-9.2852
X9.2637Y-9.3852
X9.2637Y-9.4852
X9.2637Y-9.5852
X9.2637Y-9.6852
X9.2637Y-9.7852
X9.3137Y-2.9109
X9.3137Y-3.2109
X9.3505Y-7.3872
X9.3627Y-8.5302
X9.3843Y-4.0502
X9.3843Y-4.1502
X9.3843Y-4.2502
X9.3843Y-4.3502
X9.3843Y-4.4502
X9.3843Y-4.5502
X9.3843Y-4.6502
X9.3843Y-4.7502
X9.3843Y-4.8502
X9.3843Y-4.9502
X9.3843Y-5.3652
X9.3843Y-5.4652
X9.3843Y-5.5652
X9.3843Y-5.6652
X9.3843Y-5.7652
X9.3843Y-5.8652
X9.3843Y-5.9652
X9.3843Y-6.0652
X9.3843Y-6.1652
X9.3843Y-6.2652
X9.4147Y-5.1782
X9.4627Y-8.5302
X9.4719Y-11.2352
X9.4867Y-8.7762
X9.4867Y-9.0762
X9.5474Y-7.3872
X9.5477Y-2.9129
X9.5477Y-3.2129
X9.5627Y-8.5302
X9.6098Y-9.1582
X9.6098Y-9.2582
X9.6098Y-9.3582
X9.6098Y-9.4582
X9.6098Y-9.5582
X9.6098Y-9.6582
X9.6098Y-9.7582
X9.6098Y-9.8582
X9.6098Y-9.9582
X9.6098Y-10.0582
X9.6098Y-10.1582
X9.6098Y-10.2582
X9.6098Y-10.3582
X9.6098Y-10.4582
X9.6098Y-10.5582
X9.6098Y-10.6582
X9.6098Y-10.7582
X9.6098Y-10.8582
X9.6098Y-10.9582
X9.6098Y-11.0582
X9.6116Y-5.1782
X9.6257Y-6.5702
X9.6257Y-6.6702
X9.6257Y-6.7702
X9.6257Y-6.8702
X9.6257Y-6.9702
X9.6257Y-7.0702
X9.6257Y-7.1702
X9.6357Y-4.0602
X9.6357Y-4.1602
X9.6357Y-4.2602
X9.6357Y-4.3602
X9.6357Y-4.4602
X9.6357Y-4.5602
X9.6357Y-4.6602
X9.6357Y-4.7602
X9.6357Y-4.8602
X9.6357Y-4.9602
X9.6357Y-5.3652
X9.6357Y-5.4652
X9.6357Y-5.5652
X9.6357Y-5.6652
X9.6357Y-5.7652
X9.6357Y-5.8652
X9.6357Y-5.9652
X9.6357Y-6.0652
X9.6357Y-6.1652
X9.6357Y-6.2652
X9.6357Y-7.5452
X9.6357Y-7.6452
X9.6357Y-7.7452
X9.6357Y-7.8452
X9.6357Y-7.9452
X9.6357Y-8.0452
X9.6357Y-8.1452
X9.6357Y-8.2452
X9.6627Y-8.5302
X9.6687Y-11.2352
X9.7305Y-8.8349
X9.7627Y-8.5302
X9.7937Y-2.9636
X9.7937Y-3.1604
X9.8289Y-8.8349
X9.8627Y-8.5302
X9.9257Y-6.5702
X9.9257Y-6.6702
X9.9257Y-6.7702
X9.9257Y-6.8702
X9.9257Y-6.9702
X9.9257Y-7.0702
X9.9257Y-7.1702
X9.9357Y-4.0602
X9.9357Y-4.1602
X9.9357Y-4.2602
X9.9357Y-4.3602
X9.9357Y-4.4602
X9.9357Y-4.5602
X9.9357Y-4.6602
X9.9357Y-4.7602
X9.9357Y-4.8602
X9.9357Y-4.9602
X9.9357Y-5.3652
X9.9357Y-5.4652
X9.9357Y-5.5652
X9.9357Y-5.6652
X9.9357Y-5.7652
X9.9357Y-5.8652
X9.9357Y-5.9652
X9.9357Y-6.0652
X9.9357Y-6.1652
X9.9357Y-6.2652
X9.9357Y-7.5452
X9.9357Y-7.6452
X9.9357Y-7.7452
X9.9357Y-7.8452
X9.9357Y-7.9452
X9.9357Y-8.0452
X9.9357Y-8.1452
X9.9357Y-8.2452
X9.9805Y-8.8349
X10.0083Y-3.0382
X10.0259Y-7.3662
X10.0427Y-8.5202
X10.0789Y-8.8349
X10.1067Y-3.0382
X10.1067Y-4.0382
X10.1459Y-5.0022
X10.1545Y-6.2852
X10.2098Y-9.1582
X10.2098Y-9.2582
X10.2098Y-9.3582
X10.2098Y-9.4582
X10.2098Y-9.5582
X10.2098Y-9.6582
X10.2098Y-9.7582
X10.2098Y-9.8582
X10.2098Y-9.9582
X10.2098Y-10.0582
X10.2098Y-10.1582
X10.2098Y-10.2582
X10.2098Y-10.3582
X10.2098Y-10.4582
X10.2098Y-10.5582
X10.2098Y-10.6582
X10.2098Y-10.7582
X10.2098Y-10.8582
X10.2098Y-10.9582
X10.2098Y-11.0582
X10.2227Y-7.3662
X10.2455Y-8.8349
X10.2487Y-5.2962
X10.2487Y-5.3962
X10.2487Y-5.4962
X10.2487Y-5.5962
X10.2487Y-5.6962
X10.2487Y-5.7962
X10.2487Y-5.8962
X10.2487Y-5.9962
X10.2487Y-6.0962
X10.3034Y-6.5702
X10.3034Y-6.6702
X10.3034Y-6.7702
X10.3034Y-6.8702
X10.3034Y-6.9702
X10.3034Y-7.0702
X10.3034Y-7.1702
X10.3036Y-4.0382
X10.3134Y-7.5452
X10.3134Y-7.6452
X10.3134Y-7.7452
X10.3134Y-7.8452
X10.3134Y-7.9452
X10.3134Y-8.0452
X10.3134Y-8.1452
X10.3134Y-8.2452
X10.3427Y-5.0022
X10.3427Y-8.5202
X10.3439Y-8.8349
X10.3514Y-6.2852
X10.4045Y-3.4692
X10.4953Y-8.6452
X10.5937Y-8.6452
X10.6014Y-3.4692
X10.6034Y-6.5702
X10.6034Y-6.6702
X10.6034Y-6.7702
X10.6034Y-6.8702
X10.6034Y-6.9702
X10.6034Y-7.0702
X10.6034Y-7.1702
X10.6134Y-7.5452
X10.6134Y-7.6452
X10.6134Y-7.7452
X10.6134Y-7.8452
X10.6134Y-7.9452
X10.6134Y-8.0452
X10.6134Y-8.1452
X10.6134Y-8.2452
X10.6885Y-7.3592
X10.6919Y-8.4802
X10.7287Y-9.1022
X10.7287Y-9.2022
X10.7287Y-9.3022
X10.7287Y-9.4022
X10.7287Y-9.5022
X10.7287Y-9.6022
X10.7287Y-9.7022
X10.7287Y-9.8022
X10.7337Y-10.1422
X10.7453Y-8.7952
X10.7535Y-10.4388
X10.7535Y-10.5388
X10.7535Y-10.6388
X10.7535Y-10.7388
X10.7535Y-10.8388
X10.7535Y-10.9388
X10.7535Y-11.0388
X10.8437Y-8.7952
X10.8854Y-7.3592
X10.8887Y-8.4802
X10.9306Y-10.1422
X10.9811Y-6.5702
X10.9811Y-6.6702
X10.9811Y-6.7702
X10.9811Y-6.8702
X10.9811Y-6.9702
X10.9811Y-7.0702
X10.9811Y-7.1702
X10.9911Y-7.5452
X10.9911Y-7.6452
X10.9911Y-7.7452
X10.9911Y-7.8452
X10.9911Y-7.9452
X10.9911Y-8.0452
X10.9911Y-8.1452
X10.9911Y-8.2452
X11.0287Y-9.1022
X11.0287Y-9.2022
X11.0287Y-9.3022
X11.0287Y-9.4022
X11.0287Y-9.5022
X11.0287Y-9.6022
X11.0287Y-9.7022
X11.0287Y-9.8022
X11.0535Y-10.4388
X11.0535Y-10.5388
X11.0535Y-10.6388
X11.0535Y-10.7388
X11.0535Y-10.8388
X11.0535Y-10.9388
X11.0535Y-11.0388
X11.0637Y-9.9329
X11.0637Y-10.2329
X11.0907Y-8.5722
X11.2045Y-6.3972
X11.2107Y-6.2522
X11.2387Y-8.8452
X11.2387Y-8.9452
X11.2387Y-9.0452
X11.2387Y-9.1452
X11.2387Y-9.2452
X11.2387Y-9.3452
X11.2387Y-9.4452
X11.2525Y-7.3612
X11.2587Y-9.7552
X11.2587Y-9.8552
X11.2587Y-9.9552
X11.2587Y-10.0552
X11.2587Y-10.1552
X11.2587Y-10.2552
X11.2587Y-10.3552
X11.2587Y-10.4552
X11.2587Y-10.5552
X11.2587Y-10.6552
X11.2587Y-10.7552
X11.2587Y-10.8552
X11.2587Y-10.9552
X11.2587Y-11.0552
X11.2811Y-6.5702
X11.2811Y-6.6702
X11.2811Y-6.7702
X11.2811Y-6.8702
X11.2811Y-6.9702
X11.2811Y-7.0702
X11.2811Y-7.1702
X11.2911Y-7.5452
X11.2911Y-7.6452
X11.2911Y-7.7452
X11.2911Y-7.8452
X11.2911Y-7.9452
X11.2911Y-8.0452
X11.2911Y-8.1452
X11.2911Y-8.2452
X11.3907Y-8.5722
X11.4014Y-6.3972
X11.4076Y-6.2522
X11.4494Y-7.3612
X11.5319Y-8.6382
X11.5387Y-8.8452
X11.5387Y-8.9452
X11.5387Y-9.0452
X11.5387Y-9.1452
X11.5387Y-9.2452
X11.5387Y-9.3452
X11.5387Y-9.4452
X11.5953Y-3.2552
X11.6587Y-6.5702
X11.6587Y-6.6702
X11.6587Y-6.7702
X11.6587Y-6.8702
X11.6587Y-6.9702
X11.6587Y-7.0702
X11.6587Y-7.1702
X11.6587Y-7.2702
X11.6587Y-7.3702
X11.6687Y-7.5452
X11.6687Y-7.6452
X11.6687Y-7.7452
X11.6687Y-7.8452
X11.6687Y-7.9452
X11.6687Y-8.0452
X11.6687Y-8.1452
X11.6687Y-8.2452
X11.6937Y-3.2552
X11.7287Y-8.6382
X11.8587Y-9.7552
X11.8587Y-9.8552
X11.8587Y-9.9552
X11.8587Y-10.0552
X11.8587Y-10.1552
X11.8587Y-10.2552
X11.8587Y-10.3552
X11.8587Y-10.4552
X11.8587Y-10.5552
X11.8587Y-10.6552
X11.8587Y-10.7552
X11.8587Y-10.8552
X11.8587Y-10.9552
X11.8587Y-11.0552
X11.9587Y-6.5702
X11.9587Y-6.6702
X11.9587Y-6.7702
X11.9587Y-6.8702
X11.9587Y-6.9702
X11.9587Y-7.0702
X11.9587Y-7.1702
X11.9587Y-7.2702
X11.9587Y-7.3702
X11.9687Y-7.5452
X11.9687Y-7.6452
X11.9687Y-7.7452
X11.9687Y-7.8452
X11.9687Y-7.9452
X11.9687Y-8.0452
X11.9687Y-8.1452
X11.9687Y-8.2452
X12.0019Y-11.0502
X12.1097Y-10.0569
X12.1097Y-10.3569
X12.1187Y-10.5302
X12.1187Y-10.8302
X12.1658Y-6.558
X12.1658Y-6.7549
X12.1778Y-7.5
X12.1778Y-7.6969
X12.1987Y-11.0502
T5
X10.7287Y-2.5802
X10.7287Y-2.6766
X10.8114Y-2.5802
X10.9136Y-2.5802
X10.9963Y-2.5802
X10.9963Y-2.6786
X11.4687Y-2.5788
X11.4687Y-2.6752
X11.5514Y-2.5788
X11.6536Y-2.5788
X11.7363Y-2.5788
X11.7363Y-2.6772
T6
X2.8647Y-8.9522
X2.8647Y-9.1294
X3.1206Y-8.9522
X3.1206Y-9.1294
X3.2525Y-5.6052
X3.2525Y-5.7052
X3.2525Y-5.8052
X3.2525Y-5.9052
X3.2525Y-6.0052
X3.2525Y-6.1052
X3.3525Y-5.6052
X3.3525Y-5.7052
X3.3525Y-5.8052
X3.3525Y-5.9052
X3.3525Y-6.0052
X3.3525Y-6.1052
X4.0673Y-5.6052
X4.0673Y-5.7052
X4.0673Y-5.8052
X4.0673Y-5.9052
X4.0673Y-6.0052
X4.0673Y-6.1052
X4.1673Y-5.6052
X4.1673Y-5.7052
X4.1673Y-5.8052
X4.1673Y-5.9052
X4.1673Y-6.0052
X4.1673Y-6.1052
X4.6887Y-8.2522
X4.6887Y-8.3522
X4.8675Y-5.6002
X4.8675Y-5.7002
X4.8675Y-5.8002
X4.8675Y-5.9002
X4.8675Y-6.0002
X4.8675Y-6.1002
X4.9675Y-5.6002
X4.9675Y-5.7002
X4.9675Y-5.8002
X4.9675Y-5.9002
X4.9675Y-6.0002
X4.9675Y-6.1002
X5.5507Y-11.458
X5.5507Y-11.558
X5.5567Y-10.0362
X5.5567Y-10.1362
X5.5567Y-10.2362
X5.6675Y-5.6052
X5.6675Y-5.7052
X5.6675Y-5.8052
X5.6675Y-5.9052
X5.6675Y-6.0052
X5.6675Y-6.1052
X5.7675Y-5.6052
X5.7675Y-5.7052
X5.7675Y-5.8052
X5.7675Y-5.9052
X5.7675Y-6.0052
X5.7675Y-6.1052
X6.2685Y-8.5556
X6.2685Y-8.6556
X6.2685Y-8.7556
X6.2685Y-8.8556
X6.3685Y-8.5556
X6.3685Y-8.6556
X6.3685Y-8.7556
X6.3685Y-8.8556
X6.4567Y-5.6042
X6.4567Y-5.7042
X6.4567Y-5.8042
X6.4567Y-5.9042
X6.4567Y-6.0042
X6.4567Y-6.1042
X6.5125Y-4.8326
X6.5125Y-4.9326
X6.5125Y-5.0326
X6.5125Y-5.1326
X6.5567Y-5.6042
X6.5567Y-5.7042
X6.5567Y-5.8042
X6.5567Y-5.9042
X6.5567Y-6.0042
X6.5567Y-6.1042
X6.6125Y-4.8326
X6.6125Y-4.9326
X6.6125Y-5.0326
X6.6125Y-5.1326
X7.7408Y-8.685
X7.7408Y-8.8622
X7.9967Y-8.685
X7.9967Y-8.8622
X9.0487Y-3.4822
X9.1487Y-3.4822
X9.2487Y-3.4822
X9.3487Y-3.4822
X9.4447Y-3.7122
X9.4487Y-3.4822
X9.4715Y-2.7651
X9.5447Y-3.7122
X9.5487Y-3.4822
X9.5715Y-2.7651
X9.603Y-2.4573
X9.6481Y-2.3793
X9.6481Y-2.5352
X9.6715Y-2.7651
X9.6932Y-2.4573
X9.7383Y-2.3793
X9.7383Y-2.5352
X9.7647Y-3.4802
X9.7715Y-2.7651
X9.7833Y-2.4573
X9.8284Y-2.3793
X9.8284Y-2.5352
X9.8647Y-3.4802
X9.8715Y-2.7651
X9.8735Y-2.4573
X9.9186Y-2.3793
X9.9186Y-2.5352
X9.9637Y-2.4573
X9.9647Y-3.4802
X9.9715Y-2.7651
X10.0087Y-2.3793
X10.0087Y-2.5352
X10.0307Y-11.3122
X10.0307Y-11.4122
X10.0647Y-3.4802
X10.0715Y-2.7651
X10.1307Y-11.3122
X10.1307Y-11.4122
X10.1467Y-3.6942
X10.1647Y-3.4802
X10.2307Y-11.3122
X10.2307Y-11.4122
X10.2467Y-3.6942
X10.2647Y-3.4802
X10.3307Y-11.3122
X10.3307Y-11.4122
X10.3627Y-3.008
X10.3627Y-3.108
X10.4247Y-10.3482
X10.4247Y-10.4482
X10.4247Y-10.5482
X10.4247Y-10.6482
X10.4247Y-10.7482
X10.4247Y-10.8482
X10.4247Y-10.9482
X10.4247Y-11.0482
X10.4307Y-11.3122
X10.4307Y-11.4122
X10.4917Y-3.6652
X10.4917Y-4.6668
X10.4928Y-5.0582
X10.4928Y-6.0598
X10.5127Y-9.1762
X10.5127Y-9.2762
X10.5167Y-9.5882
X10.5167Y-9.6882
X10.5247Y-10.3482
X10.5247Y-10.4482
X10.5247Y-10.5482
X10.5247Y-10.6482
X10.5247Y-10.7482
X10.5247Y-10.8482
X10.5247Y-10.9482
X10.5247Y-11.0482
X10.5307Y-11.3122
X10.5307Y-11.4122
X10.5327Y-9.9722
X10.5327Y-10.0722
X10.5917Y-3.6652
X10.5917Y-4.6668
X10.5928Y-5.0582
X10.5928Y-6.0598
X10.6307Y-11.3122
X10.6307Y-11.4122
X10.6917Y-3.6652
X10.6917Y-4.6668
X10.6928Y-5.0582
X10.6928Y-6.0598
X10.7307Y-11.3122
X10.7307Y-11.4122
X10.7907Y-6.3482
X10.7907Y-6.4482
X10.7907Y-6.5482
X10.7917Y-3.6652
X10.7917Y-4.6668
X10.7928Y-5.0582
X10.7928Y-6.0598
X10.8307Y-11.3122
X10.8307Y-11.4122
X10.8917Y-3.6652
X10.8917Y-4.6668
X10.8928Y-5.0582
X10.8928Y-6.0598
X10.9307Y-11.3122
X10.9307Y-11.4122
X10.9917Y-3.6652
X10.9917Y-4.6668
X10.9928Y-5.0582
X10.9928Y-6.0598
X11.0307Y-11.3122
X11.0307Y-11.4122
X11.0917Y-3.6652
X11.0917Y-4.6668
X11.0928Y-5.0582
X11.0928Y-6.0598
X11.1307Y-11.3122
X11.1307Y-11.4122
X11.1917Y-3.6652
X11.1917Y-4.6668
X11.1928Y-5.0582
X11.1928Y-6.0598
X11.2307Y-11.3122
X11.2307Y-11.4122
X11.2483Y-3.008
X11.2483Y-3.108
X11.2483Y-3.208
X11.2483Y-3.308
X11.2917Y-3.6652
X11.2917Y-4.6668
X11.2928Y-5.0582
X11.2928Y-6.0598
X11.3917Y-3.6652
X11.3917Y-4.6668
X11.3928Y-5.0582
X11.3928Y-6.0598
X11.4917Y-3.6652
X11.4917Y-4.6668
X11.4928Y-5.0582
X11.4928Y-6.0598
X11.5807Y-11.3662
X11.5917Y-3.6652
X11.5917Y-4.6668
X11.5928Y-5.0582
X11.5928Y-6.0598
X11.6689Y-2.8784
X11.6689Y-2.9784
X11.6807Y-11.3662
X11.6917Y-3.6652
X11.6917Y-4.6668
X11.6928Y-5.0582
X11.6928Y-6.0598
X11.7689Y-2.8784
X11.7689Y-2.9784
X11.7807Y-11.3662
X11.7847Y-9.0522
X11.7847Y-9.1522
X11.7847Y-9.2522
X11.7847Y-9.3522
X11.7847Y-9.4522
X11.7917Y-3.6652
X11.7917Y-4.6668
X11.7928Y-5.0582
X11.7928Y-6.0598
X11.8689Y-2.8784
X11.8689Y-2.9784
X11.8847Y-9.0522
X11.8847Y-9.1522
X11.8847Y-9.2522
X11.8847Y-9.3522
X11.8847Y-9.4522
X11.8917Y-3.6652
X11.8917Y-4.6668
X11.8928Y-5.0582
X11.8928Y-6.0598
X11.9689Y-2.8784
X11.9689Y-2.9784
X12.0447Y-9.0242
X12.0447Y-9.1242
X12.0447Y-9.2242
X12.0447Y-9.3242
X12.0447Y-9.4242
X12.0447Y-9.5242
X12.0689Y-2.8784
X12.0689Y-2.9784
X12.1207Y-8.2902
X12.1207Y-8.3902
T7
X2.8687Y-3.2152
X2.8687Y-3.3152
X2.8687Y-3.4152
X2.8687Y-3.5152
X2.8687Y-3.6152
X2.8687Y-3.7152
X2.8687Y-3.8152
X2.8687Y-3.9152
X2.8687Y-4.0152
X2.8687Y-4.1152
X2.8687Y-4.2152
X2.8687Y-4.3152
X2.8687Y-4.4152
X2.8687Y-4.5152
X2.8687Y-4.6152
X2.8687Y-4.7152
X2.8687Y-4.8152
X2.8687Y-4.9152
X2.8687Y-5.0152
X2.8687Y-5.1152
X2.8687Y-5.2152
X2.8687Y-5.3152
X2.8687Y-5.4152
X2.8687Y-5.5152
X2.8687Y-5.6152
X2.8687Y-5.7152
X2.8687Y-5.8152
X2.8687Y-5.9152
X2.8687Y-6.0152
X2.8687Y-6.1152
X2.8687Y-6.2152
X3.0687Y-3.2152
X3.0687Y-3.3152
X3.0687Y-3.4152
X3.0687Y-3.5152
X3.0687Y-3.6152
X3.0687Y-3.7152
X3.0687Y-3.8152
X3.0687Y-3.9152
X3.0687Y-4.0152
X3.0687Y-4.1152
X3.0687Y-4.2152
X3.0687Y-4.3152
X3.0687Y-4.4152
X3.0687Y-4.5152
X3.0687Y-4.6152
X3.0687Y-4.7152
X3.0687Y-4.8152
X3.0687Y-4.9152
X3.0687Y-5.0152
X3.0687Y-5.1152
X3.0687Y-5.2152
X3.0687Y-5.3152
X3.0687Y-5.4152
X3.0687Y-5.5152
X3.0687Y-5.6152
X3.0687Y-5.7152
X3.0687Y-5.8152
X3.0687Y-5.9152
X3.0687Y-6.0152
X3.0687Y-6.1152
X3.0687Y-6.2152
X3.6687Y-3.2152
X3.6687Y-3.3152
X3.6687Y-3.4152
X3.6687Y-3.5152
X3.6687Y-3.6152
X3.6687Y-3.7152
X3.6687Y-3.8152
X3.6687Y-3.9152
X3.6687Y-4.0152
X3.6687Y-4.1152
X3.6687Y-4.2152
X3.6687Y-4.3152
X3.6687Y-4.4152
X3.6687Y-4.5152
X3.6687Y-4.6152
X3.6687Y-4.7152
X3.6687Y-4.8152
X3.6687Y-4.9152
X3.6687Y-5.0152
X3.6687Y-5.1152
X3.6687Y-5.2152
X3.6687Y-5.3152
X3.6687Y-5.4152
X3.6687Y-5.5152
X3.6687Y-5.6152
X3.6687Y-5.7152
X3.6687Y-5.8152
X3.6687Y-5.9152
X3.6687Y-6.0152
X3.6687Y-6.1152
X3.6687Y-6.2152
X3.8687Y-3.2152
X3.8687Y-3.3152
X3.8687Y-3.4152
X3.8687Y-3.5152
X3.8687Y-3.6152
X3.8687Y-3.7152
X3.8687Y-3.8152
X3.8687Y-3.9152
X3.8687Y-4.0152
X3.8687Y-4.1152
X3.8687Y-4.2152
X3.8687Y-4.3152
X3.8687Y-4.4152
X3.8687Y-4.5152
X3.8687Y-4.6152
X3.8687Y-4.7152
X3.8687Y-4.8152
X3.8687Y-4.9152
X3.8687Y-5.0152
X3.8687Y-5.1152
X3.8687Y-5.2152
X3.8687Y-5.3152
X3.8687Y-5.4152
X3.8687Y-5.5152
X3.8687Y-5.6152
X3.8687Y-5.7152
X3.8687Y-5.8152
X3.8687Y-5.9152
X3.8687Y-6.0152
X3.8687Y-6.1152
X3.8687Y-6.2152
X4.4687Y-3.2152
X4.4687Y-3.3152
X4.4687Y-3.4152
X4.4687Y-3.5152
X4.4687Y-3.6152
X4.4687Y-3.7152
X4.4687Y-3.8152
X4.4687Y-3.9152
X4.4687Y-4.0152
X4.4687Y-4.1152
X4.4687Y-4.2152
X4.4687Y-4.3152
X4.4687Y-4.4152
X4.4687Y-4.5152
X4.4687Y-4.6152
X4.4687Y-4.7152
X4.4687Y-4.8152
X4.4687Y-4.9152
X4.4687Y-5.0152
X4.4687Y-5.1152
X4.4687Y-5.2152
X4.4687Y-5.3152
X4.4687Y-5.4152
X4.4687Y-5.5152
X4.4687Y-5.6152
X4.4687Y-5.7152
X4.4687Y-5.8152
X4.4687Y-5.9152
X4.4687Y-6.0152
X4.4687Y-6.1152
X4.4687Y-6.2152
X4.6687Y-3.2152
X4.6687Y-3.3152
X4.6687Y-3.4152
X4.6687Y-3.5152
X4.6687Y-3.6152
X4.6687Y-3.7152
X4.6687Y-3.8152
X4.6687Y-3.9152
X4.6687Y-4.0152
X4.6687Y-4.1152
X4.6687Y-4.2152
X4.6687Y-4.3152
X4.6687Y-4.4152
X4.6687Y-4.5152
X4.6687Y-4.6152
X4.6687Y-4.7152
X4.6687Y-4.8152
X4.6687Y-4.9152
X4.6687Y-5.0152
X4.6687Y-5.1152
X4.6687Y-5.2152
X4.6687Y-5.3152
X4.6687Y-5.4152
X4.6687Y-5.5152
X4.6687Y-5.6152
X4.6687Y-5.7152
X4.6687Y-5.8152
X4.6687Y-5.9152
X4.6687Y-6.0152
X4.6687Y-6.1152
X4.6687Y-6.2152
X5.2687Y-3.2152
X5.2687Y-3.3152
X5.2687Y-3.4152
X5.2687Y-3.5152
X5.2687Y-3.6152
X5.2687Y-3.7152
X5.2687Y-3.8152
X5.2687Y-3.9152
X5.2687Y-4.0152
X5.2687Y-4.1152
X5.2687Y-4.2152
X5.2687Y-4.3152
X5.2687Y-4.4152
X5.2687Y-4.5152
X5.2687Y-4.6152
X5.2687Y-4.7152
X5.2687Y-4.8152
X5.2687Y-4.9152
X5.2687Y-5.0152
X5.2687Y-5.1152
X5.2687Y-5.2152
X5.2687Y-5.3152
X5.2687Y-5.4152
X5.2687Y-5.5152
X5.2687Y-5.6152
X5.2687Y-5.7152
X5.2687Y-5.8152
X5.2687Y-5.9152
X5.2687Y-6.0152
X5.2687Y-6.1152
X5.2687Y-6.2152
X5.4687Y-3.2152
X5.4687Y-3.3152
X5.4687Y-3.4152
X5.4687Y-3.5152
X5.4687Y-3.6152
X5.4687Y-3.7152
X5.4687Y-3.8152
X5.4687Y-3.9152
X5.4687Y-4.0152
X5.4687Y-4.1152
X5.4687Y-4.2152
X5.4687Y-4.3152
X5.4687Y-4.4152
X5.4687Y-4.5152
X5.4687Y-4.6152
X5.4687Y-4.7152
X5.4687Y-4.8152
X5.4687Y-4.9152
X5.4687Y-5.0152
X5.4687Y-5.1152
X5.4687Y-5.2152
X5.4687Y-5.3152
X5.4687Y-5.4152
X5.4687Y-5.5152
X5.4687Y-5.6152
X5.4687Y-5.7152
X5.4687Y-5.8152
X5.4687Y-5.9152
X5.4687Y-6.0152
X5.4687Y-6.1152
X5.4687Y-6.2152
X6.0687Y-3.2152
X6.0687Y-3.3152
X6.0687Y-3.4152
X6.0687Y-3.5152
X6.0687Y-3.6152
X6.0687Y-3.7152
X6.0687Y-3.8152
X6.0687Y-3.9152
X6.0687Y-4.0152
X6.0687Y-4.1152
X6.0687Y-4.2152
X6.0687Y-4.3152
X6.0687Y-4.4152
X6.0687Y-4.5152
X6.0687Y-4.6152
X6.0687Y-4.7152
X6.0687Y-4.8152
X6.0687Y-4.9152
X6.0687Y-5.0152
X6.0687Y-5.1152
X6.0687Y-5.2152
X6.0687Y-5.3152
X6.0687Y-5.4152
X6.0687Y-5.5152
X6.0687Y-5.6152
X6.0687Y-5.7152
X6.0687Y-5.8152
X6.0687Y-5.9152
X6.0687Y-6.0152
X6.0687Y-6.1152
X6.0687Y-6.2152
X6.2687Y-3.2152
X6.2687Y-3.3152
X6.2687Y-3.4152
X6.2687Y-3.5152
X6.2687Y-3.6152
X6.2687Y-3.7152
X6.2687Y-3.8152
X6.2687Y-3.9152
X6.2687Y-4.0152
X6.2687Y-4.1152
X6.2687Y-4.2152
X6.2687Y-4.3152
X6.2687Y-4.4152
X6.2687Y-4.5152
X6.2687Y-4.6152
X6.2687Y-4.7152
X6.2687Y-4.8152
X6.2687Y-4.9152
X6.2687Y-5.0152
X6.2687Y-5.1152
X6.2687Y-5.2152
X6.2687Y-5.3152
X6.2687Y-5.4152
X6.2687Y-5.5152
X6.2687Y-5.6152
X6.2687Y-5.7152
X6.2687Y-5.8152
X6.2687Y-5.9152
X6.2687Y-6.0152
X6.2687Y-6.1152
X6.2687Y-6.2152
T8
X3.5117Y-11.3171
X3.5117Y-11.7171
X3.7557Y-11.3171
X3.7557Y-11.7171
X10.6177Y-2.9014
X10.6177Y-3.3014
X10.8237Y-2.8474
X10.8237Y-3.2474
X12.0767Y-5.6522
X12.0767Y-6.0522
X12.0827Y-4.2802
X12.0827Y-4.6802
T9
X6.5126Y-11.4302
X6.5126Y-11.6468
X6.678Y-11.4302
X6.678Y-11.6468
X6.8433Y-11.4302
X6.8433Y-11.6468
X7.0087Y-11.4302
X7.0087Y-11.6468
X7.174Y-11.4302
X7.174Y-11.6468
X7.3394Y-11.4302
X7.3394Y-11.6468
X7.5047Y-11.4302
X7.5047Y-11.6468
X7.6701Y-11.4302
X7.6701Y-11.6468
X7.8354Y-11.4302
X7.8354Y-11.6468
X8.0008Y-11.4302
X8.0008Y-11.6468
T10
X10.5968Y-2.4621
X10.8625Y-2.4307
X11.1302Y-2.4621
X11.3368Y-2.4607
X11.6025Y-2.4293
X11.8702Y-2.4607
T11
X3.2677Y-2.6131
X3.2677Y-8.7131
X3.2677Y-11.5631
X4.0677Y-2.6131
X4.0677Y-8.7131
X4.0677Y-11.5631
X5.8677Y-2.6131
X5.8677Y-8.7131
X5.8677Y-11.5631
X9.3259Y-2.4545
X10.3101Y-2.4545
X12.0677Y-3.5131
X12.0677Y-8.7131
X12.0677Y-11.5631
M30
