M48
; DRILL file {KiCad 8.0.6} date 2025-05-19T16:18:46-0500
; FORMAT={-:-/ absolute / inch / decimal}
; #@! TF.CreationDate,2025-05-19T16:18:46-05:00
; #@! TF.GenerationSoftware,Kicad,Pcbnew,8.0.6
; #@! TF.FileFunction,Plated,1,2,PTH
FMAT,2
INCH
; #@! TA.AperFunction,Plated,PTH,ViaDrill
T1C0.0157
; #@! TA.AperFunction,Plated,PTH,ComponentDrill
T2C0.0197
; #@! TA.AperFunction,Plated,PTH,ComponentDrill
T3C0.0295
; #@! TA.AperFunction,Plated,PTH,ComponentDrill
T4C0.0315
; #@! TA.AperFunction,Plated,PTH,ComponentDrill
T5C0.0394
; #@! TA.AperFunction,Plated,PTH,ComponentDrill
T6C0.0400
; #@! TA.AperFunction,Plated,PTH,ComponentDrill
T7C0.0433
; #@! TA.AperFunction,Plated,PTH,ComponentDrill
T8C0.0669
; #@! TA.AperFunction,Plated,PTH,ComponentDrill
T9C0.1260
%
G90
G05
T1
X2.9496Y-3.092
X2.9592Y-3.1863
X2.999Y-3.5661
X3.0497Y-2.994
X3.0608Y-7.037
X3.0883Y-7.7384
X3.1144Y-6.9362
X3.2248Y-4.1119
X3.2357Y-6.9024
X3.3389Y-5.5151
X3.3731Y-3.501
X3.388Y-7.3784
X3.4159Y-7.6657
X3.443Y-7.7224
X3.4619Y-9.7115
X3.4745Y-7.6577
X3.504Y-7.3326
X3.5257Y-3.1516
X3.5377Y-7.8056
X3.5633Y-5.9617
X3.6975Y-8.1859
X3.7149Y-8.412
X3.7286Y-3.1005
X3.7318Y-10.4408
X3.7323Y-3.1951
X3.7718Y-7.4483
X3.7737Y-4.0146
X3.7953Y-7.7372
X3.8178Y-10.4958
X3.8181Y-3.5898
X3.8417Y-10.0674
X3.8644Y-8.5387
X3.8926Y-7.8379
X3.9206Y-6.2596
X3.935Y-8.6248
X3.9884Y-3.2088
X4.0015Y-5.5825
X4.0099Y-6.7319
X4.0166Y-6.5656
X4.0173Y-6.6094
X4.0281Y-3.1745
X4.038Y-8.5442
X4.0394Y-4.0169
X4.0618Y-9.7715
X4.0618Y-10.3247
X4.0727Y-3.4152
X4.0817Y-6.4733
X4.0823Y-3.1762
X4.0879Y-9.8857
X4.1035Y-8.5027
X4.1333Y-10.08
X4.1438Y-3.3328
X4.149Y-6.5898
X4.1531Y-7.8203
X4.1546Y-5.4876
X4.1792Y-3.7152
X4.1832Y-3.4854
X4.1996Y-7.9553
X4.2549Y-3.5152
X4.2915Y-9.8158
X4.3065Y-6.5033
X4.3149Y-10.0797
X4.317Y-10.3128
X4.3295Y-8.2713
X4.333Y-8.5258
X4.3334Y-11.1666
X4.3351Y-6.5474
X4.3533Y-8.6112
X4.361Y-10.4888
X4.361Y-3.4543
X4.3684Y-9.8493
X4.385Y-5.568
X4.4066Y-6.0112
X4.4385Y-7.402
X4.4398Y-7.5575
X4.4522Y-8.4973
X4.4697Y-6.6591
X4.5132Y-3.9549
X4.5266Y-10.7712
X4.5323Y-9.7345
X4.5323Y-10.5201
X4.5345Y-10.1855
X4.5491Y-7.2373
X4.553Y-3.9139
X4.569Y-10.0351
X4.6481Y-6.552
X4.6581Y-6.9131
X4.697Y-10.5411
X4.7023Y-10.4314
X4.7109Y-10.7703
X4.7439Y-11.0282
X4.7599Y-9.998
X4.7683Y-5.3286
X4.7859Y-6.4441
X4.8058Y-3.7118
X4.8436Y-8.5829
X4.8743Y-7.402
X4.8796Y-8.6286
X4.8996Y-3.0048
X4.8996Y-3.9854
X4.9294Y-6.4216
X4.9312Y-6.3133
X4.9431Y-3.2168
X4.945Y-3.0692
X4.9742Y-6.3815
X4.9777Y-9.7094
X4.9949Y-3.0322
X4.9955Y-6.5684
X4.9978Y-3.9152
X5.0171Y-10.8571
X5.0322Y-11.5254
X5.0851Y-5.7094
X5.0882Y-10.1246
X5.095Y-8.1626
X5.1195Y-9.5035
X5.1362Y-9.381
X5.148Y-7.9123
X5.1733Y-7.1045
X5.217Y-7.4463
X5.289Y-9.4162
X5.3212Y-10.9074
X5.3585Y-10.6643
X5.3624Y-9.0425
X5.3935Y-11.1175
X5.3935Y-3.5238
X5.4152Y-10.301
X5.4311Y-7.3286
X5.4597Y-8.6387
X5.4611Y-9.8254
X5.468Y-10.4609
X5.4782Y-6.6766
X5.5155Y-9.6358
X5.5242Y-6.6576
X5.5339Y-6.4039
X5.5363Y-6.3068
X5.5721Y-6.2114
X5.5991Y-4.6263
X5.6058Y-7.4156
X5.6066Y-10.393
X5.6067Y-8.6922
X5.6098Y-9.9913
X5.6205Y-3.1573
X5.7167Y-5.4782
X5.7256Y-3.4164
X5.7775Y-9.9233
X5.7775Y-10.3127
X5.8803Y-3.6152
X5.8833Y-7.6802
X5.8836Y-11.1604
X5.8853Y-6.7745
X5.9Y-8.2327
X5.9245Y-7.6482
X5.9546Y-5.7136
X5.9753Y-6.7143
X5.9845Y-8.0212
X5.9967Y-11.3119
X5.9973Y-9.8618
X6.0173Y-6.6966
X6.0934Y-7.5855
X6.0934Y-6.9488
X6.1091Y-9.4656
X6.133Y-6.7058
X6.1838Y-6.9203
X6.1865Y-6.8431
X6.1919Y-9.671
X6.2036Y-7.5057
X6.2119Y-7.8161
X6.2176Y-7.4049
X6.232Y-7.1774
X6.2397Y-6.3361
X6.2586Y-7.9988
X6.2615Y-7.1227
X6.3723Y-3.3041
X6.3801Y-8.3885
X6.3862Y-5.3599
X6.4519Y-8.4445
X6.4697Y-9.5029
X6.4702Y-9.8652
X6.4754Y-3.3089
X6.5128Y-3.1458
X6.5525Y-8.2658
X6.558Y-10.8441
X6.558Y-11.0682
X6.5592Y-7.302
X6.5833Y-10.0456
X6.612Y-8.1606
X6.6306Y-8.1035
X6.6442Y-3.8547
X6.6518Y-10.3841
X6.6608Y-10.0719
X6.6654Y-10.5419
X6.6654Y-3.1906
X6.6658Y-10.0087
X6.67Y-10.6449
X6.68Y-10.3152
X6.6826Y-5.827
X6.686Y-10.2305
X6.6861Y-8.1606
X6.6889Y-8.7021
X6.7067Y-8.7423
X6.7193Y-10.6359
X6.7195Y-5.7902
X6.7382Y-8.8902
X6.7684Y-4.157
X6.785Y-10.9541
X6.7933Y-9.9797
X6.8333Y-8.9114
X6.8407Y-7.0091
X6.8742Y-7.057
X6.9054Y-8.8399
X6.9604Y-7.2549
X6.9638Y-10.6976
X6.9743Y-3.5221
X6.9998Y-10.9372
X7.0104Y-9.5676
X7.0214Y-10.7801
X7.0316Y-6.8931
X7.0449Y-6.4023
X7.0742Y-8.2071
X7.1142Y-9.8095
X7.1367Y-10.6318
X7.1423Y-6.1974
X7.1503Y-8.2986
X7.1775Y-6.2687
X7.1808Y-5.1828
X7.19Y-5.5112
X7.2271Y-7.8927
X7.2427Y-9.8978
X7.249Y-10.0177
X7.2506Y-5.4267
X7.2519Y-9.1583
X7.2569Y-7.7577
X7.2633Y-4.7207
X7.2696Y-4.0404
X7.2707Y-3.7095
X7.2724Y-9.2929
X7.2739Y-10.9158
X7.2748Y-8.3737
X7.3165Y-3.7095
X7.3179Y-5.4661
X7.3501Y-8.0046
X7.3559Y-6.3355
X7.3652Y-4.7693
X7.3913Y-8.0046
X7.3929Y-10.1065
X7.4076Y-8.9862
X7.4205Y-5.4631
X7.4369Y-4.7888
X7.4389Y-9.9859
X7.4464Y-6.3134
X7.4697Y-11.1761
X7.4786Y-6.233
X7.4812Y-5.8414
X7.491Y-8.8015
X7.5012Y-6.3512
X7.5242Y-8.5913
X7.5316Y-6.1212
X7.5399Y-5.1599
X7.5432Y-4.9551
X7.5458Y-4.5879
X7.5574Y-6.3542
X7.5644Y-8.7474
X7.5678Y-3.5411
X7.5767Y-6.1574
X7.602Y-4.7828
X7.6149Y-6.415
X7.6153Y-8.6598
X7.6186Y-2.7387
X7.6788Y-3.4953
X7.7577Y-8.0297
X7.7707Y-4.4755
X7.7907Y-9.8302
X7.7926Y-8.4661
X7.8033Y-7.9559
X7.8433Y-4.0689
X7.854Y-8.062
X7.8691Y-5.157
X7.8756Y-9.9727
X7.8986Y-5.2584
X7.8987Y-9.6651
X7.8999Y-3.9473
X7.9357Y-8.4333
X7.9398Y-7.2578
X7.9442Y-10.049
X7.9461Y-7.5482
X7.9514Y-8.5928
X8.0055Y-3.6146
X8.0591Y-8.3634
X8.0792Y-6.3421
X8.0797Y-6.7897
X8.0929Y-5.7003
X8.0966Y-5.6362
X8.1103Y-11.7485
X8.1205Y-9.6309
X8.1556Y-5.6373
X8.1657Y-10.2422
X8.1746Y-10.4317
X8.1772Y-6.9509
X8.1772Y-8.5061
X8.1874Y-5.6122
X8.1923Y-8.7503
X8.2075Y-7.8653
X8.2585Y-3.8617
X8.2594Y-8.7672
X8.2684Y-6.886
X8.2789Y-5.4206
X8.3566Y-3.251
X8.3774Y-6.5085
X8.3792Y-9.9854
X8.3817Y-3.9108
X8.4113Y-3.873
X8.4148Y-5.8196
X8.433Y-3.6426
X8.5254Y-7.541
X8.5309Y-11.5773
X8.5469Y-8.658
X8.5983Y-3.6261
X8.5985Y-7.9259
X8.6678Y-3.6995
X8.6943Y-11.4306
X8.7385Y-6.8226
X8.7906Y-5.2272
X8.7906Y-5.5665
X8.8159Y-6.9367
X8.8224Y-3.6255
X8.831Y-8.3351
X8.8318Y-3.8708
X8.9059Y-7.3071
X8.9336Y-6.717
X8.9368Y-6.5984
X8.9429Y-4.7399
X8.9665Y-5.6588
X9.0075Y-7.1307
X9.0075Y-5.6302
X9.0186Y-8.5263
X9.0195Y-4.4257
X9.0277Y-3.3196
X9.0577Y-8.3961
X9.0747Y-9.3867
X9.0828Y-8.3086
X9.0834Y-5.5272
X9.0864Y-5.0272
X9.0864Y-5.3749
X9.1112Y-6.3631
X9.1352Y-9.4103
X9.1397Y-8.1492
X9.1484Y-8.3716
X9.1649Y-9.4411
X9.1809Y-9.0058
X9.1875Y-7.6486
X9.1984Y-8.6535
X9.199Y-9.312
X9.2385Y-9.6888
X9.2537Y-7.8409
X9.3325Y-6.481
X9.3346Y-4.5993
X9.3596Y-8.0646
X9.4364Y-4.5649
X9.4609Y-6.8855
X9.4817Y-11.3143
X9.4963Y-8.2858
X9.5065Y-5.9405
X9.5494Y-2.9938
X9.5558Y-4.6727
X9.5799Y-5.8196
X9.6092Y-5.7434
X9.6453Y-6.1507
X9.6454Y-6.2941
X9.688Y-6.1097
X9.7408Y-4.3019
X9.7746Y-6.261
X9.7765Y-4.1899
X9.7847Y-5.6588
X9.8054Y-4.1231
X9.8062Y-6.3486
X9.8282Y-4.4106
X9.8366Y-5.1519
X9.8376Y-4.029
X9.8404Y-6.6687
X9.8486Y-3.5017
X9.8579Y-3.3443
X9.8759Y-4.4061
X9.8816Y-5.8286
X9.9215Y-4.4003
X9.9849Y-4.9701
X9.987Y-8.036
X10.011Y-4.4076
X10.0334Y-4.1759
X10.0389Y-4.379
X10.0488Y-3.4563
X10.1031Y-4.4069
X10.1416Y-9.1562
X10.1608Y-4.6153
X10.1694Y-3.0501
X10.2401Y-5.2254
X10.2512Y-4.4984
X10.2603Y-6.4812
X10.2755Y-2.9697
X10.2954Y-8.5355
X10.2971Y-7.9943
X10.311Y-7.0465
X10.3149Y-8.0351
X10.3315Y-9.5466
X10.3442Y-7.0147
X10.3904Y-10.0266
X10.3949Y-7.1356
X10.3976Y-3.1514
X10.4077Y-9.9268
X10.4359Y-5.5434
X10.4382Y-7.9966
X10.4465Y-8.067
X10.4504Y-8.4899
X10.6706Y-8.2306
X10.6756Y-7.3998
X10.6847Y-8.1903
X10.6859Y-7.6756
X10.8947Y-6.5208
X11.0756Y-7.6743
X11.0773Y-7.8142
X11.1442Y-9.4991
X11.179Y-10.6791
X11.3283Y-7.1578
X11.3803Y-9.9052
X11.6827Y-8.5807
T2
X10.8036Y-4.8647
X10.8036Y-4.9238
T3
X7.513Y-8.241
X7.563Y-8.191
X7.613Y-8.241
T4
X2.8231Y-6.802
X2.931Y-7.002
X2.931Y-7.102
X2.931Y-7.202
X2.931Y-7.302
X2.931Y-7.402
X2.931Y-7.502
X2.931Y-7.602
X2.931Y-7.702
X2.931Y-7.802
X2.931Y-7.902
X2.931Y-8.002
X2.931Y-8.102
X2.931Y-8.202
X2.931Y-8.302
X2.9757Y-11.4129
X2.9757Y-11.7129
X3.0035Y-9.5564
X3.0035Y-9.6564
X3.0035Y-9.7564
X3.0035Y-9.8564
X3.0035Y-9.9564
X3.0035Y-10.0564
X3.0035Y-10.1564
X3.0035Y-10.2564
X3.0035Y-10.3564
X3.0035Y-10.4564
X3.0035Y-10.5564
X3.0035Y-10.6564
X3.0035Y-10.7564
X3.0035Y-10.8564
X3.0035Y-10.9564
X3.0035Y-11.0564
X3.02Y-6.802
X3.2069Y-9.3002
X3.231Y-7.002
X3.231Y-7.102
X3.231Y-7.202
X3.231Y-7.302
X3.231Y-7.402
X3.231Y-7.502
X3.231Y-7.602
X3.231Y-7.702
X3.231Y-7.802
X3.231Y-7.902
X3.231Y-8.002
X3.231Y-8.102
X3.231Y-8.202
X3.231Y-8.302
X3.2625Y-6.4012
X3.286Y-2.888
X3.2883Y-4.6562
X3.3867Y-4.6562
X3.4037Y-9.3002
X3.44Y-5.025
X3.44Y-5.325
X3.4594Y-6.4012
X3.5041Y-6.801
X3.581Y-8.043
X3.581Y-8.343
X3.586Y-2.888
X3.6035Y-9.5564
X3.6035Y-9.6564
X3.6035Y-9.7564
X3.6035Y-9.8564
X3.6035Y-9.9564
X3.6035Y-10.0564
X3.6035Y-10.1564
X3.6035Y-10.2564
X3.6035Y-10.3564
X3.6035Y-10.4564
X3.6035Y-10.5564
X3.6035Y-10.6564
X3.6035Y-10.7564
X3.6035Y-10.8564
X3.6035Y-10.9564
X3.6035Y-11.0564
X3.6194Y-7.002
X3.6194Y-7.102
X3.6194Y-7.202
X3.6194Y-7.302
X3.6194Y-7.402
X3.6194Y-7.502
X3.6194Y-7.602
X3.6194Y-7.702
X3.681Y-8.043
X3.681Y-8.343
X3.701Y-6.801
X3.781Y-8.043
X3.781Y-8.343
X3.881Y-8.043
X3.881Y-8.343
X3.889Y-10.815
X3.889Y-11.115
X3.9194Y-7.002
X3.9194Y-7.102
X3.9194Y-7.202
X3.9194Y-7.302
X3.9194Y-7.402
X3.9194Y-7.502
X3.9194Y-7.602
X3.9194Y-7.702
X3.92Y-9.58
X3.92Y-9.68
X3.92Y-9.78
X3.92Y-9.88
X3.92Y-9.98
X3.92Y-10.08
X3.92Y-10.18
X3.92Y-10.28
X3.92Y-10.38
X3.92Y-10.48
X3.981Y-8.043
X3.981Y-8.343
X3.9981Y-9.299
X4.0525Y-6.3792
X4.081Y-8.043
X4.081Y-8.343
X4.1075Y-4.6562
X4.181Y-8.043
X4.181Y-8.343
X4.1931Y-6.803
X4.195Y-9.299
X4.199Y-10.803
X4.199Y-11.103
X4.2059Y-4.6562
X4.22Y-9.58
X4.22Y-9.68
X4.22Y-9.78
X4.22Y-9.88
X4.22Y-9.98
X4.22Y-10.08
X4.22Y-10.18
X4.22Y-10.28
X4.22Y-10.38
X4.22Y-10.48
X4.2494Y-6.3792
X4.281Y-8.043
X4.281Y-8.343
X4.2916Y-11.316
X4.3078Y-7.002
X4.3078Y-7.102
X4.3078Y-7.202
X4.3078Y-7.302
X4.3078Y-7.402
X4.3078Y-7.502
X4.3078Y-7.602
X4.3078Y-7.702
X4.39Y-6.803
X4.39Y-11.316
X4.518Y-8.0941
X4.518Y-8.291
X4.6078Y-7.002
X4.6078Y-7.102
X4.6078Y-7.202
X4.6078Y-7.302
X4.6078Y-7.402
X4.6078Y-7.502
X4.6078Y-7.602
X4.6078Y-7.702
X4.629Y-9.698
X4.629Y-9.798
X4.629Y-9.898
X4.629Y-9.998
X4.629Y-10.098
X4.629Y-10.198
X4.629Y-10.298
X4.629Y-10.398
X4.629Y-10.498
X4.629Y-10.598
X4.629Y-10.698
X4.629Y-10.798
X4.629Y-10.898
X4.629Y-10.998
X4.6437Y-11.3352
X4.6437Y-11.6352
X4.7437Y-11.3352
X4.7437Y-11.6352
X4.8437Y-11.3352
X4.8437Y-11.6352
X4.8527Y-6.3382
X4.856Y-6.799
X4.9335Y-4.6562
X4.9437Y-11.3352
X4.9437Y-11.6352
X4.991Y-8.447
X4.991Y-8.547
X4.991Y-8.647
X4.991Y-8.747
X4.991Y-8.847
X4.991Y-8.947
X4.991Y-9.047
X4.9961Y-7.002
X4.9961Y-7.102
X4.9961Y-7.202
X4.9961Y-7.302
X4.9961Y-7.402
X4.9961Y-7.502
X4.9961Y-7.602
X4.9961Y-7.702
X4.9961Y-7.802
X4.9961Y-7.902
X5.0319Y-4.6562
X5.0437Y-11.3352
X5.0437Y-11.6352
X5.0496Y-6.3382
X5.0529Y-6.799
X5.1011Y-9.333
X5.1437Y-11.3352
X5.1437Y-11.6352
X5.229Y-9.698
X5.229Y-9.798
X5.229Y-9.898
X5.229Y-9.998
X5.229Y-10.098
X5.229Y-10.198
X5.229Y-10.298
X5.229Y-10.398
X5.229Y-10.498
X5.229Y-10.598
X5.229Y-10.698
X5.229Y-10.798
X5.229Y-10.898
X5.229Y-10.998
X5.2437Y-11.3352
X5.2437Y-11.6352
X5.291Y-8.447
X5.291Y-8.547
X5.291Y-8.647
X5.291Y-8.747
X5.291Y-8.847
X5.291Y-8.947
X5.291Y-9.047
X5.2961Y-7.002
X5.2961Y-7.102
X5.2961Y-7.202
X5.2961Y-7.302
X5.2961Y-7.402
X5.2961Y-7.502
X5.2961Y-7.602
X5.2961Y-7.702
X5.2961Y-7.802
X5.2961Y-7.902
X5.298Y-9.333
X5.4969Y-8.8952
X5.55Y-8.272
X5.562Y-6.803
X5.5925Y-6.3432
X5.6287Y-10.4602
X5.6287Y-10.5602
X5.6287Y-10.6602
X5.6287Y-10.7602
X5.6287Y-10.8602
X5.6287Y-10.9602
X5.6287Y-11.0602
X5.64Y-9.115
X5.64Y-9.215
X5.64Y-9.315
X5.64Y-9.415
X5.64Y-9.515
X5.64Y-9.615
X5.64Y-9.715
X5.64Y-9.815
X5.65Y-8.272
X5.6705Y-10.1562
X5.6845Y-7.002
X5.6845Y-7.102
X5.6845Y-7.202
X5.6845Y-7.302
X5.6845Y-7.402
X5.6845Y-7.502
X5.6845Y-7.602
X5.6845Y-7.702
X5.6937Y-8.8952
X5.7127Y-4.6562
X5.75Y-8.272
X5.7589Y-6.803
X5.7894Y-6.3432
X5.8112Y-4.6562
X5.85Y-8.272
X5.8674Y-10.1562
X5.9287Y-10.4602
X5.9287Y-10.5602
X5.9287Y-10.6602
X5.9287Y-10.7602
X5.9287Y-10.8602
X5.9287Y-10.9602
X5.9287Y-11.0602
X5.94Y-9.115
X5.94Y-9.215
X5.94Y-9.315
X5.94Y-9.415
X5.94Y-9.515
X5.94Y-9.615
X5.94Y-9.715
X5.94Y-9.815
X5.95Y-8.272
X5.9845Y-7.002
X5.9845Y-7.102
X5.9845Y-7.202
X5.9845Y-7.302
X5.9845Y-7.402
X5.9845Y-7.502
X5.9845Y-7.602
X5.9845Y-7.702
X6.05Y-8.272
X6.0527Y-11.2742
X6.15Y-8.272
X6.1512Y-11.2742
X6.2421Y-6.803
X6.25Y-8.272
X6.3037Y-9.1552
X6.3037Y-9.2552
X6.3037Y-9.3552
X6.3037Y-9.4552
X6.3037Y-9.5552
X6.3037Y-9.6552
X6.3037Y-9.7552
X6.3037Y-9.8552
X6.3037Y-9.9552
X6.3037Y-10.0552
X6.3037Y-10.1552
X6.3037Y-10.2552
X6.3037Y-10.3552
X6.3037Y-10.4552
X6.3037Y-10.5552
X6.3037Y-10.6552
X6.3037Y-10.7552
X6.3037Y-10.8552
X6.3037Y-10.9552
X6.3037Y-11.0552
X6.35Y-8.272
X6.3729Y-7.002
X6.3729Y-7.102
X6.3729Y-7.202
X6.3729Y-7.302
X6.3729Y-7.402
X6.3729Y-7.502
X6.3729Y-7.602
X6.3729Y-7.702
X6.3729Y-7.802
X6.3729Y-7.902
X6.439Y-6.803
X6.45Y-8.272
X6.5046Y-4.667
X6.5285Y-6.3752
X6.603Y-4.667
X6.6729Y-7.002
X6.6729Y-7.102
X6.6729Y-7.202
X6.6729Y-7.302
X6.6729Y-7.402
X6.6729Y-7.502
X6.6729Y-7.602
X6.6729Y-7.702
X6.6729Y-7.802
X6.6729Y-7.902
X6.7254Y-6.3752
X6.7541Y-9.01
X6.8751Y-6.799
X6.9037Y-9.1552
X6.9037Y-9.2552
X6.9037Y-9.3552
X6.9037Y-9.4552
X6.9037Y-9.5552
X6.9037Y-9.6552
X6.9037Y-9.7552
X6.9037Y-9.8552
X6.9037Y-9.9552
X6.9037Y-10.0552
X6.9037Y-10.1552
X6.9037Y-10.2552
X6.9037Y-10.3552
X6.9037Y-10.4552
X6.9037Y-10.5552
X6.9037Y-10.6552
X6.9037Y-10.7552
X6.9037Y-10.8552
X6.9037Y-10.9552
X6.9037Y-11.0552
X6.951Y-9.01
X7.0613Y-7.002
X7.0613Y-7.102
X7.0613Y-7.202
X7.0613Y-7.302
X7.0613Y-7.402
X7.0613Y-7.502
X7.0613Y-7.602
X7.0613Y-7.702
X7.0613Y-7.802
X7.0613Y-7.902
X7.072Y-6.799
X7.16Y-8.237
X7.191Y-8.912
X7.191Y-9.012
X7.191Y-9.112
X7.191Y-9.212
X7.191Y-9.312
X7.191Y-9.412
X7.191Y-9.512
X7.191Y-9.612
X7.191Y-9.712
X7.191Y-9.812
X7.201Y-10.176
X7.201Y-10.276
X7.201Y-10.376
X7.201Y-10.476
X7.201Y-10.576
X7.201Y-10.676
X7.201Y-10.776
X7.201Y-10.876
X7.201Y-10.976
X7.201Y-11.076
X7.251Y-6.376
X7.3569Y-8.237
X7.3613Y-7.002
X7.3613Y-7.102
X7.3613Y-7.202
X7.3613Y-7.302
X7.3613Y-7.402
X7.3613Y-7.502
X7.3613Y-7.602
X7.3613Y-7.702
X7.3613Y-7.802
X7.3613Y-7.902
X7.4479Y-6.376
X7.491Y-8.912
X7.491Y-9.012
X7.491Y-9.112
X7.491Y-9.212
X7.491Y-9.312
X7.491Y-9.412
X7.491Y-9.512
X7.491Y-9.612
X7.491Y-9.712
X7.491Y-9.812
X7.501Y-10.176
X7.501Y-10.276
X7.501Y-10.376
X7.501Y-10.476
X7.501Y-10.576
X7.501Y-10.676
X7.501Y-10.776
X7.501Y-10.876
X7.501Y-10.976
X7.501Y-11.076
X7.5591Y-10.005
X7.5701Y-6.79
X7.7496Y-7.002
X7.7496Y-7.102
X7.7496Y-7.202
X7.7496Y-7.302
X7.7496Y-7.402
X7.7496Y-7.502
X7.7496Y-7.602
X7.7496Y-7.702
X7.7496Y-7.802
X7.7496Y-7.902
X7.756Y-10.005
X7.767Y-6.79
X7.971Y-8.912
X7.971Y-9.012
X7.971Y-9.112
X7.971Y-9.212
X7.971Y-9.312
X7.971Y-9.412
X7.971Y-9.512
X7.971Y-10.176
X7.971Y-10.276
X7.971Y-10.376
X7.971Y-10.476
X7.971Y-10.576
X7.971Y-10.676
X7.971Y-10.776
X8.0011Y-8.695
X8.006Y-5.848
X8.006Y-6.0449
X8.006Y-11.047
X8.0191Y-2.876
X8.0496Y-7.002
X8.0496Y-7.102
X8.0496Y-7.202
X8.0496Y-7.302
X8.0496Y-7.402
X8.0496Y-7.502
X8.0496Y-7.602
X8.0496Y-7.702
X8.0496Y-7.802
X8.0496Y-7.902
X8.0711Y-4.431
X8.198Y-8.695
X8.1994Y-3.0968
X8.1994Y-3.1968
X8.1994Y-3.2968
X8.1994Y-3.3968
X8.1994Y-3.4968
X8.1994Y-3.5968
X8.1994Y-3.6968
X8.1994Y-3.7968
X8.1994Y-3.8968
X8.1994Y-3.9968
X8.1994Y-4.6284
X8.1994Y-4.7284
X8.1994Y-4.8284
X8.1994Y-4.9284
X8.1994Y-5.0284
X8.1994Y-5.1284
X8.1994Y-5.2284
X8.1994Y-5.3284
X8.1994Y-5.4284
X8.1994Y-5.5284
X8.1994Y-5.9234
X8.1994Y-6.0234
X8.1994Y-6.1234
X8.1994Y-6.2234
X8.1994Y-6.3234
X8.1994Y-6.4234
X8.1994Y-6.5234
X8.2029Y-11.047
X8.216Y-2.876
X8.2581Y-8.034
X8.268Y-4.431
X8.271Y-8.912
X8.271Y-9.012
X8.271Y-9.112
X8.271Y-9.212
X8.271Y-9.312
X8.271Y-9.412
X8.271Y-9.512
X8.271Y-10.176
X8.271Y-10.276
X8.271Y-10.376
X8.271Y-10.476
X8.271Y-10.576
X8.271Y-10.676
X8.271Y-10.776
X8.306Y-8.234
X8.306Y-8.534
X8.406Y-8.234
X8.406Y-8.534
X8.438Y-7.002
X8.438Y-7.102
X8.438Y-7.202
X8.438Y-7.302
X8.438Y-7.402
X8.438Y-7.502
X8.438Y-7.602
X8.438Y-7.702
X8.4421Y-6.816
X8.455Y-8.034
X8.4994Y-3.0968
X8.4994Y-3.1968
X8.4994Y-3.2968
X8.4994Y-3.3968
X8.4994Y-3.4968
X8.4994Y-3.5968
X8.4994Y-3.6968
X8.4994Y-3.7968
X8.4994Y-3.8968
X8.4994Y-3.9968
X8.4994Y-4.6284
X8.4994Y-4.7284
X8.4994Y-4.8284
X8.4994Y-4.9284
X8.4994Y-5.0284
X8.4994Y-5.1284
X8.4994Y-5.2284
X8.4994Y-5.3284
X8.4994Y-5.4284
X8.4994Y-5.5284
X8.4994Y-5.9234
X8.4994Y-6.0234
X8.4994Y-6.1234
X8.4994Y-6.2234
X8.4994Y-6.3234
X8.4994Y-6.4234
X8.4994Y-6.5234
X8.506Y-8.234
X8.506Y-8.534
X8.5931Y-8.715
X8.606Y-8.234
X8.606Y-8.534
X8.639Y-6.816
X8.693Y-8.912
X8.693Y-9.012
X8.693Y-9.112
X8.693Y-9.212
X8.693Y-9.312
X8.693Y-9.412
X8.693Y-9.512
X8.693Y-10.176
X8.693Y-10.276
X8.693Y-10.376
X8.693Y-10.476
X8.693Y-10.576
X8.693Y-10.676
X8.693Y-10.776
X8.704Y-11.047
X8.706Y-8.234
X8.706Y-8.534
X8.738Y-7.002
X8.738Y-7.102
X8.738Y-7.202
X8.738Y-7.302
X8.738Y-7.402
X8.738Y-7.502
X8.738Y-7.602
X8.738Y-7.702
X8.7751Y-2.894
X8.7891Y-4.614
X8.79Y-8.715
X8.806Y-8.234
X8.806Y-8.534
X8.9009Y-11.047
X8.906Y-8.234
X8.906Y-8.534
X8.912Y-5.931
X8.912Y-6.031
X8.912Y-6.131
X8.912Y-6.231
X8.912Y-6.331
X8.912Y-6.431
X8.912Y-6.531
X8.9121Y-3.0968
X8.9121Y-3.1968
X8.9121Y-3.2968
X8.9121Y-3.3968
X8.9121Y-3.4968
X8.9121Y-3.5968
X8.9121Y-3.6968
X8.9121Y-3.7968
X8.9121Y-3.8968
X8.9121Y-3.9968
X8.9121Y-4.8272
X8.9121Y-4.9272
X8.9121Y-5.0272
X8.9121Y-5.1272
X8.9121Y-5.2272
X8.9121Y-5.3272
X8.9121Y-5.4272
X8.9121Y-5.5272
X8.972Y-2.894
X8.986Y-4.614
X8.9901Y-6.804
X8.993Y-8.912
X8.993Y-9.012
X8.993Y-9.112
X8.993Y-9.212
X8.993Y-9.312
X8.993Y-9.412
X8.993Y-9.512
X8.993Y-10.176
X8.993Y-10.276
X8.993Y-10.376
X8.993Y-10.476
X8.993Y-10.576
X8.993Y-10.676
X8.993Y-10.776
X9.127Y-6.994
X9.127Y-7.094
X9.127Y-7.194
X9.127Y-7.294
X9.127Y-7.394
X9.127Y-7.494
X9.127Y-7.594
X9.127Y-7.694
X9.127Y-7.794
X9.127Y-7.894
X9.187Y-6.804
X9.212Y-5.931
X9.212Y-6.031
X9.212Y-6.131
X9.212Y-6.231
X9.212Y-6.331
X9.212Y-6.431
X9.212Y-6.531
X9.2121Y-3.0968
X9.2121Y-3.1968
X9.2121Y-3.2968
X9.2121Y-3.3968
X9.2121Y-3.4968
X9.2121Y-3.5968
X9.2121Y-3.6968
X9.2121Y-3.7968
X9.2121Y-3.8968
X9.2121Y-3.9968
X9.2121Y-4.8272
X9.2121Y-4.9272
X9.2121Y-5.0272
X9.2121Y-5.1272
X9.2121Y-5.2272
X9.2121Y-5.3272
X9.2121Y-5.4272
X9.2121Y-5.5272
X9.2121Y-8.71
X9.335Y-8.911
X9.335Y-9.011
X9.335Y-9.111
X9.335Y-9.211
X9.335Y-9.311
X9.335Y-9.411
X9.335Y-9.511
X9.335Y-9.611
X9.335Y-9.711
X9.335Y-9.811
X9.336Y-10.21
X9.336Y-10.31
X9.336Y-10.41
X9.336Y-10.51
X9.336Y-10.61
X9.336Y-10.71
X9.336Y-10.81
X9.3671Y-11.09
X9.392Y-8.388
X9.409Y-8.71
X9.413Y-5.8651
X9.413Y-6.062
X9.427Y-6.994
X9.427Y-7.094
X9.427Y-7.194
X9.427Y-7.294
X9.427Y-7.394
X9.427Y-7.494
X9.427Y-7.594
X9.427Y-7.694
X9.427Y-7.794
X9.427Y-7.894
X9.4351Y-2.886
X9.492Y-8.388
X9.5001Y-4.433
X9.564Y-11.09
X9.592Y-8.388
X9.6249Y-3.0968
X9.6249Y-3.1968
X9.6249Y-3.2968
X9.6249Y-3.3968
X9.6249Y-3.4968
X9.6249Y-3.5968
X9.6249Y-3.6968
X9.6249Y-3.7968
X9.6249Y-3.8968
X9.6249Y-3.9968
X9.6249Y-4.6284
X9.6249Y-4.7284
X9.6249Y-4.8284
X9.6249Y-4.9284
X9.6249Y-5.0284
X9.6249Y-5.1284
X9.6249Y-5.2284
X9.6249Y-5.3284
X9.6249Y-5.4284
X9.6249Y-5.5284
X9.632Y-2.886
X9.635Y-8.911
X9.635Y-9.011
X9.635Y-9.111
X9.635Y-9.211
X9.635Y-9.311
X9.635Y-9.411
X9.635Y-9.511
X9.635Y-9.611
X9.635Y-9.711
X9.635Y-9.811
X9.636Y-10.21
X9.636Y-10.31
X9.636Y-10.41
X9.636Y-10.51
X9.636Y-10.61
X9.636Y-10.71
X9.636Y-10.81
X9.6871Y-6.802
X9.692Y-8.388
X9.697Y-4.433
X9.792Y-8.388
X9.884Y-6.802
X9.887Y-6.995
X9.887Y-7.095
X9.887Y-7.195
X9.887Y-7.295
X9.887Y-7.395
X9.887Y-7.495
X9.887Y-7.595
X9.887Y-7.695
X9.887Y-7.795
X9.887Y-7.895
X9.892Y-8.388
X9.9249Y-3.0968
X9.9249Y-3.1968
X9.9249Y-3.2968
X9.9249Y-3.3968
X9.9249Y-3.4968
X9.9249Y-3.5968
X9.9249Y-3.6968
X9.9249Y-3.7968
X9.9249Y-3.8968
X9.9249Y-3.9968
X9.9249Y-4.6284
X9.9249Y-4.7284
X9.9249Y-4.8284
X9.9249Y-4.9284
X9.9249Y-5.0284
X9.9249Y-5.1284
X9.9249Y-5.2284
X9.9249Y-5.3284
X9.9249Y-5.4284
X9.9249Y-5.5284
X9.992Y-8.388
X10.092Y-8.388
X10.1761Y-2.886
X10.187Y-6.995
X10.187Y-7.095
X10.187Y-7.195
X10.187Y-7.295
X10.187Y-7.395
X10.187Y-7.495
X10.187Y-7.595
X10.187Y-7.695
X10.187Y-7.795
X10.187Y-7.895
X10.192Y-8.388
X10.2061Y-4.532
X10.292Y-8.388
X10.327Y-5.938
X10.327Y-6.038
X10.327Y-6.138
X10.327Y-6.238
X10.327Y-6.338
X10.327Y-6.438
X10.327Y-6.538
X10.3376Y-3.0968
X10.3376Y-3.1968
X10.3376Y-3.2968
X10.3376Y-3.3968
X10.3376Y-3.4968
X10.3376Y-3.5968
X10.3376Y-3.6968
X10.3376Y-3.7968
X10.3376Y-3.8968
X10.3376Y-3.9968
X10.3376Y-4.7288
X10.3376Y-4.8288
X10.3376Y-4.9288
X10.3376Y-5.0288
X10.3376Y-5.1288
X10.3376Y-5.2288
X10.3376Y-5.3288
X10.3376Y-5.4288
X10.3376Y-5.5288
X10.373Y-2.886
X10.3861Y-6.805
X10.403Y-4.532
X10.468Y-8.868
X10.468Y-8.9664
X10.4713Y-9.1307
X10.4713Y-9.2292
X10.475Y-9.4
X10.475Y-9.4984
X10.481Y-9.6666
X10.481Y-9.765
X10.5038Y-7.0026
X10.5038Y-7.1026
X10.5038Y-7.2026
X10.5038Y-7.3026
X10.5038Y-7.4026
X10.5038Y-7.5026
X10.5038Y-7.6026
X10.583Y-6.805
X10.627Y-5.938
X10.627Y-6.038
X10.627Y-6.138
X10.627Y-6.238
X10.627Y-6.338
X10.627Y-6.438
X10.627Y-6.538
X10.6376Y-3.0968
X10.6376Y-3.1968
X10.6376Y-3.2968
X10.6376Y-3.3968
X10.6376Y-3.4968
X10.6376Y-3.5968
X10.6376Y-3.6968
X10.6376Y-3.7968
X10.6376Y-3.8968
X10.6376Y-3.9968
X10.6376Y-4.7288
X10.6376Y-4.8288
X10.6376Y-4.9288
X10.6376Y-5.0288
X10.6376Y-5.1288
X10.6376Y-5.2288
X10.6376Y-5.3288
X10.6376Y-5.4288
X10.6376Y-5.5288
X10.7287Y-9.1022
X10.7287Y-9.2022
X10.7287Y-9.3022
X10.7287Y-9.4022
X10.7287Y-9.5022
X10.7287Y-9.6022
X10.7287Y-9.7022
X10.7287Y-9.8022
X10.7337Y-10.1422
X10.7535Y-10.4388
X10.7535Y-10.5388
X10.7535Y-10.6388
X10.7535Y-10.7388
X10.7535Y-10.8388
X10.7535Y-10.9388
X10.7535Y-11.0388
X10.7781Y-8.855
X10.7888Y-2.8919
X10.8038Y-7.0026
X10.8038Y-7.1026
X10.8038Y-7.2026
X10.8038Y-7.3026
X10.8038Y-7.4026
X10.8038Y-7.5026
X10.8038Y-7.6026
X10.8137Y-5.2248
X10.8199Y-5.0798
X10.834Y-5.9001
X10.834Y-6.097
X10.9306Y-10.1422
X10.975Y-8.855
X10.9857Y-2.8919
X11.0106Y-5.2248
X11.016Y-3.092
X11.016Y-3.192
X11.016Y-3.292
X11.016Y-3.392
X11.016Y-3.492
X11.016Y-3.592
X11.016Y-3.692
X11.0168Y-5.0798
X11.0287Y-9.1022
X11.0287Y-9.2022
X11.0287Y-9.3022
X11.0287Y-9.4022
X11.0287Y-9.5022
X11.0287Y-9.6022
X11.0287Y-9.7022
X11.0287Y-9.8022
X11.0535Y-10.4388
X11.0535Y-10.5388
X11.0535Y-10.6388
X11.0535Y-10.7388
X11.0535Y-10.8388
X11.0535Y-10.9388
X11.0535Y-11.0388
X11.0637Y-9.9329
X11.0637Y-10.2329
X11.0861Y-6.806
X11.193Y-7.007
X11.193Y-7.107
X11.193Y-7.207
X11.193Y-7.307
X11.193Y-7.407
X11.193Y-7.507
X11.193Y-7.607
X11.2587Y-9.7552
X11.2587Y-9.8552
X11.2587Y-9.9552
X11.2587Y-10.0552
X11.2587Y-10.1552
X11.2587Y-10.2552
X11.2587Y-10.3552
X11.2587Y-10.4552
X11.2587Y-10.5552
X11.2587Y-10.6552
X11.2587Y-10.7552
X11.2587Y-10.8552
X11.2587Y-10.9552
X11.2587Y-11.0552
X11.283Y-6.806
X11.288Y-8.864
X11.288Y-8.9624
X11.316Y-3.092
X11.316Y-3.192
X11.316Y-3.292
X11.316Y-3.392
X11.316Y-3.492
X11.316Y-3.592
X11.316Y-3.692
X11.493Y-7.007
X11.493Y-7.107
X11.493Y-7.207
X11.493Y-7.307
X11.493Y-7.407
X11.493Y-7.507
X11.493Y-7.607
X11.533Y-9.207
X11.533Y-9.507
X11.7231Y-9.531
X11.8587Y-9.7552
X11.8587Y-9.8552
X11.8587Y-9.9552
X11.8587Y-10.0552
X11.8587Y-10.1552
X11.8587Y-10.2552
X11.8587Y-10.3552
X11.8587Y-10.4552
X11.8587Y-10.5552
X11.8587Y-10.6552
X11.8587Y-10.7552
X11.8587Y-10.8552
X11.8587Y-10.9552
X11.8587Y-11.0552
X11.92Y-9.531
X12.1061Y-10.4943
X12.1061Y-10.7943
X12.114Y-10.001
X12.114Y-10.301
T5
X2.8647Y-8.9522
X2.8647Y-9.1294
X3.1206Y-8.9522
X3.1206Y-9.1294
X3.2525Y-5.6052
X3.2525Y-5.7052
X3.2525Y-5.8052
X3.2525Y-5.9052
X3.2525Y-6.0052
X3.2525Y-6.1052
X3.3525Y-5.6052
X3.3525Y-5.7052
X3.3525Y-5.8052
X3.3525Y-5.9052
X3.3525Y-6.0052
X3.3525Y-6.1052
X4.0673Y-5.6052
X4.0673Y-5.7052
X4.0673Y-5.8052
X4.0673Y-5.9052
X4.0673Y-6.0052
X4.0673Y-6.1052
X4.1673Y-5.6052
X4.1673Y-5.7052
X4.1673Y-5.8052
X4.1673Y-5.9052
X4.1673Y-6.0052
X4.1673Y-6.1052
X4.66Y-8.893
X4.66Y-8.993
X4.66Y-9.093
X4.8675Y-5.6002
X4.8675Y-5.7002
X4.8675Y-5.8002
X4.8675Y-5.9002
X4.8675Y-6.0002
X4.8675Y-6.1002
X4.9675Y-5.6002
X4.9675Y-5.7002
X4.9675Y-5.8002
X4.9675Y-5.9002
X4.9675Y-6.0002
X4.9675Y-6.1002
X5.5507Y-11.458
X5.5507Y-11.558
X5.6675Y-5.6052
X5.6675Y-5.7052
X5.6675Y-5.8052
X5.6675Y-5.9052
X5.6675Y-6.0052
X5.6675Y-6.1052
X5.7675Y-5.6052
X5.7675Y-5.7052
X5.7675Y-5.8052
X5.7675Y-5.9052
X5.7675Y-6.0052
X5.7675Y-6.1052
X6.2685Y-8.5556
X6.2685Y-8.6556
X6.2685Y-8.7556
X6.2685Y-8.8556
X6.3685Y-8.5556
X6.3685Y-8.6556
X6.3685Y-8.7556
X6.3685Y-8.8556
X6.4567Y-5.6042
X6.4567Y-5.7042
X6.4567Y-5.8042
X6.4567Y-5.9042
X6.4567Y-6.0042
X6.4567Y-6.1042
X6.5567Y-5.6042
X6.5567Y-5.7042
X6.5567Y-5.8042
X6.5567Y-5.9042
X6.5567Y-6.0042
X6.5567Y-6.1042
X7.2161Y-8.5597
X7.2161Y-8.6597
X7.274Y-5.615
X7.274Y-5.715
X7.274Y-5.815
X7.274Y-5.915
X7.274Y-6.015
X7.274Y-6.115
X7.374Y-5.615
X7.374Y-5.715
X7.374Y-5.815
X7.374Y-5.915
X7.374Y-6.015
X7.374Y-6.115
X7.5263Y-8.5253
X7.5263Y-8.7025
X7.7822Y-8.5253
X7.7822Y-8.7025
X7.841Y-3.11
X7.841Y-3.21
X7.841Y-3.31
X7.841Y-3.41
X7.941Y-3.11
X7.941Y-3.21
X7.941Y-3.31
X7.941Y-3.41
X8.016Y-9.88
X8.116Y-9.88
X8.216Y-9.88
X9.907Y-2.38
X9.907Y-2.48
X10.225Y-2.368
X10.225Y-2.468
X10.325Y-2.368
X10.325Y-2.468
X10.425Y-2.368
X10.425Y-2.468
X10.525Y-2.368
X10.525Y-2.468
X10.625Y-2.368
X10.625Y-2.468
X10.97Y-2.447
X11.07Y-2.447
X11.17Y-2.447
X11.27Y-2.447
X11.299Y-9.296
X11.299Y-9.396
X11.37Y-2.447
X11.47Y-2.447
X12.0306Y-5.0318
X12.0306Y-5.1318
X12.0306Y-5.2318
X12.0306Y-5.3318
T6
X2.8687Y-3.2152
X2.8687Y-3.3152
X2.8687Y-3.4152
X2.8687Y-3.5152
X2.8687Y-3.6152
X2.8687Y-3.7152
X2.8687Y-3.8152
X2.8687Y-3.9152
X2.8687Y-4.0152
X2.8687Y-4.1152
X2.8687Y-4.2152
X2.8687Y-4.3152
X2.8687Y-4.4152
X2.8687Y-4.5152
X2.8687Y-4.6152
X2.8687Y-4.7152
X2.8687Y-4.8152
X2.8687Y-4.9152
X2.8687Y-5.0152
X2.8687Y-5.1152
X2.8687Y-5.2152
X2.8687Y-5.3152
X2.8687Y-5.4152
X2.8687Y-5.5152
X2.8687Y-5.6152
X2.8687Y-5.7152
X2.8687Y-5.8152
X2.8687Y-5.9152
X2.8687Y-6.0152
X2.8687Y-6.1152
X2.8687Y-6.2152
X3.0687Y-3.2152
X3.0687Y-3.3152
X3.0687Y-3.4152
X3.0687Y-3.5152
X3.0687Y-3.6152
X3.0687Y-3.7152
X3.0687Y-3.8152
X3.0687Y-3.9152
X3.0687Y-4.0152
X3.0687Y-4.1152
X3.0687Y-4.2152
X3.0687Y-4.3152
X3.0687Y-4.4152
X3.0687Y-4.5152
X3.0687Y-4.6152
X3.0687Y-4.7152
X3.0687Y-4.8152
X3.0687Y-4.9152
X3.0687Y-5.0152
X3.0687Y-5.1152
X3.0687Y-5.2152
X3.0687Y-5.3152
X3.0687Y-5.4152
X3.0687Y-5.5152
X3.0687Y-5.6152
X3.0687Y-5.7152
X3.0687Y-5.8152
X3.0687Y-5.9152
X3.0687Y-6.0152
X3.0687Y-6.1152
X3.0687Y-6.2152
X3.6687Y-3.2152
X3.6687Y-3.3152
X3.6687Y-3.4152
X3.6687Y-3.5152
X3.6687Y-3.6152
X3.6687Y-3.7152
X3.6687Y-3.8152
X3.6687Y-3.9152
X3.6687Y-4.0152
X3.6687Y-4.1152
X3.6687Y-4.2152
X3.6687Y-4.3152
X3.6687Y-4.4152
X3.6687Y-4.5152
X3.6687Y-4.6152
X3.6687Y-4.7152
X3.6687Y-4.8152
X3.6687Y-4.9152
X3.6687Y-5.0152
X3.6687Y-5.1152
X3.6687Y-5.2152
X3.6687Y-5.3152
X3.6687Y-5.4152
X3.6687Y-5.5152
X3.6687Y-5.6152
X3.6687Y-5.7152
X3.6687Y-5.8152
X3.6687Y-5.9152
X3.6687Y-6.0152
X3.6687Y-6.1152
X3.6687Y-6.2152
X3.8687Y-3.2152
X3.8687Y-3.3152
X3.8687Y-3.4152
X3.8687Y-3.5152
X3.8687Y-3.6152
X3.8687Y-3.7152
X3.8687Y-3.8152
X3.8687Y-3.9152
X3.8687Y-4.0152
X3.8687Y-4.1152
X3.8687Y-4.2152
X3.8687Y-4.3152
X3.8687Y-4.4152
X3.8687Y-4.5152
X3.8687Y-4.6152
X3.8687Y-4.7152
X3.8687Y-4.8152
X3.8687Y-4.9152
X3.8687Y-5.0152
X3.8687Y-5.1152
X3.8687Y-5.2152
X3.8687Y-5.3152
X3.8687Y-5.4152
X3.8687Y-5.5152
X3.8687Y-5.6152
X3.8687Y-5.7152
X3.8687Y-5.8152
X3.8687Y-5.9152
X3.8687Y-6.0152
X3.8687Y-6.1152
X3.8687Y-6.2152
X4.4687Y-3.2152
X4.4687Y-3.3152
X4.4687Y-3.4152
X4.4687Y-3.5152
X4.4687Y-3.6152
X4.4687Y-3.7152
X4.4687Y-3.8152
X4.4687Y-3.9152
X4.4687Y-4.0152
X4.4687Y-4.1152
X4.4687Y-4.2152
X4.4687Y-4.3152
X4.4687Y-4.4152
X4.4687Y-4.5152
X4.4687Y-4.6152
X4.4687Y-4.7152
X4.4687Y-4.8152
X4.4687Y-4.9152
X4.4687Y-5.0152
X4.4687Y-5.1152
X4.4687Y-5.2152
X4.4687Y-5.3152
X4.4687Y-5.4152
X4.4687Y-5.5152
X4.4687Y-5.6152
X4.4687Y-5.7152
X4.4687Y-5.8152
X4.4687Y-5.9152
X4.4687Y-6.0152
X4.4687Y-6.1152
X4.4687Y-6.2152
X4.6687Y-3.2152
X4.6687Y-3.3152
X4.6687Y-3.4152
X4.6687Y-3.5152
X4.6687Y-3.6152
X4.6687Y-3.7152
X4.6687Y-3.8152
X4.6687Y-3.9152
X4.6687Y-4.0152
X4.6687Y-4.1152
X4.6687Y-4.2152
X4.6687Y-4.3152
X4.6687Y-4.4152
X4.6687Y-4.5152
X4.6687Y-4.6152
X4.6687Y-4.7152
X4.6687Y-4.8152
X4.6687Y-4.9152
X4.6687Y-5.0152
X4.6687Y-5.1152
X4.6687Y-5.2152
X4.6687Y-5.3152
X4.6687Y-5.4152
X4.6687Y-5.5152
X4.6687Y-5.6152
X4.6687Y-5.7152
X4.6687Y-5.8152
X4.6687Y-5.9152
X4.6687Y-6.0152
X4.6687Y-6.1152
X4.6687Y-6.2152
X5.2687Y-3.2152
X5.2687Y-3.3152
X5.2687Y-3.4152
X5.2687Y-3.5152
X5.2687Y-3.6152
X5.2687Y-3.7152
X5.2687Y-3.8152
X5.2687Y-3.9152
X5.2687Y-4.0152
X5.2687Y-4.1152
X5.2687Y-4.2152
X5.2687Y-4.3152
X5.2687Y-4.4152
X5.2687Y-4.5152
X5.2687Y-4.6152
X5.2687Y-4.7152
X5.2687Y-4.8152
X5.2687Y-4.9152
X5.2687Y-5.0152
X5.2687Y-5.1152
X5.2687Y-5.2152
X5.2687Y-5.3152
X5.2687Y-5.4152
X5.2687Y-5.5152
X5.2687Y-5.6152
X5.2687Y-5.7152
X5.2687Y-5.8152
X5.2687Y-5.9152
X5.2687Y-6.0152
X5.2687Y-6.1152
X5.2687Y-6.2152
X5.4687Y-3.2152
X5.4687Y-3.3152
X5.4687Y-3.4152
X5.4687Y-3.5152
X5.4687Y-3.6152
X5.4687Y-3.7152
X5.4687Y-3.8152
X5.4687Y-3.9152
X5.4687Y-4.0152
X5.4687Y-4.1152
X5.4687Y-4.2152
X5.4687Y-4.3152
X5.4687Y-4.4152
X5.4687Y-4.5152
X5.4687Y-4.6152
X5.4687Y-4.7152
X5.4687Y-4.8152
X5.4687Y-4.9152
X5.4687Y-5.0152
X5.4687Y-5.1152
X5.4687Y-5.2152
X5.4687Y-5.3152
X5.4687Y-5.4152
X5.4687Y-5.5152
X5.4687Y-5.6152
X5.4687Y-5.7152
X5.4687Y-5.8152
X5.4687Y-5.9152
X5.4687Y-6.0152
X5.4687Y-6.1152
X5.4687Y-6.2152
X6.0687Y-3.2152
X6.0687Y-3.3152
X6.0687Y-3.4152
X6.0687Y-3.5152
X6.0687Y-3.6152
X6.0687Y-3.7152
X6.0687Y-3.8152
X6.0687Y-3.9152
X6.0687Y-4.0152
X6.0687Y-4.1152
X6.0687Y-4.2152
X6.0687Y-4.3152
X6.0687Y-4.4152
X6.0687Y-4.5152
X6.0687Y-4.6152
X6.0687Y-4.7152
X6.0687Y-4.8152
X6.0687Y-4.9152
X6.0687Y-5.0152
X6.0687Y-5.1152
X6.0687Y-5.2152
X6.0687Y-5.3152
X6.0687Y-5.4152
X6.0687Y-5.5152
X6.0687Y-5.6152
X6.0687Y-5.7152
X6.0687Y-5.8152
X6.0687Y-5.9152
X6.0687Y-6.0152
X6.0687Y-6.1152
X6.0687Y-6.2152
X6.2687Y-3.2152
X6.2687Y-3.3152
X6.2687Y-3.4152
X6.2687Y-3.5152
X6.2687Y-3.6152
X6.2687Y-3.7152
X6.2687Y-3.8152
X6.2687Y-3.9152
X6.2687Y-4.0152
X6.2687Y-4.1152
X6.2687Y-4.2152
X6.2687Y-4.3152
X6.2687Y-4.4152
X6.2687Y-4.5152
X6.2687Y-4.6152
X6.2687Y-4.7152
X6.2687Y-4.8152
X6.2687Y-4.9152
X6.2687Y-5.0152
X6.2687Y-5.1152
X6.2687Y-5.2152
X6.2687Y-5.3152
X6.2687Y-5.4152
X6.2687Y-5.5152
X6.2687Y-5.6152
X6.2687Y-5.7152
X6.2687Y-5.8152
X6.2687Y-5.9152
X6.2687Y-6.0152
X6.2687Y-6.1152
X6.2687Y-6.2152
X6.8687Y-3.2152
X6.8687Y-3.3152
X6.8687Y-3.4152
X6.8687Y-3.5152
X6.8687Y-3.6152
X6.8687Y-3.7152
X6.8687Y-3.8152
X6.8687Y-3.9152
X6.8687Y-4.0152
X6.8687Y-4.1152
X6.8687Y-4.2152
X6.8687Y-4.3152
X6.8687Y-4.4152
X6.8687Y-4.5152
X6.8687Y-4.6152
X6.8687Y-4.7152
X6.8687Y-4.8152
X6.8687Y-4.9152
X6.8687Y-5.0152
X6.8687Y-5.1152
X6.8687Y-5.2152
X6.8687Y-5.3152
X6.8687Y-5.4152
X6.8687Y-5.5152
X6.8687Y-5.6152
X6.8687Y-5.7152
X6.8687Y-5.8152
X6.8687Y-5.9152
X6.8687Y-6.0152
X6.8687Y-6.1152
X6.8687Y-6.2152
X7.0687Y-3.2152
X7.0687Y-3.3152
X7.0687Y-3.4152
X7.0687Y-3.5152
X7.0687Y-3.6152
X7.0687Y-3.7152
X7.0687Y-3.8152
X7.0687Y-3.9152
X7.0687Y-4.0152
X7.0687Y-4.1152
X7.0687Y-4.2152
X7.0687Y-4.3152
X7.0687Y-4.4152
X7.0687Y-4.5152
X7.0687Y-4.6152
X7.0687Y-4.7152
X7.0687Y-4.8152
X7.0687Y-4.9152
X7.0687Y-5.0152
X7.0687Y-5.1152
X7.0687Y-5.2152
X7.0687Y-5.3152
X7.0687Y-5.4152
X7.0687Y-5.5152
X7.0687Y-5.6152
X7.0687Y-5.7152
X7.0687Y-5.8152
X7.0687Y-5.9152
X7.0687Y-6.0152
X7.0687Y-6.1152
X7.0687Y-6.2152
T7
X3.5117Y-11.3171
X3.5117Y-11.7171
X3.7557Y-11.3171
X3.7557Y-11.7171
X11.4Y-4.9251
X11.4Y-5.3251
X11.606Y-4.8711
X11.606Y-5.2711
T8
X6.5126Y-11.4302
X6.5126Y-11.6468
X6.678Y-11.4302
X6.678Y-11.6468
X6.8433Y-11.4302
X6.8433Y-11.6468
X7.0087Y-11.4302
X7.0087Y-11.6468
X7.174Y-11.4302
X7.174Y-11.6468
X7.3394Y-11.4302
X7.3394Y-11.6468
X7.5047Y-11.4302
X7.5047Y-11.6468
X7.6701Y-11.4302
X7.6701Y-11.6468
X7.8354Y-11.4302
X7.8354Y-11.6468
X8.0008Y-11.4302
X8.0008Y-11.6468
T9
X3.2677Y-2.6131
X3.2677Y-8.7131
X3.2677Y-11.5631
X4.0677Y-2.6131
X4.0677Y-8.7131
X4.0677Y-11.5631
X5.8677Y-2.6131
X5.8677Y-8.7131
X5.8677Y-11.5631
X12.0677Y-3.5131
X12.0677Y-8.7131
X12.0677Y-11.5631
M30
