%TF.GenerationSoftware,KiCad,Pcbnew,8.0.6*%
%TF.CreationDate,2025-05-18T09:51:50-05:00*%
%TF.ProjectId,6809PC-6U,36383039-5043-42d3-9655-2e6b69636164,5/17/2025 002*%
%TF.SameCoordinates,Original*%
%TF.FileFunction,Soldermask,Bot*%
%TF.FilePolarity,Negative*%
%FSLAX46Y46*%
G04 Gerber Fmt 4.6, Leading zero omitted, Abs format (unit mm)*
G04 Created by KiCad (PCBNEW 8.0.6) date 2025-05-18 09:51:50*
%MOMM*%
%LPD*%
G01*
G04 APERTURE LIST*
G04 Aperture macros list*
%AMRoundRect*
0 Rectangle with rounded corners*
0 $1 Rounding radius*
0 $2 $3 $4 $5 $6 $7 $8 $9 X,Y pos of 4 corners*
0 Add a 4 corners polygon primitive as box body*
4,1,4,$2,$3,$4,$5,$6,$7,$8,$9,$2,$3,0*
0 Add four circle primitives for the rounded corners*
1,1,$1+$1,$2,$3*
1,1,$1+$1,$4,$5*
1,1,$1+$1,$6,$7*
1,1,$1+$1,$8,$9*
0 Add four rect primitives between the rounded corners*
20,1,$1+$1,$2,$3,$4,$5,0*
20,1,$1+$1,$4,$5,$6,$7,0*
20,1,$1+$1,$6,$7,$8,$9,0*
20,1,$1+$1,$8,$9,$2,$3,0*%
G04 Aperture macros list end*
%ADD10R,1.700000X1.700000*%
%ADD11C,1.700000*%
%ADD12O,1.700000X1.700000*%
%ADD13R,1.600000X1.600000*%
%ADD14O,1.600000X1.600000*%
%ADD15C,1.600000*%
%ADD16R,2.400000X1.600000*%
%ADD17O,2.400000X1.600000*%
%ADD18R,1.600000X2.400000*%
%ADD19O,1.600000X2.400000*%
%ADD20R,2.200000X2.200000*%
%ADD21O,2.200000X2.200000*%
%ADD22C,1.000000*%
%ADD23C,3.600000*%
%ADD24C,6.400000*%
%ADD25R,2.125980X2.125980*%
%ADD26C,1.524000*%
%ADD27R,1.100000X1.800000*%
%ADD28RoundRect,0.275000X-0.275000X-0.625000X0.275000X-0.625000X0.275000X0.625000X-0.275000X0.625000X0*%
G04 APERTURE END LIST*
D10*
%TO.C,SW1*%
X72764200Y-227386200D03*
D11*
X79264200Y-227386200D03*
X72764200Y-231886200D03*
X79264200Y-231886200D03*
%TD*%
D10*
%TO.C,SW2*%
X197668200Y-221042800D03*
D11*
X191168200Y-221042800D03*
X197668200Y-216542800D03*
X191168200Y-216542800D03*
%TD*%
D10*
%TO.C,P16*%
X305577200Y-127806800D03*
D12*
X305577200Y-130346800D03*
X305577200Y-132886800D03*
X305577200Y-135426800D03*
%TD*%
D10*
%TO.C,K2*%
X203606400Y-250952000D03*
D12*
X206146400Y-250952000D03*
X208686400Y-250952000D03*
%TD*%
D10*
%TO.C,K1*%
X118364000Y-225882200D03*
D12*
X118364000Y-228422200D03*
X118364000Y-230962200D03*
%TD*%
D10*
%TO.C,P12*%
X140988600Y-291033600D03*
D12*
X140988600Y-293573600D03*
%TD*%
D10*
%TO.C,JP1*%
X183289800Y-217417400D03*
D12*
X183289800Y-219957400D03*
%TD*%
D10*
%TO.C,JP3*%
X286994600Y-236118400D03*
D12*
X286994600Y-238658400D03*
%TD*%
D13*
%TO.C,RR1*%
X238556800Y-213055200D03*
D14*
X241096800Y-213055200D03*
X243636800Y-213055200D03*
X246176800Y-213055200D03*
X248716800Y-213055200D03*
X251256800Y-213055200D03*
X253796800Y-213055200D03*
X256336800Y-213055200D03*
X258876800Y-213055200D03*
X261416800Y-213055200D03*
%TD*%
D13*
%TO.C,RR2*%
X140970000Y-210108800D03*
D14*
X143510000Y-210108800D03*
X146050000Y-210108800D03*
X148590000Y-210108800D03*
X151130000Y-210108800D03*
X153670000Y-210108800D03*
X156210000Y-210108800D03*
X158750000Y-210108800D03*
X161290000Y-210108800D03*
X163830000Y-210108800D03*
%TD*%
D15*
%TO.C,R6*%
X307695600Y-261645400D03*
D14*
X307695600Y-254025400D03*
%TD*%
D15*
%TO.C,R7*%
X281017400Y-259915000D03*
D14*
X281017400Y-252295000D03*
%TD*%
D15*
%TO.C,R4*%
X292938200Y-241477800D03*
D14*
X292938200Y-233857800D03*
%TD*%
D15*
%TO.C,R1*%
X106654600Y-274396200D03*
D14*
X106654600Y-282016200D03*
%TD*%
D15*
%TO.C,R3*%
X98780600Y-282321000D03*
D14*
X98780600Y-274701000D03*
%TD*%
D15*
%TO.C,R2*%
X75582200Y-297507000D03*
D14*
X75582200Y-289887000D03*
%TD*%
D10*
%TO.C,P18*%
X259715000Y-62687200D03*
D12*
X259715000Y-60147200D03*
X262255000Y-62687200D03*
X262255000Y-60147200D03*
X264795000Y-62687200D03*
X264795000Y-60147200D03*
X267335000Y-62687200D03*
X267335000Y-60147200D03*
X269875000Y-62687200D03*
X269875000Y-60147200D03*
%TD*%
D10*
%TO.C,P15*%
X159220800Y-217312400D03*
D12*
X161760800Y-217312400D03*
X159220800Y-219852400D03*
X161760800Y-219852400D03*
X159220800Y-222392400D03*
X161760800Y-222392400D03*
X159220800Y-224932400D03*
X161760800Y-224932400D03*
%TD*%
D10*
%TO.C,P1*%
X199161400Y-78994000D03*
D12*
X201701400Y-78994000D03*
X199161400Y-81534000D03*
X201701400Y-81534000D03*
X199161400Y-84074000D03*
X201701400Y-84074000D03*
X199161400Y-86614000D03*
X201701400Y-86614000D03*
%TD*%
D16*
%TO.C,U33*%
X160114800Y-232542400D03*
D17*
X160114800Y-235082400D03*
X160114800Y-237622400D03*
X160114800Y-240162400D03*
X160114800Y-242702400D03*
X160114800Y-245242400D03*
X160114800Y-247782400D03*
X160114800Y-250322400D03*
X160114800Y-252862400D03*
X160114800Y-255402400D03*
X160114800Y-257942400D03*
X160114800Y-260482400D03*
X160114800Y-263022400D03*
X160114800Y-265562400D03*
X160114800Y-268102400D03*
X160114800Y-270642400D03*
X160114800Y-273182400D03*
X160114800Y-275722400D03*
X160114800Y-278262400D03*
X160114800Y-280802400D03*
X175354800Y-280802400D03*
X175354800Y-278262400D03*
X175354800Y-275722400D03*
X175354800Y-273182400D03*
X175354800Y-270642400D03*
X175354800Y-268102400D03*
X175354800Y-265562400D03*
X175354800Y-263022400D03*
X175354800Y-260482400D03*
X175354800Y-257942400D03*
X175354800Y-255402400D03*
X175354800Y-252862400D03*
X175354800Y-250322400D03*
X175354800Y-247782400D03*
X175354800Y-245242400D03*
X175354800Y-242702400D03*
X175354800Y-240162400D03*
X175354800Y-237622400D03*
X175354800Y-235082400D03*
X175354800Y-232542400D03*
%TD*%
D13*
%TO.C,U9*%
X118003400Y-246136000D03*
D14*
X118003400Y-248676000D03*
X118003400Y-251216000D03*
X118003400Y-253756000D03*
X118003400Y-256296000D03*
X118003400Y-258836000D03*
X118003400Y-261376000D03*
X118003400Y-263916000D03*
X118003400Y-266456000D03*
X118003400Y-268996000D03*
X118003400Y-271536000D03*
X118003400Y-274076000D03*
X118003400Y-276616000D03*
X118003400Y-279156000D03*
X133243400Y-279156000D03*
X133243400Y-276616000D03*
X133243400Y-274076000D03*
X133243400Y-271536000D03*
X133243400Y-268996000D03*
X133243400Y-266456000D03*
X133243400Y-263916000D03*
X133243400Y-261376000D03*
X133243400Y-258836000D03*
X133243400Y-256296000D03*
X133243400Y-253756000D03*
X133243400Y-251216000D03*
X133243400Y-248676000D03*
X133243400Y-246136000D03*
%TD*%
D16*
%TO.C,U8*%
X76289800Y-242732400D03*
D17*
X76289800Y-245272400D03*
X76289800Y-247812400D03*
X76289800Y-250352400D03*
X76289800Y-252892400D03*
X76289800Y-255432400D03*
X76289800Y-257972400D03*
X76289800Y-260512400D03*
X76289800Y-263052400D03*
X76289800Y-265592400D03*
X76289800Y-268132400D03*
X76289800Y-270672400D03*
X76289800Y-273212400D03*
X76289800Y-275752400D03*
X76289800Y-278292400D03*
X76289800Y-280832400D03*
X91529800Y-280832400D03*
X91529800Y-278292400D03*
X91529800Y-275752400D03*
X91529800Y-273212400D03*
X91529800Y-270672400D03*
X91529800Y-268132400D03*
X91529800Y-265592400D03*
X91529800Y-263052400D03*
X91529800Y-260512400D03*
X91529800Y-257972400D03*
X91529800Y-255432400D03*
X91529800Y-252892400D03*
X91529800Y-250352400D03*
X91529800Y-247812400D03*
X91529800Y-245272400D03*
X91529800Y-242732400D03*
%TD*%
D16*
%TO.C,U48*%
X285971800Y-247782400D03*
D17*
X285971800Y-250322400D03*
X285971800Y-252862400D03*
X285971800Y-255402400D03*
X285971800Y-257942400D03*
X285971800Y-260482400D03*
X285971800Y-263022400D03*
X285971800Y-265562400D03*
X285971800Y-268102400D03*
X285971800Y-270642400D03*
X285971800Y-273182400D03*
X285971800Y-275722400D03*
X285971800Y-278262400D03*
X285971800Y-280802400D03*
X301211800Y-280802400D03*
X301211800Y-278262400D03*
X301211800Y-275722400D03*
X301211800Y-273182400D03*
X301211800Y-270642400D03*
X301211800Y-268102400D03*
X301211800Y-265562400D03*
X301211800Y-263022400D03*
X301211800Y-260482400D03*
X301211800Y-257942400D03*
X301211800Y-255402400D03*
X301211800Y-252862400D03*
X301211800Y-250322400D03*
X301211800Y-247782400D03*
%TD*%
D16*
%TO.C,U40*%
X74447400Y-177850800D03*
D17*
X74447400Y-180390800D03*
X74447400Y-182930800D03*
X74447400Y-185470800D03*
X74447400Y-188010800D03*
X74447400Y-190550800D03*
X74447400Y-193090800D03*
X74447400Y-195630800D03*
X74447400Y-198170800D03*
X74447400Y-200710800D03*
X74447400Y-203250800D03*
X74447400Y-205790800D03*
X74447400Y-208330800D03*
X74447400Y-210870800D03*
X82067400Y-210870800D03*
X82067400Y-208330800D03*
X82067400Y-205790800D03*
X82067400Y-203250800D03*
X82067400Y-200710800D03*
X82067400Y-198170800D03*
X82067400Y-195630800D03*
X82067400Y-193090800D03*
X82067400Y-190550800D03*
X82067400Y-188010800D03*
X82067400Y-185470800D03*
X82067400Y-182930800D03*
X82067400Y-180390800D03*
X82067400Y-177850800D03*
%TD*%
D16*
%TO.C,U38*%
X196840500Y-177850800D03*
D17*
X196840500Y-180390800D03*
X196840500Y-182930800D03*
X196840500Y-185470800D03*
X196840500Y-188010800D03*
X196840500Y-190550800D03*
X196840500Y-193090800D03*
X196840500Y-195630800D03*
X196840500Y-198170800D03*
X196840500Y-200710800D03*
X204460500Y-200710800D03*
X204460500Y-198170800D03*
X204460500Y-195630800D03*
X204460500Y-193090800D03*
X204460500Y-190550800D03*
X204460500Y-188010800D03*
X204460500Y-185470800D03*
X204460500Y-182930800D03*
X204460500Y-180390800D03*
X204460500Y-177850800D03*
%TD*%
D16*
%TO.C,U46*%
X182651400Y-226364800D03*
D17*
X182651400Y-228904800D03*
X182651400Y-231444800D03*
X182651400Y-233984800D03*
X182651400Y-236524800D03*
X182651400Y-239064800D03*
X182651400Y-241604800D03*
X182651400Y-244144800D03*
X182651400Y-246684800D03*
X182651400Y-249224800D03*
X190271400Y-249224800D03*
X190271400Y-246684800D03*
X190271400Y-244144800D03*
X190271400Y-241604800D03*
X190271400Y-239064800D03*
X190271400Y-236524800D03*
X190271400Y-233984800D03*
X190271400Y-231444800D03*
X190271400Y-228904800D03*
X190271400Y-226364800D03*
%TD*%
D16*
%TO.C,U31*%
X251129800Y-177673000D03*
D17*
X251129800Y-180213000D03*
X251129800Y-182753000D03*
X251129800Y-185293000D03*
X251129800Y-187833000D03*
X251129800Y-190373000D03*
X251129800Y-192913000D03*
X251129800Y-195453000D03*
X251129800Y-197993000D03*
X251129800Y-200533000D03*
X258749800Y-200533000D03*
X258749800Y-197993000D03*
X258749800Y-195453000D03*
X258749800Y-192913000D03*
X258749800Y-190373000D03*
X258749800Y-187833000D03*
X258749800Y-185293000D03*
X258749800Y-182753000D03*
X258749800Y-180213000D03*
X258749800Y-177673000D03*
%TD*%
D16*
%TO.C,U39*%
X161871000Y-177850800D03*
D17*
X161871000Y-180390800D03*
X161871000Y-182930800D03*
X161871000Y-185470800D03*
X161871000Y-188010800D03*
X161871000Y-190550800D03*
X161871000Y-193090800D03*
X161871000Y-195630800D03*
X161871000Y-198170800D03*
X161871000Y-200710800D03*
X169491000Y-200710800D03*
X169491000Y-198170800D03*
X169491000Y-195630800D03*
X169491000Y-193090800D03*
X169491000Y-190550800D03*
X169491000Y-188010800D03*
X169491000Y-185470800D03*
X169491000Y-182930800D03*
X169491000Y-180390800D03*
X169491000Y-177850800D03*
%TD*%
D16*
%TO.C,U28*%
X244471300Y-78657800D03*
D17*
X244471300Y-81197800D03*
X244471300Y-83737800D03*
X244471300Y-86277800D03*
X244471300Y-88817800D03*
X244471300Y-91357800D03*
X244471300Y-93897800D03*
X244471300Y-96437800D03*
X244471300Y-98977800D03*
X244471300Y-101517800D03*
X252091300Y-101517800D03*
X252091300Y-98977800D03*
X252091300Y-96437800D03*
X252091300Y-93897800D03*
X252091300Y-91357800D03*
X252091300Y-88817800D03*
X252091300Y-86277800D03*
X252091300Y-83737800D03*
X252091300Y-81197800D03*
X252091300Y-78657800D03*
%TD*%
D16*
%TO.C,U3*%
X262575000Y-78657800D03*
D17*
X262575000Y-81197800D03*
X262575000Y-83737800D03*
X262575000Y-86277800D03*
X262575000Y-88817800D03*
X262575000Y-91357800D03*
X262575000Y-93897800D03*
X262575000Y-96437800D03*
X262575000Y-98977800D03*
X262575000Y-101517800D03*
X270195000Y-101517800D03*
X270195000Y-98977800D03*
X270195000Y-96437800D03*
X270195000Y-93897800D03*
X270195000Y-91357800D03*
X270195000Y-88817800D03*
X270195000Y-86277800D03*
X270195000Y-83737800D03*
X270195000Y-81197800D03*
X270195000Y-78657800D03*
%TD*%
D16*
%TO.C,U36*%
X179355800Y-177850800D03*
D17*
X179355800Y-180390800D03*
X179355800Y-182930800D03*
X179355800Y-185470800D03*
X179355800Y-188010800D03*
X179355800Y-190550800D03*
X179355800Y-193090800D03*
X179355800Y-195630800D03*
X179355800Y-198170800D03*
X179355800Y-200710800D03*
X186975800Y-200710800D03*
X186975800Y-198170800D03*
X186975800Y-195630800D03*
X186975800Y-193090800D03*
X186975800Y-190550800D03*
X186975800Y-188010800D03*
X186975800Y-185470800D03*
X186975800Y-182930800D03*
X186975800Y-180390800D03*
X186975800Y-177850800D03*
%TD*%
D16*
%TO.C,U34*%
X231825800Y-177647600D03*
D17*
X231825800Y-180187600D03*
X231825800Y-182727600D03*
X231825800Y-185267600D03*
X231825800Y-187807600D03*
X231825800Y-190347600D03*
X231825800Y-192887600D03*
X231825800Y-195427600D03*
X231825800Y-197967600D03*
X231825800Y-200507600D03*
X239445800Y-200507600D03*
X239445800Y-197967600D03*
X239445800Y-195427600D03*
X239445800Y-192887600D03*
X239445800Y-190347600D03*
X239445800Y-187807600D03*
X239445800Y-185267600D03*
X239445800Y-182727600D03*
X239445800Y-180187600D03*
X239445800Y-177647600D03*
%TD*%
D16*
%TO.C,U41*%
X126901600Y-177850800D03*
D17*
X126901600Y-180390800D03*
X126901600Y-182930800D03*
X126901600Y-185470800D03*
X126901600Y-188010800D03*
X126901600Y-190550800D03*
X126901600Y-193090800D03*
X126901600Y-195630800D03*
X126901600Y-198170800D03*
X126901600Y-200710800D03*
X134521600Y-200710800D03*
X134521600Y-198170800D03*
X134521600Y-195630800D03*
X134521600Y-193090800D03*
X134521600Y-190550800D03*
X134521600Y-188010800D03*
X134521600Y-185470800D03*
X134521600Y-182930800D03*
X134521600Y-180390800D03*
X134521600Y-177850800D03*
%TD*%
D16*
%TO.C,U30*%
X143256000Y-231521000D03*
D17*
X143256000Y-234061000D03*
X143256000Y-236601000D03*
X143256000Y-239141000D03*
X143256000Y-241681000D03*
X143256000Y-244221000D03*
X143256000Y-246761000D03*
X143256000Y-249301000D03*
X150876000Y-249301000D03*
X150876000Y-246761000D03*
X150876000Y-244221000D03*
X150876000Y-241681000D03*
X150876000Y-239141000D03*
X150876000Y-236601000D03*
X150876000Y-234061000D03*
X150876000Y-231521000D03*
%TD*%
D16*
%TO.C,U49*%
X272509800Y-231196200D03*
D17*
X272509800Y-233736200D03*
X272509800Y-236276200D03*
X272509800Y-238816200D03*
X272509800Y-241356200D03*
X272509800Y-243896200D03*
X272509800Y-246436200D03*
X272509800Y-248976200D03*
X280129800Y-248976200D03*
X280129800Y-246436200D03*
X280129800Y-243896200D03*
X280129800Y-241356200D03*
X280129800Y-238816200D03*
X280129800Y-236276200D03*
X280129800Y-233736200D03*
X280129800Y-231196200D03*
%TD*%
D16*
%TO.C,U42*%
X214325200Y-177850800D03*
D17*
X214325200Y-180390800D03*
X214325200Y-182930800D03*
X214325200Y-185470800D03*
X214325200Y-188010800D03*
X214325200Y-190550800D03*
X214325200Y-193090800D03*
X214325200Y-195630800D03*
X221945200Y-195630800D03*
X221945200Y-193090800D03*
X221945200Y-190550800D03*
X221945200Y-188010800D03*
X221945200Y-185470800D03*
X221945200Y-182930800D03*
X221945200Y-180390800D03*
X221945200Y-177850800D03*
%TD*%
D16*
%TO.C,P17*%
X273138800Y-265146200D03*
D17*
X273138800Y-267686200D03*
X273138800Y-270226200D03*
X273138800Y-272766200D03*
X273138800Y-275306200D03*
X273138800Y-277846200D03*
X273138800Y-280386200D03*
X280758800Y-280386200D03*
X280758800Y-277846200D03*
X280758800Y-275306200D03*
X280758800Y-272766200D03*
X280758800Y-270226200D03*
X280758800Y-267686200D03*
X280758800Y-265146200D03*
%TD*%
D18*
%TO.C,U19*%
X117950800Y-295534400D03*
D19*
X120490800Y-295534400D03*
X123030800Y-295534400D03*
X125570800Y-295534400D03*
X128110800Y-295534400D03*
X130650800Y-295534400D03*
X133190800Y-295534400D03*
X133190800Y-287914400D03*
X130650800Y-287914400D03*
X128110800Y-287914400D03*
X125570800Y-287914400D03*
X123030800Y-287914400D03*
X120490800Y-287914400D03*
X117950800Y-287914400D03*
%TD*%
D16*
%TO.C,P14*%
X142969800Y-265689400D03*
D17*
X142969800Y-268229400D03*
X142969800Y-270769400D03*
X142969800Y-273309400D03*
X142969800Y-275849400D03*
X142969800Y-278389400D03*
X142969800Y-280929400D03*
X150589800Y-280929400D03*
X150589800Y-278389400D03*
X150589800Y-275849400D03*
X150589800Y-273309400D03*
X150589800Y-270769400D03*
X150589800Y-268229400D03*
X150589800Y-265689400D03*
%TD*%
D18*
%TO.C,U7*%
X210972400Y-216763600D03*
D19*
X213512400Y-216763600D03*
X216052400Y-216763600D03*
X218592400Y-216763600D03*
X221132400Y-216763600D03*
X223672400Y-216763600D03*
X226212400Y-216763600D03*
X226212400Y-209143600D03*
X223672400Y-209143600D03*
X221132400Y-209143600D03*
X218592400Y-209143600D03*
X216052400Y-209143600D03*
X213512400Y-209143600D03*
X210972400Y-209143600D03*
%TD*%
D20*
%TO.C,D2*%
X89197800Y-287453400D03*
D21*
X89197800Y-297613400D03*
%TD*%
D20*
%TO.C,D1*%
X95395400Y-287453400D03*
D21*
X95395400Y-297613400D03*
%TD*%
D15*
%TO.C,C29*%
X123259400Y-160990600D03*
X128259400Y-160990600D03*
%TD*%
%TO.C,C46*%
X102934600Y-162030600D03*
X107934600Y-162030600D03*
%TD*%
%TO.C,C44*%
X123342400Y-172694600D03*
X128342400Y-172694600D03*
%TD*%
%TO.C,C42*%
X237925600Y-281686000D03*
X242925600Y-281686000D03*
%TD*%
%TO.C,C39*%
X241303800Y-112598200D03*
X246303800Y-112598200D03*
%TD*%
%TO.C,C36*%
X272636800Y-257612200D03*
X277636800Y-257612200D03*
%TD*%
%TO.C,C25*%
X246053600Y-172770800D03*
X251053600Y-172770800D03*
%TD*%
%TO.C,C48*%
X82868600Y-162589400D03*
X87868600Y-162589400D03*
%TD*%
%TO.C,C50*%
X192281800Y-172466000D03*
X197281800Y-172466000D03*
%TD*%
%TO.C,C52*%
X203229200Y-220853000D03*
X208229200Y-220853000D03*
%TD*%
%TO.C,C54*%
X106506000Y-172796200D03*
X111506000Y-172796200D03*
%TD*%
%TO.C,C62*%
X141274800Y-172796200D03*
X146274800Y-172796200D03*
%TD*%
%TO.C,C58*%
X144031800Y-257966400D03*
X149031800Y-257966400D03*
%TD*%
%TO.C,C24*%
X259236200Y-115112800D03*
X264236200Y-115112800D03*
%TD*%
%TO.C,C23*%
X209757000Y-204063600D03*
X214757000Y-204063600D03*
%TD*%
%TO.C,C27*%
X297768000Y-242087400D03*
X302768000Y-242087400D03*
%TD*%
%TO.C,C19*%
X158550600Y-172796200D03*
X163550600Y-172796200D03*
%TD*%
%TO.C,C31*%
X101553000Y-236194600D03*
X106553000Y-236194600D03*
%TD*%
%TO.C,C38*%
X89005400Y-172745400D03*
X94005400Y-172745400D03*
%TD*%
%TO.C,C15*%
X192002400Y-254127000D03*
X197002400Y-254127000D03*
%TD*%
%TO.C,C11*%
X218266000Y-221361000D03*
X223266000Y-221361000D03*
%TD*%
%TO.C,C7*%
X275183600Y-149863800D03*
X275183600Y-154863800D03*
%TD*%
%TO.C,C20*%
X258474200Y-73304400D03*
X263474200Y-73304400D03*
%TD*%
%TO.C,C16*%
X228349800Y-172821600D03*
X233349800Y-172821600D03*
%TD*%
%TO.C,C12*%
X214430600Y-173126400D03*
X219430600Y-173126400D03*
%TD*%
%TO.C,C8*%
X205007200Y-112547400D03*
X210007200Y-112547400D03*
%TD*%
%TO.C,C5*%
X174628800Y-172694600D03*
X179628800Y-172694600D03*
%TD*%
%TO.C,C9*%
X221081600Y-280593800D03*
X226081600Y-280593800D03*
%TD*%
%TO.C,C13*%
X114757200Y-210591400D03*
X114757200Y-205591400D03*
%TD*%
%TO.C,C21*%
X165825000Y-161929000D03*
X170825000Y-161929000D03*
%TD*%
D13*
%TO.C,C61*%
X265970400Y-231920600D03*
D15*
X265970400Y-234420600D03*
%TD*%
D13*
%TO.C,C65*%
X266217400Y-245530500D03*
D15*
X266217400Y-248030500D03*
%TD*%
D13*
%TO.C,C35*%
X109006000Y-287426400D03*
D15*
X111506000Y-287426400D03*
%TD*%
D13*
%TO.C,C2*%
X83523000Y-118267800D03*
D15*
X86023000Y-118267800D03*
%TD*%
D13*
%TO.C,C3*%
X125310000Y-118267800D03*
D15*
X127810000Y-118267800D03*
%TD*%
D13*
%TO.C,C28*%
X153739400Y-286365000D03*
D15*
X156239400Y-286365000D03*
%TD*%
D13*
%TO.C,C63*%
X266065000Y-238760000D03*
D15*
X266065000Y-241260000D03*
%TD*%
D13*
%TO.C,C4*%
X104329600Y-118267800D03*
D15*
X106829600Y-118267800D03*
%TD*%
D13*
%TO.C,C1*%
X145103400Y-118267800D03*
D15*
X147603400Y-118267800D03*
%TD*%
D13*
%TO.C,C64*%
X265887200Y-225247200D03*
D15*
X265887200Y-227747200D03*
%TD*%
D13*
%TO.C,C66*%
X286715200Y-225145600D03*
D15*
X286715200Y-227645600D03*
%TD*%
D22*
%TO.C,X1*%
X274411400Y-125063600D03*
X274411400Y-123563600D03*
%TD*%
D23*
%TO.C,P6*%
X149040400Y-66372400D03*
D24*
X149040400Y-66372400D03*
%TD*%
D23*
%TO.C,P5*%
X83000400Y-293702400D03*
D24*
X83000400Y-293702400D03*
%TD*%
D23*
%TO.C,P3*%
X103320400Y-293702400D03*
D24*
X103320400Y-293702400D03*
%TD*%
D23*
%TO.C,P2*%
X103320400Y-66372400D03*
D24*
X103320400Y-66372400D03*
%TD*%
D23*
%TO.C,P7*%
X83000400Y-66372400D03*
D24*
X83000400Y-66372400D03*
%TD*%
D25*
%TO.C,P11*%
X203221100Y-295829020D03*
X203221100Y-290327380D03*
X199019940Y-295829020D03*
X199019940Y-290327380D03*
X194821320Y-295829020D03*
X194821320Y-290327380D03*
X190620160Y-295829020D03*
X190620160Y-290327380D03*
X186421540Y-295829020D03*
X186421540Y-290327380D03*
X182220380Y-295829020D03*
X182220380Y-290327380D03*
X178021760Y-295829020D03*
X178021760Y-290327380D03*
X173820600Y-295829020D03*
X173820600Y-290327380D03*
X169621980Y-295829020D03*
X169621980Y-290327380D03*
X165420820Y-295829020D03*
X165420820Y-290327380D03*
%TD*%
D15*
%TO.C,C37*%
X239652800Y-73304400D03*
X244652800Y-73304400D03*
%TD*%
%TO.C,C6*%
X281588200Y-172872400D03*
X286588200Y-172872400D03*
%TD*%
%TO.C,C10*%
X203686400Y-73050400D03*
X208686400Y-73050400D03*
%TD*%
%TO.C,C14*%
X203352400Y-280593800D03*
X208352400Y-280593800D03*
%TD*%
%TO.C,C18*%
X223244400Y-117195600D03*
X228244400Y-117195600D03*
%TD*%
%TO.C,C22*%
X71708000Y-172770800D03*
X76708000Y-172770800D03*
%TD*%
%TO.C,C26*%
X274035800Y-73455400D03*
X279035800Y-73455400D03*
%TD*%
%TO.C,C30*%
X263808200Y-172847000D03*
X268808200Y-172847000D03*
%TD*%
%TO.C,C33*%
X81454800Y-236225400D03*
X86454800Y-236225400D03*
%TD*%
%TO.C,C40*%
X222888800Y-73507600D03*
X227888800Y-73507600D03*
%TD*%
%TO.C,C43*%
X142050600Y-161116200D03*
X147050600Y-161116200D03*
%TD*%
%TO.C,C45*%
X139620800Y-225938400D03*
X144620800Y-225938400D03*
%TD*%
%TO.C,C47*%
X171555400Y-228854000D03*
X176555400Y-228854000D03*
%TD*%
%TO.C,C49*%
X233988600Y-221234000D03*
X238988600Y-221234000D03*
%TD*%
%TO.C,C51*%
X239090200Y-148974800D03*
X239090200Y-153974800D03*
%TD*%
%TO.C,C53*%
X203352400Y-148539200D03*
X203352400Y-153539200D03*
%TD*%
D16*
%TO.C,U45*%
X99568000Y-243332000D03*
D17*
X99568000Y-245872000D03*
X99568000Y-248412000D03*
X99568000Y-250952000D03*
X99568000Y-253492000D03*
X99568000Y-256032000D03*
X99568000Y-258572000D03*
X99568000Y-261112000D03*
X99568000Y-263652000D03*
X99568000Y-266192000D03*
X107188000Y-266192000D03*
X107188000Y-263652000D03*
X107188000Y-261112000D03*
X107188000Y-258572000D03*
X107188000Y-256032000D03*
X107188000Y-253492000D03*
X107188000Y-250952000D03*
X107188000Y-248412000D03*
X107188000Y-245872000D03*
X107188000Y-243332000D03*
%TD*%
D16*
%TO.C,U26*%
X208263800Y-117560600D03*
D17*
X208263800Y-120100600D03*
X208263800Y-122640600D03*
X208263800Y-125180600D03*
X208263800Y-127720600D03*
X208263800Y-130260600D03*
X208263800Y-132800600D03*
X208263800Y-135340600D03*
X208263800Y-137880600D03*
X208263800Y-140420600D03*
X215883800Y-140420600D03*
X215883800Y-137880600D03*
X215883800Y-135340600D03*
X215883800Y-132800600D03*
X215883800Y-130260600D03*
X215883800Y-127720600D03*
X215883800Y-125180600D03*
X215883800Y-122640600D03*
X215883800Y-120100600D03*
X215883800Y-117560600D03*
%TD*%
D16*
%TO.C,U2*%
X226367500Y-78657800D03*
D17*
X226367500Y-81197800D03*
X226367500Y-83737800D03*
X226367500Y-86277800D03*
X226367500Y-88817800D03*
X226367500Y-91357800D03*
X226367500Y-93897800D03*
X226367500Y-96437800D03*
X226367500Y-98977800D03*
X226367500Y-101517800D03*
X233987500Y-101517800D03*
X233987500Y-98977800D03*
X233987500Y-96437800D03*
X233987500Y-93897800D03*
X233987500Y-91357800D03*
X233987500Y-88817800D03*
X233987500Y-86277800D03*
X233987500Y-83737800D03*
X233987500Y-81197800D03*
X233987500Y-78657800D03*
%TD*%
D16*
%TO.C,U25*%
X208263800Y-78657800D03*
D17*
X208263800Y-81197800D03*
X208263800Y-83737800D03*
X208263800Y-86277800D03*
X208263800Y-88817800D03*
X208263800Y-91357800D03*
X208263800Y-93897800D03*
X208263800Y-96437800D03*
X208263800Y-98977800D03*
X208263800Y-101517800D03*
X215883800Y-101517800D03*
X215883800Y-98977800D03*
X215883800Y-96437800D03*
X215883800Y-93897800D03*
X215883800Y-91357800D03*
X215883800Y-88817800D03*
X215883800Y-86277800D03*
X215883800Y-83737800D03*
X215883800Y-81197800D03*
X215883800Y-78657800D03*
%TD*%
D16*
%TO.C,U27*%
X244471300Y-117560600D03*
D17*
X244471300Y-120100600D03*
X244471300Y-122640600D03*
X244471300Y-125180600D03*
X244471300Y-127720600D03*
X244471300Y-130260600D03*
X244471300Y-132800600D03*
X244471300Y-135340600D03*
X244471300Y-137880600D03*
X244471300Y-140420600D03*
X252091300Y-140420600D03*
X252091300Y-137880600D03*
X252091300Y-135340600D03*
X252091300Y-132800600D03*
X252091300Y-130260600D03*
X252091300Y-127720600D03*
X252091300Y-125180600D03*
X252091300Y-122640600D03*
X252091300Y-120100600D03*
X252091300Y-117560600D03*
%TD*%
D16*
%TO.C,U4*%
X220802200Y-258470400D03*
D17*
X220802200Y-261010400D03*
X220802200Y-263550400D03*
X220802200Y-266090400D03*
X220802200Y-268630400D03*
X220802200Y-271170400D03*
X220802200Y-273710400D03*
X228422200Y-273710400D03*
X228422200Y-271170400D03*
X228422200Y-268630400D03*
X228422200Y-266090400D03*
X228422200Y-263550400D03*
X228422200Y-261010400D03*
X228422200Y-258470400D03*
%TD*%
D16*
%TO.C,U6*%
X284302200Y-177977800D03*
D17*
X284302200Y-180517800D03*
X284302200Y-183057800D03*
X284302200Y-185597800D03*
X284302200Y-188137800D03*
X284302200Y-190677800D03*
X284302200Y-193217800D03*
X291922200Y-193217800D03*
X291922200Y-190677800D03*
X291922200Y-188137800D03*
X291922200Y-185597800D03*
X291922200Y-183057800D03*
X291922200Y-180517800D03*
X291922200Y-177977800D03*
%TD*%
D16*
%TO.C,U5*%
X202463400Y-226364800D03*
D17*
X202463400Y-228904800D03*
X202463400Y-231444800D03*
X202463400Y-233984800D03*
X202463400Y-236524800D03*
X202463400Y-239064800D03*
X202463400Y-241604800D03*
X210083400Y-241604800D03*
X210083400Y-239064800D03*
X210083400Y-236524800D03*
X210083400Y-233984800D03*
X210083400Y-231444800D03*
X210083400Y-228904800D03*
X210083400Y-226364800D03*
%TD*%
D16*
%TO.C,U44*%
X109416900Y-177850800D03*
D17*
X109416900Y-180390800D03*
X109416900Y-182930800D03*
X109416900Y-185470800D03*
X109416900Y-188010800D03*
X109416900Y-190550800D03*
X109416900Y-193090800D03*
X109416900Y-195630800D03*
X117036900Y-195630800D03*
X117036900Y-193090800D03*
X117036900Y-190550800D03*
X117036900Y-188010800D03*
X117036900Y-185470800D03*
X117036900Y-182930800D03*
X117036900Y-180390800D03*
X117036900Y-177850800D03*
%TD*%
D18*
%TO.C,U37*%
X90957400Y-211912200D03*
D19*
X93497400Y-211912200D03*
X96037400Y-211912200D03*
X98577400Y-211912200D03*
X101117400Y-211912200D03*
X103657400Y-211912200D03*
X106197400Y-211912200D03*
X108737400Y-211912200D03*
X108737400Y-204292200D03*
X106197400Y-204292200D03*
X103657400Y-204292200D03*
X101117400Y-204292200D03*
X98577400Y-204292200D03*
X96037400Y-204292200D03*
X93497400Y-204292200D03*
X90957400Y-204292200D03*
%TD*%
D16*
%TO.C,U43*%
X91932100Y-177850800D03*
D17*
X91932100Y-180390800D03*
X91932100Y-182930800D03*
X91932100Y-185470800D03*
X91932100Y-188010800D03*
X91932100Y-190550800D03*
X91932100Y-193090800D03*
X91932100Y-195630800D03*
X99552100Y-195630800D03*
X99552100Y-193090800D03*
X99552100Y-190550800D03*
X99552100Y-188010800D03*
X99552100Y-185470800D03*
X99552100Y-182930800D03*
X99552100Y-180390800D03*
X99552100Y-177850800D03*
%TD*%
D16*
%TO.C,U35*%
X144386300Y-177850800D03*
D17*
X144386300Y-180390800D03*
X144386300Y-182930800D03*
X144386300Y-185470800D03*
X144386300Y-188010800D03*
X144386300Y-190550800D03*
X144386300Y-193090800D03*
X144386300Y-195630800D03*
X152006300Y-195630800D03*
X152006300Y-193090800D03*
X152006300Y-190550800D03*
X152006300Y-188010800D03*
X152006300Y-185470800D03*
X152006300Y-182930800D03*
X152006300Y-180390800D03*
X152006300Y-177850800D03*
%TD*%
D15*
%TO.C,R5*%
X307493800Y-266556200D03*
D14*
X307493800Y-274176200D03*
%TD*%
D15*
%TO.C,C41*%
X273765000Y-224917000D03*
X278765000Y-224917000D03*
%TD*%
%TO.C,C32*%
X184175400Y-161950400D03*
X189175400Y-161950400D03*
%TD*%
D23*
%TO.C,P21*%
X306520400Y-89232400D03*
D24*
X306520400Y-89232400D03*
%TD*%
D16*
%TO.C,U47*%
X262575000Y-120110600D03*
D17*
X262575000Y-122650600D03*
X262575000Y-125190600D03*
X262575000Y-127730600D03*
X262575000Y-130270600D03*
X262575000Y-132810600D03*
X262575000Y-135350600D03*
X262575000Y-137890600D03*
X262575000Y-140430600D03*
X270195000Y-140430600D03*
X270195000Y-137890600D03*
X270195000Y-135350600D03*
X270195000Y-132810600D03*
X270195000Y-130270600D03*
X270195000Y-127730600D03*
X270195000Y-125190600D03*
X270195000Y-122650600D03*
X270195000Y-120110600D03*
%TD*%
D16*
%TO.C,U32*%
X182905400Y-258470400D03*
D17*
X182905400Y-261010400D03*
X182905400Y-263550400D03*
X182905400Y-266090400D03*
X182905400Y-268630400D03*
X182905400Y-271170400D03*
X182905400Y-273710400D03*
X182905400Y-276250400D03*
X182905400Y-278790400D03*
X182905400Y-281330400D03*
X190525400Y-281330400D03*
X190525400Y-278790400D03*
X190525400Y-276250400D03*
X190525400Y-273710400D03*
X190525400Y-271170400D03*
X190525400Y-268630400D03*
X190525400Y-266090400D03*
X190525400Y-263550400D03*
X190525400Y-261010400D03*
X190525400Y-258470400D03*
%TD*%
D26*
%TO.C,J14*%
X174465800Y-81666400D03*
X174465800Y-84206400D03*
X174465800Y-86746400D03*
X174465800Y-89286400D03*
X174465800Y-91826400D03*
X174465800Y-94366400D03*
X174465800Y-96906400D03*
X174465800Y-99446400D03*
X174465800Y-101986400D03*
X174465800Y-104526400D03*
X174465800Y-107066400D03*
X174465800Y-109606400D03*
X174465800Y-112146400D03*
X174465800Y-114686400D03*
X174465800Y-117226400D03*
X174465800Y-119766400D03*
X174465800Y-122306400D03*
X174465800Y-124846400D03*
X174465800Y-127386400D03*
X174465800Y-129926400D03*
X174465800Y-132466400D03*
X174465800Y-135006400D03*
X174465800Y-137546400D03*
X174465800Y-140086400D03*
X174465800Y-142626400D03*
X174465800Y-145166400D03*
X174465800Y-147706400D03*
X174465800Y-150246400D03*
X174465800Y-152786400D03*
X174465800Y-155326400D03*
X174465800Y-157866400D03*
X179545800Y-81666400D03*
X179545800Y-84206400D03*
X179545800Y-86746400D03*
X179545800Y-89286400D03*
X179545800Y-91826400D03*
X179545800Y-94366400D03*
X179545800Y-96906400D03*
X179545800Y-99446400D03*
X179545800Y-101986400D03*
X179545800Y-104526400D03*
X179545800Y-107066400D03*
X179545800Y-109606400D03*
X179545800Y-112146400D03*
X179545800Y-114686400D03*
X179545800Y-117226400D03*
X179545800Y-119766400D03*
X179545800Y-122306400D03*
X179545800Y-124846400D03*
X179545800Y-127386400D03*
X179545800Y-129926400D03*
X179545800Y-132466400D03*
X179545800Y-135006400D03*
X179545800Y-137546400D03*
X179545800Y-140086400D03*
X179545800Y-142626400D03*
X179545800Y-145166400D03*
X179545800Y-147706400D03*
X179545800Y-150246400D03*
X179545800Y-152786400D03*
X179545800Y-155326400D03*
X179545800Y-157866400D03*
%TD*%
D10*
%TO.C,J2*%
X103308800Y-142372400D03*
D12*
X105848800Y-142372400D03*
X103308800Y-144912400D03*
X105848800Y-144912400D03*
X103308800Y-147452400D03*
X105848800Y-147452400D03*
X103308800Y-149992400D03*
X105848800Y-149992400D03*
X103308800Y-152532400D03*
X105848800Y-152532400D03*
X103308800Y-155072400D03*
X105848800Y-155072400D03*
%TD*%
D26*
%TO.C,J10*%
X154145800Y-81666400D03*
X154145800Y-84206400D03*
X154145800Y-86746400D03*
X154145800Y-89286400D03*
X154145800Y-91826400D03*
X154145800Y-94366400D03*
X154145800Y-96906400D03*
X154145800Y-99446400D03*
X154145800Y-101986400D03*
X154145800Y-104526400D03*
X154145800Y-107066400D03*
X154145800Y-109606400D03*
X154145800Y-112146400D03*
X154145800Y-114686400D03*
X154145800Y-117226400D03*
X154145800Y-119766400D03*
X154145800Y-122306400D03*
X154145800Y-124846400D03*
X154145800Y-127386400D03*
X154145800Y-129926400D03*
X154145800Y-132466400D03*
X154145800Y-135006400D03*
X154145800Y-137546400D03*
X154145800Y-140086400D03*
X154145800Y-142626400D03*
X154145800Y-145166400D03*
X154145800Y-147706400D03*
X154145800Y-150246400D03*
X154145800Y-152786400D03*
X154145800Y-155326400D03*
X154145800Y-157866400D03*
X159225800Y-81666400D03*
X159225800Y-84206400D03*
X159225800Y-86746400D03*
X159225800Y-89286400D03*
X159225800Y-91826400D03*
X159225800Y-94366400D03*
X159225800Y-96906400D03*
X159225800Y-99446400D03*
X159225800Y-101986400D03*
X159225800Y-104526400D03*
X159225800Y-107066400D03*
X159225800Y-109606400D03*
X159225800Y-112146400D03*
X159225800Y-114686400D03*
X159225800Y-117226400D03*
X159225800Y-119766400D03*
X159225800Y-122306400D03*
X159225800Y-124846400D03*
X159225800Y-127386400D03*
X159225800Y-129926400D03*
X159225800Y-132466400D03*
X159225800Y-135006400D03*
X159225800Y-137546400D03*
X159225800Y-140086400D03*
X159225800Y-142626400D03*
X159225800Y-145166400D03*
X159225800Y-147706400D03*
X159225800Y-150246400D03*
X159225800Y-152786400D03*
X159225800Y-155326400D03*
X159225800Y-157866400D03*
%TD*%
D16*
%TO.C,P13*%
X208263800Y-150453800D03*
D17*
X208263800Y-152993800D03*
X208263800Y-155533800D03*
X208263800Y-158073800D03*
X208263800Y-160613800D03*
X208263800Y-163153800D03*
X208263800Y-165693800D03*
X215883800Y-165693800D03*
X215883800Y-163153800D03*
X215883800Y-160613800D03*
X215883800Y-158073800D03*
X215883800Y-155533800D03*
X215883800Y-152993800D03*
X215883800Y-150453800D03*
%TD*%
D23*
%TO.C,P23*%
X103320400Y-221312400D03*
D24*
X103320400Y-221312400D03*
%TD*%
D10*
%TO.C,J9*%
X164001000Y-142347000D03*
D12*
X166541000Y-142347000D03*
X164001000Y-144887000D03*
X166541000Y-144887000D03*
X164001000Y-147427000D03*
X166541000Y-147427000D03*
X164001000Y-149967000D03*
X166541000Y-149967000D03*
X164001000Y-152507000D03*
X166541000Y-152507000D03*
X164001000Y-155047000D03*
X166541000Y-155047000D03*
%TD*%
D20*
%TO.C,D3*%
X294792600Y-133887200D03*
D21*
X294792600Y-123727200D03*
%TD*%
D10*
%TO.C,J12*%
X251637800Y-60452000D03*
D12*
X251637800Y-62992000D03*
%TD*%
D15*
%TO.C,C60*%
X274669200Y-132709000D03*
X279669200Y-132709000D03*
%TD*%
D23*
%TO.C,P10*%
X306520400Y-293702400D03*
D24*
X306520400Y-293702400D03*
%TD*%
D13*
%TO.C,C17*%
X165216200Y-118541800D03*
D15*
X167716200Y-118541800D03*
%TD*%
D26*
%TO.C,J8*%
X133825800Y-81666400D03*
X133825800Y-84206400D03*
X133825800Y-86746400D03*
X133825800Y-89286400D03*
X133825800Y-91826400D03*
X133825800Y-94366400D03*
X133825800Y-96906400D03*
X133825800Y-99446400D03*
X133825800Y-101986400D03*
X133825800Y-104526400D03*
X133825800Y-107066400D03*
X133825800Y-109606400D03*
X133825800Y-112146400D03*
X133825800Y-114686400D03*
X133825800Y-117226400D03*
X133825800Y-119766400D03*
X133825800Y-122306400D03*
X133825800Y-124846400D03*
X133825800Y-127386400D03*
X133825800Y-129926400D03*
X133825800Y-132466400D03*
X133825800Y-135006400D03*
X133825800Y-137546400D03*
X133825800Y-140086400D03*
X133825800Y-142626400D03*
X133825800Y-145166400D03*
X133825800Y-147706400D03*
X133825800Y-150246400D03*
X133825800Y-152786400D03*
X133825800Y-155326400D03*
X133825800Y-157866400D03*
X138905800Y-81666400D03*
X138905800Y-84206400D03*
X138905800Y-86746400D03*
X138905800Y-89286400D03*
X138905800Y-91826400D03*
X138905800Y-94366400D03*
X138905800Y-96906400D03*
X138905800Y-99446400D03*
X138905800Y-101986400D03*
X138905800Y-104526400D03*
X138905800Y-107066400D03*
X138905800Y-109606400D03*
X138905800Y-112146400D03*
X138905800Y-114686400D03*
X138905800Y-117226400D03*
X138905800Y-119766400D03*
X138905800Y-122306400D03*
X138905800Y-124846400D03*
X138905800Y-127386400D03*
X138905800Y-129926400D03*
X138905800Y-132466400D03*
X138905800Y-135006400D03*
X138905800Y-137546400D03*
X138905800Y-140086400D03*
X138905800Y-142626400D03*
X138905800Y-145166400D03*
X138905800Y-147706400D03*
X138905800Y-150246400D03*
X138905800Y-152786400D03*
X138905800Y-155326400D03*
X138905800Y-157866400D03*
%TD*%
D23*
%TO.C,P9*%
X306520400Y-221312400D03*
D24*
X306520400Y-221312400D03*
%TD*%
D23*
%TO.C,P4*%
X149040400Y-293702400D03*
D24*
X149040400Y-293702400D03*
%TD*%
D16*
%TO.C,U10*%
X262305800Y-150825200D03*
D17*
X262305800Y-153365200D03*
X262305800Y-155905200D03*
X262305800Y-158445200D03*
X262305800Y-160985200D03*
X262305800Y-163525200D03*
X262305800Y-166065200D03*
X269925800Y-166065200D03*
X269925800Y-163525200D03*
X269925800Y-160985200D03*
X269925800Y-158445200D03*
X269925800Y-155905200D03*
X269925800Y-153365200D03*
X269925800Y-150825200D03*
%TD*%
D16*
%TO.C,U24*%
X226367500Y-122610600D03*
D17*
X226367500Y-125150600D03*
X226367500Y-127690600D03*
X226367500Y-130230600D03*
X226367500Y-132770600D03*
X226367500Y-135310600D03*
X226367500Y-137850600D03*
X226367500Y-140390600D03*
X233987500Y-140390600D03*
X233987500Y-137850600D03*
X233987500Y-135310600D03*
X233987500Y-132770600D03*
X233987500Y-130230600D03*
X233987500Y-127690600D03*
X233987500Y-125150600D03*
X233987500Y-122610600D03*
%TD*%
D26*
%TO.C,J4*%
X93185800Y-81666400D03*
X93185800Y-84206400D03*
X93185800Y-86746400D03*
X93185800Y-89286400D03*
X93185800Y-91826400D03*
X93185800Y-94366400D03*
X93185800Y-96906400D03*
X93185800Y-99446400D03*
X93185800Y-101986400D03*
X93185800Y-104526400D03*
X93185800Y-107066400D03*
X93185800Y-109606400D03*
X93185800Y-112146400D03*
X93185800Y-114686400D03*
X93185800Y-117226400D03*
X93185800Y-119766400D03*
X93185800Y-122306400D03*
X93185800Y-124846400D03*
X93185800Y-127386400D03*
X93185800Y-129926400D03*
X93185800Y-132466400D03*
X93185800Y-135006400D03*
X93185800Y-137546400D03*
X93185800Y-140086400D03*
X93185800Y-142626400D03*
X93185800Y-145166400D03*
X93185800Y-147706400D03*
X93185800Y-150246400D03*
X93185800Y-152786400D03*
X93185800Y-155326400D03*
X93185800Y-157866400D03*
X98265800Y-81666400D03*
X98265800Y-84206400D03*
X98265800Y-86746400D03*
X98265800Y-89286400D03*
X98265800Y-91826400D03*
X98265800Y-94366400D03*
X98265800Y-96906400D03*
X98265800Y-99446400D03*
X98265800Y-101986400D03*
X98265800Y-104526400D03*
X98265800Y-107066400D03*
X98265800Y-109606400D03*
X98265800Y-112146400D03*
X98265800Y-114686400D03*
X98265800Y-117226400D03*
X98265800Y-119766400D03*
X98265800Y-122306400D03*
X98265800Y-124846400D03*
X98265800Y-127386400D03*
X98265800Y-129926400D03*
X98265800Y-132466400D03*
X98265800Y-135006400D03*
X98265800Y-137546400D03*
X98265800Y-140086400D03*
X98265800Y-142626400D03*
X98265800Y-145166400D03*
X98265800Y-147706400D03*
X98265800Y-150246400D03*
X98265800Y-152786400D03*
X98265800Y-155326400D03*
X98265800Y-157866400D03*
%TD*%
D23*
%TO.C,P22*%
X83000400Y-221312400D03*
D24*
X83000400Y-221312400D03*
%TD*%
D20*
%TO.C,D4*%
X289560200Y-135258800D03*
D21*
X289560200Y-125098800D03*
%TD*%
D16*
%TO.C,U17*%
X237134400Y-259334000D03*
D17*
X237134400Y-261874000D03*
X237134400Y-264414000D03*
X237134400Y-266954000D03*
X237134400Y-269494000D03*
X237134400Y-272034000D03*
X237134400Y-274574000D03*
X244754400Y-274574000D03*
X244754400Y-272034000D03*
X244754400Y-269494000D03*
X244754400Y-266954000D03*
X244754400Y-264414000D03*
X244754400Y-261874000D03*
X244754400Y-259334000D03*
%TD*%
D16*
%TO.C,U16*%
X279806400Y-78536800D03*
D17*
X279806400Y-81076800D03*
X279806400Y-83616800D03*
X279806400Y-86156800D03*
X279806400Y-88696800D03*
X279806400Y-91236800D03*
X279806400Y-93776800D03*
X287426400Y-93776800D03*
X287426400Y-91236800D03*
X287426400Y-88696800D03*
X287426400Y-86156800D03*
X287426400Y-83616800D03*
X287426400Y-81076800D03*
X287426400Y-78536800D03*
%TD*%
D10*
%TO.C,J7*%
X143953800Y-142372400D03*
D12*
X146493800Y-142372400D03*
X143953800Y-144912400D03*
X146493800Y-144912400D03*
X143953800Y-147452400D03*
X146493800Y-147452400D03*
X143953800Y-149992400D03*
X146493800Y-149992400D03*
X143953800Y-152532400D03*
X146493800Y-152532400D03*
X143953800Y-155072400D03*
X146493800Y-155072400D03*
%TD*%
D10*
%TO.C,J1*%
X82612800Y-142372400D03*
D12*
X85152800Y-142372400D03*
X82612800Y-144912400D03*
X85152800Y-144912400D03*
X82612800Y-147452400D03*
X85152800Y-147452400D03*
X82612800Y-149992400D03*
X85152800Y-149992400D03*
X82612800Y-152532400D03*
X85152800Y-152532400D03*
X82612800Y-155072400D03*
X85152800Y-155072400D03*
%TD*%
D15*
%TO.C,C59*%
X274826400Y-129027400D03*
X279826400Y-129027400D03*
%TD*%
D16*
%TO.C,U23*%
X237109000Y-226339400D03*
D17*
X237109000Y-228879400D03*
X237109000Y-231419400D03*
X237109000Y-233959400D03*
X237109000Y-236499400D03*
X237109000Y-239039400D03*
X237109000Y-241579400D03*
X237109000Y-244119400D03*
X237109000Y-246659400D03*
X237109000Y-249199400D03*
X244729000Y-249199400D03*
X244729000Y-246659400D03*
X244729000Y-244119400D03*
X244729000Y-241579400D03*
X244729000Y-239039400D03*
X244729000Y-236499400D03*
X244729000Y-233959400D03*
X244729000Y-231419400D03*
X244729000Y-228879400D03*
X244729000Y-226339400D03*
%TD*%
D10*
%TO.C,J11*%
X278638000Y-62153800D03*
D12*
X281178000Y-62153800D03*
X283718000Y-62153800D03*
X286258000Y-62153800D03*
X288798000Y-62153800D03*
X291338000Y-62153800D03*
%TD*%
D15*
%TO.C,R26*%
X87376000Y-135255000D03*
D14*
X87376000Y-127635000D03*
%TD*%
D16*
%TO.C,U15*%
X202463400Y-258470400D03*
D17*
X202463400Y-261010400D03*
X202463400Y-263550400D03*
X202463400Y-266090400D03*
X202463400Y-268630400D03*
X202463400Y-271170400D03*
X202463400Y-273710400D03*
X210083400Y-273710400D03*
X210083400Y-271170400D03*
X210083400Y-268630400D03*
X210083400Y-266090400D03*
X210083400Y-263550400D03*
X210083400Y-261010400D03*
X210083400Y-258470400D03*
%TD*%
D16*
%TO.C,U22*%
X126771400Y-214553800D03*
D17*
X126771400Y-217093800D03*
X126771400Y-219633800D03*
X126771400Y-222173800D03*
X126771400Y-224713800D03*
X126771400Y-227253800D03*
X126771400Y-229793800D03*
X134391400Y-229793800D03*
X134391400Y-227253800D03*
X134391400Y-224713800D03*
X134391400Y-222173800D03*
X134391400Y-219633800D03*
X134391400Y-217093800D03*
X134391400Y-214553800D03*
%TD*%
D10*
%TO.C,J5*%
X123633800Y-142245400D03*
D12*
X126173800Y-142245400D03*
X123633800Y-144785400D03*
X126173800Y-144785400D03*
X123633800Y-147325400D03*
X126173800Y-147325400D03*
X123633800Y-149865400D03*
X126173800Y-149865400D03*
X123633800Y-152405400D03*
X126173800Y-152405400D03*
X123633800Y-154945400D03*
X126173800Y-154945400D03*
%TD*%
D27*
%TO.C,U29*%
X190830200Y-209721400D03*
D28*
X192100200Y-207651400D03*
X193370200Y-209721400D03*
%TD*%
D16*
%TO.C,U1*%
X220802200Y-226364800D03*
D17*
X220802200Y-228904800D03*
X220802200Y-231444800D03*
X220802200Y-233984800D03*
X220802200Y-236524800D03*
X220802200Y-239064800D03*
X220802200Y-241604800D03*
X228422200Y-241604800D03*
X228422200Y-239064800D03*
X228422200Y-236524800D03*
X228422200Y-233984800D03*
X228422200Y-231444800D03*
X228422200Y-228904800D03*
X228422200Y-226364800D03*
%TD*%
D15*
%TO.C,C57*%
X181864000Y-209219800D03*
X186864000Y-209219800D03*
%TD*%
D26*
%TO.C,J6*%
X113505800Y-81666400D03*
X113505800Y-84206400D03*
X113505800Y-86746400D03*
X113505800Y-89286400D03*
X113505800Y-91826400D03*
X113505800Y-94366400D03*
X113505800Y-96906400D03*
X113505800Y-99446400D03*
X113505800Y-101986400D03*
X113505800Y-104526400D03*
X113505800Y-107066400D03*
X113505800Y-109606400D03*
X113505800Y-112146400D03*
X113505800Y-114686400D03*
X113505800Y-117226400D03*
X113505800Y-119766400D03*
X113505800Y-122306400D03*
X113505800Y-124846400D03*
X113505800Y-127386400D03*
X113505800Y-129926400D03*
X113505800Y-132466400D03*
X113505800Y-135006400D03*
X113505800Y-137546400D03*
X113505800Y-140086400D03*
X113505800Y-142626400D03*
X113505800Y-145166400D03*
X113505800Y-147706400D03*
X113505800Y-150246400D03*
X113505800Y-152786400D03*
X113505800Y-155326400D03*
X113505800Y-157866400D03*
X118585800Y-81666400D03*
X118585800Y-84206400D03*
X118585800Y-86746400D03*
X118585800Y-89286400D03*
X118585800Y-91826400D03*
X118585800Y-94366400D03*
X118585800Y-96906400D03*
X118585800Y-99446400D03*
X118585800Y-101986400D03*
X118585800Y-104526400D03*
X118585800Y-107066400D03*
X118585800Y-109606400D03*
X118585800Y-112146400D03*
X118585800Y-114686400D03*
X118585800Y-117226400D03*
X118585800Y-119766400D03*
X118585800Y-122306400D03*
X118585800Y-124846400D03*
X118585800Y-127386400D03*
X118585800Y-129926400D03*
X118585800Y-132466400D03*
X118585800Y-135006400D03*
X118585800Y-137546400D03*
X118585800Y-140086400D03*
X118585800Y-142626400D03*
X118585800Y-145166400D03*
X118585800Y-147706400D03*
X118585800Y-150246400D03*
X118585800Y-152786400D03*
X118585800Y-155326400D03*
X118585800Y-157866400D03*
%TD*%
D15*
%TO.C,C56*%
X129569200Y-237058200D03*
X134569200Y-237058200D03*
%TD*%
D10*
%TO.C,J13*%
X184759600Y-142621000D03*
D12*
X187299600Y-142621000D03*
X184759600Y-145161000D03*
X187299600Y-145161000D03*
X184759600Y-147701000D03*
X187299600Y-147701000D03*
X184759600Y-150241000D03*
X187299600Y-150241000D03*
X184759600Y-152781000D03*
X187299600Y-152781000D03*
X184759600Y-155321000D03*
X187299600Y-155321000D03*
%TD*%
D16*
%TO.C,U18*%
X226364800Y-150647400D03*
D17*
X226364800Y-153187400D03*
X226364800Y-155727400D03*
X226364800Y-158267400D03*
X226364800Y-160807400D03*
X226364800Y-163347400D03*
X226364800Y-165887400D03*
X233984800Y-165887400D03*
X233984800Y-163347400D03*
X233984800Y-160807400D03*
X233984800Y-158267400D03*
X233984800Y-155727400D03*
X233984800Y-153187400D03*
X233984800Y-150647400D03*
%TD*%
D26*
%TO.C,J3*%
X72865800Y-81666400D03*
X72865800Y-84206400D03*
X72865800Y-86746400D03*
X72865800Y-89286400D03*
X72865800Y-91826400D03*
X72865800Y-94366400D03*
X72865800Y-96906400D03*
X72865800Y-99446400D03*
X72865800Y-101986400D03*
X72865800Y-104526400D03*
X72865800Y-107066400D03*
X72865800Y-109606400D03*
X72865800Y-112146400D03*
X72865800Y-114686400D03*
X72865800Y-117226400D03*
X72865800Y-119766400D03*
X72865800Y-122306400D03*
X72865800Y-124846400D03*
X72865800Y-127386400D03*
X72865800Y-129926400D03*
X72865800Y-132466400D03*
X72865800Y-135006400D03*
X72865800Y-137546400D03*
X72865800Y-140086400D03*
X72865800Y-142626400D03*
X72865800Y-145166400D03*
X72865800Y-147706400D03*
X72865800Y-150246400D03*
X72865800Y-152786400D03*
X72865800Y-155326400D03*
X72865800Y-157866400D03*
X77945800Y-81666400D03*
X77945800Y-84206400D03*
X77945800Y-86746400D03*
X77945800Y-89286400D03*
X77945800Y-91826400D03*
X77945800Y-94366400D03*
X77945800Y-96906400D03*
X77945800Y-99446400D03*
X77945800Y-101986400D03*
X77945800Y-104526400D03*
X77945800Y-107066400D03*
X77945800Y-109606400D03*
X77945800Y-112146400D03*
X77945800Y-114686400D03*
X77945800Y-117226400D03*
X77945800Y-119766400D03*
X77945800Y-122306400D03*
X77945800Y-124846400D03*
X77945800Y-127386400D03*
X77945800Y-129926400D03*
X77945800Y-132466400D03*
X77945800Y-135006400D03*
X77945800Y-137546400D03*
X77945800Y-140086400D03*
X77945800Y-142626400D03*
X77945800Y-145166400D03*
X77945800Y-147706400D03*
X77945800Y-150246400D03*
X77945800Y-152786400D03*
X77945800Y-155326400D03*
X77945800Y-157866400D03*
%TD*%
D16*
%TO.C,U21*%
X266795600Y-177866400D03*
D17*
X266795600Y-180406400D03*
X266795600Y-182946400D03*
X266795600Y-185486400D03*
X266795600Y-188026400D03*
X266795600Y-190566400D03*
X266795600Y-193106400D03*
X274415600Y-193106400D03*
X274415600Y-190566400D03*
X274415600Y-188026400D03*
X274415600Y-185486400D03*
X274415600Y-182946400D03*
X274415600Y-180406400D03*
X274415600Y-177866400D03*
%TD*%
D23*
%TO.C,P8*%
X149040400Y-221312400D03*
D24*
X149040400Y-221312400D03*
%TD*%
M02*
