M48
; DRILL file {KiCad 8.0.6} date 2025-05-18T09:51:45-0500
; FORMAT={-:-/ absolute / inch / decimal}
; #@! TF.CreationDate,2025-05-18T09:51:45-05:00
; #@! TF.GenerationSoftware,Kicad,Pcbnew,8.0.6
; #@! TF.FileFunction,Plated,1,2,PTH
FMAT,2
INCH
; #@! TA.AperFunction,Plated,PTH,ViaDrill
T1C0.0157
; #@! TA.AperFunction,Plated,PTH,ComponentDrill
T2C0.0197
; #@! TA.AperFunction,Plated,PTH,ComponentDrill
T3C0.0295
; #@! TA.AperFunction,Plated,PTH,ComponentDrill
T4C0.0315
; #@! TA.AperFunction,Plated,PTH,ComponentDrill
T5C0.0394
; #@! TA.AperFunction,Plated,PTH,ComponentDrill
T6C0.0400
; #@! TA.AperFunction,Plated,PTH,ComponentDrill
T7C0.0433
; #@! TA.AperFunction,Plated,PTH,ComponentDrill
T8C0.0669
; #@! TA.AperFunction,Plated,PTH,ComponentDrill
T9C0.1260
%
G90
G05
T1
X3.0277Y-7.89
X3.1399Y-6.0279
X3.1939Y-6.7954
X3.2815Y-5.5282
X3.2828Y-7.5576
X3.2932Y-6.7409
X3.4015Y-7.5324
X3.4136Y-9.6703
X3.4291Y-7.4792
X3.4309Y-7.7533
X3.4474Y-5.9356
X3.4705Y-6.2044
X3.4867Y-7.4834
X3.5079Y-7.4489
X3.5103Y-7.3325
X3.5118Y-7.5473
X3.5123Y-7.3815
X3.5224Y-5.8147
X3.5586Y-8.1885
X3.647Y-6.8814
X3.7237Y-3.1364
X3.7492Y-10.0672
X3.7846Y-8.1226
X3.8491Y-8.2698
X3.889Y-11.316
X3.9694Y-9.4077
X3.9823Y-10.23
X3.9836Y-4.0118
X3.9915Y-3.8312
X4.0129Y-10.8502
X4.031Y-10.8017
X4.0555Y-8.2084
X4.0664Y-9.9899
X4.095Y-8.4912
X4.1263Y-8.2226
X4.1302Y-9.6917
X4.1347Y-7.3939
X4.1455Y-8.578
X4.2024Y-8.8236
X4.2803Y-10.3347
X4.2926Y-10.8334
X4.3059Y-5.7891
X4.3108Y-9.9627
X4.3194Y-10.4292
X4.3559Y-3.4545
X4.3754Y-3.7872
X4.3814Y-3.0458
X4.384Y-5.9769
X4.399Y-9.8303
X4.4141Y-5.7891
X4.4888Y-9.8097
X4.5198Y-9.2078
X4.5231Y-6.1207
X4.5247Y-3.8454
X4.5261Y-9.5156
X4.5347Y-3.4522
X4.5352Y-10.08
X4.552Y-10.666
X4.5543Y-9.8958
X4.5586Y-10.6084
X4.5636Y-8.3789
X4.5994Y-11.0592
X4.6012Y-8.3406
X4.6027Y-3.5303
X4.6188Y-4.0486
X4.6391Y-3.0458
X4.6871Y-3.1088
X4.6966Y-10.1435
X4.7256Y-8.1788
X4.7462Y-10.513
X4.7503Y-10.0323
X4.751Y-6.6551
X4.7738Y-10.3361
X4.7745Y-9.6102
X4.7967Y-6.4141
X4.8099Y-8.2046
X4.8113Y-8.5033
X4.8391Y-8.0425
X4.8472Y-10.7515
X4.8711Y-3.2967
X4.8712Y-8.7666
X4.9344Y-8.5978
X4.9705Y-10.5557
X5.118Y-9.0943
X5.1194Y-3.1381
X5.1214Y-7.419
X5.1247Y-7.2825
X5.1291Y-5.9595
X5.1594Y-8.5442
X5.171Y-8.4659
X5.1744Y-5.8069
X5.1837Y-5.8904
X5.2301Y-7.0527
X5.2514Y-8.1456
X5.3023Y-9.1204
X5.3189Y-10.4179
X5.3277Y-10.9333
X5.3329Y-9.7717
X5.342Y-8.2374
X5.3573Y-11.0055
X5.3659Y-6.5964
X5.3836Y-11.1336
X5.3936Y-3.6245
X5.4032Y-7.1117
X5.4125Y-11.2824
X5.4156Y-9.8855
X5.426Y-6.5246
X5.4378Y-6.6237
X5.4752Y-6.6739
X5.4779Y-10.084
X5.4973Y-3.0927
X5.5148Y-6.5878
X5.5285Y-6.0396
X5.6035Y-7.5876
X5.6751Y-6.2024
X5.6817Y-4.1521
X5.6863Y-6.3919
X5.6993Y-5.4657
X5.7396Y-3.0714
X5.8112Y-7.0753
X5.8188Y-5.5387
X5.8496Y-5.8881
X5.872Y-11.1531
X5.8752Y-7.8803
X5.8786Y-8.9394
X5.8871Y-6.4758
X5.8916Y-8.2205
X5.904Y-6.437
X5.9175Y-6.6695
X5.9185Y-3.3152
X5.9514Y-3.3599
X5.9684Y-6.6776
X6.0071Y-3.2403
X6.0151Y-6.9086
X6.0432Y-7.6375
X6.0449Y-8.3306
X6.0524Y-7.9559
X6.0525Y-6.734
X6.077Y-9.988
X6.0999Y-8.3521
X6.172Y-6.3288
X6.1927Y-7.5549
X6.194Y-6.2851
X6.1957Y-8.5695
X6.2165Y-7.8128
X6.2184Y-3.5431
X6.2213Y-7.1114
X6.2407Y-8.0068
X6.3327Y-5.3317
X6.3521Y-6.2522
X6.3689Y-7.9845
X6.3775Y-3.9434
X6.4125Y-9.9748
X6.4551Y-7.3234
X6.4595Y-9.8804
X6.4637Y-9.6636
X6.4669Y-10.9297
X6.4694Y-7.9545
X6.5063Y-8.0842
X6.5084Y-7.6726
X6.5137Y-5.4648
X6.516Y-10.9567
X6.5298Y-7.59
X6.5358Y-7.7645
X6.5884Y-6.433
X6.6196Y-6.3583
X6.624Y-4.7592
X6.6249Y-11.3211
X6.6403Y-5.995
X6.6404Y-11.1647
X6.6697Y-11.0055
X6.6727Y-6.0499
X6.6839Y-11.5199
X6.6871Y-11.2705
X6.6939Y-3.6384
X6.711Y-10.3566
X6.7124Y-8.9593
X6.7137Y-10.0401
X6.7264Y-10.5552
X6.7314Y-9.358
X6.7412Y-10.1734
X6.766Y-6.2608
X6.7674Y-10.7653
X6.7701Y-6.1954
X6.7791Y-4.859
X6.8046Y-8.9024
X6.8101Y-2.876
X6.814Y-7.5001
X6.821Y-7.704
X6.8241Y-9.1126
X6.8247Y-11.1604
X6.8263Y-10.1532
X6.8298Y-8.1375
X6.8365Y-10.7286
X6.8619Y-2.8404
X6.8703Y-7.5007
X6.8859Y-8.2233
X6.8882Y-7.7309
X6.8958Y-7.3627
X6.8984Y-8.2637
X6.9165Y-6.9765
X6.9351Y-9.0712
X6.9728Y-4.7759
X6.9735Y-3.8072
X6.9789Y-10.9519
X6.9796Y-9.7039
X6.9848Y-5.3152
X7.0133Y-10.8101
X7.014Y-10.3102
X7.0229Y-3.0367
X7.0264Y-3.3803
X7.0358Y-9.2134
X7.0435Y-10.6863
X7.0492Y-9.8041
X7.0862Y-8.606
X7.131Y-3.6396
X7.1523Y-4.7241
X7.1664Y-10.0593
X7.1925Y-3.6195
X7.1943Y-5.4529
X7.1974Y-5.8338
X7.2062Y-7.2163
X7.2107Y-9.9541
X7.2224Y-7.8102
X7.2232Y-8.2605
X7.2385Y-3.5628
X7.2456Y-9.3645
X7.2461Y-3.6089
X7.2728Y-9.9681
X7.2847Y-11.0044
X7.317Y-8.8654
X7.3173Y-5.4354
X7.3375Y-5.5086
X7.3504Y-5.3839
X7.3807Y-5.4998
X7.3818Y-6.2841
X7.3951Y-8.2831
X7.4097Y-8.3768
X7.4132Y-10.0638
X7.4136Y-5.5467
X7.4397Y-5.3436
X7.4428Y-9.9508
X7.4767Y-5.3666
X7.4997Y-5.3318
X7.5077Y-6.141
X7.5127Y-11.1671
X7.5183Y-5.2414
X7.5714Y-3.8224
X7.5821Y-7.0805
X7.5912Y-6.4383
X7.5914Y-5.9537
X7.5923Y-6.3648
X7.593Y-8.8311
X7.5965Y-6.239
X7.6022Y-9.0391
X7.62Y-5.1863
X7.6581Y-9.7074
X7.6663Y-6.2226
X7.7006Y-5.9951
X7.7006Y-6.2575
X7.7143Y-4.0083
X7.7364Y-9.7857
X7.8162Y-8.5921
X7.8211Y-8.1545
X7.83Y-5.2284
X7.8343Y-5.6807
X7.8551Y-3.8265
X7.8593Y-3.9697
X7.8616Y-10.5474
X7.8656Y-5.4676
X7.8706Y-9.9942
X7.873Y-7.5792
X7.8752Y-8.076
X7.8789Y-6.5624
X7.9091Y-5.7348
X7.9133Y-8.3013
X7.9148Y-9.6392
X7.9224Y-3.5656
X7.9314Y-10.0487
X7.9413Y-5.7113
X7.9452Y-7.9587
X7.9635Y-8.3439
X7.9676Y-3.7913
X8.0008Y-3.7572
X8.0159Y-8.6392
X8.0224Y-9.6745
X8.0386Y-4.9413
X8.0563Y-5.3354
X8.0563Y-5.6497
X8.0585Y-9.045
X8.0618Y-3.9292
X8.0861Y-9.2959
X8.0875Y-9.4528
X8.099Y-7.8477
X8.1096Y-10.2908
X8.1101Y-4.1568
X8.114Y-11.2817
X8.119Y-4.8366
X8.1199Y-3.3435
X8.1403Y-10.6474
X8.1528Y-6.8819
X8.1884Y-8.9758
X8.2208Y-6.6237
X8.239Y-7.5447
X8.2524Y-8.167
X8.2802Y-5.4073
X8.3108Y-5.686
X8.3302Y-9.7856
X8.3461Y-8.6482
X8.3545Y-8.0819
X8.3561Y-4.7729
X8.3598Y-3.0855
X8.4032Y-3.8725
X8.4043Y-6.6162
X8.4382Y-6.2734
X8.442Y-5.7713
X8.4519Y-9.212
X8.4793Y-10.027
X8.5507Y-7.2677
X8.5605Y-5.4808
X8.5739Y-3.9709
X8.5812Y-8.367
X8.5877Y-9.6648
X8.5933Y-3.3023
X8.5939Y-4.1567
X8.6416Y-5.7713
X8.6488Y-9.9498
X8.6607Y-6.1552
X8.6898Y-8.7909
X8.7088Y-5.0425
X8.7403Y-7.9185
X8.796Y-5.0374
X8.8051Y-4.1056
X8.8128Y-8.4248
X8.8178Y-8.6103
X8.8198Y-10.593
X8.8486Y-7.7527
X8.8521Y-3.7385
X8.853Y-10.3274
X8.8732Y-4.2946
X8.8834Y-6.6046
X8.9141Y-9.7636
X8.933Y-9.9694
X8.9516Y-4.1036
X9.1079Y-9.8496
X9.1273Y-6.6602
X9.1558Y-6.7037
X9.1947Y-6.6453
X9.2036Y-9.763
X9.2481Y-7.5008
X9.2615Y-6.9422
X9.3128Y-5.9949
X9.3559Y-4.484
X9.3845Y-8.1105
X9.4014Y-10.7574
X9.4308Y-4.4833
X9.4632Y-10.0256
X9.4934Y-10.2205
X9.5026Y-7.6382
X9.5091Y-3.9216
X9.5313Y-7.5321
X9.5599Y-7.4958
X9.5695Y-4.2359
X9.5776Y-7.9174
X9.5776Y-6.2577
X9.6701Y-7.3277
X9.6782Y-5.8312
X9.6901Y-4.5743
X9.7071Y-10.0055
X9.7169Y-8.1234
X9.7259Y-3.6577
X9.7366Y-3.5743
X9.7734Y-4.3114
X9.7887Y-6.7964
X9.8113Y-6.857
X9.8124Y-7.6974
X9.8148Y-4.103
X9.8282Y-3.9958
X9.8489Y-3.8485
X9.8849Y-5.6671
X9.9181Y-6.6723
X9.9252Y-6.6318
X9.9295Y-8.6572
X9.9302Y-4.4783
X9.9404Y-10.7119
X9.997Y-5.6207
X10.0349Y-5.4764
X10.0714Y-4.004
X10.0789Y-3.8336
X10.0861Y-3.14
X10.0884Y-5.5736
X10.1033Y-6.619
X10.1186Y-6.7104
X10.1392Y-6.5834
X10.1656Y-6.6506
X10.2406Y-4.2896
X10.2531Y-3.642
X10.3095Y-8.5158
X10.3614Y-7.3424
X10.4343Y-5.5277
X10.445Y-8.3553
X10.4525Y-6.5489
X10.5232Y-6.6249
X10.5492Y-8.3073
X10.5628Y-4.3551
X10.6653Y-10.6529
X10.6853Y-6.0009
X10.6976Y-4.5677
X10.7098Y-5.885
X10.711Y-5.7731
X10.7404Y-6.4426
X10.741Y-3.8265
X10.8Y-6.5134
X10.8367Y-10.5289
X10.9471Y-5.3081
X10.984Y-7.1051
X10.9934Y-7.2013
X11.0175Y-7.8605
X11.0611Y-5.329
X11.063Y-8.8388
X11.1289Y-8.9094
X11.1968Y-6.5139
X11.2119Y-9.5022
X11.2286Y-6.5776
X11.321Y-7.1643
T2
X10.8036Y-4.8647
X10.8036Y-4.9238
T3
X7.513Y-8.241
X7.563Y-8.191
X7.613Y-8.241
T4
X2.8231Y-6.802
X2.931Y-7.002
X2.931Y-7.102
X2.931Y-7.202
X2.931Y-7.302
X2.931Y-7.402
X2.931Y-7.502
X2.931Y-7.602
X2.931Y-7.702
X2.931Y-7.802
X2.931Y-7.902
X2.931Y-8.002
X2.931Y-8.102
X2.931Y-8.202
X2.931Y-8.302
X2.9757Y-11.4129
X2.9757Y-11.7129
X3.0035Y-9.5564
X3.0035Y-9.6564
X3.0035Y-9.7564
X3.0035Y-9.8564
X3.0035Y-9.9564
X3.0035Y-10.0564
X3.0035Y-10.1564
X3.0035Y-10.2564
X3.0035Y-10.3564
X3.0035Y-10.4564
X3.0035Y-10.5564
X3.0035Y-10.6564
X3.0035Y-10.7564
X3.0035Y-10.8564
X3.0035Y-10.9564
X3.0035Y-11.0564
X3.02Y-6.802
X3.2069Y-9.3002
X3.231Y-7.002
X3.231Y-7.102
X3.231Y-7.202
X3.231Y-7.302
X3.231Y-7.402
X3.231Y-7.502
X3.231Y-7.602
X3.231Y-7.702
X3.231Y-7.802
X3.231Y-7.902
X3.231Y-8.002
X3.231Y-8.102
X3.231Y-8.202
X3.231Y-8.302
X3.2625Y-6.4012
X3.2883Y-4.6562
X3.3867Y-4.6562
X3.4037Y-9.3002
X3.44Y-5.025
X3.44Y-5.325
X3.4594Y-6.4012
X3.5041Y-6.801
X3.581Y-8.043
X3.581Y-8.343
X3.6035Y-9.5564
X3.6035Y-9.6564
X3.6035Y-9.7564
X3.6035Y-9.8564
X3.6035Y-9.9564
X3.6035Y-10.0564
X3.6035Y-10.1564
X3.6035Y-10.2564
X3.6035Y-10.3564
X3.6035Y-10.4564
X3.6035Y-10.5564
X3.6035Y-10.6564
X3.6035Y-10.7564
X3.6035Y-10.8564
X3.6035Y-10.9564
X3.6035Y-11.0564
X3.6194Y-7.002
X3.6194Y-7.102
X3.6194Y-7.202
X3.6194Y-7.302
X3.6194Y-7.402
X3.6194Y-7.502
X3.6194Y-7.602
X3.6194Y-7.702
X3.681Y-8.043
X3.681Y-8.343
X3.701Y-6.801
X3.781Y-8.043
X3.781Y-8.343
X3.881Y-8.043
X3.881Y-8.343
X3.889Y-10.815
X3.889Y-11.115
X3.9194Y-7.002
X3.9194Y-7.102
X3.9194Y-7.202
X3.9194Y-7.302
X3.9194Y-7.402
X3.9194Y-7.502
X3.9194Y-7.602
X3.9194Y-7.702
X3.92Y-9.58
X3.92Y-9.68
X3.92Y-9.78
X3.92Y-9.88
X3.92Y-9.98
X3.92Y-10.08
X3.92Y-10.18
X3.92Y-10.28
X3.92Y-10.38
X3.92Y-10.48
X3.981Y-8.043
X3.981Y-8.343
X3.9981Y-9.299
X4.0525Y-6.3792
X4.081Y-8.043
X4.081Y-8.343
X4.1075Y-4.6562
X4.181Y-8.043
X4.181Y-8.343
X4.1931Y-6.803
X4.195Y-9.299
X4.199Y-10.803
X4.199Y-11.103
X4.2059Y-4.6562
X4.22Y-9.58
X4.22Y-9.68
X4.22Y-9.78
X4.22Y-9.88
X4.22Y-9.98
X4.22Y-10.08
X4.22Y-10.18
X4.22Y-10.28
X4.22Y-10.38
X4.22Y-10.48
X4.2494Y-6.3792
X4.281Y-8.043
X4.281Y-8.343
X4.2916Y-11.316
X4.3078Y-7.002
X4.3078Y-7.102
X4.3078Y-7.202
X4.3078Y-7.302
X4.3078Y-7.402
X4.3078Y-7.502
X4.3078Y-7.602
X4.3078Y-7.702
X4.39Y-6.803
X4.39Y-11.316
X4.518Y-8.0941
X4.518Y-8.291
X4.6078Y-7.002
X4.6078Y-7.102
X4.6078Y-7.202
X4.6078Y-7.302
X4.6078Y-7.402
X4.6078Y-7.502
X4.6078Y-7.602
X4.6078Y-7.702
X4.6437Y-11.3352
X4.6437Y-11.6352
X4.6458Y-9.6904
X4.6458Y-9.7904
X4.6458Y-9.8904
X4.6458Y-9.9904
X4.6458Y-10.0904
X4.6458Y-10.1904
X4.6458Y-10.2904
X4.6458Y-10.3904
X4.6458Y-10.4904
X4.6458Y-10.5904
X4.6458Y-10.6904
X4.6458Y-10.7904
X4.6458Y-10.8904
X4.6458Y-10.9904
X4.7437Y-11.3352
X4.7437Y-11.6352
X4.8437Y-11.3352
X4.8437Y-11.6352
X4.8527Y-6.3382
X4.856Y-6.799
X4.9335Y-4.6562
X4.9437Y-11.3352
X4.9437Y-11.6352
X4.991Y-8.447
X4.991Y-8.547
X4.991Y-8.647
X4.991Y-8.747
X4.991Y-8.847
X4.991Y-8.947
X4.991Y-9.047
X4.9961Y-7.002
X4.9961Y-7.102
X4.9961Y-7.202
X4.9961Y-7.302
X4.9961Y-7.402
X4.9961Y-7.502
X4.9961Y-7.602
X4.9961Y-7.702
X4.9961Y-7.802
X4.9961Y-7.902
X5.0319Y-4.6562
X5.0437Y-11.3352
X5.0437Y-11.6352
X5.0496Y-6.3382
X5.0529Y-6.799
X5.1011Y-9.333
X5.1437Y-11.3352
X5.1437Y-11.6352
X5.2437Y-11.3352
X5.2437Y-11.6352
X5.2458Y-9.6904
X5.2458Y-9.7904
X5.2458Y-9.8904
X5.2458Y-9.9904
X5.2458Y-10.0904
X5.2458Y-10.1904
X5.2458Y-10.2904
X5.2458Y-10.3904
X5.2458Y-10.4904
X5.2458Y-10.5904
X5.2458Y-10.6904
X5.2458Y-10.7904
X5.2458Y-10.8904
X5.2458Y-10.9904
X5.291Y-8.447
X5.291Y-8.547
X5.291Y-8.647
X5.291Y-8.747
X5.291Y-8.847
X5.291Y-8.947
X5.291Y-9.047
X5.2961Y-7.002
X5.2961Y-7.102
X5.2961Y-7.202
X5.2961Y-7.302
X5.2961Y-7.402
X5.2961Y-7.502
X5.2961Y-7.602
X5.2961Y-7.702
X5.2961Y-7.802
X5.2961Y-7.902
X5.298Y-9.333
X5.4969Y-8.8952
X5.55Y-8.272
X5.562Y-6.803
X5.5925Y-6.3432
X5.6287Y-10.4602
X5.6287Y-10.5602
X5.6287Y-10.6602
X5.6287Y-10.7602
X5.6287Y-10.8602
X5.6287Y-10.9602
X5.6287Y-11.0602
X5.64Y-9.115
X5.64Y-9.215
X5.64Y-9.315
X5.64Y-9.415
X5.64Y-9.515
X5.64Y-9.615
X5.64Y-9.715
X5.64Y-9.815
X5.65Y-8.272
X5.6705Y-10.1562
X5.6845Y-7.002
X5.6845Y-7.102
X5.6845Y-7.202
X5.6845Y-7.302
X5.6845Y-7.402
X5.6845Y-7.502
X5.6845Y-7.602
X5.6845Y-7.702
X5.6937Y-8.8952
X5.7127Y-4.6562
X5.75Y-8.272
X5.7589Y-6.803
X5.7894Y-6.3432
X5.8112Y-4.6562
X5.85Y-8.272
X5.8674Y-10.1562
X5.9287Y-10.4602
X5.9287Y-10.5602
X5.9287Y-10.6602
X5.9287Y-10.7602
X5.9287Y-10.8602
X5.9287Y-10.9602
X5.9287Y-11.0602
X5.94Y-9.115
X5.94Y-9.215
X5.94Y-9.315
X5.94Y-9.415
X5.94Y-9.515
X5.94Y-9.615
X5.94Y-9.715
X5.94Y-9.815
X5.95Y-8.272
X5.9845Y-7.002
X5.9845Y-7.102
X5.9845Y-7.202
X5.9845Y-7.302
X5.9845Y-7.402
X5.9845Y-7.502
X5.9845Y-7.602
X5.9845Y-7.702
X6.05Y-8.272
X6.0527Y-11.2742
X6.15Y-8.272
X6.1512Y-11.2742
X6.2421Y-6.803
X6.25Y-8.272
X6.3037Y-9.1552
X6.3037Y-9.2552
X6.3037Y-9.3552
X6.3037Y-9.4552
X6.3037Y-9.5552
X6.3037Y-9.6552
X6.3037Y-9.7552
X6.3037Y-9.8552
X6.3037Y-9.9552
X6.3037Y-10.0552
X6.3037Y-10.1552
X6.3037Y-10.2552
X6.3037Y-10.3552
X6.3037Y-10.4552
X6.3037Y-10.5552
X6.3037Y-10.6552
X6.3037Y-10.7552
X6.3037Y-10.8552
X6.3037Y-10.9552
X6.3037Y-11.0552
X6.35Y-8.272
X6.3729Y-7.002
X6.3729Y-7.102
X6.3729Y-7.202
X6.3729Y-7.302
X6.3729Y-7.402
X6.3729Y-7.502
X6.3729Y-7.602
X6.3729Y-7.702
X6.3729Y-7.802
X6.3729Y-7.902
X6.439Y-6.803
X6.45Y-8.272
X6.5046Y-4.667
X6.5285Y-6.3752
X6.603Y-4.667
X6.6729Y-7.002
X6.6729Y-7.102
X6.6729Y-7.202
X6.6729Y-7.302
X6.6729Y-7.402
X6.6729Y-7.502
X6.6729Y-7.602
X6.6729Y-7.702
X6.6729Y-7.802
X6.6729Y-7.902
X6.7254Y-6.3752
X6.7541Y-9.01
X6.8751Y-6.799
X6.9037Y-9.1552
X6.9037Y-9.2552
X6.9037Y-9.3552
X6.9037Y-9.4552
X6.9037Y-9.5552
X6.9037Y-9.6552
X6.9037Y-9.7552
X6.9037Y-9.8552
X6.9037Y-9.9552
X6.9037Y-10.0552
X6.9037Y-10.1552
X6.9037Y-10.2552
X6.9037Y-10.3552
X6.9037Y-10.4552
X6.9037Y-10.5552
X6.9037Y-10.6552
X6.9037Y-10.7552
X6.9037Y-10.8552
X6.9037Y-10.9552
X6.9037Y-11.0552
X6.951Y-9.01
X7.0613Y-7.002
X7.0613Y-7.102
X7.0613Y-7.202
X7.0613Y-7.302
X7.0613Y-7.402
X7.0613Y-7.502
X7.0613Y-7.602
X7.0613Y-7.702
X7.0613Y-7.802
X7.0613Y-7.902
X7.072Y-6.799
X7.16Y-8.237
X7.191Y-8.912
X7.191Y-9.012
X7.191Y-9.112
X7.191Y-9.212
X7.191Y-9.312
X7.191Y-9.412
X7.191Y-9.512
X7.191Y-9.612
X7.191Y-9.712
X7.191Y-9.812
X7.201Y-10.176
X7.201Y-10.276
X7.201Y-10.376
X7.201Y-10.476
X7.201Y-10.576
X7.201Y-10.676
X7.201Y-10.776
X7.201Y-10.876
X7.201Y-10.976
X7.201Y-11.076
X7.251Y-6.376
X7.3569Y-8.237
X7.3613Y-7.002
X7.3613Y-7.102
X7.3613Y-7.202
X7.3613Y-7.302
X7.3613Y-7.402
X7.3613Y-7.502
X7.3613Y-7.602
X7.3613Y-7.702
X7.3613Y-7.802
X7.3613Y-7.902
X7.4479Y-6.376
X7.491Y-8.912
X7.491Y-9.012
X7.491Y-9.112
X7.491Y-9.212
X7.491Y-9.312
X7.491Y-9.412
X7.491Y-9.512
X7.491Y-9.612
X7.491Y-9.712
X7.491Y-9.812
X7.501Y-10.176
X7.501Y-10.276
X7.501Y-10.376
X7.501Y-10.476
X7.501Y-10.576
X7.501Y-10.676
X7.501Y-10.776
X7.501Y-10.876
X7.501Y-10.976
X7.501Y-11.076
X7.5591Y-10.005
X7.5701Y-6.79
X7.7496Y-7.002
X7.7496Y-7.102
X7.7496Y-7.202
X7.7496Y-7.302
X7.7496Y-7.402
X7.7496Y-7.502
X7.7496Y-7.602
X7.7496Y-7.702
X7.7496Y-7.802
X7.7496Y-7.902
X7.756Y-10.005
X7.767Y-6.79
X7.971Y-8.912
X7.971Y-9.012
X7.971Y-9.112
X7.971Y-9.212
X7.971Y-9.312
X7.971Y-9.412
X7.971Y-9.512
X7.971Y-10.176
X7.971Y-10.276
X7.971Y-10.376
X7.971Y-10.476
X7.971Y-10.576
X7.971Y-10.676
X7.971Y-10.776
X8.0011Y-8.695
X8.006Y-5.848
X8.006Y-6.0449
X8.006Y-11.047
X8.0191Y-2.876
X8.0496Y-7.002
X8.0496Y-7.102
X8.0496Y-7.202
X8.0496Y-7.302
X8.0496Y-7.402
X8.0496Y-7.502
X8.0496Y-7.602
X8.0496Y-7.702
X8.0496Y-7.802
X8.0496Y-7.902
X8.0711Y-4.431
X8.198Y-8.695
X8.1994Y-3.0968
X8.1994Y-3.1968
X8.1994Y-3.2968
X8.1994Y-3.3968
X8.1994Y-3.4968
X8.1994Y-3.5968
X8.1994Y-3.6968
X8.1994Y-3.7968
X8.1994Y-3.8968
X8.1994Y-3.9968
X8.1994Y-4.6284
X8.1994Y-4.7284
X8.1994Y-4.8284
X8.1994Y-4.9284
X8.1994Y-5.0284
X8.1994Y-5.1284
X8.1994Y-5.2284
X8.1994Y-5.3284
X8.1994Y-5.4284
X8.1994Y-5.5284
X8.1994Y-5.9234
X8.1994Y-6.0234
X8.1994Y-6.1234
X8.1994Y-6.2234
X8.1994Y-6.3234
X8.1994Y-6.4234
X8.1994Y-6.5234
X8.2029Y-11.047
X8.216Y-2.876
X8.2581Y-8.034
X8.268Y-4.431
X8.271Y-8.912
X8.271Y-9.012
X8.271Y-9.112
X8.271Y-9.212
X8.271Y-9.312
X8.271Y-9.412
X8.271Y-9.512
X8.271Y-10.176
X8.271Y-10.276
X8.271Y-10.376
X8.271Y-10.476
X8.271Y-10.576
X8.271Y-10.676
X8.271Y-10.776
X8.306Y-8.234
X8.306Y-8.534
X8.406Y-8.234
X8.406Y-8.534
X8.438Y-7.002
X8.438Y-7.102
X8.438Y-7.202
X8.438Y-7.302
X8.438Y-7.402
X8.438Y-7.502
X8.438Y-7.602
X8.438Y-7.702
X8.4421Y-6.816
X8.455Y-8.034
X8.4994Y-3.0968
X8.4994Y-3.1968
X8.4994Y-3.2968
X8.4994Y-3.3968
X8.4994Y-3.4968
X8.4994Y-3.5968
X8.4994Y-3.6968
X8.4994Y-3.7968
X8.4994Y-3.8968
X8.4994Y-3.9968
X8.4994Y-4.6284
X8.4994Y-4.7284
X8.4994Y-4.8284
X8.4994Y-4.9284
X8.4994Y-5.0284
X8.4994Y-5.1284
X8.4994Y-5.2284
X8.4994Y-5.3284
X8.4994Y-5.4284
X8.4994Y-5.5284
X8.4994Y-5.9234
X8.4994Y-6.0234
X8.4994Y-6.1234
X8.4994Y-6.2234
X8.4994Y-6.3234
X8.4994Y-6.4234
X8.4994Y-6.5234
X8.506Y-8.234
X8.506Y-8.534
X8.5931Y-8.715
X8.606Y-8.234
X8.606Y-8.534
X8.639Y-6.816
X8.693Y-8.912
X8.693Y-9.012
X8.693Y-9.112
X8.693Y-9.212
X8.693Y-9.312
X8.693Y-9.412
X8.693Y-9.512
X8.693Y-10.176
X8.693Y-10.276
X8.693Y-10.376
X8.693Y-10.476
X8.693Y-10.576
X8.693Y-10.676
X8.693Y-10.776
X8.704Y-11.047
X8.706Y-8.234
X8.706Y-8.534
X8.738Y-7.002
X8.738Y-7.102
X8.738Y-7.202
X8.738Y-7.302
X8.738Y-7.402
X8.738Y-7.502
X8.738Y-7.602
X8.738Y-7.702
X8.7751Y-2.894
X8.7891Y-4.614
X8.79Y-8.715
X8.806Y-8.234
X8.806Y-8.534
X8.9009Y-11.047
X8.906Y-8.234
X8.906Y-8.534
X8.912Y-5.931
X8.912Y-6.031
X8.912Y-6.131
X8.912Y-6.231
X8.912Y-6.331
X8.912Y-6.431
X8.912Y-6.531
X8.9121Y-3.0968
X8.9121Y-3.1968
X8.9121Y-3.2968
X8.9121Y-3.3968
X8.9121Y-3.4968
X8.9121Y-3.5968
X8.9121Y-3.6968
X8.9121Y-3.7968
X8.9121Y-3.8968
X8.9121Y-3.9968
X8.9121Y-4.8272
X8.9121Y-4.9272
X8.9121Y-5.0272
X8.9121Y-5.1272
X8.9121Y-5.2272
X8.9121Y-5.3272
X8.9121Y-5.4272
X8.9121Y-5.5272
X8.972Y-2.894
X8.986Y-4.614
X8.9901Y-6.804
X8.993Y-8.912
X8.993Y-9.012
X8.993Y-9.112
X8.993Y-9.212
X8.993Y-9.312
X8.993Y-9.412
X8.993Y-9.512
X8.993Y-10.176
X8.993Y-10.276
X8.993Y-10.376
X8.993Y-10.476
X8.993Y-10.576
X8.993Y-10.676
X8.993Y-10.776
X9.127Y-6.994
X9.127Y-7.094
X9.127Y-7.194
X9.127Y-7.294
X9.127Y-7.394
X9.127Y-7.494
X9.127Y-7.594
X9.127Y-7.694
X9.127Y-7.794
X9.127Y-7.894
X9.187Y-6.804
X9.212Y-5.931
X9.212Y-6.031
X9.212Y-6.131
X9.212Y-6.231
X9.212Y-6.331
X9.212Y-6.431
X9.212Y-6.531
X9.2121Y-3.0968
X9.2121Y-3.1968
X9.2121Y-3.2968
X9.2121Y-3.3968
X9.2121Y-3.4968
X9.2121Y-3.5968
X9.2121Y-3.6968
X9.2121Y-3.7968
X9.2121Y-3.8968
X9.2121Y-3.9968
X9.2121Y-4.8272
X9.2121Y-4.9272
X9.2121Y-5.0272
X9.2121Y-5.1272
X9.2121Y-5.2272
X9.2121Y-5.3272
X9.2121Y-5.4272
X9.2121Y-5.5272
X9.2121Y-8.71
X9.335Y-8.911
X9.335Y-9.011
X9.335Y-9.111
X9.335Y-9.211
X9.335Y-9.311
X9.335Y-9.411
X9.335Y-9.511
X9.335Y-9.611
X9.335Y-9.711
X9.335Y-9.811
X9.336Y-10.21
X9.336Y-10.31
X9.336Y-10.41
X9.336Y-10.51
X9.336Y-10.61
X9.336Y-10.71
X9.336Y-10.81
X9.3671Y-11.09
X9.392Y-8.388
X9.409Y-8.71
X9.413Y-5.8651
X9.413Y-6.062
X9.427Y-6.994
X9.427Y-7.094
X9.427Y-7.194
X9.427Y-7.294
X9.427Y-7.394
X9.427Y-7.494
X9.427Y-7.594
X9.427Y-7.694
X9.427Y-7.794
X9.427Y-7.894
X9.4351Y-2.886
X9.492Y-8.388
X9.5001Y-4.433
X9.564Y-11.09
X9.592Y-8.388
X9.6249Y-3.0968
X9.6249Y-3.1968
X9.6249Y-3.2968
X9.6249Y-3.3968
X9.6249Y-3.4968
X9.6249Y-3.5968
X9.6249Y-3.6968
X9.6249Y-3.7968
X9.6249Y-3.8968
X9.6249Y-3.9968
X9.6249Y-4.6284
X9.6249Y-4.7284
X9.6249Y-4.8284
X9.6249Y-4.9284
X9.6249Y-5.0284
X9.6249Y-5.1284
X9.6249Y-5.2284
X9.6249Y-5.3284
X9.6249Y-5.4284
X9.6249Y-5.5284
X9.632Y-2.886
X9.635Y-8.911
X9.635Y-9.011
X9.635Y-9.111
X9.635Y-9.211
X9.635Y-9.311
X9.635Y-9.411
X9.635Y-9.511
X9.635Y-9.611
X9.635Y-9.711
X9.635Y-9.811
X9.636Y-10.21
X9.636Y-10.31
X9.636Y-10.41
X9.636Y-10.51
X9.636Y-10.61
X9.636Y-10.71
X9.636Y-10.81
X9.6871Y-6.802
X9.692Y-8.388
X9.697Y-4.433
X9.792Y-8.388
X9.884Y-6.802
X9.887Y-6.995
X9.887Y-7.095
X9.887Y-7.195
X9.887Y-7.295
X9.887Y-7.395
X9.887Y-7.495
X9.887Y-7.595
X9.887Y-7.695
X9.887Y-7.795
X9.887Y-7.895
X9.892Y-8.388
X9.9249Y-3.0968
X9.9249Y-3.1968
X9.9249Y-3.2968
X9.9249Y-3.3968
X9.9249Y-3.4968
X9.9249Y-3.5968
X9.9249Y-3.6968
X9.9249Y-3.7968
X9.9249Y-3.8968
X9.9249Y-3.9968
X9.9249Y-4.6284
X9.9249Y-4.7284
X9.9249Y-4.8284
X9.9249Y-4.9284
X9.9249Y-5.0284
X9.9249Y-5.1284
X9.9249Y-5.2284
X9.9249Y-5.3284
X9.9249Y-5.4284
X9.9249Y-5.5284
X9.992Y-8.388
X10.092Y-8.388
X10.1761Y-2.886
X10.187Y-6.995
X10.187Y-7.095
X10.187Y-7.195
X10.187Y-7.295
X10.187Y-7.395
X10.187Y-7.495
X10.187Y-7.595
X10.187Y-7.695
X10.187Y-7.795
X10.187Y-7.895
X10.192Y-8.388
X10.2061Y-4.532
X10.292Y-8.388
X10.327Y-5.938
X10.327Y-6.038
X10.327Y-6.138
X10.327Y-6.238
X10.327Y-6.338
X10.327Y-6.438
X10.327Y-6.538
X10.3376Y-3.0968
X10.3376Y-3.1968
X10.3376Y-3.2968
X10.3376Y-3.3968
X10.3376Y-3.4968
X10.3376Y-3.5968
X10.3376Y-3.6968
X10.3376Y-3.7968
X10.3376Y-3.8968
X10.3376Y-3.9968
X10.3376Y-4.7288
X10.3376Y-4.8288
X10.3376Y-4.9288
X10.3376Y-5.0288
X10.3376Y-5.1288
X10.3376Y-5.2288
X10.3376Y-5.3288
X10.3376Y-5.4288
X10.3376Y-5.5288
X10.373Y-2.886
X10.3861Y-6.805
X10.403Y-4.532
X10.468Y-8.868
X10.468Y-8.9664
X10.4713Y-9.1307
X10.4713Y-9.2292
X10.475Y-9.4
X10.475Y-9.4984
X10.481Y-9.6666
X10.481Y-9.765
X10.5038Y-7.0026
X10.5038Y-7.1026
X10.5038Y-7.2026
X10.5038Y-7.3026
X10.5038Y-7.4026
X10.5038Y-7.5026
X10.5038Y-7.6026
X10.583Y-6.805
X10.627Y-5.938
X10.627Y-6.038
X10.627Y-6.138
X10.627Y-6.238
X10.627Y-6.338
X10.627Y-6.438
X10.627Y-6.538
X10.6376Y-3.0968
X10.6376Y-3.1968
X10.6376Y-3.2968
X10.6376Y-3.3968
X10.6376Y-3.4968
X10.6376Y-3.5968
X10.6376Y-3.6968
X10.6376Y-3.7968
X10.6376Y-3.8968
X10.6376Y-3.9968
X10.6376Y-4.7288
X10.6376Y-4.8288
X10.6376Y-4.9288
X10.6376Y-5.0288
X10.6376Y-5.1288
X10.6376Y-5.2288
X10.6376Y-5.3288
X10.6376Y-5.4288
X10.6376Y-5.5288
X10.7287Y-9.1022
X10.7287Y-9.2022
X10.7287Y-9.3022
X10.7287Y-9.4022
X10.7287Y-9.5022
X10.7287Y-9.6022
X10.7287Y-9.7022
X10.7287Y-9.8022
X10.7337Y-10.1422
X10.7535Y-10.4388
X10.7535Y-10.5388
X10.7535Y-10.6388
X10.7535Y-10.7388
X10.7535Y-10.8388
X10.7535Y-10.9388
X10.7535Y-11.0388
X10.7781Y-8.855
X10.7888Y-2.8919
X10.8038Y-7.0026
X10.8038Y-7.1026
X10.8038Y-7.2026
X10.8038Y-7.3026
X10.8038Y-7.4026
X10.8038Y-7.5026
X10.8038Y-7.6026
X10.8137Y-5.2248
X10.8199Y-5.0798
X10.834Y-5.9001
X10.834Y-6.097
X10.9306Y-10.1422
X10.975Y-8.855
X10.9857Y-2.8919
X11.0106Y-5.2248
X11.016Y-3.092
X11.016Y-3.192
X11.016Y-3.292
X11.016Y-3.392
X11.016Y-3.492
X11.016Y-3.592
X11.016Y-3.692
X11.0168Y-5.0798
X11.0287Y-9.1022
X11.0287Y-9.2022
X11.0287Y-9.3022
X11.0287Y-9.4022
X11.0287Y-9.5022
X11.0287Y-9.6022
X11.0287Y-9.7022
X11.0287Y-9.8022
X11.0535Y-10.4388
X11.0535Y-10.5388
X11.0535Y-10.6388
X11.0535Y-10.7388
X11.0535Y-10.8388
X11.0535Y-10.9388
X11.0535Y-11.0388
X11.0637Y-9.9329
X11.0637Y-10.2329
X11.0861Y-6.806
X11.193Y-7.007
X11.193Y-7.107
X11.193Y-7.207
X11.193Y-7.307
X11.193Y-7.407
X11.193Y-7.507
X11.193Y-7.607
X11.2587Y-9.7552
X11.2587Y-9.8552
X11.2587Y-9.9552
X11.2587Y-10.0552
X11.2587Y-10.1552
X11.2587Y-10.2552
X11.2587Y-10.3552
X11.2587Y-10.4552
X11.2587Y-10.5552
X11.2587Y-10.6552
X11.2587Y-10.7552
X11.2587Y-10.8552
X11.2587Y-10.9552
X11.2587Y-11.0552
X11.283Y-6.806
X11.288Y-8.864
X11.288Y-8.9624
X11.316Y-3.092
X11.316Y-3.192
X11.316Y-3.292
X11.316Y-3.392
X11.316Y-3.492
X11.316Y-3.592
X11.316Y-3.692
X11.493Y-7.007
X11.493Y-7.107
X11.493Y-7.207
X11.493Y-7.307
X11.493Y-7.407
X11.493Y-7.507
X11.493Y-7.607
X11.533Y-9.207
X11.533Y-9.507
X11.7231Y-9.531
X11.8587Y-9.7552
X11.8587Y-9.8552
X11.8587Y-9.9552
X11.8587Y-10.0552
X11.8587Y-10.1552
X11.8587Y-10.2552
X11.8587Y-10.3552
X11.8587Y-10.4552
X11.8587Y-10.5552
X11.8587Y-10.6552
X11.8587Y-10.7552
X11.8587Y-10.8552
X11.8587Y-10.9552
X11.8587Y-11.0552
X11.92Y-9.531
X12.1061Y-10.4943
X12.1061Y-10.7943
X12.114Y-10.001
X12.114Y-10.301
T5
X2.8647Y-8.9522
X2.8647Y-9.1294
X3.1206Y-8.9522
X3.1206Y-9.1294
X3.2525Y-5.6052
X3.2525Y-5.7052
X3.2525Y-5.8052
X3.2525Y-5.9052
X3.2525Y-6.0052
X3.2525Y-6.1052
X3.3525Y-5.6052
X3.3525Y-5.7052
X3.3525Y-5.8052
X3.3525Y-5.9052
X3.3525Y-6.0052
X3.3525Y-6.1052
X4.0673Y-5.6052
X4.0673Y-5.7052
X4.0673Y-5.8052
X4.0673Y-5.9052
X4.0673Y-6.0052
X4.0673Y-6.1052
X4.1673Y-5.6052
X4.1673Y-5.7052
X4.1673Y-5.8052
X4.1673Y-5.9052
X4.1673Y-6.0052
X4.1673Y-6.1052
X4.66Y-8.893
X4.66Y-8.993
X4.66Y-9.093
X4.8675Y-5.6002
X4.8675Y-5.7002
X4.8675Y-5.8002
X4.8675Y-5.9002
X4.8675Y-6.0002
X4.8675Y-6.1002
X4.9675Y-5.6002
X4.9675Y-5.7002
X4.9675Y-5.8002
X4.9675Y-5.9002
X4.9675Y-6.0002
X4.9675Y-6.1002
X5.5507Y-11.458
X5.5507Y-11.558
X5.6675Y-5.6052
X5.6675Y-5.7052
X5.6675Y-5.8052
X5.6675Y-5.9052
X5.6675Y-6.0052
X5.6675Y-6.1052
X5.7675Y-5.6052
X5.7675Y-5.7052
X5.7675Y-5.8052
X5.7675Y-5.9052
X5.7675Y-6.0052
X5.7675Y-6.1052
X6.2685Y-8.5556
X6.2685Y-8.6556
X6.2685Y-8.7556
X6.2685Y-8.8556
X6.3685Y-8.5556
X6.3685Y-8.6556
X6.3685Y-8.7556
X6.3685Y-8.8556
X6.4567Y-5.6042
X6.4567Y-5.7042
X6.4567Y-5.8042
X6.4567Y-5.9042
X6.4567Y-6.0042
X6.4567Y-6.1042
X6.5567Y-5.6042
X6.5567Y-5.7042
X6.5567Y-5.8042
X6.5567Y-5.9042
X6.5567Y-6.0042
X6.5567Y-6.1042
X7.2161Y-8.5597
X7.2161Y-8.6597
X7.274Y-5.615
X7.274Y-5.715
X7.274Y-5.815
X7.274Y-5.915
X7.274Y-6.015
X7.274Y-6.115
X7.374Y-5.615
X7.374Y-5.715
X7.374Y-5.815
X7.374Y-5.915
X7.374Y-6.015
X7.374Y-6.115
X7.5263Y-8.5253
X7.5263Y-8.7025
X7.7822Y-8.5253
X7.7822Y-8.7025
X7.841Y-3.11
X7.841Y-3.21
X7.841Y-3.31
X7.841Y-3.41
X7.941Y-3.11
X7.941Y-3.21
X7.941Y-3.31
X7.941Y-3.41
X8.016Y-9.88
X8.116Y-9.88
X8.216Y-9.88
X9.907Y-2.38
X9.907Y-2.48
X10.225Y-2.368
X10.225Y-2.468
X10.325Y-2.368
X10.325Y-2.468
X10.425Y-2.368
X10.425Y-2.468
X10.525Y-2.368
X10.525Y-2.468
X10.625Y-2.368
X10.625Y-2.468
X10.97Y-2.447
X11.07Y-2.447
X11.17Y-2.447
X11.27Y-2.447
X11.299Y-9.296
X11.299Y-9.396
X11.37Y-2.447
X11.47Y-2.447
X12.0306Y-5.0318
X12.0306Y-5.1318
X12.0306Y-5.2318
X12.0306Y-5.3318
T6
X2.8687Y-3.2152
X2.8687Y-3.3152
X2.8687Y-3.4152
X2.8687Y-3.5152
X2.8687Y-3.6152
X2.8687Y-3.7152
X2.8687Y-3.8152
X2.8687Y-3.9152
X2.8687Y-4.0152
X2.8687Y-4.1152
X2.8687Y-4.2152
X2.8687Y-4.3152
X2.8687Y-4.4152
X2.8687Y-4.5152
X2.8687Y-4.6152
X2.8687Y-4.7152
X2.8687Y-4.8152
X2.8687Y-4.9152
X2.8687Y-5.0152
X2.8687Y-5.1152
X2.8687Y-5.2152
X2.8687Y-5.3152
X2.8687Y-5.4152
X2.8687Y-5.5152
X2.8687Y-5.6152
X2.8687Y-5.7152
X2.8687Y-5.8152
X2.8687Y-5.9152
X2.8687Y-6.0152
X2.8687Y-6.1152
X2.8687Y-6.2152
X3.0687Y-3.2152
X3.0687Y-3.3152
X3.0687Y-3.4152
X3.0687Y-3.5152
X3.0687Y-3.6152
X3.0687Y-3.7152
X3.0687Y-3.8152
X3.0687Y-3.9152
X3.0687Y-4.0152
X3.0687Y-4.1152
X3.0687Y-4.2152
X3.0687Y-4.3152
X3.0687Y-4.4152
X3.0687Y-4.5152
X3.0687Y-4.6152
X3.0687Y-4.7152
X3.0687Y-4.8152
X3.0687Y-4.9152
X3.0687Y-5.0152
X3.0687Y-5.1152
X3.0687Y-5.2152
X3.0687Y-5.3152
X3.0687Y-5.4152
X3.0687Y-5.5152
X3.0687Y-5.6152
X3.0687Y-5.7152
X3.0687Y-5.8152
X3.0687Y-5.9152
X3.0687Y-6.0152
X3.0687Y-6.1152
X3.0687Y-6.2152
X3.6687Y-3.2152
X3.6687Y-3.3152
X3.6687Y-3.4152
X3.6687Y-3.5152
X3.6687Y-3.6152
X3.6687Y-3.7152
X3.6687Y-3.8152
X3.6687Y-3.9152
X3.6687Y-4.0152
X3.6687Y-4.1152
X3.6687Y-4.2152
X3.6687Y-4.3152
X3.6687Y-4.4152
X3.6687Y-4.5152
X3.6687Y-4.6152
X3.6687Y-4.7152
X3.6687Y-4.8152
X3.6687Y-4.9152
X3.6687Y-5.0152
X3.6687Y-5.1152
X3.6687Y-5.2152
X3.6687Y-5.3152
X3.6687Y-5.4152
X3.6687Y-5.5152
X3.6687Y-5.6152
X3.6687Y-5.7152
X3.6687Y-5.8152
X3.6687Y-5.9152
X3.6687Y-6.0152
X3.6687Y-6.1152
X3.6687Y-6.2152
X3.8687Y-3.2152
X3.8687Y-3.3152
X3.8687Y-3.4152
X3.8687Y-3.5152
X3.8687Y-3.6152
X3.8687Y-3.7152
X3.8687Y-3.8152
X3.8687Y-3.9152
X3.8687Y-4.0152
X3.8687Y-4.1152
X3.8687Y-4.2152
X3.8687Y-4.3152
X3.8687Y-4.4152
X3.8687Y-4.5152
X3.8687Y-4.6152
X3.8687Y-4.7152
X3.8687Y-4.8152
X3.8687Y-4.9152
X3.8687Y-5.0152
X3.8687Y-5.1152
X3.8687Y-5.2152
X3.8687Y-5.3152
X3.8687Y-5.4152
X3.8687Y-5.5152
X3.8687Y-5.6152
X3.8687Y-5.7152
X3.8687Y-5.8152
X3.8687Y-5.9152
X3.8687Y-6.0152
X3.8687Y-6.1152
X3.8687Y-6.2152
X4.4687Y-3.2152
X4.4687Y-3.3152
X4.4687Y-3.4152
X4.4687Y-3.5152
X4.4687Y-3.6152
X4.4687Y-3.7152
X4.4687Y-3.8152
X4.4687Y-3.9152
X4.4687Y-4.0152
X4.4687Y-4.1152
X4.4687Y-4.2152
X4.4687Y-4.3152
X4.4687Y-4.4152
X4.4687Y-4.5152
X4.4687Y-4.6152
X4.4687Y-4.7152
X4.4687Y-4.8152
X4.4687Y-4.9152
X4.4687Y-5.0152
X4.4687Y-5.1152
X4.4687Y-5.2152
X4.4687Y-5.3152
X4.4687Y-5.4152
X4.4687Y-5.5152
X4.4687Y-5.6152
X4.4687Y-5.7152
X4.4687Y-5.8152
X4.4687Y-5.9152
X4.4687Y-6.0152
X4.4687Y-6.1152
X4.4687Y-6.2152
X4.6687Y-3.2152
X4.6687Y-3.3152
X4.6687Y-3.4152
X4.6687Y-3.5152
X4.6687Y-3.6152
X4.6687Y-3.7152
X4.6687Y-3.8152
X4.6687Y-3.9152
X4.6687Y-4.0152
X4.6687Y-4.1152
X4.6687Y-4.2152
X4.6687Y-4.3152
X4.6687Y-4.4152
X4.6687Y-4.5152
X4.6687Y-4.6152
X4.6687Y-4.7152
X4.6687Y-4.8152
X4.6687Y-4.9152
X4.6687Y-5.0152
X4.6687Y-5.1152
X4.6687Y-5.2152
X4.6687Y-5.3152
X4.6687Y-5.4152
X4.6687Y-5.5152
X4.6687Y-5.6152
X4.6687Y-5.7152
X4.6687Y-5.8152
X4.6687Y-5.9152
X4.6687Y-6.0152
X4.6687Y-6.1152
X4.6687Y-6.2152
X5.2687Y-3.2152
X5.2687Y-3.3152
X5.2687Y-3.4152
X5.2687Y-3.5152
X5.2687Y-3.6152
X5.2687Y-3.7152
X5.2687Y-3.8152
X5.2687Y-3.9152
X5.2687Y-4.0152
X5.2687Y-4.1152
X5.2687Y-4.2152
X5.2687Y-4.3152
X5.2687Y-4.4152
X5.2687Y-4.5152
X5.2687Y-4.6152
X5.2687Y-4.7152
X5.2687Y-4.8152
X5.2687Y-4.9152
X5.2687Y-5.0152
X5.2687Y-5.1152
X5.2687Y-5.2152
X5.2687Y-5.3152
X5.2687Y-5.4152
X5.2687Y-5.5152
X5.2687Y-5.6152
X5.2687Y-5.7152
X5.2687Y-5.8152
X5.2687Y-5.9152
X5.2687Y-6.0152
X5.2687Y-6.1152
X5.2687Y-6.2152
X5.4687Y-3.2152
X5.4687Y-3.3152
X5.4687Y-3.4152
X5.4687Y-3.5152
X5.4687Y-3.6152
X5.4687Y-3.7152
X5.4687Y-3.8152
X5.4687Y-3.9152
X5.4687Y-4.0152
X5.4687Y-4.1152
X5.4687Y-4.2152
X5.4687Y-4.3152
X5.4687Y-4.4152
X5.4687Y-4.5152
X5.4687Y-4.6152
X5.4687Y-4.7152
X5.4687Y-4.8152
X5.4687Y-4.9152
X5.4687Y-5.0152
X5.4687Y-5.1152
X5.4687Y-5.2152
X5.4687Y-5.3152
X5.4687Y-5.4152
X5.4687Y-5.5152
X5.4687Y-5.6152
X5.4687Y-5.7152
X5.4687Y-5.8152
X5.4687Y-5.9152
X5.4687Y-6.0152
X5.4687Y-6.1152
X5.4687Y-6.2152
X6.0687Y-3.2152
X6.0687Y-3.3152
X6.0687Y-3.4152
X6.0687Y-3.5152
X6.0687Y-3.6152
X6.0687Y-3.7152
X6.0687Y-3.8152
X6.0687Y-3.9152
X6.0687Y-4.0152
X6.0687Y-4.1152
X6.0687Y-4.2152
X6.0687Y-4.3152
X6.0687Y-4.4152
X6.0687Y-4.5152
X6.0687Y-4.6152
X6.0687Y-4.7152
X6.0687Y-4.8152
X6.0687Y-4.9152
X6.0687Y-5.0152
X6.0687Y-5.1152
X6.0687Y-5.2152
X6.0687Y-5.3152
X6.0687Y-5.4152
X6.0687Y-5.5152
X6.0687Y-5.6152
X6.0687Y-5.7152
X6.0687Y-5.8152
X6.0687Y-5.9152
X6.0687Y-6.0152
X6.0687Y-6.1152
X6.0687Y-6.2152
X6.2687Y-3.2152
X6.2687Y-3.3152
X6.2687Y-3.4152
X6.2687Y-3.5152
X6.2687Y-3.6152
X6.2687Y-3.7152
X6.2687Y-3.8152
X6.2687Y-3.9152
X6.2687Y-4.0152
X6.2687Y-4.1152
X6.2687Y-4.2152
X6.2687Y-4.3152
X6.2687Y-4.4152
X6.2687Y-4.5152
X6.2687Y-4.6152
X6.2687Y-4.7152
X6.2687Y-4.8152
X6.2687Y-4.9152
X6.2687Y-5.0152
X6.2687Y-5.1152
X6.2687Y-5.2152
X6.2687Y-5.3152
X6.2687Y-5.4152
X6.2687Y-5.5152
X6.2687Y-5.6152
X6.2687Y-5.7152
X6.2687Y-5.8152
X6.2687Y-5.9152
X6.2687Y-6.0152
X6.2687Y-6.1152
X6.2687Y-6.2152
X6.8687Y-3.2152
X6.8687Y-3.3152
X6.8687Y-3.4152
X6.8687Y-3.5152
X6.8687Y-3.6152
X6.8687Y-3.7152
X6.8687Y-3.8152
X6.8687Y-3.9152
X6.8687Y-4.0152
X6.8687Y-4.1152
X6.8687Y-4.2152
X6.8687Y-4.3152
X6.8687Y-4.4152
X6.8687Y-4.5152
X6.8687Y-4.6152
X6.8687Y-4.7152
X6.8687Y-4.8152
X6.8687Y-4.9152
X6.8687Y-5.0152
X6.8687Y-5.1152
X6.8687Y-5.2152
X6.8687Y-5.3152
X6.8687Y-5.4152
X6.8687Y-5.5152
X6.8687Y-5.6152
X6.8687Y-5.7152
X6.8687Y-5.8152
X6.8687Y-5.9152
X6.8687Y-6.0152
X6.8687Y-6.1152
X6.8687Y-6.2152
X7.0687Y-3.2152
X7.0687Y-3.3152
X7.0687Y-3.4152
X7.0687Y-3.5152
X7.0687Y-3.6152
X7.0687Y-3.7152
X7.0687Y-3.8152
X7.0687Y-3.9152
X7.0687Y-4.0152
X7.0687Y-4.1152
X7.0687Y-4.2152
X7.0687Y-4.3152
X7.0687Y-4.4152
X7.0687Y-4.5152
X7.0687Y-4.6152
X7.0687Y-4.7152
X7.0687Y-4.8152
X7.0687Y-4.9152
X7.0687Y-5.0152
X7.0687Y-5.1152
X7.0687Y-5.2152
X7.0687Y-5.3152
X7.0687Y-5.4152
X7.0687Y-5.5152
X7.0687Y-5.6152
X7.0687Y-5.7152
X7.0687Y-5.8152
X7.0687Y-5.9152
X7.0687Y-6.0152
X7.0687Y-6.1152
X7.0687Y-6.2152
T7
X3.5117Y-11.3171
X3.5117Y-11.7171
X3.7557Y-11.3171
X3.7557Y-11.7171
X11.4Y-4.9251
X11.4Y-5.3251
X11.606Y-4.8711
X11.606Y-5.2711
T8
X6.5126Y-11.4302
X6.5126Y-11.6468
X6.678Y-11.4302
X6.678Y-11.6468
X6.8433Y-11.4302
X6.8433Y-11.6468
X7.0087Y-11.4302
X7.0087Y-11.6468
X7.174Y-11.4302
X7.174Y-11.6468
X7.3394Y-11.4302
X7.3394Y-11.6468
X7.5047Y-11.4302
X7.5047Y-11.6468
X7.6701Y-11.4302
X7.6701Y-11.6468
X7.8354Y-11.4302
X7.8354Y-11.6468
X8.0008Y-11.4302
X8.0008Y-11.6468
T9
X3.2677Y-2.6131
X3.2677Y-8.7131
X3.2677Y-11.5631
X4.0677Y-2.6131
X4.0677Y-8.7131
X4.0677Y-11.5631
X5.8677Y-2.6131
X5.8677Y-8.7131
X5.8677Y-11.5631
X12.0677Y-3.5131
X12.0677Y-8.7131
X12.0677Y-11.5631
M30
