%TF.GenerationSoftware,KiCad,Pcbnew,8.0.6*%
%TF.CreationDate,2025-02-28T18:50:49-06:00*%
%TF.ProjectId,6809PC-6U,36383039-5043-42d3-9655-2e6b69636164,2/28/2025 001*%
%TF.SameCoordinates,Original*%
%TF.FileFunction,Soldermask,Bot*%
%TF.FilePolarity,Negative*%
%FSLAX46Y46*%
G04 Gerber Fmt 4.6, Leading zero omitted, Abs format (unit mm)*
G04 Created by KiCad (PCBNEW 8.0.6) date 2025-02-28 18:50:49*
%MOMM*%
%LPD*%
G01*
G04 APERTURE LIST*
G04 Aperture macros list*
%AMRoundRect*
0 Rectangle with rounded corners*
0 $1 Rounding radius*
0 $2 $3 $4 $5 $6 $7 $8 $9 X,Y pos of 4 corners*
0 Add a 4 corners polygon primitive as box body*
4,1,4,$2,$3,$4,$5,$6,$7,$8,$9,$2,$3,0*
0 Add four circle primitives for the rounded corners*
1,1,$1+$1,$2,$3*
1,1,$1+$1,$4,$5*
1,1,$1+$1,$6,$7*
1,1,$1+$1,$8,$9*
0 Add four rect primitives between the rounded corners*
20,1,$1+$1,$2,$3,$4,$5,0*
20,1,$1+$1,$4,$5,$6,$7,0*
20,1,$1+$1,$6,$7,$8,$9,0*
20,1,$1+$1,$8,$9,$2,$3,0*%
G04 Aperture macros list end*
%ADD10C,1.600000*%
%ADD11O,1.600000X1.600000*%
%ADD12R,1.700000X1.700000*%
%ADD13C,1.700000*%
%ADD14O,1.700000X1.700000*%
%ADD15R,1.600000X1.600000*%
%ADD16R,2.400000X1.600000*%
%ADD17O,2.400000X1.600000*%
%ADD18R,1.600000X2.400000*%
%ADD19O,1.600000X2.400000*%
%ADD20R,2.200000X2.200000*%
%ADD21O,2.200000X2.200000*%
%ADD22C,1.000000*%
%ADD23C,3.600000*%
%ADD24C,6.400000*%
%ADD25R,2.125980X2.125980*%
%ADD26C,1.524000*%
%ADD27C,1.422400*%
%ADD28C,3.497580*%
%ADD29R,1.100000X1.800000*%
%ADD30RoundRect,0.275000X-0.275000X-0.625000X0.275000X-0.625000X0.275000X0.625000X-0.275000X0.625000X0*%
%ADD31C,4.000000*%
G04 APERTURE END LIST*
D10*
%TO.C,R26*%
X87376000Y-135255000D03*
D11*
X87376000Y-127635000D03*
%TD*%
D12*
%TO.C,SW1*%
X72764200Y-227386200D03*
D13*
X79264200Y-227386200D03*
X72764200Y-231886200D03*
X79264200Y-231886200D03*
%TD*%
D12*
%TO.C,SW2*%
X196617000Y-220600200D03*
D13*
X203117000Y-220600200D03*
X196617000Y-225100200D03*
X203117000Y-225100200D03*
%TD*%
D12*
%TO.C,P16*%
X285707600Y-76402600D03*
D14*
X285707600Y-78942600D03*
X285707600Y-81482600D03*
X285707600Y-84022600D03*
%TD*%
D12*
%TO.C,K2*%
X274084600Y-161244600D03*
D14*
X274084600Y-163784600D03*
X274084600Y-166324600D03*
%TD*%
D12*
%TO.C,K1*%
X141141000Y-254919800D03*
D14*
X141141000Y-257459800D03*
X141141000Y-259999800D03*
%TD*%
D12*
%TO.C,K3*%
X294150600Y-288701800D03*
D14*
X296690600Y-288701800D03*
X299230600Y-288701800D03*
%TD*%
D12*
%TO.C,P12*%
X140988600Y-291033600D03*
D14*
X140988600Y-293573600D03*
%TD*%
D12*
%TO.C,JP1*%
X119093800Y-209606200D03*
D14*
X119093800Y-212146200D03*
%TD*%
D12*
%TO.C,JP3*%
X267531400Y-253294200D03*
D14*
X267531400Y-255834200D03*
%TD*%
D15*
%TO.C,RR1*%
X198341800Y-215270400D03*
D11*
X200881800Y-215270400D03*
X203421800Y-215270400D03*
X205961800Y-215270400D03*
X208501800Y-215270400D03*
X211041800Y-215270400D03*
X213581800Y-215270400D03*
X216121800Y-215270400D03*
X218661800Y-215270400D03*
X221201800Y-215270400D03*
%TD*%
D15*
%TO.C,RR2*%
X227653400Y-216667400D03*
D11*
X230193400Y-216667400D03*
X232733400Y-216667400D03*
X235273400Y-216667400D03*
X237813400Y-216667400D03*
X240353400Y-216667400D03*
X242893400Y-216667400D03*
X245433400Y-216667400D03*
X247973400Y-216667400D03*
X250513400Y-216667400D03*
%TD*%
D10*
%TO.C,R6*%
X307585800Y-263064600D03*
D11*
X307585800Y-255444600D03*
%TD*%
D10*
%TO.C,R7*%
X281017400Y-259915000D03*
D11*
X281017400Y-252295000D03*
%TD*%
D10*
%TO.C,R4*%
X281704600Y-217734200D03*
D11*
X289324600Y-217734200D03*
%TD*%
D10*
%TO.C,R1*%
X110254600Y-288244600D03*
D11*
X110254600Y-295864600D03*
%TD*%
D10*
%TO.C,R3*%
X110762600Y-285044200D03*
D11*
X110762600Y-277424200D03*
%TD*%
D10*
%TO.C,R2*%
X75582200Y-297507000D03*
D11*
X75582200Y-289887000D03*
%TD*%
D12*
%TO.C,P18*%
X299332200Y-229926200D03*
D14*
X301872200Y-229926200D03*
X299332200Y-232466200D03*
X301872200Y-232466200D03*
X299332200Y-235006200D03*
X301872200Y-235006200D03*
X299332200Y-237546200D03*
X301872200Y-237546200D03*
X299332200Y-240086200D03*
X301872200Y-240086200D03*
%TD*%
D12*
%TO.C,P15*%
X159220800Y-217312400D03*
D14*
X161760800Y-217312400D03*
X159220800Y-219852400D03*
X161760800Y-219852400D03*
X159220800Y-222392400D03*
X161760800Y-222392400D03*
X159220800Y-224932400D03*
X161760800Y-224932400D03*
%TD*%
D12*
%TO.C,P1*%
X165418400Y-122748200D03*
D14*
X167958400Y-122748200D03*
X165418400Y-125288200D03*
X167958400Y-125288200D03*
X165418400Y-127828200D03*
X167958400Y-127828200D03*
X165418400Y-130368200D03*
X167958400Y-130368200D03*
%TD*%
D12*
%TO.C,P20*%
X254780600Y-289870200D03*
D14*
X254780600Y-287330200D03*
X257320600Y-289870200D03*
X257320600Y-287330200D03*
X259860600Y-289870200D03*
X259860600Y-287330200D03*
X262400600Y-289870200D03*
X262400600Y-287330200D03*
X264940600Y-289870200D03*
X264940600Y-287330200D03*
X267480600Y-289870200D03*
X267480600Y-287330200D03*
X270020600Y-289870200D03*
X270020600Y-287330200D03*
X272560600Y-289870200D03*
X272560600Y-287330200D03*
X275100600Y-289870200D03*
X275100600Y-287330200D03*
X277640600Y-289870200D03*
X277640600Y-287330200D03*
X280180600Y-289870200D03*
X280180600Y-287330200D03*
X282720600Y-289870200D03*
X282720600Y-287330200D03*
X285260600Y-289870200D03*
X285260600Y-287330200D03*
%TD*%
D16*
%TO.C,U57*%
X202099000Y-232582400D03*
D17*
X202099000Y-235122400D03*
X202099000Y-237662400D03*
X202099000Y-240202400D03*
X202099000Y-242742400D03*
X202099000Y-245282400D03*
X202099000Y-247822400D03*
X202099000Y-250362400D03*
X202099000Y-252902400D03*
X202099000Y-255442400D03*
X202099000Y-257982400D03*
X202099000Y-260522400D03*
X202099000Y-263062400D03*
X202099000Y-265602400D03*
X202099000Y-268142400D03*
X202099000Y-270682400D03*
X202099000Y-273222400D03*
X202099000Y-275762400D03*
X202099000Y-278302400D03*
X202099000Y-280842400D03*
X217339000Y-280842400D03*
X217339000Y-278302400D03*
X217339000Y-275762400D03*
X217339000Y-273222400D03*
X217339000Y-270682400D03*
X217339000Y-268142400D03*
X217339000Y-265602400D03*
X217339000Y-263062400D03*
X217339000Y-260522400D03*
X217339000Y-257982400D03*
X217339000Y-255442400D03*
X217339000Y-252902400D03*
X217339000Y-250362400D03*
X217339000Y-247822400D03*
X217339000Y-245282400D03*
X217339000Y-242742400D03*
X217339000Y-240202400D03*
X217339000Y-237662400D03*
X217339000Y-235122400D03*
X217339000Y-232582400D03*
%TD*%
D16*
%TO.C,U58*%
X244087800Y-232618400D03*
D17*
X244087800Y-235158400D03*
X244087800Y-237698400D03*
X244087800Y-240238400D03*
X244087800Y-242778400D03*
X244087800Y-245318400D03*
X244087800Y-247858400D03*
X244087800Y-250398400D03*
X244087800Y-252938400D03*
X244087800Y-255478400D03*
X244087800Y-258018400D03*
X244087800Y-260558400D03*
X244087800Y-263098400D03*
X244087800Y-265638400D03*
X244087800Y-268178400D03*
X244087800Y-270718400D03*
X244087800Y-273258400D03*
X244087800Y-275798400D03*
X244087800Y-278338400D03*
X244087800Y-280878400D03*
X259327800Y-280878400D03*
X259327800Y-278338400D03*
X259327800Y-275798400D03*
X259327800Y-273258400D03*
X259327800Y-270718400D03*
X259327800Y-268178400D03*
X259327800Y-265638400D03*
X259327800Y-263098400D03*
X259327800Y-260558400D03*
X259327800Y-258018400D03*
X259327800Y-255478400D03*
X259327800Y-252938400D03*
X259327800Y-250398400D03*
X259327800Y-247858400D03*
X259327800Y-245318400D03*
X259327800Y-242778400D03*
X259327800Y-240238400D03*
X259327800Y-237698400D03*
X259327800Y-235158400D03*
X259327800Y-232618400D03*
%TD*%
D16*
%TO.C,U9*%
X118226200Y-242732400D03*
D17*
X118226200Y-245272400D03*
X118226200Y-247812400D03*
X118226200Y-250352400D03*
X118226200Y-252892400D03*
X118226200Y-255432400D03*
X118226200Y-257972400D03*
X118226200Y-260512400D03*
X118226200Y-263052400D03*
X118226200Y-265592400D03*
X118226200Y-268132400D03*
X118226200Y-270672400D03*
X118226200Y-273212400D03*
X118226200Y-275752400D03*
X118226200Y-278292400D03*
X118226200Y-280832400D03*
X133466200Y-280832400D03*
X133466200Y-278292400D03*
X133466200Y-275752400D03*
X133466200Y-273212400D03*
X133466200Y-270672400D03*
X133466200Y-268132400D03*
X133466200Y-265592400D03*
X133466200Y-263052400D03*
X133466200Y-260512400D03*
X133466200Y-257972400D03*
X133466200Y-255432400D03*
X133466200Y-252892400D03*
X133466200Y-250352400D03*
X133466200Y-247812400D03*
X133466200Y-245272400D03*
X133466200Y-242732400D03*
%TD*%
D16*
%TO.C,U8*%
X76289800Y-242732400D03*
D17*
X76289800Y-245272400D03*
X76289800Y-247812400D03*
X76289800Y-250352400D03*
X76289800Y-252892400D03*
X76289800Y-255432400D03*
X76289800Y-257972400D03*
X76289800Y-260512400D03*
X76289800Y-263052400D03*
X76289800Y-265592400D03*
X76289800Y-268132400D03*
X76289800Y-270672400D03*
X76289800Y-273212400D03*
X76289800Y-275752400D03*
X76289800Y-278292400D03*
X76289800Y-280832400D03*
X91529800Y-280832400D03*
X91529800Y-278292400D03*
X91529800Y-275752400D03*
X91529800Y-273212400D03*
X91529800Y-270672400D03*
X91529800Y-268132400D03*
X91529800Y-265592400D03*
X91529800Y-263052400D03*
X91529800Y-260512400D03*
X91529800Y-257972400D03*
X91529800Y-255432400D03*
X91529800Y-252892400D03*
X91529800Y-250352400D03*
X91529800Y-247812400D03*
X91529800Y-245272400D03*
X91529800Y-242732400D03*
%TD*%
D16*
%TO.C,U48*%
X285971800Y-247782400D03*
D17*
X285971800Y-250322400D03*
X285971800Y-252862400D03*
X285971800Y-255402400D03*
X285971800Y-257942400D03*
X285971800Y-260482400D03*
X285971800Y-263022400D03*
X285971800Y-265562400D03*
X285971800Y-268102400D03*
X285971800Y-270642400D03*
X285971800Y-273182400D03*
X285971800Y-275722400D03*
X285971800Y-278262400D03*
X285971800Y-280802400D03*
X301211800Y-280802400D03*
X301211800Y-278262400D03*
X301211800Y-275722400D03*
X301211800Y-273182400D03*
X301211800Y-270642400D03*
X301211800Y-268102400D03*
X301211800Y-265562400D03*
X301211800Y-263022400D03*
X301211800Y-260482400D03*
X301211800Y-257942400D03*
X301211800Y-255402400D03*
X301211800Y-252862400D03*
X301211800Y-250322400D03*
X301211800Y-247782400D03*
%TD*%
D16*
%TO.C,U40*%
X124256600Y-191648400D03*
D17*
X124256600Y-194188400D03*
X124256600Y-196728400D03*
X124256600Y-199268400D03*
X124256600Y-201808400D03*
X124256600Y-204348400D03*
X124256600Y-206888400D03*
X124256600Y-209428400D03*
X124256600Y-211968400D03*
X124256600Y-214508400D03*
X124256600Y-217048400D03*
X124256600Y-219588400D03*
X124256600Y-222128400D03*
X124256600Y-224668400D03*
X131876600Y-224668400D03*
X131876600Y-222128400D03*
X131876600Y-219588400D03*
X131876600Y-217048400D03*
X131876600Y-214508400D03*
X131876600Y-211968400D03*
X131876600Y-209428400D03*
X131876600Y-206888400D03*
X131876600Y-204348400D03*
X131876600Y-201808400D03*
X131876600Y-199268400D03*
X131876600Y-196728400D03*
X131876600Y-194188400D03*
X131876600Y-191648400D03*
%TD*%
D16*
%TO.C,U38*%
X141215500Y-191648400D03*
D17*
X141215500Y-194188400D03*
X141215500Y-196728400D03*
X141215500Y-199268400D03*
X141215500Y-201808400D03*
X141215500Y-204348400D03*
X141215500Y-206888400D03*
X141215500Y-209428400D03*
X141215500Y-211968400D03*
X141215500Y-214508400D03*
X148835500Y-214508400D03*
X148835500Y-211968400D03*
X148835500Y-209428400D03*
X148835500Y-206888400D03*
X148835500Y-204348400D03*
X148835500Y-201808400D03*
X148835500Y-199268400D03*
X148835500Y-196728400D03*
X148835500Y-194188400D03*
X148835500Y-191648400D03*
%TD*%
D16*
%TO.C,U46*%
X182974800Y-226446400D03*
D17*
X182974800Y-228986400D03*
X182974800Y-231526400D03*
X182974800Y-234066400D03*
X182974800Y-236606400D03*
X182974800Y-239146400D03*
X182974800Y-241686400D03*
X182974800Y-244226400D03*
X182974800Y-246766400D03*
X182974800Y-249306400D03*
X190594800Y-249306400D03*
X190594800Y-246766400D03*
X190594800Y-244226400D03*
X190594800Y-241686400D03*
X190594800Y-239146400D03*
X190594800Y-236606400D03*
X190594800Y-234066400D03*
X190594800Y-231526400D03*
X190594800Y-228986400D03*
X190594800Y-226446400D03*
%TD*%
D16*
%TO.C,U31*%
X227678800Y-225684400D03*
D17*
X227678800Y-228224400D03*
X227678800Y-230764400D03*
X227678800Y-233304400D03*
X227678800Y-235844400D03*
X227678800Y-238384400D03*
X227678800Y-240924400D03*
X227678800Y-243464400D03*
X227678800Y-246004400D03*
X227678800Y-248544400D03*
X235298800Y-248544400D03*
X235298800Y-246004400D03*
X235298800Y-243464400D03*
X235298800Y-240924400D03*
X235298800Y-238384400D03*
X235298800Y-235844400D03*
X235298800Y-233304400D03*
X235298800Y-230764400D03*
X235298800Y-228224400D03*
X235298800Y-225684400D03*
%TD*%
D16*
%TO.C,U39*%
X99535800Y-260228400D03*
D17*
X99535800Y-262768400D03*
X99535800Y-265308400D03*
X99535800Y-267848400D03*
X99535800Y-270388400D03*
X99535800Y-272928400D03*
X99535800Y-275468400D03*
X99535800Y-278008400D03*
X99535800Y-280548400D03*
X99535800Y-283088400D03*
X107155800Y-283088400D03*
X107155800Y-280548400D03*
X107155800Y-278008400D03*
X107155800Y-275468400D03*
X107155800Y-272928400D03*
X107155800Y-270388400D03*
X107155800Y-267848400D03*
X107155800Y-265308400D03*
X107155800Y-262768400D03*
X107155800Y-260228400D03*
%TD*%
D16*
%TO.C,U28*%
X216736100Y-136276400D03*
D17*
X216736100Y-138816400D03*
X216736100Y-141356400D03*
X216736100Y-143896400D03*
X216736100Y-146436400D03*
X216736100Y-148976400D03*
X216736100Y-151516400D03*
X216736100Y-154056400D03*
X216736100Y-156596400D03*
X216736100Y-159136400D03*
X224356100Y-159136400D03*
X224356100Y-156596400D03*
X224356100Y-154056400D03*
X224356100Y-151516400D03*
X224356100Y-148976400D03*
X224356100Y-146436400D03*
X224356100Y-143896400D03*
X224356100Y-141356400D03*
X224356100Y-138816400D03*
X224356100Y-136276400D03*
%TD*%
D16*
%TO.C,U3*%
X202730700Y-136276400D03*
D17*
X202730700Y-138816400D03*
X202730700Y-141356400D03*
X202730700Y-143896400D03*
X202730700Y-146436400D03*
X202730700Y-148976400D03*
X202730700Y-151516400D03*
X202730700Y-154056400D03*
X202730700Y-156596400D03*
X202730700Y-159136400D03*
X210350700Y-159136400D03*
X210350700Y-156596400D03*
X210350700Y-154056400D03*
X210350700Y-151516400D03*
X210350700Y-148976400D03*
X210350700Y-146436400D03*
X210350700Y-143896400D03*
X210350700Y-141356400D03*
X210350700Y-138816400D03*
X210350700Y-136276400D03*
%TD*%
D16*
%TO.C,U36*%
X227551800Y-257815400D03*
D17*
X227551800Y-260355400D03*
X227551800Y-262895400D03*
X227551800Y-265435400D03*
X227551800Y-267975400D03*
X227551800Y-270515400D03*
X227551800Y-273055400D03*
X227551800Y-275595400D03*
X227551800Y-278135400D03*
X227551800Y-280675400D03*
X235171800Y-280675400D03*
X235171800Y-278135400D03*
X235171800Y-275595400D03*
X235171800Y-273055400D03*
X235171800Y-270515400D03*
X235171800Y-267975400D03*
X235171800Y-265435400D03*
X235171800Y-262895400D03*
X235171800Y-260355400D03*
X235171800Y-257815400D03*
%TD*%
D16*
%TO.C,U34*%
X230741600Y-136276400D03*
D17*
X230741600Y-138816400D03*
X230741600Y-141356400D03*
X230741600Y-143896400D03*
X230741600Y-146436400D03*
X230741600Y-148976400D03*
X230741600Y-151516400D03*
X230741600Y-154056400D03*
X230741600Y-156596400D03*
X230741600Y-159136400D03*
X238361600Y-159136400D03*
X238361600Y-156596400D03*
X238361600Y-154056400D03*
X238361600Y-151516400D03*
X238361600Y-148976400D03*
X238361600Y-146436400D03*
X238361600Y-143896400D03*
X238361600Y-141356400D03*
X238361600Y-138816400D03*
X238361600Y-136276400D03*
%TD*%
D16*
%TO.C,U41*%
X99535800Y-229494400D03*
D17*
X99535800Y-232034400D03*
X99535800Y-234574400D03*
X99535800Y-237114400D03*
X99535800Y-239654400D03*
X99535800Y-242194400D03*
X99535800Y-244734400D03*
X99535800Y-247274400D03*
X99535800Y-249814400D03*
X99535800Y-252354400D03*
X107155800Y-252354400D03*
X107155800Y-249814400D03*
X107155800Y-247274400D03*
X107155800Y-244734400D03*
X107155800Y-242194400D03*
X107155800Y-239654400D03*
X107155800Y-237114400D03*
X107155800Y-234574400D03*
X107155800Y-232034400D03*
X107155800Y-229494400D03*
%TD*%
D16*
%TO.C,U30*%
X142836800Y-231303400D03*
D17*
X142836800Y-233843400D03*
X142836800Y-236383400D03*
X142836800Y-238923400D03*
X142836800Y-241463400D03*
X142836800Y-244003400D03*
X142836800Y-246543400D03*
X142836800Y-249083400D03*
X150456800Y-249083400D03*
X150456800Y-246543400D03*
X150456800Y-244003400D03*
X150456800Y-241463400D03*
X150456800Y-238923400D03*
X150456800Y-236383400D03*
X150456800Y-233843400D03*
X150456800Y-231303400D03*
%TD*%
D16*
%TO.C,U49*%
X272509800Y-231196200D03*
D17*
X272509800Y-233736200D03*
X272509800Y-236276200D03*
X272509800Y-238816200D03*
X272509800Y-241356200D03*
X272509800Y-243896200D03*
X272509800Y-246436200D03*
X272509800Y-248976200D03*
X280129800Y-248976200D03*
X280129800Y-246436200D03*
X280129800Y-243896200D03*
X280129800Y-241356200D03*
X280129800Y-238816200D03*
X280129800Y-236276200D03*
X280129800Y-233736200D03*
X280129800Y-231196200D03*
%TD*%
D16*
%TO.C,U42*%
X124002600Y-166883400D03*
D17*
X124002600Y-169423400D03*
X124002600Y-171963400D03*
X124002600Y-174503400D03*
X124002600Y-177043400D03*
X124002600Y-179583400D03*
X124002600Y-182123400D03*
X124002600Y-184663400D03*
X131622600Y-184663400D03*
X131622600Y-182123400D03*
X131622600Y-179583400D03*
X131622600Y-177043400D03*
X131622600Y-174503400D03*
X131622600Y-171963400D03*
X131622600Y-169423400D03*
X131622600Y-166883400D03*
%TD*%
D16*
%TO.C,P17*%
X273138800Y-265146200D03*
D17*
X273138800Y-267686200D03*
X273138800Y-270226200D03*
X273138800Y-272766200D03*
X273138800Y-275306200D03*
X273138800Y-277846200D03*
X273138800Y-280386200D03*
X280758800Y-280386200D03*
X280758800Y-277846200D03*
X280758800Y-275306200D03*
X280758800Y-272766200D03*
X280758800Y-270226200D03*
X280758800Y-267686200D03*
X280758800Y-265146200D03*
%TD*%
D18*
%TO.C,U19*%
X117950800Y-295534400D03*
D19*
X120490800Y-295534400D03*
X123030800Y-295534400D03*
X125570800Y-295534400D03*
X128110800Y-295534400D03*
X130650800Y-295534400D03*
X133190800Y-295534400D03*
X133190800Y-287914400D03*
X130650800Y-287914400D03*
X128110800Y-287914400D03*
X125570800Y-287914400D03*
X123030800Y-287914400D03*
X120490800Y-287914400D03*
X117950800Y-287914400D03*
%TD*%
D16*
%TO.C,P14*%
X142969800Y-265689400D03*
D17*
X142969800Y-268229400D03*
X142969800Y-270769400D03*
X142969800Y-273309400D03*
X142969800Y-275849400D03*
X142969800Y-278389400D03*
X142969800Y-280929400D03*
X150589800Y-280929400D03*
X150589800Y-278389400D03*
X150589800Y-275849400D03*
X150589800Y-273309400D03*
X150589800Y-270769400D03*
X150589800Y-268229400D03*
X150589800Y-265689400D03*
%TD*%
D16*
%TO.C,U7*%
X216736100Y-110368400D03*
D17*
X216736100Y-112908400D03*
X216736100Y-115448400D03*
X216736100Y-117988400D03*
X216736100Y-120528400D03*
X216736100Y-123068400D03*
X216736100Y-125608400D03*
X224356100Y-125608400D03*
X224356100Y-123068400D03*
X224356100Y-120528400D03*
X224356100Y-117988400D03*
X224356100Y-115448400D03*
X224356100Y-112908400D03*
X224356100Y-110368400D03*
%TD*%
D20*
%TO.C,D2*%
X89197800Y-287453400D03*
D21*
X89197800Y-297613400D03*
%TD*%
D20*
%TO.C,D1*%
X95395400Y-287453400D03*
D21*
X95395400Y-297613400D03*
%TD*%
D10*
%TO.C,C29*%
X123259400Y-160990600D03*
X128259400Y-160990600D03*
%TD*%
%TO.C,C46*%
X102934600Y-162030600D03*
X107934600Y-162030600D03*
%TD*%
%TO.C,C44*%
X220536600Y-187176600D03*
X225536600Y-187176600D03*
%TD*%
%TO.C,C42*%
X99480200Y-188243400D03*
X104480200Y-188243400D03*
%TD*%
%TO.C,C39*%
X222217800Y-104196200D03*
X227217800Y-104196200D03*
%TD*%
%TO.C,C36*%
X272636800Y-257612200D03*
X277636800Y-257612200D03*
%TD*%
%TO.C,C32*%
X218250600Y-225073400D03*
X223250600Y-225073400D03*
%TD*%
%TO.C,C25*%
X183046200Y-163148200D03*
X188046200Y-163148200D03*
%TD*%
%TO.C,C48*%
X82868600Y-162589400D03*
X87868600Y-162589400D03*
%TD*%
%TO.C,C50*%
X285814600Y-186973400D03*
X290814600Y-186973400D03*
%TD*%
%TO.C,C52*%
X116803000Y-187938600D03*
X121803000Y-187938600D03*
%TD*%
%TO.C,C54*%
X202858200Y-187532200D03*
X207858200Y-187532200D03*
%TD*%
%TO.C,C62*%
X237503800Y-187633800D03*
X242503800Y-187633800D03*
%TD*%
%TO.C,C58*%
X144031800Y-257966400D03*
X149031800Y-257966400D03*
%TD*%
%TO.C,C24*%
X182898600Y-97389000D03*
X187898600Y-97389000D03*
%TD*%
%TO.C,C23*%
X168623800Y-187000200D03*
X173623800Y-187000200D03*
%TD*%
%TO.C,C27*%
X292909800Y-219410600D03*
X297909800Y-219410600D03*
%TD*%
%TO.C,C19*%
X254657400Y-187101800D03*
X259657400Y-187101800D03*
%TD*%
%TO.C,C31*%
X94451000Y-256213800D03*
X99451000Y-256213800D03*
%TD*%
%TO.C,C34*%
X221455800Y-252837000D03*
X226455800Y-252837000D03*
%TD*%
%TO.C,C38*%
X185789400Y-187278200D03*
X190789400Y-187278200D03*
%TD*%
%TO.C,C15*%
X111169000Y-229570600D03*
X116169000Y-229570600D03*
%TD*%
%TO.C,C11*%
X134638600Y-186847800D03*
X139638600Y-186847800D03*
%TD*%
%TO.C,C7*%
X309011000Y-166573800D03*
X309011000Y-171573800D03*
%TD*%
%TO.C,C20*%
X211037000Y-131042600D03*
X216037000Y-131042600D03*
%TD*%
%TO.C,C16*%
X257705400Y-127056200D03*
X262705400Y-127056200D03*
%TD*%
%TO.C,C12*%
X257925400Y-159643000D03*
X262925400Y-159643000D03*
%TD*%
%TO.C,C8*%
X264275400Y-88116600D03*
X269275400Y-88116600D03*
%TD*%
%TO.C,C5*%
X271489000Y-186922600D03*
X276489000Y-186922600D03*
%TD*%
%TO.C,C9*%
X82365400Y-188117800D03*
X87365400Y-188117800D03*
%TD*%
%TO.C,C13*%
X240585800Y-285374400D03*
X245585800Y-285374400D03*
%TD*%
%TO.C,C17*%
X193922200Y-230332600D03*
X198922200Y-230332600D03*
%TD*%
%TO.C,C21*%
X165825000Y-161929000D03*
X170825000Y-161929000D03*
%TD*%
D15*
%TO.C,C61*%
X253503800Y-224407400D03*
D10*
X256003800Y-224407400D03*
%TD*%
D15*
%TO.C,C65*%
X272930800Y-223398400D03*
D10*
X275430800Y-223398400D03*
%TD*%
D15*
%TO.C,C35*%
X266580800Y-219588400D03*
D10*
X269080800Y-219588400D03*
%TD*%
D15*
%TO.C,C2*%
X83523000Y-118267800D03*
D10*
X86023000Y-118267800D03*
%TD*%
D15*
%TO.C,C3*%
X125310000Y-118267800D03*
D10*
X127810000Y-118267800D03*
%TD*%
D15*
%TO.C,C28*%
X153739400Y-286365000D03*
D10*
X156239400Y-286365000D03*
%TD*%
D15*
%TO.C,C63*%
X260234800Y-224407400D03*
D10*
X262734800Y-224407400D03*
%TD*%
D15*
%TO.C,C4*%
X104329600Y-118267800D03*
D10*
X106829600Y-118267800D03*
%TD*%
D15*
%TO.C,C1*%
X145103400Y-118267800D03*
D10*
X147603400Y-118267800D03*
%TD*%
D15*
%TO.C,C64*%
X294520800Y-82682400D03*
D10*
X297020800Y-82682400D03*
%TD*%
D15*
%TO.C,C66*%
X247153800Y-224407400D03*
D10*
X249653800Y-224407400D03*
%TD*%
D22*
%TO.C,X1*%
X297253400Y-161766600D03*
X297253400Y-160266600D03*
%TD*%
D23*
%TO.C,P6*%
X149040400Y-66372400D03*
D24*
X149040400Y-66372400D03*
%TD*%
D23*
%TO.C,P5*%
X83000400Y-293702400D03*
D24*
X83000400Y-293702400D03*
%TD*%
D23*
%TO.C,P3*%
X103320400Y-293702400D03*
D24*
X103320400Y-293702400D03*
%TD*%
D23*
%TO.C,P2*%
X103320400Y-66372400D03*
D24*
X103320400Y-66372400D03*
%TD*%
D23*
%TO.C,P7*%
X83000400Y-66372400D03*
D24*
X83000400Y-66372400D03*
%TD*%
D25*
%TO.C,P11*%
X203221100Y-295829020D03*
X203221100Y-290327380D03*
X199019940Y-295829020D03*
X199019940Y-290327380D03*
X194821320Y-295829020D03*
X194821320Y-290327380D03*
X190620160Y-295829020D03*
X190620160Y-290327380D03*
X186421540Y-295829020D03*
X186421540Y-290327380D03*
X182220380Y-295829020D03*
X182220380Y-290327380D03*
X178021760Y-295829020D03*
X178021760Y-290327380D03*
X173820600Y-295829020D03*
X173820600Y-290327380D03*
X169621980Y-295829020D03*
X169621980Y-290327380D03*
X165420820Y-295829020D03*
X165420820Y-290327380D03*
%TD*%
D10*
%TO.C,C37*%
X197575000Y-131449000D03*
X202575000Y-131449000D03*
%TD*%
%TO.C,C6*%
X224961000Y-130917000D03*
X229961000Y-130917000D03*
%TD*%
%TO.C,C10*%
X199865800Y-100691000D03*
X204865800Y-100691000D03*
%TD*%
%TO.C,C14*%
X155161800Y-247401400D03*
X155161800Y-242401400D03*
%TD*%
%TO.C,C18*%
X210579800Y-101223000D03*
X215579800Y-101223000D03*
%TD*%
%TO.C,C22*%
X304847800Y-280675400D03*
X309847800Y-280675400D03*
%TD*%
%TO.C,C26*%
X193896800Y-280929400D03*
X198896800Y-280929400D03*
%TD*%
%TO.C,C30*%
X256711000Y-102570600D03*
X261711000Y-102570600D03*
%TD*%
%TO.C,C33*%
X81454800Y-236225400D03*
X86454800Y-236225400D03*
%TD*%
%TO.C,C55*%
X192495000Y-253877000D03*
X197495000Y-253877000D03*
%TD*%
%TO.C,C40*%
X183097000Y-131042600D03*
X188097000Y-131042600D03*
%TD*%
%TO.C,C43*%
X142050600Y-161116200D03*
X147050600Y-161116200D03*
%TD*%
%TO.C,C45*%
X139620800Y-225938400D03*
X144620800Y-225938400D03*
%TD*%
%TO.C,C47*%
X115008200Y-221493400D03*
X120008200Y-221493400D03*
%TD*%
%TO.C,C49*%
X151397800Y-187024200D03*
X156397800Y-187024200D03*
%TD*%
%TO.C,C51*%
X309315800Y-190500600D03*
X309315800Y-195500600D03*
%TD*%
%TO.C,C53*%
X239134200Y-131526600D03*
X244134200Y-131526600D03*
%TD*%
D16*
%TO.C,U45*%
X174719800Y-136276400D03*
D17*
X174719800Y-138816400D03*
X174719800Y-141356400D03*
X174719800Y-143896400D03*
X174719800Y-146436400D03*
X174719800Y-148976400D03*
X174719800Y-151516400D03*
X174719800Y-154056400D03*
X174719800Y-156596400D03*
X174719800Y-159136400D03*
X182339800Y-159136400D03*
X182339800Y-156596400D03*
X182339800Y-154056400D03*
X182339800Y-151516400D03*
X182339800Y-148976400D03*
X182339800Y-146436400D03*
X182339800Y-143896400D03*
X182339800Y-141356400D03*
X182339800Y-138816400D03*
X182339800Y-136276400D03*
%TD*%
D16*
%TO.C,U26*%
X188725200Y-136276400D03*
D17*
X188725200Y-138816400D03*
X188725200Y-141356400D03*
X188725200Y-143896400D03*
X188725200Y-146436400D03*
X188725200Y-148976400D03*
X188725200Y-151516400D03*
X188725200Y-154056400D03*
X188725200Y-156596400D03*
X188725200Y-159136400D03*
X196345200Y-159136400D03*
X196345200Y-156596400D03*
X196345200Y-154056400D03*
X196345200Y-151516400D03*
X196345200Y-148976400D03*
X196345200Y-146436400D03*
X196345200Y-143896400D03*
X196345200Y-141356400D03*
X196345200Y-138816400D03*
X196345200Y-136276400D03*
%TD*%
D16*
%TO.C,U2*%
X244747000Y-136276400D03*
D17*
X244747000Y-138816400D03*
X244747000Y-141356400D03*
X244747000Y-143896400D03*
X244747000Y-146436400D03*
X244747000Y-148976400D03*
X244747000Y-151516400D03*
X244747000Y-154056400D03*
X244747000Y-156596400D03*
X244747000Y-159136400D03*
X252367000Y-159136400D03*
X252367000Y-156596400D03*
X252367000Y-154056400D03*
X252367000Y-151516400D03*
X252367000Y-148976400D03*
X252367000Y-146436400D03*
X252367000Y-143896400D03*
X252367000Y-141356400D03*
X252367000Y-138816400D03*
X252367000Y-136276400D03*
%TD*%
D16*
%TO.C,U25*%
X188725200Y-103129400D03*
D17*
X188725200Y-105669400D03*
X188725200Y-108209400D03*
X188725200Y-110749400D03*
X188725200Y-113289400D03*
X188725200Y-115829400D03*
X188725200Y-118369400D03*
X188725200Y-120909400D03*
X188725200Y-123449400D03*
X188725200Y-125989400D03*
X196345200Y-125989400D03*
X196345200Y-123449400D03*
X196345200Y-120909400D03*
X196345200Y-118369400D03*
X196345200Y-115829400D03*
X196345200Y-113289400D03*
X196345200Y-110749400D03*
X196345200Y-108209400D03*
X196345200Y-105669400D03*
X196345200Y-103129400D03*
%TD*%
D16*
%TO.C,U27*%
X244747000Y-103129400D03*
D17*
X244747000Y-105669400D03*
X244747000Y-108209400D03*
X244747000Y-110749400D03*
X244747000Y-113289400D03*
X244747000Y-115829400D03*
X244747000Y-118369400D03*
X244747000Y-120909400D03*
X244747000Y-123449400D03*
X244747000Y-125989400D03*
X252367000Y-125989400D03*
X252367000Y-123449400D03*
X252367000Y-120909400D03*
X252367000Y-118369400D03*
X252367000Y-115829400D03*
X252367000Y-113289400D03*
X252367000Y-110749400D03*
X252367000Y-108209400D03*
X252367000Y-105669400D03*
X252367000Y-103129400D03*
%TD*%
D16*
%TO.C,U4*%
X158428400Y-166883400D03*
D17*
X158428400Y-169423400D03*
X158428400Y-171963400D03*
X158428400Y-174503400D03*
X158428400Y-177043400D03*
X158428400Y-179583400D03*
X158428400Y-182123400D03*
X166048400Y-182123400D03*
X166048400Y-179583400D03*
X166048400Y-177043400D03*
X166048400Y-174503400D03*
X166048400Y-171963400D03*
X166048400Y-169423400D03*
X166048400Y-166883400D03*
%TD*%
D16*
%TO.C,U6*%
X227280100Y-166883400D03*
D17*
X227280100Y-169423400D03*
X227280100Y-171963400D03*
X227280100Y-174503400D03*
X227280100Y-177043400D03*
X227280100Y-179583400D03*
X227280100Y-182123400D03*
X234900100Y-182123400D03*
X234900100Y-179583400D03*
X234900100Y-177043400D03*
X234900100Y-174503400D03*
X234900100Y-171963400D03*
X234900100Y-169423400D03*
X234900100Y-166883400D03*
%TD*%
D16*
%TO.C,U5*%
X141215500Y-166883400D03*
D17*
X141215500Y-169423400D03*
X141215500Y-171963400D03*
X141215500Y-174503400D03*
X141215500Y-177043400D03*
X141215500Y-179583400D03*
X141215500Y-182123400D03*
X148835500Y-182123400D03*
X148835500Y-179583400D03*
X148835500Y-177043400D03*
X148835500Y-174503400D03*
X148835500Y-171963400D03*
X148835500Y-169423400D03*
X148835500Y-166883400D03*
%TD*%
D16*
%TO.C,U44*%
X158682400Y-191648400D03*
D17*
X158682400Y-194188400D03*
X158682400Y-196728400D03*
X158682400Y-199268400D03*
X158682400Y-201808400D03*
X158682400Y-204348400D03*
X158682400Y-206888400D03*
X158682400Y-209428400D03*
X166302400Y-209428400D03*
X166302400Y-206888400D03*
X166302400Y-204348400D03*
X166302400Y-201808400D03*
X166302400Y-199268400D03*
X166302400Y-196728400D03*
X166302400Y-194188400D03*
X166302400Y-191648400D03*
%TD*%
D16*
%TO.C,U37*%
X106789600Y-166883400D03*
D17*
X106789600Y-169423400D03*
X106789600Y-171963400D03*
X106789600Y-174503400D03*
X106789600Y-177043400D03*
X106789600Y-179583400D03*
X106789600Y-182123400D03*
X106789600Y-184663400D03*
X114409600Y-184663400D03*
X114409600Y-182123400D03*
X114409600Y-179583400D03*
X114409600Y-177043400D03*
X114409600Y-174503400D03*
X114409600Y-171963400D03*
X114409600Y-169423400D03*
X114409600Y-166883400D03*
%TD*%
D16*
%TO.C,U43*%
X72363800Y-166883400D03*
D17*
X72363800Y-169423400D03*
X72363800Y-171963400D03*
X72363800Y-174503400D03*
X72363800Y-177043400D03*
X72363800Y-179583400D03*
X72363800Y-182123400D03*
X72363800Y-184663400D03*
X79983800Y-184663400D03*
X79983800Y-182123400D03*
X79983800Y-179583400D03*
X79983800Y-177043400D03*
X79983800Y-174503400D03*
X79983800Y-171963400D03*
X79983800Y-169423400D03*
X79983800Y-166883400D03*
%TD*%
D16*
%TO.C,U35*%
X89576700Y-166883400D03*
D17*
X89576700Y-169423400D03*
X89576700Y-171963400D03*
X89576700Y-174503400D03*
X89576700Y-177043400D03*
X89576700Y-179583400D03*
X89576700Y-182123400D03*
X89576700Y-184663400D03*
X97196700Y-184663400D03*
X97196700Y-182123400D03*
X97196700Y-179583400D03*
X97196700Y-177043400D03*
X97196700Y-174503400D03*
X97196700Y-171963400D03*
X97196700Y-169423400D03*
X97196700Y-166883400D03*
%TD*%
D10*
%TO.C,R5*%
X307815800Y-267467400D03*
D11*
X307815800Y-275087400D03*
%TD*%
D10*
%TO.C,C41*%
X271573800Y-215397400D03*
X276573800Y-215397400D03*
%TD*%
D12*
%TO.C,JP5*%
X267023400Y-233075800D03*
D14*
X267023400Y-235615800D03*
%TD*%
D23*
%TO.C,P21*%
X306520400Y-89232400D03*
D24*
X306520400Y-89232400D03*
%TD*%
D16*
%TO.C,U47*%
X296131800Y-166883400D03*
D17*
X296131800Y-169423400D03*
X296131800Y-171963400D03*
X296131800Y-174503400D03*
X296131800Y-177043400D03*
X296131800Y-179583400D03*
X296131800Y-182123400D03*
X296131800Y-184663400D03*
X296131800Y-187203400D03*
X303751800Y-187203400D03*
X303751800Y-184663400D03*
X303751800Y-182123400D03*
X303751800Y-179583400D03*
X303751800Y-177043400D03*
X303751800Y-174503400D03*
X303751800Y-171963400D03*
X303751800Y-169423400D03*
X303751800Y-166883400D03*
%TD*%
D16*
%TO.C,U32*%
X182974800Y-258069400D03*
D17*
X182974800Y-260609400D03*
X182974800Y-263149400D03*
X182974800Y-265689400D03*
X182974800Y-268229400D03*
X182974800Y-270769400D03*
X182974800Y-273309400D03*
X182974800Y-275849400D03*
X182974800Y-278389400D03*
X182974800Y-280929400D03*
X190594800Y-280929400D03*
X190594800Y-278389400D03*
X190594800Y-275849400D03*
X190594800Y-273309400D03*
X190594800Y-270769400D03*
X190594800Y-268229400D03*
X190594800Y-265689400D03*
X190594800Y-263149400D03*
X190594800Y-260609400D03*
X190594800Y-258069400D03*
%TD*%
D15*
%TO.C,C68*%
X254211000Y-77170600D03*
D10*
X256711000Y-77170600D03*
%TD*%
%TO.C,R13*%
X189299400Y-68331400D03*
D11*
X196919400Y-68331400D03*
%TD*%
D12*
%TO.C,J2*%
X103308800Y-142372400D03*
D14*
X105848800Y-142372400D03*
X103308800Y-144912400D03*
X105848800Y-144912400D03*
X103308800Y-147452400D03*
X105848800Y-147452400D03*
X103308800Y-149992400D03*
X105848800Y-149992400D03*
X103308800Y-152532400D03*
X105848800Y-152532400D03*
X103308800Y-155072400D03*
X105848800Y-155072400D03*
%TD*%
D26*
%TO.C,J10*%
X154145800Y-81666400D03*
X154145800Y-84206400D03*
X154145800Y-86746400D03*
X154145800Y-89286400D03*
X154145800Y-91826400D03*
X154145800Y-94366400D03*
X154145800Y-96906400D03*
X154145800Y-99446400D03*
X154145800Y-101986400D03*
X154145800Y-104526400D03*
X154145800Y-107066400D03*
X154145800Y-109606400D03*
X154145800Y-112146400D03*
X154145800Y-114686400D03*
X154145800Y-117226400D03*
X154145800Y-119766400D03*
X154145800Y-122306400D03*
X154145800Y-124846400D03*
X154145800Y-127386400D03*
X154145800Y-129926400D03*
X154145800Y-132466400D03*
X154145800Y-135006400D03*
X154145800Y-137546400D03*
X154145800Y-140086400D03*
X154145800Y-142626400D03*
X154145800Y-145166400D03*
X154145800Y-147706400D03*
X154145800Y-150246400D03*
X154145800Y-152786400D03*
X154145800Y-155326400D03*
X154145800Y-157866400D03*
X159225800Y-81666400D03*
X159225800Y-84206400D03*
X159225800Y-86746400D03*
X159225800Y-89286400D03*
X159225800Y-91826400D03*
X159225800Y-94366400D03*
X159225800Y-96906400D03*
X159225800Y-99446400D03*
X159225800Y-101986400D03*
X159225800Y-104526400D03*
X159225800Y-107066400D03*
X159225800Y-109606400D03*
X159225800Y-112146400D03*
X159225800Y-114686400D03*
X159225800Y-117226400D03*
X159225800Y-119766400D03*
X159225800Y-122306400D03*
X159225800Y-124846400D03*
X159225800Y-127386400D03*
X159225800Y-129926400D03*
X159225800Y-132466400D03*
X159225800Y-135006400D03*
X159225800Y-137546400D03*
X159225800Y-140086400D03*
X159225800Y-142626400D03*
X159225800Y-145166400D03*
X159225800Y-147706400D03*
X159225800Y-150246400D03*
X159225800Y-152786400D03*
X159225800Y-155326400D03*
X159225800Y-157866400D03*
%TD*%
D16*
%TO.C,P13*%
X72617800Y-191648400D03*
D17*
X72617800Y-194188400D03*
X72617800Y-196728400D03*
X72617800Y-199268400D03*
X72617800Y-201808400D03*
X72617800Y-204348400D03*
X72617800Y-206888400D03*
X80237800Y-206888400D03*
X80237800Y-204348400D03*
X80237800Y-201808400D03*
X80237800Y-199268400D03*
X80237800Y-196728400D03*
X80237800Y-194188400D03*
X80237800Y-191648400D03*
%TD*%
D10*
%TO.C,R20*%
X221455800Y-81082200D03*
D11*
X229075800Y-81082200D03*
%TD*%
D23*
%TO.C,P23*%
X103320400Y-221312400D03*
D24*
X103320400Y-221312400D03*
%TD*%
D12*
%TO.C,J9*%
X164001000Y-142347000D03*
D14*
X166541000Y-142347000D03*
X164001000Y-144887000D03*
X166541000Y-144887000D03*
X164001000Y-147427000D03*
X166541000Y-147427000D03*
X164001000Y-149967000D03*
X166541000Y-149967000D03*
X164001000Y-152507000D03*
X166541000Y-152507000D03*
X164001000Y-155047000D03*
X166541000Y-155047000D03*
%TD*%
D20*
%TO.C,D3*%
X274923000Y-82483000D03*
D21*
X274923000Y-72323000D03*
%TD*%
D12*
%TO.C,J12*%
X307866600Y-210571400D03*
D14*
X307866600Y-213111400D03*
%TD*%
D12*
%TO.C,P19*%
X264788200Y-262844600D03*
D14*
X267328200Y-262844600D03*
X264788200Y-265384600D03*
X267328200Y-265384600D03*
X264788200Y-267924600D03*
X267328200Y-267924600D03*
X264788200Y-270464600D03*
X267328200Y-270464600D03*
X264788200Y-273004600D03*
X267328200Y-273004600D03*
X264788200Y-275544600D03*
X267328200Y-275544600D03*
X264788200Y-278084600D03*
X267328200Y-278084600D03*
X264788200Y-280624600D03*
X267328200Y-280624600D03*
%TD*%
D16*
%TO.C,U11*%
X175641300Y-166883400D03*
D17*
X175641300Y-169423400D03*
X175641300Y-171963400D03*
X175641300Y-174503400D03*
X175641300Y-177043400D03*
X175641300Y-179583400D03*
X175641300Y-182123400D03*
X183261300Y-182123400D03*
X183261300Y-179583400D03*
X183261300Y-177043400D03*
X183261300Y-174503400D03*
X183261300Y-171963400D03*
X183261300Y-169423400D03*
X183261300Y-166883400D03*
%TD*%
D12*
%TO.C,J13*%
X296390800Y-75651600D03*
D14*
X296390800Y-73111600D03*
X298930800Y-75651600D03*
X298930800Y-73111600D03*
X301470800Y-75651600D03*
X301470800Y-73111600D03*
X304010800Y-75651600D03*
X304010800Y-73111600D03*
X306550800Y-75651600D03*
X306550800Y-73111600D03*
%TD*%
D10*
%TO.C,R16*%
X210517000Y-68331400D03*
D11*
X218137000Y-68331400D03*
%TD*%
D10*
%TO.C,C60*%
X284595400Y-162487800D03*
X289595400Y-162487800D03*
%TD*%
D23*
%TO.C,P10*%
X306520400Y-293702400D03*
D24*
X306520400Y-293702400D03*
%TD*%
D10*
%TO.C,R17*%
X200373800Y-62184600D03*
D11*
X207993800Y-62184600D03*
%TD*%
D26*
%TO.C,J8*%
X133825800Y-81666400D03*
X133825800Y-84206400D03*
X133825800Y-86746400D03*
X133825800Y-89286400D03*
X133825800Y-91826400D03*
X133825800Y-94366400D03*
X133825800Y-96906400D03*
X133825800Y-99446400D03*
X133825800Y-101986400D03*
X133825800Y-104526400D03*
X133825800Y-107066400D03*
X133825800Y-109606400D03*
X133825800Y-112146400D03*
X133825800Y-114686400D03*
X133825800Y-117226400D03*
X133825800Y-119766400D03*
X133825800Y-122306400D03*
X133825800Y-124846400D03*
X133825800Y-127386400D03*
X133825800Y-129926400D03*
X133825800Y-132466400D03*
X133825800Y-135006400D03*
X133825800Y-137546400D03*
X133825800Y-140086400D03*
X133825800Y-142626400D03*
X133825800Y-145166400D03*
X133825800Y-147706400D03*
X133825800Y-150246400D03*
X133825800Y-152786400D03*
X133825800Y-155326400D03*
X133825800Y-157866400D03*
X138905800Y-81666400D03*
X138905800Y-84206400D03*
X138905800Y-86746400D03*
X138905800Y-89286400D03*
X138905800Y-91826400D03*
X138905800Y-94366400D03*
X138905800Y-96906400D03*
X138905800Y-99446400D03*
X138905800Y-101986400D03*
X138905800Y-104526400D03*
X138905800Y-107066400D03*
X138905800Y-109606400D03*
X138905800Y-112146400D03*
X138905800Y-114686400D03*
X138905800Y-117226400D03*
X138905800Y-119766400D03*
X138905800Y-122306400D03*
X138905800Y-124846400D03*
X138905800Y-127386400D03*
X138905800Y-129926400D03*
X138905800Y-132466400D03*
X138905800Y-135006400D03*
X138905800Y-137546400D03*
X138905800Y-140086400D03*
X138905800Y-142626400D03*
X138905800Y-145166400D03*
X138905800Y-147706400D03*
X138905800Y-150246400D03*
X138905800Y-152786400D03*
X138905800Y-155326400D03*
X138905800Y-157866400D03*
%TD*%
D10*
%TO.C,R15*%
X221455800Y-62184600D03*
D11*
X229075800Y-62184600D03*
%TD*%
D23*
%TO.C,P9*%
X306520400Y-221312400D03*
D24*
X306520400Y-221312400D03*
%TD*%
D12*
%TO.C,J15*%
X240575400Y-70233000D03*
D14*
X243115400Y-70233000D03*
X245655400Y-70233000D03*
X248195400Y-70233000D03*
X250735400Y-70233000D03*
X253275400Y-70233000D03*
X255815400Y-70233000D03*
%TD*%
D23*
%TO.C,P4*%
X149040400Y-293702400D03*
D24*
X149040400Y-293702400D03*
%TD*%
D16*
%TO.C,U10*%
X285463800Y-224668400D03*
D17*
X285463800Y-227208400D03*
X285463800Y-229748400D03*
X285463800Y-232288400D03*
X285463800Y-234828400D03*
X285463800Y-237368400D03*
X285463800Y-239908400D03*
X293083800Y-239908400D03*
X293083800Y-237368400D03*
X293083800Y-234828400D03*
X293083800Y-232288400D03*
X293083800Y-229748400D03*
X293083800Y-227208400D03*
X293083800Y-224668400D03*
%TD*%
D16*
%TO.C,U24*%
X202730700Y-106939400D03*
D17*
X202730700Y-109479400D03*
X202730700Y-112019400D03*
X202730700Y-114559400D03*
X202730700Y-117099400D03*
X202730700Y-119639400D03*
X202730700Y-122179400D03*
X202730700Y-124719400D03*
X210350700Y-124719400D03*
X210350700Y-122179400D03*
X210350700Y-119639400D03*
X210350700Y-117099400D03*
X210350700Y-114559400D03*
X210350700Y-112019400D03*
X210350700Y-109479400D03*
X210350700Y-106939400D03*
%TD*%
D12*
%TO.C,U55*%
X266516800Y-153919400D03*
D14*
X269056800Y-153919400D03*
X271596800Y-153919400D03*
X274136800Y-153919400D03*
X276676800Y-153919400D03*
X279216800Y-153919400D03*
X281756800Y-153919400D03*
X284296800Y-153919400D03*
X286836800Y-153919400D03*
X289376800Y-153919400D03*
X291916800Y-153919400D03*
X294456800Y-153919400D03*
X296996800Y-153919400D03*
X299536800Y-153919400D03*
X302076800Y-153919400D03*
X302076800Y-128479400D03*
X299536800Y-128479400D03*
X296996800Y-128479400D03*
X294456800Y-128479400D03*
X291916800Y-128479400D03*
X289376800Y-128479400D03*
X286836800Y-128479400D03*
X284296800Y-128479400D03*
X281756800Y-128479400D03*
X279216800Y-128479400D03*
X276676800Y-128479400D03*
X274136800Y-128479400D03*
X271596800Y-128479400D03*
X269056800Y-128479400D03*
X266516800Y-128479400D03*
%TD*%
D26*
%TO.C,J4*%
X93185800Y-81666400D03*
X93185800Y-84206400D03*
X93185800Y-86746400D03*
X93185800Y-89286400D03*
X93185800Y-91826400D03*
X93185800Y-94366400D03*
X93185800Y-96906400D03*
X93185800Y-99446400D03*
X93185800Y-101986400D03*
X93185800Y-104526400D03*
X93185800Y-107066400D03*
X93185800Y-109606400D03*
X93185800Y-112146400D03*
X93185800Y-114686400D03*
X93185800Y-117226400D03*
X93185800Y-119766400D03*
X93185800Y-122306400D03*
X93185800Y-124846400D03*
X93185800Y-127386400D03*
X93185800Y-129926400D03*
X93185800Y-132466400D03*
X93185800Y-135006400D03*
X93185800Y-137546400D03*
X93185800Y-140086400D03*
X93185800Y-142626400D03*
X93185800Y-145166400D03*
X93185800Y-147706400D03*
X93185800Y-150246400D03*
X93185800Y-152786400D03*
X93185800Y-155326400D03*
X93185800Y-157866400D03*
X98265800Y-81666400D03*
X98265800Y-84206400D03*
X98265800Y-86746400D03*
X98265800Y-89286400D03*
X98265800Y-91826400D03*
X98265800Y-94366400D03*
X98265800Y-96906400D03*
X98265800Y-99446400D03*
X98265800Y-101986400D03*
X98265800Y-104526400D03*
X98265800Y-107066400D03*
X98265800Y-109606400D03*
X98265800Y-112146400D03*
X98265800Y-114686400D03*
X98265800Y-117226400D03*
X98265800Y-119766400D03*
X98265800Y-122306400D03*
X98265800Y-124846400D03*
X98265800Y-127386400D03*
X98265800Y-129926400D03*
X98265800Y-132466400D03*
X98265800Y-135006400D03*
X98265800Y-137546400D03*
X98265800Y-140086400D03*
X98265800Y-142626400D03*
X98265800Y-145166400D03*
X98265800Y-147706400D03*
X98265800Y-150246400D03*
X98265800Y-152786400D03*
X98265800Y-155326400D03*
X98265800Y-157866400D03*
%TD*%
D10*
%TO.C,R18*%
X210517000Y-81082200D03*
D11*
X218137000Y-81082200D03*
%TD*%
D16*
%TO.C,U13*%
X107043600Y-191648400D03*
D17*
X107043600Y-194188400D03*
X107043600Y-196728400D03*
X107043600Y-199268400D03*
X107043600Y-201808400D03*
X107043600Y-204348400D03*
X107043600Y-206888400D03*
X114663600Y-206888400D03*
X114663600Y-204348400D03*
X114663600Y-201808400D03*
X114663600Y-199268400D03*
X114663600Y-196728400D03*
X114663600Y-194188400D03*
X114663600Y-191648400D03*
%TD*%
D23*
%TO.C,P22*%
X83000400Y-221312400D03*
D24*
X83000400Y-221312400D03*
%TD*%
D20*
%TO.C,D4*%
X269690600Y-83854600D03*
D21*
X269690600Y-73694600D03*
%TD*%
D16*
%TO.C,U17*%
X192854300Y-166883400D03*
D17*
X192854300Y-169423400D03*
X192854300Y-171963400D03*
X192854300Y-174503400D03*
X192854300Y-177043400D03*
X192854300Y-179583400D03*
X192854300Y-182123400D03*
X200474300Y-182123400D03*
X200474300Y-179583400D03*
X200474300Y-177043400D03*
X200474300Y-174503400D03*
X200474300Y-171963400D03*
X200474300Y-169423400D03*
X200474300Y-166883400D03*
%TD*%
D16*
%TO.C,U51*%
X279172900Y-191648400D03*
D17*
X279172900Y-194188400D03*
X279172900Y-196728400D03*
X279172900Y-199268400D03*
X279172900Y-201808400D03*
X279172900Y-204348400D03*
X279172900Y-206888400D03*
X279172900Y-209428400D03*
X286792900Y-209428400D03*
X286792900Y-206888400D03*
X286792900Y-204348400D03*
X286792900Y-201808400D03*
X286792900Y-199268400D03*
X286792900Y-196728400D03*
X286792900Y-194188400D03*
X286792900Y-191648400D03*
%TD*%
D12*
%TO.C,J18*%
X263213400Y-76403600D03*
D14*
X263213400Y-78943600D03*
%TD*%
D10*
%TO.C,R12*%
X189299400Y-62184600D03*
D11*
X196919400Y-62184600D03*
%TD*%
D27*
%TO.C,J16*%
X274610360Y-65537380D03*
X277206240Y-65537380D03*
X272509780Y-65537380D03*
X279306820Y-65537380D03*
X272509780Y-67985940D03*
X279306820Y-68036740D03*
D28*
X282707880Y-62537640D03*
X275908300Y-61740080D03*
X269159520Y-62537640D03*
%TD*%
D10*
%TO.C,C67*%
X248759400Y-80274200D03*
X248759400Y-75274200D03*
%TD*%
D16*
%TO.C,U16*%
X210067200Y-166883400D03*
D17*
X210067200Y-169423400D03*
X210067200Y-171963400D03*
X210067200Y-174503400D03*
X210067200Y-177043400D03*
X210067200Y-179583400D03*
X210067200Y-182123400D03*
X217687200Y-182123400D03*
X217687200Y-179583400D03*
X217687200Y-177043400D03*
X217687200Y-174503400D03*
X217687200Y-171963400D03*
X217687200Y-169423400D03*
X217687200Y-166883400D03*
%TD*%
D10*
%TO.C,R11*%
X200373800Y-81082200D03*
D11*
X207993800Y-81082200D03*
%TD*%
D12*
%TO.C,J7*%
X143953800Y-142372400D03*
D14*
X146493800Y-142372400D03*
X143953800Y-144912400D03*
X146493800Y-144912400D03*
X143953800Y-147452400D03*
X146493800Y-147452400D03*
X143953800Y-149992400D03*
X146493800Y-149992400D03*
X143953800Y-152532400D03*
X146493800Y-152532400D03*
X143953800Y-155072400D03*
X146493800Y-155072400D03*
%TD*%
D27*
%TO.C,J17*%
X293406360Y-65501880D03*
X296002240Y-65501880D03*
X291305780Y-65501880D03*
X298102820Y-65501880D03*
X291305780Y-67950440D03*
X298102820Y-68001240D03*
D28*
X301503880Y-62502140D03*
X294704300Y-61704580D03*
X287955520Y-62502140D03*
%TD*%
D12*
%TO.C,JP4*%
X267125000Y-243540600D03*
D14*
X267125000Y-246080600D03*
%TD*%
D12*
%TO.C,J1*%
X82612800Y-142372400D03*
D14*
X85152800Y-142372400D03*
X82612800Y-144912400D03*
X85152800Y-144912400D03*
X82612800Y-147452400D03*
X85152800Y-147452400D03*
X82612800Y-149992400D03*
X85152800Y-149992400D03*
X82612800Y-152532400D03*
X85152800Y-152532400D03*
X82612800Y-155072400D03*
X85152800Y-155072400D03*
%TD*%
D10*
%TO.C,R9*%
X200373800Y-68331400D03*
D11*
X207993800Y-68331400D03*
%TD*%
D12*
%TO.C,J22*%
X257727000Y-93833000D03*
D14*
X260267000Y-93833000D03*
%TD*%
D16*
%TO.C,U53*%
X244747000Y-191648400D03*
D17*
X244747000Y-194188400D03*
X244747000Y-196728400D03*
X244747000Y-199268400D03*
X244747000Y-201808400D03*
X244747000Y-204348400D03*
X244747000Y-206888400D03*
X244747000Y-209428400D03*
X252367000Y-209428400D03*
X252367000Y-206888400D03*
X252367000Y-204348400D03*
X252367000Y-201808400D03*
X252367000Y-199268400D03*
X252367000Y-196728400D03*
X252367000Y-194188400D03*
X252367000Y-191648400D03*
%TD*%
D10*
%TO.C,C59*%
X284752600Y-158806200D03*
X289752600Y-158806200D03*
%TD*%
D16*
%TO.C,U23*%
X174719800Y-103033400D03*
D17*
X174719800Y-105573400D03*
X174719800Y-108113400D03*
X174719800Y-110653400D03*
X174719800Y-113193400D03*
X174719800Y-115733400D03*
X174719800Y-118273400D03*
X174719800Y-120813400D03*
X174719800Y-123353400D03*
X174719800Y-125893400D03*
X182339800Y-125893400D03*
X182339800Y-123353400D03*
X182339800Y-120813400D03*
X182339800Y-118273400D03*
X182339800Y-115733400D03*
X182339800Y-113193400D03*
X182339800Y-110653400D03*
X182339800Y-108113400D03*
X182339800Y-105573400D03*
X182339800Y-103033400D03*
%TD*%
D12*
%TO.C,J11*%
X305936200Y-229215000D03*
D14*
X305936200Y-231755000D03*
X305936200Y-234295000D03*
X305936200Y-236835000D03*
X305936200Y-239375000D03*
X305936200Y-241915000D03*
%TD*%
D16*
%TO.C,U15*%
X261706000Y-166883400D03*
D17*
X261706000Y-169423400D03*
X261706000Y-171963400D03*
X261706000Y-174503400D03*
X261706000Y-177043400D03*
X261706000Y-179583400D03*
X261706000Y-182123400D03*
X269326000Y-182123400D03*
X269326000Y-179583400D03*
X269326000Y-177043400D03*
X269326000Y-174503400D03*
X269326000Y-171963400D03*
X269326000Y-169423400D03*
X269326000Y-166883400D03*
%TD*%
D10*
%TO.C,R24*%
X255085400Y-216413400D03*
D11*
X262705400Y-216413400D03*
%TD*%
D16*
%TO.C,U22*%
X227534100Y-191648400D03*
D17*
X227534100Y-194188400D03*
X227534100Y-196728400D03*
X227534100Y-199268400D03*
X227534100Y-201808400D03*
X227534100Y-204348400D03*
X227534100Y-206888400D03*
X235154100Y-206888400D03*
X235154100Y-204348400D03*
X235154100Y-201808400D03*
X235154100Y-199268400D03*
X235154100Y-196728400D03*
X235154100Y-194188400D03*
X235154100Y-191648400D03*
%TD*%
D12*
%TO.C,J5*%
X123633800Y-142245400D03*
D14*
X126173800Y-142245400D03*
X123633800Y-144785400D03*
X126173800Y-144785400D03*
X123633800Y-147325400D03*
X126173800Y-147325400D03*
X123633800Y-149865400D03*
X126173800Y-149865400D03*
X123633800Y-152405400D03*
X126173800Y-152405400D03*
X123633800Y-154945400D03*
X126173800Y-154945400D03*
%TD*%
D16*
%TO.C,U50*%
X296385800Y-191648400D03*
D17*
X296385800Y-194188400D03*
X296385800Y-196728400D03*
X296385800Y-199268400D03*
X296385800Y-201808400D03*
X296385800Y-204348400D03*
X296385800Y-206888400D03*
X296385800Y-209428400D03*
X304005800Y-209428400D03*
X304005800Y-206888400D03*
X304005800Y-204348400D03*
X304005800Y-201808400D03*
X304005800Y-199268400D03*
X304005800Y-196728400D03*
X304005800Y-194188400D03*
X304005800Y-191648400D03*
%TD*%
D10*
%TO.C,R10*%
X200373800Y-74529000D03*
D11*
X207993800Y-74529000D03*
%TD*%
D10*
%TO.C,R23*%
X242511000Y-81607000D03*
D11*
X242511000Y-73987000D03*
%TD*%
D10*
%TO.C,R22*%
X236567400Y-81556200D03*
D11*
X236567400Y-73936200D03*
%TD*%
D12*
%TO.C,J19*%
X229837800Y-88448200D03*
D14*
X232377800Y-88448200D03*
X234917800Y-88448200D03*
X237457800Y-88448200D03*
X239997800Y-88448200D03*
X242537800Y-88448200D03*
%TD*%
D29*
%TO.C,U29*%
X188753800Y-217978400D03*
D30*
X190023800Y-215908400D03*
X191293800Y-217978400D03*
%TD*%
D10*
%TO.C,R8*%
X210517000Y-62184600D03*
D11*
X218137000Y-62184600D03*
%TD*%
D12*
%TO.C,J20*%
X239896200Y-94290200D03*
D14*
X242436200Y-94290200D03*
%TD*%
D10*
%TO.C,R19*%
X210517000Y-74529000D03*
D11*
X218137000Y-74529000D03*
%TD*%
D16*
%TO.C,U1*%
X278918900Y-166883400D03*
D17*
X278918900Y-169423400D03*
X278918900Y-171963400D03*
X278918900Y-174503400D03*
X278918900Y-177043400D03*
X278918900Y-179583400D03*
X278918900Y-182123400D03*
X286538900Y-182123400D03*
X286538900Y-179583400D03*
X286538900Y-177043400D03*
X286538900Y-174503400D03*
X286538900Y-171963400D03*
X286538900Y-169423400D03*
X286538900Y-166883400D03*
%TD*%
D16*
%TO.C,U52*%
X261960000Y-191648400D03*
D17*
X261960000Y-194188400D03*
X261960000Y-196728400D03*
X261960000Y-199268400D03*
X261960000Y-201808400D03*
X261960000Y-204348400D03*
X261960000Y-206888400D03*
X261960000Y-209428400D03*
X269580000Y-209428400D03*
X269580000Y-206888400D03*
X269580000Y-204348400D03*
X269580000Y-201808400D03*
X269580000Y-199268400D03*
X269580000Y-196728400D03*
X269580000Y-194188400D03*
X269580000Y-191648400D03*
%TD*%
D31*
%TO.C,J14*%
X261876800Y-62344400D03*
X236876800Y-62344400D03*
D15*
X245061800Y-64394400D03*
D10*
X247351800Y-64394400D03*
X249641800Y-64394400D03*
X251931800Y-64394400D03*
X254221800Y-64394400D03*
X243916800Y-62414400D03*
X246206800Y-62414400D03*
X248496800Y-62414400D03*
X250786800Y-62414400D03*
X253076800Y-62414400D03*
X245061800Y-60434400D03*
X247351800Y-60434400D03*
X249641800Y-60434400D03*
X251931800Y-60434400D03*
X254221800Y-60434400D03*
%TD*%
%TO.C,C57*%
X206211000Y-222787400D03*
X211211000Y-222787400D03*
%TD*%
%TO.C,R14*%
X221455800Y-68331400D03*
D11*
X229075800Y-68331400D03*
%TD*%
D26*
%TO.C,J6*%
X113505800Y-81666400D03*
X113505800Y-84206400D03*
X113505800Y-86746400D03*
X113505800Y-89286400D03*
X113505800Y-91826400D03*
X113505800Y-94366400D03*
X113505800Y-96906400D03*
X113505800Y-99446400D03*
X113505800Y-101986400D03*
X113505800Y-104526400D03*
X113505800Y-107066400D03*
X113505800Y-109606400D03*
X113505800Y-112146400D03*
X113505800Y-114686400D03*
X113505800Y-117226400D03*
X113505800Y-119766400D03*
X113505800Y-122306400D03*
X113505800Y-124846400D03*
X113505800Y-127386400D03*
X113505800Y-129926400D03*
X113505800Y-132466400D03*
X113505800Y-135006400D03*
X113505800Y-137546400D03*
X113505800Y-140086400D03*
X113505800Y-142626400D03*
X113505800Y-145166400D03*
X113505800Y-147706400D03*
X113505800Y-150246400D03*
X113505800Y-152786400D03*
X113505800Y-155326400D03*
X113505800Y-157866400D03*
X118585800Y-81666400D03*
X118585800Y-84206400D03*
X118585800Y-86746400D03*
X118585800Y-89286400D03*
X118585800Y-91826400D03*
X118585800Y-94366400D03*
X118585800Y-96906400D03*
X118585800Y-99446400D03*
X118585800Y-101986400D03*
X118585800Y-104526400D03*
X118585800Y-107066400D03*
X118585800Y-109606400D03*
X118585800Y-112146400D03*
X118585800Y-114686400D03*
X118585800Y-117226400D03*
X118585800Y-119766400D03*
X118585800Y-122306400D03*
X118585800Y-124846400D03*
X118585800Y-127386400D03*
X118585800Y-129926400D03*
X118585800Y-132466400D03*
X118585800Y-135006400D03*
X118585800Y-137546400D03*
X118585800Y-140086400D03*
X118585800Y-142626400D03*
X118585800Y-145166400D03*
X118585800Y-147706400D03*
X118585800Y-150246400D03*
X118585800Y-152786400D03*
X118585800Y-155326400D03*
X118585800Y-157866400D03*
%TD*%
D10*
%TO.C,C56*%
X73826200Y-213846600D03*
X78826200Y-213846600D03*
%TD*%
D16*
%TO.C,U18*%
X175895300Y-191648400D03*
D17*
X175895300Y-194188400D03*
X175895300Y-196728400D03*
X175895300Y-199268400D03*
X175895300Y-201808400D03*
X175895300Y-204348400D03*
X175895300Y-206888400D03*
X183515300Y-206888400D03*
X183515300Y-204348400D03*
X183515300Y-201808400D03*
X183515300Y-199268400D03*
X183515300Y-196728400D03*
X183515300Y-194188400D03*
X183515300Y-191648400D03*
%TD*%
D12*
%TO.C,U54*%
X266490300Y-118536400D03*
D14*
X269030300Y-118536400D03*
X271570300Y-118536400D03*
X274110300Y-118536400D03*
X276650300Y-118536400D03*
X279190300Y-118536400D03*
X281730300Y-118536400D03*
X284270300Y-118536400D03*
X286810300Y-118536400D03*
X289350300Y-118536400D03*
X291890300Y-118536400D03*
X294430300Y-118536400D03*
X296970300Y-118536400D03*
X299510300Y-118536400D03*
X302050300Y-118536400D03*
X302050300Y-93096400D03*
X299510300Y-93096400D03*
X296970300Y-93096400D03*
X294430300Y-93096400D03*
X291890300Y-93096400D03*
X289350300Y-93096400D03*
X286810300Y-93096400D03*
X284270300Y-93096400D03*
X281730300Y-93096400D03*
X279190300Y-93096400D03*
X276650300Y-93096400D03*
X274110300Y-93096400D03*
X271570300Y-93096400D03*
X269030300Y-93096400D03*
X266490300Y-93096400D03*
%TD*%
D16*
%TO.C,U12*%
X89830700Y-191648400D03*
D17*
X89830700Y-194188400D03*
X89830700Y-196728400D03*
X89830700Y-199268400D03*
X89830700Y-201808400D03*
X89830700Y-204348400D03*
X89830700Y-206888400D03*
X97450700Y-206888400D03*
X97450700Y-204348400D03*
X97450700Y-201808400D03*
X97450700Y-199268400D03*
X97450700Y-196728400D03*
X97450700Y-194188400D03*
X97450700Y-191648400D03*
%TD*%
D16*
%TO.C,U56*%
X230741600Y-102875400D03*
D17*
X230741600Y-105415400D03*
X230741600Y-107955400D03*
X230741600Y-110495400D03*
X230741600Y-113035400D03*
X230741600Y-115575400D03*
X230741600Y-118115400D03*
X230741600Y-120655400D03*
X230741600Y-123195400D03*
X230741600Y-125735400D03*
X238361600Y-125735400D03*
X238361600Y-123195400D03*
X238361600Y-120655400D03*
X238361600Y-118115400D03*
X238361600Y-115575400D03*
X238361600Y-113035400D03*
X238361600Y-110495400D03*
X238361600Y-107955400D03*
X238361600Y-105415400D03*
X238361600Y-102875400D03*
%TD*%
D10*
%TO.C,R21*%
X221455800Y-74529000D03*
D11*
X229075800Y-74529000D03*
%TD*%
D26*
%TO.C,J3*%
X72865800Y-81666400D03*
X72865800Y-84206400D03*
X72865800Y-86746400D03*
X72865800Y-89286400D03*
X72865800Y-91826400D03*
X72865800Y-94366400D03*
X72865800Y-96906400D03*
X72865800Y-99446400D03*
X72865800Y-101986400D03*
X72865800Y-104526400D03*
X72865800Y-107066400D03*
X72865800Y-109606400D03*
X72865800Y-112146400D03*
X72865800Y-114686400D03*
X72865800Y-117226400D03*
X72865800Y-119766400D03*
X72865800Y-122306400D03*
X72865800Y-124846400D03*
X72865800Y-127386400D03*
X72865800Y-129926400D03*
X72865800Y-132466400D03*
X72865800Y-135006400D03*
X72865800Y-137546400D03*
X72865800Y-140086400D03*
X72865800Y-142626400D03*
X72865800Y-145166400D03*
X72865800Y-147706400D03*
X72865800Y-150246400D03*
X72865800Y-152786400D03*
X72865800Y-155326400D03*
X72865800Y-157866400D03*
X77945800Y-81666400D03*
X77945800Y-84206400D03*
X77945800Y-86746400D03*
X77945800Y-89286400D03*
X77945800Y-91826400D03*
X77945800Y-94366400D03*
X77945800Y-96906400D03*
X77945800Y-99446400D03*
X77945800Y-101986400D03*
X77945800Y-104526400D03*
X77945800Y-107066400D03*
X77945800Y-109606400D03*
X77945800Y-112146400D03*
X77945800Y-114686400D03*
X77945800Y-117226400D03*
X77945800Y-119766400D03*
X77945800Y-122306400D03*
X77945800Y-124846400D03*
X77945800Y-127386400D03*
X77945800Y-129926400D03*
X77945800Y-132466400D03*
X77945800Y-135006400D03*
X77945800Y-137546400D03*
X77945800Y-140086400D03*
X77945800Y-142626400D03*
X77945800Y-145166400D03*
X77945800Y-147706400D03*
X77945800Y-150246400D03*
X77945800Y-152786400D03*
X77945800Y-155326400D03*
X77945800Y-157866400D03*
%TD*%
D15*
%TO.C,RN1*%
X260317800Y-154843800D03*
D11*
X260317800Y-152303800D03*
X260317800Y-149763800D03*
X260317800Y-147223800D03*
X260317800Y-144683800D03*
X260317800Y-142143800D03*
X260317800Y-139603800D03*
X260317800Y-137063800D03*
X260317800Y-134523800D03*
%TD*%
D16*
%TO.C,U21*%
X210321200Y-191648400D03*
D17*
X210321200Y-194188400D03*
X210321200Y-196728400D03*
X210321200Y-199268400D03*
X210321200Y-201808400D03*
X210321200Y-204348400D03*
X210321200Y-206888400D03*
X217941200Y-206888400D03*
X217941200Y-204348400D03*
X217941200Y-201808400D03*
X217941200Y-199268400D03*
X217941200Y-196728400D03*
X217941200Y-194188400D03*
X217941200Y-191648400D03*
%TD*%
D16*
%TO.C,U14*%
X244493000Y-166883400D03*
D17*
X244493000Y-169423400D03*
X244493000Y-171963400D03*
X244493000Y-174503400D03*
X244493000Y-177043400D03*
X244493000Y-179583400D03*
X244493000Y-182123400D03*
X252113000Y-182123400D03*
X252113000Y-179583400D03*
X252113000Y-177043400D03*
X252113000Y-174503400D03*
X252113000Y-171963400D03*
X252113000Y-169423400D03*
X252113000Y-166883400D03*
%TD*%
D20*
%TO.C,D6*%
X306749000Y-153726200D03*
D21*
X306749000Y-143566200D03*
%TD*%
D23*
%TO.C,P8*%
X149040400Y-221312400D03*
D24*
X149040400Y-221312400D03*
%TD*%
D20*
%TO.C,D5*%
X306901400Y-118877400D03*
D21*
X306901400Y-108717400D03*
%TD*%
D10*
%TO.C,R25*%
X240963000Y-222915800D03*
D11*
X240963000Y-230535800D03*
%TD*%
D12*
%TO.C,J21*%
X248024200Y-88397400D03*
D14*
X250564200Y-88397400D03*
X253104200Y-88397400D03*
X255644200Y-88397400D03*
X258184200Y-88397400D03*
X260724200Y-88397400D03*
%TD*%
D16*
%TO.C,U20*%
X193108300Y-191648400D03*
D17*
X193108300Y-194188400D03*
X193108300Y-196728400D03*
X193108300Y-199268400D03*
X193108300Y-201808400D03*
X193108300Y-204348400D03*
X193108300Y-206888400D03*
X200728300Y-206888400D03*
X200728300Y-204348400D03*
X200728300Y-201808400D03*
X200728300Y-199268400D03*
X200728300Y-196728400D03*
X200728300Y-194188400D03*
X200728300Y-191648400D03*
%TD*%
D16*
%TO.C,U33*%
X160114800Y-232542400D03*
D17*
X160114800Y-235082400D03*
X160114800Y-237622400D03*
X160114800Y-240162400D03*
X160114800Y-242702400D03*
X160114800Y-245242400D03*
X160114800Y-247782400D03*
X160114800Y-250322400D03*
X160114800Y-252862400D03*
X160114800Y-255402400D03*
X160114800Y-257942400D03*
X160114800Y-260482400D03*
X160114800Y-263022400D03*
X160114800Y-265562400D03*
X160114800Y-268102400D03*
X160114800Y-270642400D03*
X160114800Y-273182400D03*
X160114800Y-275722400D03*
X160114800Y-278262400D03*
X160114800Y-280802400D03*
X175354800Y-280802400D03*
X175354800Y-278262400D03*
X175354800Y-275722400D03*
X175354800Y-273182400D03*
X175354800Y-270642400D03*
X175354800Y-268102400D03*
X175354800Y-265562400D03*
X175354800Y-263022400D03*
X175354800Y-260482400D03*
X175354800Y-257942400D03*
X175354800Y-255402400D03*
X175354800Y-252862400D03*
X175354800Y-250322400D03*
X175354800Y-247782400D03*
X175354800Y-245242400D03*
X175354800Y-242702400D03*
X175354800Y-240162400D03*
X175354800Y-237622400D03*
X175354800Y-235082400D03*
X175354800Y-232542400D03*
%TD*%
M02*
