M48
; DRILL file {KiCad 8.0.6} date 2025-06-02T08:56:37-0500
; FORMAT={-:-/ absolute / inch / decimal}
; #@! TF.CreationDate,2025-06-02T08:56:37-05:00
; #@! TF.GenerationSoftware,Kicad,Pcbnew,8.0.6
; #@! TF.FileFunction,Plated,1,2,PTH
FMAT,2
INCH
; #@! TA.AperFunction,Plated,PTH,ViaDrill
T1C0.0157
; #@! TA.AperFunction,Plated,PTH,ComponentDrill
T2C0.0197
; #@! TA.AperFunction,Plated,PTH,ComponentDrill
T3C0.0295
; #@! TA.AperFunction,Plated,PTH,ComponentDrill
T4C0.0315
; #@! TA.AperFunction,Plated,PTH,ComponentDrill
T5C0.0394
; #@! TA.AperFunction,Plated,PTH,ComponentDrill
T6C0.0400
; #@! TA.AperFunction,Plated,PTH,ComponentDrill
T7C0.0433
; #@! TA.AperFunction,Plated,PTH,ComponentDrill
T8C0.0669
; #@! TA.AperFunction,Plated,PTH,ComponentDrill
T9C0.1260
%
G90
G05
T1
X3.0Y-3.5572
X3.0783Y-7.5674
X3.1265Y-6.0323
X3.1343Y-5.8871
X3.1477Y-5.571
X3.2248Y-4.016
X3.2316Y-6.2933
X3.2556Y-5.4748
X3.2581Y-5.4118
X3.3013Y-7.0468
X3.3595Y-3.1376
X3.3741Y-8.1845
X3.3803Y-7.202
X3.3848Y-5.5127
X3.425Y-3.0705
X3.4282Y-7.5849
X3.469Y-7.8577
X3.4701Y-3.0513
X3.4729Y-8.0697
X3.5287Y-10.6774
X3.5291Y-7.902
X3.588Y-6.143
X3.6544Y-7.7767
X3.6938Y-7.767
X3.7594Y-10.6733
X3.7824Y-9.7371
X3.7907Y-7.402
X3.8185Y-8.6677
X3.8259Y-3.5586
X3.8367Y-7.1073
X3.8534Y-9.1396
X3.8818Y-7.8261
X3.9169Y-6.6735
X3.9299Y-6.2919
X3.9359Y-5.3762
X3.9438Y-7.9063
X3.9702Y-7.5559
X4.0216Y-7.2727
X4.0324Y-10.0102
X4.0536Y-9.8799
X4.0623Y-3.194
X4.1028Y-3.2626
X4.1205Y-6.7533
X4.1275Y-6.799
X4.1499Y-7.1673
X4.1506Y-3.3111
X4.1509Y-9.3614
X4.1922Y-3.3546
X4.2014Y-7.2004
X4.2015Y-7.1273
X4.2536Y-7.8769
X4.2758Y-6.6304
X4.2905Y-8.9934
X4.2996Y-3.0671
X4.3032Y-10.4301
X4.3033Y-10.5475
X4.3059Y-9.7233
X4.3194Y-10.2275
X4.3238Y-3.5182
X4.3255Y-5.9491
X4.3297Y-3.8814
X4.3298Y-3.6152
X4.3397Y-9.2294
X4.341Y-6.5979
X4.3429Y-6.5538
X4.3476Y-10.4755
X4.3833Y-11.2131
X4.3873Y-10.0792
X4.3978Y-8.9693
X4.4119Y-8.2798
X4.417Y-9.7685
X4.4451Y-6.6047
X4.4465Y-7.6463
X4.4481Y-7.4017
X4.4618Y-7.7196
X4.4672Y-11.6401
X4.4906Y-10.1908
X4.4907Y-9.1396
X4.5103Y-10.0213
X4.5179Y-8.1597
X4.5383Y-10.5391
X4.5432Y-8.392
X4.5571Y-9.8319
X4.5842Y-8.8397
X4.6678Y-8.1421
X4.7111Y-7.3548
X4.7267Y-10.3284
X4.7282Y-7.5882
X4.7526Y-11.0614
X4.7553Y-10.0773
X4.7834Y-11.1007
X4.784Y-6.619
X4.8332Y-3.8152
X4.8942Y-10.492
X4.8956Y-7.8613
X4.9157Y-3.4062
X4.9553Y-8.2602
X4.9606Y-3.2152
X5.0092Y-8.2395
X5.0166Y-9.12
X5.0513Y-6.1172
X5.0772Y-5.9152
X5.0774Y-3.0671
X5.1052Y-9.1696
X5.1251Y-8.1897
X5.1649Y-6.6278
X5.1696Y-6.1446
X5.1899Y-10.4031
X5.2142Y-8.2617
X5.2744Y-11.2424
X5.2845Y-9.5794
X5.3274Y-10.6166
X5.3636Y-6.6247
X5.4325Y-3.1389
X5.4344Y-9.987
X5.4699Y-10.1307
X5.481Y-6.3623
X5.5121Y-6.4909
X5.5323Y-6.4338
X5.5812Y-6.1192
X5.6038Y-3.0914
X5.6714Y-8.1305
X5.6723Y-6.4053
X5.7088Y-6.3491
X5.7104Y-11.2515
X5.7423Y-5.4141
X5.7637Y-11.095
X5.7824Y-10.9509
X5.7889Y-10.5415
X5.8033Y-3.3805
X5.8282Y-5.5137
X5.9328Y-4.8612
X5.9336Y-8.9443
X5.9869Y-3.4155
X6.0106Y-3.1605
X6.017Y-8.0364
X6.0278Y-6.6362
X6.053Y-10.1049
X6.0562Y-10.8467
X6.085Y-9.9734
X6.1222Y-10.0098
X6.1295Y-6.0231
X6.1777Y-3.1363
X6.1797Y-9.9684
X6.1827Y-7.4374
X6.1828Y-3.3273
X6.1965Y-9.1167
X6.2055Y-6.3519
X6.2132Y-9.4949
X6.2137Y-8.2011
X6.2145Y-7.802
X6.2161Y-9.7057
X6.2251Y-8.9867
X6.2282Y-6.9651
X6.3228Y-6.1122
X6.3416Y-6.3422
X6.3425Y-6.8782
X6.347Y-6.188
X6.358Y-8.9495
X6.3683Y-5.9851
X6.3702Y-7.9973
X6.3707Y-4.8424
X6.3719Y-6.7093
X6.3901Y-9.2363
X6.4045Y-8.2373
X6.4116Y-8.386
X6.4831Y-9.8205
X6.4831Y-8.3451
X6.4903Y-6.915
X6.492Y-8.9872
X6.492Y-9.4377
X6.4984Y-10.96
X6.515Y-7.4037
X6.53Y-6.9113
X6.545Y-8.5708
X6.5535Y-10.4983
X6.5794Y-7.1296
X6.5857Y-7.5104
X6.6119Y-10.8552
X6.6167Y-6.1117
X6.6196Y-5.4879
X6.6372Y-9.4955
X6.665Y-8.891
X6.6738Y-8.2599
X6.6812Y-10.7643
X6.7109Y-10.1581
X6.714Y-5.8905
X6.7214Y-10.5415
X6.7214Y-9.1028
X6.747Y-8.91
X6.7602Y-7.2822
X6.7709Y-9.7188
X6.7745Y-11.6826
X6.7748Y-3.0988
X6.8034Y-8.9366
X6.8083Y-10.2351
X6.809Y-9.855
X6.815Y-5.5242
X6.8508Y-8.7396
X6.8687Y-8.9746
X6.885Y-9.0277
X6.9147Y-7.7036
X6.9197Y-8.738
X6.9227Y-5.5917
X6.9229Y-11.2372
X6.9344Y-6.751
X6.9356Y-5.7144
X6.9369Y-9.0983
X6.9373Y-8.3044
X6.9482Y-8.5597
X6.9678Y-6.9023
X6.9717Y-3.3245
X6.9757Y-10.0968
X6.9823Y-10.0231
X6.9849Y-3.5217
X6.9883Y-3.6152
X6.9894Y-6.3577
X6.9946Y-9.9318
X6.9957Y-10.287
X7.0115Y-6.4486
X7.0128Y-11.1397
X7.014Y-6.1976
X7.0446Y-8.2452
X7.0776Y-8.2129
X7.0934Y-10.9303
X7.0988Y-8.812
X7.1041Y-10.5065
X7.1176Y-10.1192
X7.1243Y-5.4296
X7.1332Y-8.7877
X7.1386Y-10.3338
X7.1428Y-10.021
X7.1432Y-8.7394
X7.1446Y-5.5508
X7.154Y-3.6098
X7.1648Y-5.6934
X7.1719Y-8.0187
X7.1735Y-5.315
X7.2233Y-4.6645
X7.23Y-5.5083
X7.2421Y-8.0187
X7.251Y-9.1561
X7.2512Y-9.9694
X7.2577Y-7.3493
X7.2601Y-11.1146
X7.265Y-5.529
X7.2666Y-5.3965
X7.2807Y-5.2606
X7.3071Y-4.6439
X7.3154Y-5.1638
X7.3221Y-8.2805
X7.3225Y-10.8705
X7.3361Y-11.1287
X7.3437Y-10.2694
X7.3463Y-6.3593
X7.3484Y-5.345
X7.3499Y-10.496
X7.3557Y-5.3932
X7.3597Y-11.1887
X7.3635Y-9.4562
X7.3656Y-8.9498
X7.3698Y-8.5807
X7.3734Y-5.4669
X7.4389Y-5.9384
X7.4464Y-8.2908
X7.4752Y-5.1712
X7.4765Y-7.2471
X7.4786Y-9.9063
X7.4929Y-4.3101
X7.5286Y-3.8751
X7.5311Y-6.4718
X7.5521Y-6.2376
X7.5544Y-6.194
X7.5831Y-3.979
X7.6253Y-10.8625
X7.6346Y-8.4107
X7.6349Y-7.8758
X7.6357Y-4.0811
X7.645Y-3.656
X7.6532Y-8.1993
X7.6896Y-6.7827
X7.711Y-8.0772
X7.7115Y-9.8933
X7.74Y-5.6392
X7.7934Y-4.3976
X7.7972Y-6.359
X7.8552Y-6.235
X7.8589Y-4.4538
X7.8696Y-9.9604
X7.871Y-3.9155
X7.878Y-5.1684
X7.8982Y-8.652
X7.9Y-5.3654
X7.9067Y-3.792
X7.9084Y-8.7283
X7.9123Y-9.8031
X7.9129Y-6.2928
X7.9165Y-5.2465
X7.9253Y-5.4666
X7.9467Y-5.0863
X7.9469Y-5.6739
X7.9498Y-4.3062
X7.9703Y-7.9836
X8.0198Y-8.0359
X8.0231Y-4.0035
X8.044Y-9.6648
X8.0677Y-4.1104
X8.1079Y-5.1899
X8.1147Y-8.1391
X8.1161Y-8.5978
X8.1168Y-8.4759
X8.1238Y-11.2946
X8.1272Y-9.4242
X8.135Y-8.0039
X8.1641Y-4.4511
X8.1727Y-9.2513
X8.2034Y-9.6357
X8.3113Y-6.3504
X8.3321Y-3.9453
X8.3329Y-10.224
X8.3346Y-8.6848
X8.3457Y-5.7832
X8.3553Y-3.782
X8.3573Y-6.6336
X8.3748Y-3.6205
X8.3825Y-6.0734
X8.4051Y-3.479
X8.4135Y-5.7468
X8.4183Y-9.0354
X8.4183Y-9.841
X8.4951Y-9.3624
X8.5103Y-7.5305
X8.5441Y-8.0969
X8.5505Y-7.6113
X8.5619Y-5.9803
X8.5757Y-7.2818
X8.5801Y-9.6648
X8.6009Y-6.4044
X8.6213Y-5.7004
X8.6436Y-7.1849
X8.6771Y-3.5468
X8.6823Y-5.725
X8.6897Y-11.5908
X8.6992Y-3.7063
X8.7139Y-4.8636
X8.7429Y-3.6768
X8.7975Y-6.9077
X8.8184Y-7.7286
X8.8463Y-9.9813
X8.8661Y-7.2044
X8.8754Y-8.8272
X8.9185Y-9.7474
X8.9512Y-9.6797
X8.9579Y-7.0489
X8.9671Y-7.8496
X9.0046Y-3.4949
X9.0344Y-3.3912
X9.0367Y-6.512
X9.0567Y-10.1285
X9.0655Y-9.5654
X9.068Y-6.4412
X9.0723Y-8.9682
X9.0872Y-9.712
X9.0902Y-8.5312
X9.0999Y-8.051
X9.1119Y-5.8356
X9.1181Y-5.7962
X9.1487Y-8.5147
X9.2574Y-6.616
X9.297Y-6.0263
X9.3044Y-8.839
X9.3258Y-7.7684
X9.3622Y-4.6328
X9.3787Y-6.1614
X9.3935Y-8.23
X9.4096Y-5.9843
X9.4356Y-6.8114
X9.4381Y-4.7093
X9.4607Y-5.996
X9.4857Y-5.7868
X9.4913Y-6.7578
X9.5087Y-3.3289
X9.5133Y-8.0933
X9.5212Y-4.1605
X9.5228Y-3.3904
X9.5393Y-4.7682
X9.5807Y-11.2431
X9.6047Y-4.1882
X9.6369Y-4.0902
X9.6561Y-4.2508
X9.6928Y-4.1617
X9.7365Y-4.7809
X9.7485Y-3.0645
X9.7566Y-9.447
X9.7945Y-7.2799
X9.7957Y-8.4476
X9.8015Y-4.2489
X9.8294Y-4.2769
X9.8405Y-6.9285
X9.9686Y-4.5676
X9.9812Y-3.1537
X10.0208Y-3.4918
X10.0465Y-5.0853
X10.0644Y-5.0353
X10.0816Y-10.0499
X10.0848Y-3.9788
X10.0901Y-7.4762
X10.116Y-6.6231
X10.1173Y-6.3049
X10.1229Y-8.9424
X10.135Y-6.9056
X10.2024Y-9.9
X10.2367Y-5.6728
X10.2608Y-9.7165
X10.2792Y-4.8817
X10.2902Y-8.5463
X10.2934Y-9.4679
X10.3549Y-7.0475
X10.423Y-6.9618
X10.4437Y-7.555
X10.4558Y-4.6386
X10.5394Y-5.2131
X10.5755Y-5.7252
X10.5774Y-5.2638
X10.6144Y-9.5711
X10.6706Y-7.9151
X10.7162Y-5.7578
X10.757Y-7.7298
X10.7639Y-8.2105
X10.9254Y-5.9427
X11.133Y-8.9177
X11.1576Y-10.5831
X11.2107Y-3.7388
X11.3439Y-4.6044
X11.3546Y-6.6079
X11.3814Y-6.8617
X11.4108Y-2.637
X11.5714Y-6.2108
X11.6562Y-6.2552
X11.784Y-10.6855
X11.7987Y-6.5298
T2
X10.8036Y-4.8647
X10.8036Y-4.9238
T3
X7.513Y-8.241
X7.563Y-8.191
X7.613Y-8.241
T4
X2.8231Y-6.802
X2.931Y-7.002
X2.931Y-7.102
X2.931Y-7.202
X2.931Y-7.302
X2.931Y-7.402
X2.931Y-7.502
X2.931Y-7.602
X2.931Y-7.702
X2.931Y-7.802
X2.931Y-7.902
X2.931Y-8.002
X2.931Y-8.102
X2.931Y-8.202
X2.931Y-8.302
X2.9757Y-11.4129
X2.9757Y-11.7129
X3.0035Y-9.5564
X3.0035Y-9.6564
X3.0035Y-9.7564
X3.0035Y-9.8564
X3.0035Y-9.9564
X3.0035Y-10.0564
X3.0035Y-10.1564
X3.0035Y-10.2564
X3.0035Y-10.3564
X3.0035Y-10.4564
X3.0035Y-10.5564
X3.0035Y-10.6564
X3.0035Y-10.7564
X3.0035Y-10.8564
X3.0035Y-10.9564
X3.0035Y-11.0564
X3.02Y-6.802
X3.2069Y-9.3002
X3.231Y-7.002
X3.231Y-7.102
X3.231Y-7.202
X3.231Y-7.302
X3.231Y-7.402
X3.231Y-7.502
X3.231Y-7.602
X3.231Y-7.702
X3.231Y-7.802
X3.231Y-7.902
X3.231Y-8.002
X3.231Y-8.102
X3.231Y-8.202
X3.231Y-8.302
X3.2625Y-6.4012
X3.286Y-2.888
X3.2883Y-4.6562
X3.3867Y-4.6562
X3.4037Y-9.3002
X3.44Y-5.025
X3.44Y-5.325
X3.4594Y-6.4012
X3.5041Y-6.801
X3.581Y-8.043
X3.581Y-8.343
X3.586Y-2.888
X3.6035Y-9.5564
X3.6035Y-9.6564
X3.6035Y-9.7564
X3.6035Y-9.8564
X3.6035Y-9.9564
X3.6035Y-10.0564
X3.6035Y-10.1564
X3.6035Y-10.2564
X3.6035Y-10.3564
X3.6035Y-10.4564
X3.6035Y-10.5564
X3.6035Y-10.6564
X3.6035Y-10.7564
X3.6035Y-10.8564
X3.6035Y-10.9564
X3.6035Y-11.0564
X3.6194Y-7.002
X3.6194Y-7.102
X3.6194Y-7.202
X3.6194Y-7.302
X3.6194Y-7.402
X3.6194Y-7.502
X3.6194Y-7.602
X3.6194Y-7.702
X3.681Y-8.043
X3.681Y-8.343
X3.701Y-6.801
X3.781Y-8.043
X3.781Y-8.343
X3.881Y-8.043
X3.881Y-8.343
X3.889Y-10.815
X3.889Y-11.115
X3.9194Y-7.002
X3.9194Y-7.102
X3.9194Y-7.202
X3.9194Y-7.302
X3.9194Y-7.402
X3.9194Y-7.502
X3.9194Y-7.602
X3.9194Y-7.702
X3.92Y-9.58
X3.92Y-9.68
X3.92Y-9.78
X3.92Y-9.88
X3.92Y-9.98
X3.92Y-10.08
X3.92Y-10.18
X3.92Y-10.28
X3.92Y-10.38
X3.92Y-10.48
X3.981Y-8.043
X3.981Y-8.343
X3.9981Y-9.299
X4.0525Y-6.3792
X4.081Y-8.043
X4.081Y-8.343
X4.1075Y-4.6562
X4.181Y-8.043
X4.181Y-8.343
X4.1931Y-6.803
X4.195Y-9.299
X4.199Y-10.803
X4.199Y-11.103
X4.2059Y-4.6562
X4.22Y-9.58
X4.22Y-9.68
X4.22Y-9.78
X4.22Y-9.88
X4.22Y-9.98
X4.22Y-10.08
X4.22Y-10.18
X4.22Y-10.28
X4.22Y-10.38
X4.22Y-10.48
X4.2494Y-6.3792
X4.281Y-8.043
X4.281Y-8.343
X4.2916Y-11.316
X4.3078Y-7.002
X4.3078Y-7.102
X4.3078Y-7.202
X4.3078Y-7.302
X4.3078Y-7.402
X4.3078Y-7.502
X4.3078Y-7.602
X4.3078Y-7.702
X4.39Y-6.803
X4.39Y-11.316
X4.518Y-8.0941
X4.518Y-8.291
X4.6078Y-7.002
X4.6078Y-7.102
X4.6078Y-7.202
X4.6078Y-7.302
X4.6078Y-7.402
X4.6078Y-7.502
X4.6078Y-7.602
X4.6078Y-7.702
X4.64Y-9.642
X4.64Y-9.742
X4.64Y-9.842
X4.64Y-9.942
X4.64Y-10.042
X4.64Y-10.142
X4.64Y-10.242
X4.64Y-10.342
X4.64Y-10.442
X4.64Y-10.542
X4.64Y-10.642
X4.64Y-10.742
X4.64Y-10.842
X4.64Y-10.942
X4.6437Y-11.3352
X4.6437Y-11.6352
X4.7437Y-11.3352
X4.7437Y-11.6352
X4.8437Y-11.3352
X4.8437Y-11.6352
X4.8527Y-6.3382
X4.856Y-6.799
X4.9335Y-4.6562
X4.9437Y-11.3352
X4.9437Y-11.6352
X4.991Y-8.447
X4.991Y-8.547
X4.991Y-8.647
X4.991Y-8.747
X4.991Y-8.847
X4.991Y-8.947
X4.991Y-9.047
X4.9961Y-7.002
X4.9961Y-7.102
X4.9961Y-7.202
X4.9961Y-7.302
X4.9961Y-7.402
X4.9961Y-7.502
X4.9961Y-7.602
X4.9961Y-7.702
X4.9961Y-7.802
X4.9961Y-7.902
X5.0319Y-4.6562
X5.0437Y-11.3352
X5.0437Y-11.6352
X5.0496Y-6.3382
X5.0529Y-6.799
X5.1011Y-9.333
X5.1437Y-11.3352
X5.1437Y-11.6352
X5.24Y-9.642
X5.24Y-9.742
X5.24Y-9.842
X5.24Y-9.942
X5.24Y-10.042
X5.24Y-10.142
X5.24Y-10.242
X5.24Y-10.342
X5.24Y-10.442
X5.24Y-10.542
X5.24Y-10.642
X5.24Y-10.742
X5.24Y-10.842
X5.24Y-10.942
X5.2437Y-11.3352
X5.2437Y-11.6352
X5.291Y-8.447
X5.291Y-8.547
X5.291Y-8.647
X5.291Y-8.747
X5.291Y-8.847
X5.291Y-8.947
X5.291Y-9.047
X5.2961Y-7.002
X5.2961Y-7.102
X5.2961Y-7.202
X5.2961Y-7.302
X5.2961Y-7.402
X5.2961Y-7.502
X5.2961Y-7.602
X5.2961Y-7.702
X5.2961Y-7.802
X5.2961Y-7.902
X5.298Y-9.333
X5.4969Y-8.8952
X5.55Y-8.272
X5.562Y-6.803
X5.5925Y-6.3432
X5.6287Y-10.4602
X5.6287Y-10.5602
X5.6287Y-10.6602
X5.6287Y-10.7602
X5.6287Y-10.8602
X5.6287Y-10.9602
X5.6287Y-11.0602
X5.64Y-9.115
X5.64Y-9.215
X5.64Y-9.315
X5.64Y-9.415
X5.64Y-9.515
X5.64Y-9.615
X5.64Y-9.715
X5.64Y-9.815
X5.65Y-8.272
X5.6705Y-10.1562
X5.6845Y-7.002
X5.6845Y-7.102
X5.6845Y-7.202
X5.6845Y-7.302
X5.6845Y-7.402
X5.6845Y-7.502
X5.6845Y-7.602
X5.6845Y-7.702
X5.6937Y-8.8952
X5.7127Y-4.6562
X5.75Y-8.272
X5.7589Y-6.803
X5.7894Y-6.3432
X5.8112Y-4.6562
X5.85Y-8.272
X5.8674Y-10.1562
X5.9287Y-10.4602
X5.9287Y-10.5602
X5.9287Y-10.6602
X5.9287Y-10.7602
X5.9287Y-10.8602
X5.9287Y-10.9602
X5.9287Y-11.0602
X5.94Y-9.115
X5.94Y-9.215
X5.94Y-9.315
X5.94Y-9.415
X5.94Y-9.515
X5.94Y-9.615
X5.94Y-9.715
X5.94Y-9.815
X5.95Y-8.272
X5.9845Y-7.002
X5.9845Y-7.102
X5.9845Y-7.202
X5.9845Y-7.302
X5.9845Y-7.402
X5.9845Y-7.502
X5.9845Y-7.602
X5.9845Y-7.702
X6.05Y-8.272
X6.0527Y-11.2742
X6.15Y-8.272
X6.1512Y-11.2742
X6.2421Y-6.803
X6.25Y-8.272
X6.3037Y-9.1552
X6.3037Y-9.2552
X6.3037Y-9.3552
X6.3037Y-9.4552
X6.3037Y-9.5552
X6.3037Y-9.6552
X6.3037Y-9.7552
X6.3037Y-9.8552
X6.3037Y-9.9552
X6.3037Y-10.0552
X6.3037Y-10.1552
X6.3037Y-10.2552
X6.3037Y-10.3552
X6.3037Y-10.4552
X6.3037Y-10.5552
X6.3037Y-10.6552
X6.3037Y-10.7552
X6.3037Y-10.8552
X6.3037Y-10.9552
X6.3037Y-11.0552
X6.35Y-8.272
X6.3729Y-7.002
X6.3729Y-7.102
X6.3729Y-7.202
X6.3729Y-7.302
X6.3729Y-7.402
X6.3729Y-7.502
X6.3729Y-7.602
X6.3729Y-7.702
X6.3729Y-7.802
X6.3729Y-7.902
X6.439Y-6.803
X6.45Y-8.272
X6.5046Y-4.667
X6.5285Y-6.3752
X6.603Y-4.667
X6.6729Y-7.002
X6.6729Y-7.102
X6.6729Y-7.202
X6.6729Y-7.302
X6.6729Y-7.402
X6.6729Y-7.502
X6.6729Y-7.602
X6.6729Y-7.702
X6.6729Y-7.802
X6.6729Y-7.902
X6.7254Y-6.3752
X6.7541Y-9.01
X6.8751Y-6.799
X6.9037Y-9.1552
X6.9037Y-9.2552
X6.9037Y-9.3552
X6.9037Y-9.4552
X6.9037Y-9.5552
X6.9037Y-9.6552
X6.9037Y-9.7552
X6.9037Y-9.8552
X6.9037Y-9.9552
X6.9037Y-10.0552
X6.9037Y-10.1552
X6.9037Y-10.2552
X6.9037Y-10.3552
X6.9037Y-10.4552
X6.9037Y-10.5552
X6.9037Y-10.6552
X6.9037Y-10.7552
X6.9037Y-10.8552
X6.9037Y-10.9552
X6.9037Y-11.0552
X6.951Y-9.01
X7.0613Y-7.002
X7.0613Y-7.102
X7.0613Y-7.202
X7.0613Y-7.302
X7.0613Y-7.402
X7.0613Y-7.502
X7.0613Y-7.602
X7.0613Y-7.702
X7.0613Y-7.802
X7.0613Y-7.902
X7.072Y-6.799
X7.16Y-8.237
X7.191Y-8.912
X7.191Y-9.012
X7.191Y-9.112
X7.191Y-9.212
X7.191Y-9.312
X7.191Y-9.412
X7.191Y-9.512
X7.191Y-9.612
X7.191Y-9.712
X7.191Y-9.812
X7.201Y-10.176
X7.201Y-10.276
X7.201Y-10.376
X7.201Y-10.476
X7.201Y-10.576
X7.201Y-10.676
X7.201Y-10.776
X7.201Y-10.876
X7.201Y-10.976
X7.201Y-11.076
X7.251Y-6.376
X7.3569Y-8.237
X7.3613Y-7.002
X7.3613Y-7.102
X7.3613Y-7.202
X7.3613Y-7.302
X7.3613Y-7.402
X7.3613Y-7.502
X7.3613Y-7.602
X7.3613Y-7.702
X7.3613Y-7.802
X7.3613Y-7.902
X7.4479Y-6.376
X7.491Y-8.912
X7.491Y-9.012
X7.491Y-9.112
X7.491Y-9.212
X7.491Y-9.312
X7.491Y-9.412
X7.491Y-9.512
X7.491Y-9.612
X7.491Y-9.712
X7.491Y-9.812
X7.501Y-10.176
X7.501Y-10.276
X7.501Y-10.376
X7.501Y-10.476
X7.501Y-10.576
X7.501Y-10.676
X7.501Y-10.776
X7.501Y-10.876
X7.501Y-10.976
X7.501Y-11.076
X7.5591Y-10.005
X7.5701Y-6.79
X7.7496Y-7.002
X7.7496Y-7.102
X7.7496Y-7.202
X7.7496Y-7.302
X7.7496Y-7.402
X7.7496Y-7.502
X7.7496Y-7.602
X7.7496Y-7.702
X7.7496Y-7.802
X7.7496Y-7.902
X7.756Y-10.005
X7.767Y-6.79
X7.971Y-8.912
X7.971Y-9.012
X7.971Y-9.112
X7.971Y-9.212
X7.971Y-9.312
X7.971Y-9.412
X7.971Y-9.512
X7.971Y-10.176
X7.971Y-10.276
X7.971Y-10.376
X7.971Y-10.476
X7.971Y-10.576
X7.971Y-10.676
X7.971Y-10.776
X8.0011Y-8.695
X8.006Y-5.848
X8.006Y-6.0449
X8.006Y-11.047
X8.0191Y-2.876
X8.0496Y-7.002
X8.0496Y-7.102
X8.0496Y-7.202
X8.0496Y-7.302
X8.0496Y-7.402
X8.0496Y-7.502
X8.0496Y-7.602
X8.0496Y-7.702
X8.0496Y-7.802
X8.0496Y-7.902
X8.0711Y-4.431
X8.198Y-8.695
X8.1994Y-3.0968
X8.1994Y-3.1968
X8.1994Y-3.2968
X8.1994Y-3.3968
X8.1994Y-3.4968
X8.1994Y-3.5968
X8.1994Y-3.6968
X8.1994Y-3.7968
X8.1994Y-3.8968
X8.1994Y-3.9968
X8.1994Y-4.6284
X8.1994Y-4.7284
X8.1994Y-4.8284
X8.1994Y-4.9284
X8.1994Y-5.0284
X8.1994Y-5.1284
X8.1994Y-5.2284
X8.1994Y-5.3284
X8.1994Y-5.4284
X8.1994Y-5.5284
X8.1994Y-5.9234
X8.1994Y-6.0234
X8.1994Y-6.1234
X8.1994Y-6.2234
X8.1994Y-6.3234
X8.1994Y-6.4234
X8.1994Y-6.5234
X8.2029Y-11.047
X8.216Y-2.876
X8.2581Y-8.034
X8.268Y-4.431
X8.271Y-8.912
X8.271Y-9.012
X8.271Y-9.112
X8.271Y-9.212
X8.271Y-9.312
X8.271Y-9.412
X8.271Y-9.512
X8.271Y-10.176
X8.271Y-10.276
X8.271Y-10.376
X8.271Y-10.476
X8.271Y-10.576
X8.271Y-10.676
X8.271Y-10.776
X8.306Y-8.234
X8.306Y-8.534
X8.406Y-8.234
X8.406Y-8.534
X8.438Y-7.002
X8.438Y-7.102
X8.438Y-7.202
X8.438Y-7.302
X8.438Y-7.402
X8.438Y-7.502
X8.438Y-7.602
X8.438Y-7.702
X8.4421Y-6.816
X8.455Y-8.034
X8.4994Y-3.0968
X8.4994Y-3.1968
X8.4994Y-3.2968
X8.4994Y-3.3968
X8.4994Y-3.4968
X8.4994Y-3.5968
X8.4994Y-3.6968
X8.4994Y-3.7968
X8.4994Y-3.8968
X8.4994Y-3.9968
X8.4994Y-4.6284
X8.4994Y-4.7284
X8.4994Y-4.8284
X8.4994Y-4.9284
X8.4994Y-5.0284
X8.4994Y-5.1284
X8.4994Y-5.2284
X8.4994Y-5.3284
X8.4994Y-5.4284
X8.4994Y-5.5284
X8.4994Y-5.9234
X8.4994Y-6.0234
X8.4994Y-6.1234
X8.4994Y-6.2234
X8.4994Y-6.3234
X8.4994Y-6.4234
X8.4994Y-6.5234
X8.506Y-8.234
X8.506Y-8.534
X8.5931Y-8.715
X8.606Y-8.234
X8.606Y-8.534
X8.639Y-6.816
X8.693Y-8.912
X8.693Y-9.012
X8.693Y-9.112
X8.693Y-9.212
X8.693Y-9.312
X8.693Y-9.412
X8.693Y-9.512
X8.693Y-10.176
X8.693Y-10.276
X8.693Y-10.376
X8.693Y-10.476
X8.693Y-10.576
X8.693Y-10.676
X8.693Y-10.776
X8.704Y-11.047
X8.706Y-8.234
X8.706Y-8.534
X8.738Y-7.002
X8.738Y-7.102
X8.738Y-7.202
X8.738Y-7.302
X8.738Y-7.402
X8.738Y-7.502
X8.738Y-7.602
X8.738Y-7.702
X8.7751Y-2.894
X8.7891Y-4.614
X8.79Y-8.715
X8.806Y-8.234
X8.806Y-8.534
X8.9009Y-11.047
X8.906Y-8.234
X8.906Y-8.534
X8.912Y-5.931
X8.912Y-6.031
X8.912Y-6.131
X8.912Y-6.231
X8.912Y-6.331
X8.912Y-6.431
X8.912Y-6.531
X8.9121Y-3.0968
X8.9121Y-3.1968
X8.9121Y-3.2968
X8.9121Y-3.3968
X8.9121Y-3.4968
X8.9121Y-3.5968
X8.9121Y-3.6968
X8.9121Y-3.7968
X8.9121Y-3.8968
X8.9121Y-3.9968
X8.9121Y-4.8272
X8.9121Y-4.9272
X8.9121Y-5.0272
X8.9121Y-5.1272
X8.9121Y-5.2272
X8.9121Y-5.3272
X8.9121Y-5.4272
X8.9121Y-5.5272
X8.972Y-2.894
X8.986Y-4.614
X8.9901Y-6.804
X8.993Y-8.912
X8.993Y-9.012
X8.993Y-9.112
X8.993Y-9.212
X8.993Y-9.312
X8.993Y-9.412
X8.993Y-9.512
X8.993Y-10.176
X8.993Y-10.276
X8.993Y-10.376
X8.993Y-10.476
X8.993Y-10.576
X8.993Y-10.676
X8.993Y-10.776
X9.127Y-6.994
X9.127Y-7.094
X9.127Y-7.194
X9.127Y-7.294
X9.127Y-7.394
X9.127Y-7.494
X9.127Y-7.594
X9.127Y-7.694
X9.127Y-7.794
X9.127Y-7.894
X9.187Y-6.804
X9.212Y-5.931
X9.212Y-6.031
X9.212Y-6.131
X9.212Y-6.231
X9.212Y-6.331
X9.212Y-6.431
X9.212Y-6.531
X9.2121Y-3.0968
X9.2121Y-3.1968
X9.2121Y-3.2968
X9.2121Y-3.3968
X9.2121Y-3.4968
X9.2121Y-3.5968
X9.2121Y-3.6968
X9.2121Y-3.7968
X9.2121Y-3.8968
X9.2121Y-3.9968
X9.2121Y-4.8272
X9.2121Y-4.9272
X9.2121Y-5.0272
X9.2121Y-5.1272
X9.2121Y-5.2272
X9.2121Y-5.3272
X9.2121Y-5.4272
X9.2121Y-5.5272
X9.2121Y-8.71
X9.335Y-8.911
X9.335Y-9.011
X9.335Y-9.111
X9.335Y-9.211
X9.335Y-9.311
X9.335Y-9.411
X9.335Y-9.511
X9.335Y-9.611
X9.335Y-9.711
X9.335Y-9.811
X9.336Y-10.21
X9.336Y-10.31
X9.336Y-10.41
X9.336Y-10.51
X9.336Y-10.61
X9.336Y-10.71
X9.336Y-10.81
X9.3671Y-11.09
X9.392Y-8.388
X9.409Y-8.71
X9.413Y-5.8651
X9.413Y-6.062
X9.427Y-6.994
X9.427Y-7.094
X9.427Y-7.194
X9.427Y-7.294
X9.427Y-7.394
X9.427Y-7.494
X9.427Y-7.594
X9.427Y-7.694
X9.427Y-7.794
X9.427Y-7.894
X9.4351Y-2.886
X9.492Y-8.388
X9.5001Y-4.433
X9.564Y-11.09
X9.592Y-8.388
X9.6249Y-3.0968
X9.6249Y-3.1968
X9.6249Y-3.2968
X9.6249Y-3.3968
X9.6249Y-3.4968
X9.6249Y-3.5968
X9.6249Y-3.6968
X9.6249Y-3.7968
X9.6249Y-3.8968
X9.6249Y-3.9968
X9.6249Y-4.6284
X9.6249Y-4.7284
X9.6249Y-4.8284
X9.6249Y-4.9284
X9.6249Y-5.0284
X9.6249Y-5.1284
X9.6249Y-5.2284
X9.6249Y-5.3284
X9.6249Y-5.4284
X9.6249Y-5.5284
X9.632Y-2.886
X9.635Y-8.911
X9.635Y-9.011
X9.635Y-9.111
X9.635Y-9.211
X9.635Y-9.311
X9.635Y-9.411
X9.635Y-9.511
X9.635Y-9.611
X9.635Y-9.711
X9.635Y-9.811
X9.636Y-10.21
X9.636Y-10.31
X9.636Y-10.41
X9.636Y-10.51
X9.636Y-10.61
X9.636Y-10.71
X9.636Y-10.81
X9.6871Y-6.802
X9.692Y-8.388
X9.697Y-4.433
X9.7Y-5.916
X9.7Y-6.016
X9.7Y-6.116
X9.7Y-6.216
X9.7Y-6.316
X9.7Y-6.416
X9.7Y-6.516
X9.792Y-8.388
X9.884Y-6.802
X9.887Y-6.995
X9.887Y-7.095
X9.887Y-7.195
X9.887Y-7.295
X9.887Y-7.395
X9.887Y-7.495
X9.887Y-7.595
X9.887Y-7.695
X9.887Y-7.795
X9.887Y-7.895
X9.892Y-8.388
X9.9249Y-3.0968
X9.9249Y-3.1968
X9.9249Y-3.2968
X9.9249Y-3.3968
X9.9249Y-3.4968
X9.9249Y-3.5968
X9.9249Y-3.6968
X9.9249Y-3.7968
X9.9249Y-3.8968
X9.9249Y-3.9968
X9.9249Y-4.6284
X9.9249Y-4.7284
X9.9249Y-4.8284
X9.9249Y-4.9284
X9.9249Y-5.0284
X9.9249Y-5.1284
X9.9249Y-5.2284
X9.9249Y-5.3284
X9.9249Y-5.4284
X9.9249Y-5.5284
X9.992Y-8.388
X10.0Y-5.916
X10.0Y-6.016
X10.0Y-6.116
X10.0Y-6.216
X10.0Y-6.316
X10.0Y-6.416
X10.0Y-6.516
X10.092Y-8.388
X10.1761Y-2.886
X10.187Y-6.995
X10.187Y-7.095
X10.187Y-7.195
X10.187Y-7.295
X10.187Y-7.395
X10.187Y-7.495
X10.187Y-7.595
X10.187Y-7.695
X10.187Y-7.795
X10.187Y-7.895
X10.192Y-8.388
X10.2061Y-4.532
X10.292Y-8.388
X10.327Y-5.938
X10.327Y-6.038
X10.327Y-6.138
X10.327Y-6.238
X10.327Y-6.338
X10.327Y-6.438
X10.327Y-6.538
X10.3376Y-3.0968
X10.3376Y-3.1968
X10.3376Y-3.2968
X10.3376Y-3.3968
X10.3376Y-3.4968
X10.3376Y-3.5968
X10.3376Y-3.6968
X10.3376Y-3.7968
X10.3376Y-3.8968
X10.3376Y-3.9968
X10.3376Y-4.7288
X10.3376Y-4.8288
X10.3376Y-4.9288
X10.3376Y-5.0288
X10.3376Y-5.1288
X10.3376Y-5.2288
X10.3376Y-5.3288
X10.3376Y-5.4288
X10.3376Y-5.5288
X10.373Y-2.886
X10.3861Y-6.805
X10.403Y-4.532
X10.468Y-8.868
X10.468Y-8.9664
X10.4713Y-9.1307
X10.4713Y-9.2292
X10.475Y-9.4
X10.475Y-9.4984
X10.481Y-9.6666
X10.481Y-9.765
X10.5038Y-7.0026
X10.5038Y-7.1026
X10.5038Y-7.2026
X10.5038Y-7.3026
X10.5038Y-7.4026
X10.5038Y-7.5026
X10.5038Y-7.6026
X10.583Y-6.805
X10.627Y-5.938
X10.627Y-6.038
X10.627Y-6.138
X10.627Y-6.238
X10.627Y-6.338
X10.627Y-6.438
X10.627Y-6.538
X10.6376Y-3.0968
X10.6376Y-3.1968
X10.6376Y-3.2968
X10.6376Y-3.3968
X10.6376Y-3.4968
X10.6376Y-3.5968
X10.6376Y-3.6968
X10.6376Y-3.7968
X10.6376Y-3.8968
X10.6376Y-3.9968
X10.6376Y-4.7288
X10.6376Y-4.8288
X10.6376Y-4.9288
X10.6376Y-5.0288
X10.6376Y-5.1288
X10.6376Y-5.2288
X10.6376Y-5.3288
X10.6376Y-5.4288
X10.6376Y-5.5288
X10.7287Y-9.1022
X10.7287Y-9.2022
X10.7287Y-9.3022
X10.7287Y-9.4022
X10.7287Y-9.5022
X10.7287Y-9.6022
X10.7287Y-9.7022
X10.7287Y-9.8022
X10.7337Y-10.1422
X10.7535Y-10.4388
X10.7535Y-10.5388
X10.7535Y-10.6388
X10.7535Y-10.7388
X10.7535Y-10.8388
X10.7535Y-10.9388
X10.7535Y-11.0388
X10.7781Y-8.855
X10.7888Y-2.8919
X10.8038Y-7.0026
X10.8038Y-7.1026
X10.8038Y-7.2026
X10.8038Y-7.3026
X10.8038Y-7.4026
X10.8038Y-7.5026
X10.8038Y-7.6026
X10.8137Y-5.2248
X10.8199Y-5.0798
X10.834Y-5.9001
X10.834Y-6.097
X10.9306Y-10.1422
X10.975Y-8.855
X10.9857Y-2.8919
X11.0106Y-5.2248
X11.016Y-3.092
X11.016Y-3.192
X11.016Y-3.292
X11.016Y-3.392
X11.016Y-3.492
X11.016Y-3.592
X11.016Y-3.692
X11.0168Y-5.0798
X11.0287Y-9.1022
X11.0287Y-9.2022
X11.0287Y-9.3022
X11.0287Y-9.4022
X11.0287Y-9.5022
X11.0287Y-9.6022
X11.0287Y-9.7022
X11.0287Y-9.8022
X11.0535Y-10.4388
X11.0535Y-10.5388
X11.0535Y-10.6388
X11.0535Y-10.7388
X11.0535Y-10.8388
X11.0535Y-10.9388
X11.0535Y-11.0388
X11.0637Y-9.9329
X11.0637Y-10.2329
X11.0861Y-6.806
X11.193Y-7.007
X11.193Y-7.107
X11.193Y-7.207
X11.193Y-7.307
X11.193Y-7.407
X11.193Y-7.507
X11.193Y-7.607
X11.2587Y-9.7552
X11.2587Y-9.8552
X11.2587Y-9.9552
X11.2587Y-10.0552
X11.2587Y-10.1552
X11.2587Y-10.2552
X11.2587Y-10.3552
X11.2587Y-10.4552
X11.2587Y-10.5552
X11.2587Y-10.6552
X11.2587Y-10.7552
X11.2587Y-10.8552
X11.2587Y-10.9552
X11.2587Y-11.0552
X11.283Y-6.806
X11.288Y-8.864
X11.288Y-8.9624
X11.316Y-3.092
X11.316Y-3.192
X11.316Y-3.292
X11.316Y-3.392
X11.316Y-3.492
X11.316Y-3.592
X11.316Y-3.692
X11.493Y-7.007
X11.493Y-7.107
X11.493Y-7.207
X11.493Y-7.307
X11.493Y-7.407
X11.493Y-7.507
X11.493Y-7.607
X11.533Y-9.207
X11.533Y-9.507
X11.7231Y-9.531
X11.8587Y-9.7552
X11.8587Y-9.8552
X11.8587Y-9.9552
X11.8587Y-10.0552
X11.8587Y-10.1552
X11.8587Y-10.2552
X11.8587Y-10.3552
X11.8587Y-10.4552
X11.8587Y-10.5552
X11.8587Y-10.6552
X11.8587Y-10.7552
X11.8587Y-10.8552
X11.8587Y-10.9552
X11.8587Y-11.0552
X11.92Y-9.531
X12.1061Y-10.4943
X12.1061Y-10.7943
X12.114Y-10.001
X12.114Y-10.301
T5
X2.8647Y-8.9522
X2.8647Y-9.1294
X3.1206Y-8.9522
X3.1206Y-9.1294
X3.2525Y-5.6052
X3.2525Y-5.7052
X3.2525Y-5.8052
X3.2525Y-5.9052
X3.2525Y-6.0052
X3.2525Y-6.1052
X3.3525Y-5.6052
X3.3525Y-5.7052
X3.3525Y-5.8052
X3.3525Y-5.9052
X3.3525Y-6.0052
X3.3525Y-6.1052
X4.0673Y-5.6052
X4.0673Y-5.7052
X4.0673Y-5.8052
X4.0673Y-5.9052
X4.0673Y-6.0052
X4.0673Y-6.1052
X4.1673Y-5.6052
X4.1673Y-5.7052
X4.1673Y-5.8052
X4.1673Y-5.9052
X4.1673Y-6.0052
X4.1673Y-6.1052
X4.66Y-8.893
X4.66Y-8.993
X4.66Y-9.093
X4.8675Y-5.6002
X4.8675Y-5.7002
X4.8675Y-5.8002
X4.8675Y-5.9002
X4.8675Y-6.0002
X4.8675Y-6.1002
X4.9675Y-5.6002
X4.9675Y-5.7002
X4.9675Y-5.8002
X4.9675Y-5.9002
X4.9675Y-6.0002
X4.9675Y-6.1002
X5.5507Y-11.458
X5.5507Y-11.558
X5.6675Y-5.6052
X5.6675Y-5.7052
X5.6675Y-5.8052
X5.6675Y-5.9052
X5.6675Y-6.0052
X5.6675Y-6.1052
X5.7675Y-5.6052
X5.7675Y-5.7052
X5.7675Y-5.8052
X5.7675Y-5.9052
X5.7675Y-6.0052
X5.7675Y-6.1052
X6.2685Y-8.5556
X6.2685Y-8.6556
X6.2685Y-8.7556
X6.2685Y-8.8556
X6.3685Y-8.5556
X6.3685Y-8.6556
X6.3685Y-8.7556
X6.3685Y-8.8556
X6.4567Y-5.6042
X6.4567Y-5.7042
X6.4567Y-5.8042
X6.4567Y-5.9042
X6.4567Y-6.0042
X6.4567Y-6.1042
X6.5567Y-5.6042
X6.5567Y-5.7042
X6.5567Y-5.8042
X6.5567Y-5.9042
X6.5567Y-6.0042
X6.5567Y-6.1042
X7.2161Y-8.5597
X7.2161Y-8.6597
X7.274Y-5.615
X7.274Y-5.715
X7.274Y-5.815
X7.274Y-5.915
X7.274Y-6.015
X7.274Y-6.115
X7.374Y-5.615
X7.374Y-5.715
X7.374Y-5.815
X7.374Y-5.915
X7.374Y-6.015
X7.374Y-6.115
X7.5263Y-8.5253
X7.5263Y-8.7025
X7.7822Y-8.5253
X7.7822Y-8.7025
X7.841Y-3.11
X7.841Y-3.21
X7.841Y-3.31
X7.841Y-3.41
X7.941Y-3.11
X7.941Y-3.21
X7.941Y-3.31
X7.941Y-3.41
X8.016Y-9.88
X8.116Y-9.88
X8.216Y-9.88
X9.907Y-2.38
X9.907Y-2.48
X10.225Y-2.368
X10.225Y-2.468
X10.325Y-2.368
X10.325Y-2.468
X10.425Y-2.368
X10.425Y-2.468
X10.525Y-2.368
X10.525Y-2.468
X10.625Y-2.368
X10.625Y-2.468
X10.97Y-2.447
X11.07Y-2.447
X11.17Y-2.447
X11.27Y-2.447
X11.299Y-9.296
X11.299Y-9.396
X11.37Y-2.447
X11.47Y-2.447
X12.0306Y-5.0318
X12.0306Y-5.1318
X12.0306Y-5.2318
X12.0306Y-5.3318
T6
X2.8687Y-3.2152
X2.8687Y-3.3152
X2.8687Y-3.4152
X2.8687Y-3.5152
X2.8687Y-3.6152
X2.8687Y-3.7152
X2.8687Y-3.8152
X2.8687Y-3.9152
X2.8687Y-4.0152
X2.8687Y-4.1152
X2.8687Y-4.2152
X2.8687Y-4.3152
X2.8687Y-4.4152
X2.8687Y-4.5152
X2.8687Y-4.6152
X2.8687Y-4.7152
X2.8687Y-4.8152
X2.8687Y-4.9152
X2.8687Y-5.0152
X2.8687Y-5.1152
X2.8687Y-5.2152
X2.8687Y-5.3152
X2.8687Y-5.4152
X2.8687Y-5.5152
X2.8687Y-5.6152
X2.8687Y-5.7152
X2.8687Y-5.8152
X2.8687Y-5.9152
X2.8687Y-6.0152
X2.8687Y-6.1152
X2.8687Y-6.2152
X3.0687Y-3.2152
X3.0687Y-3.3152
X3.0687Y-3.4152
X3.0687Y-3.5152
X3.0687Y-3.6152
X3.0687Y-3.7152
X3.0687Y-3.8152
X3.0687Y-3.9152
X3.0687Y-4.0152
X3.0687Y-4.1152
X3.0687Y-4.2152
X3.0687Y-4.3152
X3.0687Y-4.4152
X3.0687Y-4.5152
X3.0687Y-4.6152
X3.0687Y-4.7152
X3.0687Y-4.8152
X3.0687Y-4.9152
X3.0687Y-5.0152
X3.0687Y-5.1152
X3.0687Y-5.2152
X3.0687Y-5.3152
X3.0687Y-5.4152
X3.0687Y-5.5152
X3.0687Y-5.6152
X3.0687Y-5.7152
X3.0687Y-5.8152
X3.0687Y-5.9152
X3.0687Y-6.0152
X3.0687Y-6.1152
X3.0687Y-6.2152
X3.6687Y-3.2152
X3.6687Y-3.3152
X3.6687Y-3.4152
X3.6687Y-3.5152
X3.6687Y-3.6152
X3.6687Y-3.7152
X3.6687Y-3.8152
X3.6687Y-3.9152
X3.6687Y-4.0152
X3.6687Y-4.1152
X3.6687Y-4.2152
X3.6687Y-4.3152
X3.6687Y-4.4152
X3.6687Y-4.5152
X3.6687Y-4.6152
X3.6687Y-4.7152
X3.6687Y-4.8152
X3.6687Y-4.9152
X3.6687Y-5.0152
X3.6687Y-5.1152
X3.6687Y-5.2152
X3.6687Y-5.3152
X3.6687Y-5.4152
X3.6687Y-5.5152
X3.6687Y-5.6152
X3.6687Y-5.7152
X3.6687Y-5.8152
X3.6687Y-5.9152
X3.6687Y-6.0152
X3.6687Y-6.1152
X3.6687Y-6.2152
X3.8687Y-3.2152
X3.8687Y-3.3152
X3.8687Y-3.4152
X3.8687Y-3.5152
X3.8687Y-3.6152
X3.8687Y-3.7152
X3.8687Y-3.8152
X3.8687Y-3.9152
X3.8687Y-4.0152
X3.8687Y-4.1152
X3.8687Y-4.2152
X3.8687Y-4.3152
X3.8687Y-4.4152
X3.8687Y-4.5152
X3.8687Y-4.6152
X3.8687Y-4.7152
X3.8687Y-4.8152
X3.8687Y-4.9152
X3.8687Y-5.0152
X3.8687Y-5.1152
X3.8687Y-5.2152
X3.8687Y-5.3152
X3.8687Y-5.4152
X3.8687Y-5.5152
X3.8687Y-5.6152
X3.8687Y-5.7152
X3.8687Y-5.8152
X3.8687Y-5.9152
X3.8687Y-6.0152
X3.8687Y-6.1152
X3.8687Y-6.2152
X4.4687Y-3.2152
X4.4687Y-3.3152
X4.4687Y-3.4152
X4.4687Y-3.5152
X4.4687Y-3.6152
X4.4687Y-3.7152
X4.4687Y-3.8152
X4.4687Y-3.9152
X4.4687Y-4.0152
X4.4687Y-4.1152
X4.4687Y-4.2152
X4.4687Y-4.3152
X4.4687Y-4.4152
X4.4687Y-4.5152
X4.4687Y-4.6152
X4.4687Y-4.7152
X4.4687Y-4.8152
X4.4687Y-4.9152
X4.4687Y-5.0152
X4.4687Y-5.1152
X4.4687Y-5.2152
X4.4687Y-5.3152
X4.4687Y-5.4152
X4.4687Y-5.5152
X4.4687Y-5.6152
X4.4687Y-5.7152
X4.4687Y-5.8152
X4.4687Y-5.9152
X4.4687Y-6.0152
X4.4687Y-6.1152
X4.4687Y-6.2152
X4.6687Y-3.2152
X4.6687Y-3.3152
X4.6687Y-3.4152
X4.6687Y-3.5152
X4.6687Y-3.6152
X4.6687Y-3.7152
X4.6687Y-3.8152
X4.6687Y-3.9152
X4.6687Y-4.0152
X4.6687Y-4.1152
X4.6687Y-4.2152
X4.6687Y-4.3152
X4.6687Y-4.4152
X4.6687Y-4.5152
X4.6687Y-4.6152
X4.6687Y-4.7152
X4.6687Y-4.8152
X4.6687Y-4.9152
X4.6687Y-5.0152
X4.6687Y-5.1152
X4.6687Y-5.2152
X4.6687Y-5.3152
X4.6687Y-5.4152
X4.6687Y-5.5152
X4.6687Y-5.6152
X4.6687Y-5.7152
X4.6687Y-5.8152
X4.6687Y-5.9152
X4.6687Y-6.0152
X4.6687Y-6.1152
X4.6687Y-6.2152
X5.2687Y-3.2152
X5.2687Y-3.3152
X5.2687Y-3.4152
X5.2687Y-3.5152
X5.2687Y-3.6152
X5.2687Y-3.7152
X5.2687Y-3.8152
X5.2687Y-3.9152
X5.2687Y-4.0152
X5.2687Y-4.1152
X5.2687Y-4.2152
X5.2687Y-4.3152
X5.2687Y-4.4152
X5.2687Y-4.5152
X5.2687Y-4.6152
X5.2687Y-4.7152
X5.2687Y-4.8152
X5.2687Y-4.9152
X5.2687Y-5.0152
X5.2687Y-5.1152
X5.2687Y-5.2152
X5.2687Y-5.3152
X5.2687Y-5.4152
X5.2687Y-5.5152
X5.2687Y-5.6152
X5.2687Y-5.7152
X5.2687Y-5.8152
X5.2687Y-5.9152
X5.2687Y-6.0152
X5.2687Y-6.1152
X5.2687Y-6.2152
X5.4687Y-3.2152
X5.4687Y-3.3152
X5.4687Y-3.4152
X5.4687Y-3.5152
X5.4687Y-3.6152
X5.4687Y-3.7152
X5.4687Y-3.8152
X5.4687Y-3.9152
X5.4687Y-4.0152
X5.4687Y-4.1152
X5.4687Y-4.2152
X5.4687Y-4.3152
X5.4687Y-4.4152
X5.4687Y-4.5152
X5.4687Y-4.6152
X5.4687Y-4.7152
X5.4687Y-4.8152
X5.4687Y-4.9152
X5.4687Y-5.0152
X5.4687Y-5.1152
X5.4687Y-5.2152
X5.4687Y-5.3152
X5.4687Y-5.4152
X5.4687Y-5.5152
X5.4687Y-5.6152
X5.4687Y-5.7152
X5.4687Y-5.8152
X5.4687Y-5.9152
X5.4687Y-6.0152
X5.4687Y-6.1152
X5.4687Y-6.2152
X6.0687Y-3.2152
X6.0687Y-3.3152
X6.0687Y-3.4152
X6.0687Y-3.5152
X6.0687Y-3.6152
X6.0687Y-3.7152
X6.0687Y-3.8152
X6.0687Y-3.9152
X6.0687Y-4.0152
X6.0687Y-4.1152
X6.0687Y-4.2152
X6.0687Y-4.3152
X6.0687Y-4.4152
X6.0687Y-4.5152
X6.0687Y-4.6152
X6.0687Y-4.7152
X6.0687Y-4.8152
X6.0687Y-4.9152
X6.0687Y-5.0152
X6.0687Y-5.1152
X6.0687Y-5.2152
X6.0687Y-5.3152
X6.0687Y-5.4152
X6.0687Y-5.5152
X6.0687Y-5.6152
X6.0687Y-5.7152
X6.0687Y-5.8152
X6.0687Y-5.9152
X6.0687Y-6.0152
X6.0687Y-6.1152
X6.0687Y-6.2152
X6.2687Y-3.2152
X6.2687Y-3.3152
X6.2687Y-3.4152
X6.2687Y-3.5152
X6.2687Y-3.6152
X6.2687Y-3.7152
X6.2687Y-3.8152
X6.2687Y-3.9152
X6.2687Y-4.0152
X6.2687Y-4.1152
X6.2687Y-4.2152
X6.2687Y-4.3152
X6.2687Y-4.4152
X6.2687Y-4.5152
X6.2687Y-4.6152
X6.2687Y-4.7152
X6.2687Y-4.8152
X6.2687Y-4.9152
X6.2687Y-5.0152
X6.2687Y-5.1152
X6.2687Y-5.2152
X6.2687Y-5.3152
X6.2687Y-5.4152
X6.2687Y-5.5152
X6.2687Y-5.6152
X6.2687Y-5.7152
X6.2687Y-5.8152
X6.2687Y-5.9152
X6.2687Y-6.0152
X6.2687Y-6.1152
X6.2687Y-6.2152
X6.8687Y-3.2152
X6.8687Y-3.3152
X6.8687Y-3.4152
X6.8687Y-3.5152
X6.8687Y-3.6152
X6.8687Y-3.7152
X6.8687Y-3.8152
X6.8687Y-3.9152
X6.8687Y-4.0152
X6.8687Y-4.1152
X6.8687Y-4.2152
X6.8687Y-4.3152
X6.8687Y-4.4152
X6.8687Y-4.5152
X6.8687Y-4.6152
X6.8687Y-4.7152
X6.8687Y-4.8152
X6.8687Y-4.9152
X6.8687Y-5.0152
X6.8687Y-5.1152
X6.8687Y-5.2152
X6.8687Y-5.3152
X6.8687Y-5.4152
X6.8687Y-5.5152
X6.8687Y-5.6152
X6.8687Y-5.7152
X6.8687Y-5.8152
X6.8687Y-5.9152
X6.8687Y-6.0152
X6.8687Y-6.1152
X6.8687Y-6.2152
X7.0687Y-3.2152
X7.0687Y-3.3152
X7.0687Y-3.4152
X7.0687Y-3.5152
X7.0687Y-3.6152
X7.0687Y-3.7152
X7.0687Y-3.8152
X7.0687Y-3.9152
X7.0687Y-4.0152
X7.0687Y-4.1152
X7.0687Y-4.2152
X7.0687Y-4.3152
X7.0687Y-4.4152
X7.0687Y-4.5152
X7.0687Y-4.6152
X7.0687Y-4.7152
X7.0687Y-4.8152
X7.0687Y-4.9152
X7.0687Y-5.0152
X7.0687Y-5.1152
X7.0687Y-5.2152
X7.0687Y-5.3152
X7.0687Y-5.4152
X7.0687Y-5.5152
X7.0687Y-5.6152
X7.0687Y-5.7152
X7.0687Y-5.8152
X7.0687Y-5.9152
X7.0687Y-6.0152
X7.0687Y-6.1152
X7.0687Y-6.2152
T7
X3.5117Y-11.3171
X3.5117Y-11.7171
X3.7557Y-11.3171
X3.7557Y-11.7171
X11.4Y-4.9251
X11.4Y-5.3251
X11.606Y-4.8711
X11.606Y-5.2711
T8
X6.5126Y-11.4302
X6.5126Y-11.6468
X6.678Y-11.4302
X6.678Y-11.6468
X6.8433Y-11.4302
X6.8433Y-11.6468
X7.0087Y-11.4302
X7.0087Y-11.6468
X7.174Y-11.4302
X7.174Y-11.6468
X7.3394Y-11.4302
X7.3394Y-11.6468
X7.5047Y-11.4302
X7.5047Y-11.6468
X7.6701Y-11.4302
X7.6701Y-11.6468
X7.8354Y-11.4302
X7.8354Y-11.6468
X8.0008Y-11.4302
X8.0008Y-11.6468
T9
X3.2677Y-2.6131
X3.2677Y-8.7131
X3.2677Y-11.5631
X4.0677Y-2.6131
X4.0677Y-8.7131
X4.0677Y-11.5631
X5.8677Y-2.6131
X5.8677Y-8.7131
X5.8677Y-11.5631
X12.0677Y-3.5131
X12.0677Y-8.7131
X12.0677Y-11.5631
M30
