M48
; DRILL file {KiCad 8.0.6} date 2025-06-21T09:35:39-0500
; FORMAT={-:-/ absolute / inch / decimal}
; #@! TF.CreationDate,2025-06-21T09:35:39-05:00
; #@! TF.GenerationSoftware,Kicad,Pcbnew,8.0.6
; #@! TF.FileFunction,Plated,1,2,PTH
FMAT,2
INCH
; #@! TA.AperFunction,Plated,PTH,ViaDrill
T1C0.0157
; #@! TA.AperFunction,Plated,PTH,ComponentDrill
T2C0.0197
; #@! TA.AperFunction,Plated,PTH,ComponentDrill
T3C0.0295
; #@! TA.AperFunction,Plated,PTH,ComponentDrill
T4C0.0315
; #@! TA.AperFunction,Plated,PTH,ComponentDrill
T5C0.0394
; #@! TA.AperFunction,Plated,PTH,ComponentDrill
T6C0.0400
; #@! TA.AperFunction,Plated,PTH,ComponentDrill
T7C0.0433
; #@! TA.AperFunction,Plated,PTH,ComponentDrill
T8C0.0669
; #@! TA.AperFunction,Plated,PTH,ComponentDrill
T9C0.1260
%
G90
G05
T1
X2.7649Y-3.832
X2.9322Y-6.7911
X2.997Y-5.7264
X3.1139Y-7.456
X3.1152Y-10.0218
X3.2063Y-3.0008
X3.2674Y-3.1042
X3.3135Y-7.9555
X3.391Y-3.1973
X3.4356Y-5.9319
X3.436Y-6.205
X3.4414Y-7.3307
X3.4582Y-7.6538
X3.4737Y-6.3161
X3.585Y-6.7018
X3.6055Y-5.6306
X3.7711Y-9.8064
X3.8509Y-6.9457
X3.8761Y-8.2234
X3.9274Y-5.6239
X3.9275Y-3.6187
X3.9368Y-6.6563
X4.0394Y-4.1153
X4.0682Y-7.1031
X4.0726Y-6.2056
X4.0844Y-5.4664
X4.1276Y-7.184
X4.1424Y-6.5608
X4.1435Y-7.3652
X4.1638Y-10.5609
X4.1654Y-8.2077
X4.166Y-3.3818
X4.2056Y-8.2094
X4.2169Y-3.3152
X4.2306Y-3.253
X4.2355Y-3.3532
X4.2392Y-7.4597
X4.2789Y-3.1692
X4.2905Y-6.3251
X4.2987Y-8.6436
X4.3184Y-11.0129
X4.3218Y-9.7168
X4.3358Y-8.2379
X4.3448Y-6.269
X4.3626Y-3.1843
X4.3711Y-3.3793
X4.3718Y-3.3168
X4.3894Y-3.4699
X4.4005Y-8.1509
X4.4128Y-9.8062
X4.4135Y-9.657
X4.4247Y-8.0574
X4.4252Y-5.5827
X4.4978Y-6.4932
X4.5253Y-9.9091
X4.5288Y-7.9965
X4.5376Y-3.2298
X4.5432Y-3.4152
X4.5535Y-7.9043
X4.5559Y-8.1558
X4.5996Y-3.1319
X4.6277Y-6.5602
X4.6618Y-8.5818
X4.6686Y-3.0311
X4.6714Y-6.5395
X4.6902Y-10.4031
X4.6944Y-8.5294
X4.7016Y-10.1456
X4.7601Y-7.9219
X4.7721Y-9.742
X4.7809Y-6.656
X4.7849Y-6.6109
X4.7853Y-6.4679
X4.8545Y-9.4183
X4.8875Y-5.4591
X4.9121Y-6.3541
X4.9218Y-6.3032
X4.9455Y-8.1222
X4.9657Y-6.6492
X4.9901Y-10.387
X5.0057Y-6.6507
X5.0199Y-8.1081
X5.0205Y-5.9394
X5.0454Y-8.0626
X5.0554Y-7.3592
X5.0644Y-3.7899
X5.0791Y-8.1684
X5.0862Y-3.2401
X5.1024Y-7.702
X5.1273Y-7.902
X5.1315Y-8.6441
X5.1653Y-8.3574
X5.1727Y-10.5951
X5.2945Y-9.873
X5.3014Y-3.1526
X5.3073Y-11.2343
X5.326Y-11.3551
X5.3286Y-9.5324
X5.3579Y-3.2368
X5.3629Y-10.7106
X5.3861Y-5.8943
X5.4091Y-6.8933
X5.4207Y-8.647
X5.4277Y-8.7679
X5.4522Y-8.0885
X5.468Y-9.9716
X5.5136Y-6.326
X5.5337Y-10.6585
X5.5471Y-3.13
X5.5706Y-7.7057
X5.6415Y-5.4605
X5.6473Y-5.2652
X5.648Y-8.8218
X5.6591Y-7.7981
X5.6937Y-3.5582
X5.7009Y-10.4597
X5.7205Y-6.7201
X5.7396Y-8.0996
X5.7948Y-5.4212
X5.806Y-9.6707
X5.8405Y-9.351
X5.8463Y-5.5766
X5.911Y-4.8407
X5.9603Y-6.7145
X5.9881Y-3.0528
X5.9908Y-3.2449
X5.994Y-5.708
X6.0062Y-6.7207
X6.0065Y-5.027
X6.0785Y-10.0515
X6.089Y-3.1537
X6.095Y-9.2055
X6.1372Y-7.102
X6.139Y-8.1079
X6.1451Y-10.9828
X6.1593Y-6.3272
X6.1653Y-5.0217
X6.1838Y-9.222
X6.1883Y-6.2752
X6.1948Y-8.4257
X6.1952Y-10.1373
X6.2066Y-6.1937
X6.2151Y-9.979
X6.2184Y-9.5191
X6.2187Y-3.5433
X6.2316Y-9.9053
X6.2325Y-9.8221
X6.2469Y-7.323
X6.2637Y-8.3888
X6.3525Y-5.3286
X6.3604Y-9.6174
X6.3702Y-6.3504
X6.4334Y-8.1923
X6.4732Y-7.9757
X6.5007Y-9.9109
X6.5049Y-3.243
X6.5331Y-7.9026
X6.5941Y-3.1595
X6.6192Y-3.5537
X6.6226Y-5.5193
X6.6344Y-9.7106
X6.6382Y-3.1497
X6.6405Y-9.6446
X6.6438Y-6.1262
X6.6642Y-11.0813
X6.6721Y-9.4343
X6.6832Y-10.3062
X6.6867Y-9.8044
X6.702Y-9.4084
X6.7226Y-10.4673
X6.7434Y-8.1709
X6.7608Y-9.0766
X6.7648Y-8.9539
X6.7663Y-7.718
X6.7669Y-3.5657
X6.7677Y-10.2102
X6.7688Y-3.4631
X6.7734Y-9.1309
X6.7938Y-10.3551
X6.8437Y-8.9505
X6.8703Y-6.2692
X6.8898Y-3.1397
X6.9028Y-8.1129
X6.9397Y-8.8305
X6.971Y-7.6561
X6.9797Y-10.0275
X6.9811Y-3.3218
X6.9911Y-3.5238
X6.9955Y-7.2565
X7.0034Y-6.734
X7.0152Y-10.8104
X7.0234Y-9.1991
X7.0333Y-6.8903
X7.0369Y-6.4092
X7.0383Y-9.3258
X7.0714Y-9.9043
X7.1031Y-9.8447
X7.1098Y-8.4952
X7.1498Y-5.3362
X7.1766Y-7.215
X7.1886Y-4.4805
X7.1958Y-7.3463
X7.1997Y-5.5953
X7.2126Y-5.3174
X7.2168Y-11.1486
X7.2373Y-7.9233
X7.2538Y-4.3299
X7.2599Y-3.6182
X7.2939Y-11.022
X7.3166Y-6.184
X7.3911Y-6.79
X7.4015Y-4.3505
X7.4035Y-3.759
X7.4113Y-9.2664
X7.4134Y-4.4477
X7.4242Y-8.6056
X7.4252Y-7.833
X7.4293Y-8.9557
X7.431Y-10.0275
X7.4422Y-4.3218
X7.4553Y-5.791
X7.4622Y-5.5217
X7.4637Y-6.1878
X7.5041Y-8.6437
X7.5052Y-7.8908
X7.5489Y-5.2573
X7.5702Y-6.2163
X7.586Y-5.3076
X7.588Y-3.9195
X7.5892Y-5.7334
X7.5902Y-5.5992
X7.6062Y-9.3001
X7.6083Y-5.2685
X7.6307Y-4.3558
X7.6335Y-7.0557
X7.637Y-6.7039
X7.6496Y-3.9011
X7.659Y-7.7684
X7.6673Y-5.8068
X7.7066Y-5.5189
X7.7136Y-6.234
X7.7258Y-9.7118
X7.7258Y-6.4202
X7.7324Y-6.3536
X7.7412Y-8.36
X7.7829Y-6.4738
X7.7985Y-8.0592
X7.8006Y-5.7246
X7.8008Y-9.4599
X7.8128Y-8.1347
X7.8249Y-5.6681
X7.8421Y-3.8613
X7.8426Y-5.6288
X7.8678Y-10.2388
X7.8753Y-8.0425
X7.8872Y-7.9483
X7.9055Y-5.1284
X7.9096Y-10.3225
X7.9232Y-5.3538
X7.9312Y-5.4492
X7.9495Y-3.7912
X8.0233Y-10.0534
X8.0329Y-8.134
X8.0381Y-6.3531
X8.0733Y-8.134
X8.0769Y-4.1432
X8.0799Y-5.6462
X8.0835Y-3.3777
X8.1147Y-8.8521
X8.1149Y-10.4541
X8.1149Y-10.4983
X8.1263Y-3.4522
X8.1448Y-8.585
X8.1506Y-8.4721
X8.1648Y-5.6467
X8.1683Y-8.3461
X8.1821Y-7.9594
X8.2047Y-7.8571
X8.2055Y-8.772
X8.216Y-10.13
X8.2889Y-6.9134
X8.3124Y-10.9936
X8.3361Y-8.3887
X8.3407Y-4.8832
X8.3512Y-7.7418
X8.3722Y-5.2319
X8.4088Y-3.552
X8.4112Y-11.2054
X8.4191Y-8.1049
X8.4317Y-6.4791
X8.4393Y-3.6311
X8.4545Y-5.8576
X8.4709Y-9.2883
X8.49Y-5.7573
X8.5096Y-9.5266
X8.5215Y-4.0736
X8.5232Y-5.7798
X8.5341Y-6.9849
X8.5512Y-7.6588
X8.5812Y-7.4644
X8.5847Y-9.761
X8.6022Y-9.0385
X8.6143Y-5.4158
X8.6186Y-7.551
X8.6273Y-5.7425
X8.6321Y-4.0287
X8.6464Y-6.1758
X8.6513Y-7.6451
X8.6547Y-7.5957
X8.6578Y-3.8317
X8.6973Y-5.689
X8.714Y-8.6848
X8.7175Y-8.4243
X8.7391Y-6.2698
X8.7918Y-5.2806
X8.8053Y-3.3453
X8.8514Y-8.7905
X8.8729Y-9.4438
X8.8793Y-7.152
X8.9208Y-2.9865
X8.9259Y-7.3614
X8.9341Y-4.1571
X8.9354Y-9.723
X8.9903Y-11.4343
X9.0203Y-6.8997
X9.0307Y-6.1272
X9.0425Y-3.6416
X9.069Y-6.4273
X9.0783Y-5.9753
X9.0832Y-9.5569
X9.0955Y-5.5754
X9.0987Y-6.3857
X9.1022Y-10.2274
X9.1045Y-9.0063
X9.14Y-9.6127
X9.1602Y-8.8191
X9.1693Y-9.5569
X9.184Y-7.2383
X9.1973Y-9.8523
X9.2304Y-8.3691
X9.2479Y-9.5536
X9.2628Y-8.4505
X9.2674Y-11.2262
X9.3193Y-5.866
X9.3419Y-3.489
X9.3575Y-8.6663
X9.3583Y-11.4343
X9.4097Y-3.5304
X9.4721Y-5.7838
X9.5022Y-7.2211
X9.5159Y-9.461
X9.5257Y-5.902
X9.5279Y-11.2038
X9.5527Y-11.1521
X9.5535Y-6.287
X9.5702Y-5.9975
X9.6477Y-8.5873
X9.7035Y-3.6532
X9.7072Y-4.5804
X9.7097Y-4.9263
X9.7135Y-3.4108
X9.7244Y-8.7699
X9.7347Y-4.3912
X9.7528Y-3.8832
X9.7916Y-7.4819
X9.7966Y-7.2894
X9.8045Y-3.805
X9.8143Y-3.3134
X9.8172Y-4.3853
X9.8673Y-4.3879
X9.8963Y-6.3694
X9.9116Y-6.0016
X9.9319Y-4.1169
X9.9458Y-9.2831
X9.9833Y-4.1487
X10.0541Y-4.3372
X10.0555Y-3.3959
X10.0775Y-4.1473
X10.0839Y-4.3016
X10.0921Y-5.3888
X10.1054Y-5.8732
X10.1207Y-4.8761
X10.1216Y-4.5819
X10.1233Y-9.2017
X10.1258Y-7.3494
X10.1269Y-4.6828
X10.1339Y-6.2556
X10.1679Y-8.5736
X10.1931Y-8.5396
X10.2065Y-4.6038
X10.2075Y-3.5482
X10.2351Y-5.9079
X10.2627Y-4.8388
X10.2814Y-5.7195
X10.2831Y-8.2162
X10.431Y-4.9498
X10.4414Y-6.944
X10.6139Y-7.6807
X10.6818Y-8.3242
X10.6928Y-8.1836
X10.6989Y-7.2145
X10.7944Y-10.0284
X10.8292Y-5.8312
X10.8426Y-5.7059
X10.8605Y-9.2024
X10.9427Y-9.1131
X10.9544Y-7.8829
X10.956Y-3.9411
X10.9858Y-7.7996
X11.0045Y-7.1926
X11.036Y-7.282
X11.0652Y-6.4458
X11.1273Y-2.3931
X11.1679Y-8.9398
X11.1769Y-3.4836
X11.1855Y-9.4455
X11.1968Y-9.8923
X11.2194Y-4.0754
X11.2902Y-8.7705
X11.3869Y-6.3226
T2
X10.8036Y-4.8647
X10.8036Y-4.9238
T3
X7.513Y-8.241
X7.563Y-8.191
X7.613Y-8.241
T4
X2.8231Y-6.802
X2.931Y-7.002
X2.931Y-7.102
X2.931Y-7.202
X2.931Y-7.302
X2.931Y-7.402
X2.931Y-7.502
X2.931Y-7.602
X2.931Y-7.702
X2.931Y-7.802
X2.931Y-7.902
X2.931Y-8.002
X2.931Y-8.102
X2.931Y-8.202
X2.931Y-8.302
X2.9757Y-11.4129
X2.9757Y-11.7129
X3.0035Y-9.5564
X3.0035Y-9.6564
X3.0035Y-9.7564
X3.0035Y-9.8564
X3.0035Y-9.9564
X3.0035Y-10.0564
X3.0035Y-10.1564
X3.0035Y-10.2564
X3.0035Y-10.3564
X3.0035Y-10.4564
X3.0035Y-10.5564
X3.0035Y-10.6564
X3.0035Y-10.7564
X3.0035Y-10.8564
X3.0035Y-10.9564
X3.0035Y-11.0564
X3.02Y-6.802
X3.2069Y-9.3002
X3.231Y-7.002
X3.231Y-7.102
X3.231Y-7.202
X3.231Y-7.302
X3.231Y-7.402
X3.231Y-7.502
X3.231Y-7.602
X3.231Y-7.702
X3.231Y-7.802
X3.231Y-7.902
X3.231Y-8.002
X3.231Y-8.102
X3.231Y-8.202
X3.231Y-8.302
X3.2625Y-6.4012
X3.286Y-2.888
X3.2883Y-4.6562
X3.3867Y-4.6562
X3.4037Y-9.3002
X3.44Y-5.025
X3.44Y-5.325
X3.4594Y-6.4012
X3.5041Y-6.801
X3.581Y-8.043
X3.581Y-8.343
X3.586Y-2.888
X3.6035Y-9.5564
X3.6035Y-9.6564
X3.6035Y-9.7564
X3.6035Y-9.8564
X3.6035Y-9.9564
X3.6035Y-10.0564
X3.6035Y-10.1564
X3.6035Y-10.2564
X3.6035Y-10.3564
X3.6035Y-10.4564
X3.6035Y-10.5564
X3.6035Y-10.6564
X3.6035Y-10.7564
X3.6035Y-10.8564
X3.6035Y-10.9564
X3.6035Y-11.0564
X3.6194Y-7.002
X3.6194Y-7.102
X3.6194Y-7.202
X3.6194Y-7.302
X3.6194Y-7.402
X3.6194Y-7.502
X3.6194Y-7.602
X3.6194Y-7.702
X3.681Y-8.043
X3.681Y-8.343
X3.701Y-6.801
X3.781Y-8.043
X3.781Y-8.343
X3.881Y-8.043
X3.881Y-8.343
X3.889Y-10.815
X3.889Y-11.115
X3.9194Y-7.002
X3.9194Y-7.102
X3.9194Y-7.202
X3.9194Y-7.302
X3.9194Y-7.402
X3.9194Y-7.502
X3.9194Y-7.602
X3.9194Y-7.702
X3.92Y-9.58
X3.92Y-9.68
X3.92Y-9.78
X3.92Y-9.88
X3.92Y-9.98
X3.92Y-10.08
X3.92Y-10.18
X3.92Y-10.28
X3.92Y-10.38
X3.92Y-10.48
X3.981Y-8.043
X3.981Y-8.343
X3.9981Y-9.299
X4.0525Y-6.3792
X4.081Y-8.043
X4.081Y-8.343
X4.1075Y-4.6562
X4.181Y-8.043
X4.181Y-8.343
X4.1931Y-6.803
X4.195Y-9.299
X4.199Y-10.803
X4.199Y-11.103
X4.2059Y-4.6562
X4.22Y-9.58
X4.22Y-9.68
X4.22Y-9.78
X4.22Y-9.88
X4.22Y-9.98
X4.22Y-10.08
X4.22Y-10.18
X4.22Y-10.28
X4.22Y-10.38
X4.22Y-10.48
X4.2494Y-6.3792
X4.281Y-8.043
X4.281Y-8.343
X4.2916Y-11.316
X4.3078Y-7.002
X4.3078Y-7.102
X4.3078Y-7.202
X4.3078Y-7.302
X4.3078Y-7.402
X4.3078Y-7.502
X4.3078Y-7.602
X4.3078Y-7.702
X4.39Y-6.803
X4.39Y-11.316
X4.518Y-8.0941
X4.518Y-8.291
X4.6078Y-7.002
X4.6078Y-7.102
X4.6078Y-7.202
X4.6078Y-7.302
X4.6078Y-7.402
X4.6078Y-7.502
X4.6078Y-7.602
X4.6078Y-7.702
X4.64Y-9.642
X4.64Y-9.742
X4.64Y-9.842
X4.64Y-9.942
X4.64Y-10.042
X4.64Y-10.142
X4.64Y-10.242
X4.64Y-10.342
X4.64Y-10.442
X4.64Y-10.542
X4.64Y-10.642
X4.64Y-10.742
X4.64Y-10.842
X4.64Y-10.942
X4.6437Y-11.3352
X4.6437Y-11.6352
X4.7437Y-11.3352
X4.7437Y-11.6352
X4.8437Y-11.3352
X4.8437Y-11.6352
X4.8527Y-6.3382
X4.856Y-6.799
X4.9335Y-4.6562
X4.9437Y-11.3352
X4.9437Y-11.6352
X4.991Y-8.447
X4.991Y-8.547
X4.991Y-8.647
X4.991Y-8.747
X4.991Y-8.847
X4.991Y-8.947
X4.991Y-9.047
X4.9961Y-7.002
X4.9961Y-7.102
X4.9961Y-7.202
X4.9961Y-7.302
X4.9961Y-7.402
X4.9961Y-7.502
X4.9961Y-7.602
X4.9961Y-7.702
X4.9961Y-7.802
X4.9961Y-7.902
X5.0319Y-4.6562
X5.0437Y-11.3352
X5.0437Y-11.6352
X5.0496Y-6.3382
X5.0529Y-6.799
X5.1011Y-9.333
X5.1437Y-11.3352
X5.1437Y-11.6352
X5.24Y-9.642
X5.24Y-9.742
X5.24Y-9.842
X5.24Y-9.942
X5.24Y-10.042
X5.24Y-10.142
X5.24Y-10.242
X5.24Y-10.342
X5.24Y-10.442
X5.24Y-10.542
X5.24Y-10.642
X5.24Y-10.742
X5.24Y-10.842
X5.24Y-10.942
X5.2437Y-11.3352
X5.2437Y-11.6352
X5.291Y-8.447
X5.291Y-8.547
X5.291Y-8.647
X5.291Y-8.747
X5.291Y-8.847
X5.291Y-8.947
X5.291Y-9.047
X5.2961Y-7.002
X5.2961Y-7.102
X5.2961Y-7.202
X5.2961Y-7.302
X5.2961Y-7.402
X5.2961Y-7.502
X5.2961Y-7.602
X5.2961Y-7.702
X5.2961Y-7.802
X5.2961Y-7.902
X5.298Y-9.333
X5.4969Y-8.8952
X5.55Y-8.272
X5.562Y-6.803
X5.5925Y-6.3432
X5.6287Y-10.4602
X5.6287Y-10.5602
X5.6287Y-10.6602
X5.6287Y-10.7602
X5.6287Y-10.8602
X5.6287Y-10.9602
X5.6287Y-11.0602
X5.64Y-9.115
X5.64Y-9.215
X5.64Y-9.315
X5.64Y-9.415
X5.64Y-9.515
X5.64Y-9.615
X5.64Y-9.715
X5.64Y-9.815
X5.65Y-8.272
X5.6705Y-10.1562
X5.6845Y-7.002
X5.6845Y-7.102
X5.6845Y-7.202
X5.6845Y-7.302
X5.6845Y-7.402
X5.6845Y-7.502
X5.6845Y-7.602
X5.6845Y-7.702
X5.6937Y-8.8952
X5.7127Y-4.6562
X5.75Y-8.272
X5.7589Y-6.803
X5.7894Y-6.3432
X5.8112Y-4.6562
X5.85Y-8.272
X5.8674Y-10.1562
X5.9287Y-10.4602
X5.9287Y-10.5602
X5.9287Y-10.6602
X5.9287Y-10.7602
X5.9287Y-10.8602
X5.9287Y-10.9602
X5.9287Y-11.0602
X5.94Y-9.115
X5.94Y-9.215
X5.94Y-9.315
X5.94Y-9.415
X5.94Y-9.515
X5.94Y-9.615
X5.94Y-9.715
X5.94Y-9.815
X5.95Y-8.272
X5.9845Y-7.002
X5.9845Y-7.102
X5.9845Y-7.202
X5.9845Y-7.302
X5.9845Y-7.402
X5.9845Y-7.502
X5.9845Y-7.602
X5.9845Y-7.702
X6.05Y-8.272
X6.0527Y-11.2742
X6.15Y-8.272
X6.1512Y-11.2742
X6.2421Y-6.803
X6.25Y-8.272
X6.3037Y-9.1552
X6.3037Y-9.2552
X6.3037Y-9.3552
X6.3037Y-9.4552
X6.3037Y-9.5552
X6.3037Y-9.6552
X6.3037Y-9.7552
X6.3037Y-9.8552
X6.3037Y-9.9552
X6.3037Y-10.0552
X6.3037Y-10.1552
X6.3037Y-10.2552
X6.3037Y-10.3552
X6.3037Y-10.4552
X6.3037Y-10.5552
X6.3037Y-10.6552
X6.3037Y-10.7552
X6.3037Y-10.8552
X6.3037Y-10.9552
X6.3037Y-11.0552
X6.35Y-8.272
X6.3729Y-7.002
X6.3729Y-7.102
X6.3729Y-7.202
X6.3729Y-7.302
X6.3729Y-7.402
X6.3729Y-7.502
X6.3729Y-7.602
X6.3729Y-7.702
X6.3729Y-7.802
X6.3729Y-7.902
X6.439Y-6.803
X6.45Y-8.272
X6.5046Y-4.667
X6.5285Y-6.3752
X6.603Y-4.667
X6.6729Y-7.002
X6.6729Y-7.102
X6.6729Y-7.202
X6.6729Y-7.302
X6.6729Y-7.402
X6.6729Y-7.502
X6.6729Y-7.602
X6.6729Y-7.702
X6.6729Y-7.802
X6.6729Y-7.902
X6.7254Y-6.3752
X6.7541Y-9.01
X6.8751Y-6.799
X6.9037Y-9.1552
X6.9037Y-9.2552
X6.9037Y-9.3552
X6.9037Y-9.4552
X6.9037Y-9.5552
X6.9037Y-9.6552
X6.9037Y-9.7552
X6.9037Y-9.8552
X6.9037Y-9.9552
X6.9037Y-10.0552
X6.9037Y-10.1552
X6.9037Y-10.2552
X6.9037Y-10.3552
X6.9037Y-10.4552
X6.9037Y-10.5552
X6.9037Y-10.6552
X6.9037Y-10.7552
X6.9037Y-10.8552
X6.9037Y-10.9552
X6.9037Y-11.0552
X6.951Y-9.01
X7.0613Y-7.002
X7.0613Y-7.102
X7.0613Y-7.202
X7.0613Y-7.302
X7.0613Y-7.402
X7.0613Y-7.502
X7.0613Y-7.602
X7.0613Y-7.702
X7.0613Y-7.802
X7.0613Y-7.902
X7.072Y-6.799
X7.16Y-8.237
X7.191Y-8.912
X7.191Y-9.012
X7.191Y-9.112
X7.191Y-9.212
X7.191Y-9.312
X7.191Y-9.412
X7.191Y-9.512
X7.191Y-9.612
X7.191Y-9.712
X7.191Y-9.812
X7.201Y-10.176
X7.201Y-10.276
X7.201Y-10.376
X7.201Y-10.476
X7.201Y-10.576
X7.201Y-10.676
X7.201Y-10.776
X7.201Y-10.876
X7.201Y-10.976
X7.201Y-11.076
X7.251Y-6.376
X7.3569Y-8.237
X7.3613Y-7.002
X7.3613Y-7.102
X7.3613Y-7.202
X7.3613Y-7.302
X7.3613Y-7.402
X7.3613Y-7.502
X7.3613Y-7.602
X7.3613Y-7.702
X7.3613Y-7.802
X7.3613Y-7.902
X7.4479Y-6.376
X7.491Y-8.912
X7.491Y-9.012
X7.491Y-9.112
X7.491Y-9.212
X7.491Y-9.312
X7.491Y-9.412
X7.491Y-9.512
X7.491Y-9.612
X7.491Y-9.712
X7.491Y-9.812
X7.501Y-10.176
X7.501Y-10.276
X7.501Y-10.376
X7.501Y-10.476
X7.501Y-10.576
X7.501Y-10.676
X7.501Y-10.776
X7.501Y-10.876
X7.501Y-10.976
X7.501Y-11.076
X7.5591Y-10.005
X7.5701Y-6.79
X7.7496Y-7.002
X7.7496Y-7.102
X7.7496Y-7.202
X7.7496Y-7.302
X7.7496Y-7.402
X7.7496Y-7.502
X7.7496Y-7.602
X7.7496Y-7.702
X7.7496Y-7.802
X7.7496Y-7.902
X7.756Y-10.005
X7.767Y-6.79
X7.971Y-8.912
X7.971Y-9.012
X7.971Y-9.112
X7.971Y-9.212
X7.971Y-9.312
X7.971Y-9.412
X7.971Y-9.512
X7.971Y-10.176
X7.971Y-10.276
X7.971Y-10.376
X7.971Y-10.476
X7.971Y-10.576
X7.971Y-10.676
X7.971Y-10.776
X8.0011Y-8.695
X8.006Y-5.848
X8.006Y-6.0449
X8.006Y-11.047
X8.0191Y-2.876
X8.0496Y-7.002
X8.0496Y-7.102
X8.0496Y-7.202
X8.0496Y-7.302
X8.0496Y-7.402
X8.0496Y-7.502
X8.0496Y-7.602
X8.0496Y-7.702
X8.0496Y-7.802
X8.0496Y-7.902
X8.0711Y-4.431
X8.198Y-8.695
X8.1994Y-3.0968
X8.1994Y-3.1968
X8.1994Y-3.2968
X8.1994Y-3.3968
X8.1994Y-3.4968
X8.1994Y-3.5968
X8.1994Y-3.6968
X8.1994Y-3.7968
X8.1994Y-3.8968
X8.1994Y-3.9968
X8.1994Y-4.6284
X8.1994Y-4.7284
X8.1994Y-4.8284
X8.1994Y-4.9284
X8.1994Y-5.0284
X8.1994Y-5.1284
X8.1994Y-5.2284
X8.1994Y-5.3284
X8.1994Y-5.4284
X8.1994Y-5.5284
X8.1994Y-5.9234
X8.1994Y-6.0234
X8.1994Y-6.1234
X8.1994Y-6.2234
X8.1994Y-6.3234
X8.1994Y-6.4234
X8.1994Y-6.5234
X8.2029Y-11.047
X8.216Y-2.876
X8.2581Y-8.034
X8.268Y-4.431
X8.271Y-8.912
X8.271Y-9.012
X8.271Y-9.112
X8.271Y-9.212
X8.271Y-9.312
X8.271Y-9.412
X8.271Y-9.512
X8.271Y-10.176
X8.271Y-10.276
X8.271Y-10.376
X8.271Y-10.476
X8.271Y-10.576
X8.271Y-10.676
X8.271Y-10.776
X8.306Y-8.234
X8.306Y-8.534
X8.406Y-8.234
X8.406Y-8.534
X8.438Y-7.002
X8.438Y-7.102
X8.438Y-7.202
X8.438Y-7.302
X8.438Y-7.402
X8.438Y-7.502
X8.438Y-7.602
X8.438Y-7.702
X8.4421Y-6.816
X8.455Y-8.034
X8.4994Y-3.0968
X8.4994Y-3.1968
X8.4994Y-3.2968
X8.4994Y-3.3968
X8.4994Y-3.4968
X8.4994Y-3.5968
X8.4994Y-3.6968
X8.4994Y-3.7968
X8.4994Y-3.8968
X8.4994Y-3.9968
X8.4994Y-4.6284
X8.4994Y-4.7284
X8.4994Y-4.8284
X8.4994Y-4.9284
X8.4994Y-5.0284
X8.4994Y-5.1284
X8.4994Y-5.2284
X8.4994Y-5.3284
X8.4994Y-5.4284
X8.4994Y-5.5284
X8.4994Y-5.9234
X8.4994Y-6.0234
X8.4994Y-6.1234
X8.4994Y-6.2234
X8.4994Y-6.3234
X8.4994Y-6.4234
X8.4994Y-6.5234
X8.506Y-8.234
X8.506Y-8.534
X8.5931Y-8.715
X8.606Y-8.234
X8.606Y-8.534
X8.639Y-6.816
X8.693Y-8.912
X8.693Y-9.012
X8.693Y-9.112
X8.693Y-9.212
X8.693Y-9.312
X8.693Y-9.412
X8.693Y-9.512
X8.693Y-10.176
X8.693Y-10.276
X8.693Y-10.376
X8.693Y-10.476
X8.693Y-10.576
X8.693Y-10.676
X8.693Y-10.776
X8.704Y-11.047
X8.706Y-8.234
X8.706Y-8.534
X8.738Y-7.002
X8.738Y-7.102
X8.738Y-7.202
X8.738Y-7.302
X8.738Y-7.402
X8.738Y-7.502
X8.738Y-7.602
X8.738Y-7.702
X8.7751Y-2.894
X8.7891Y-4.614
X8.79Y-8.715
X8.806Y-8.234
X8.806Y-8.534
X8.9009Y-11.047
X8.906Y-8.234
X8.906Y-8.534
X8.912Y-5.931
X8.912Y-6.031
X8.912Y-6.131
X8.912Y-6.231
X8.912Y-6.331
X8.912Y-6.431
X8.912Y-6.531
X8.9121Y-3.0968
X8.9121Y-3.1968
X8.9121Y-3.2968
X8.9121Y-3.3968
X8.9121Y-3.4968
X8.9121Y-3.5968
X8.9121Y-3.6968
X8.9121Y-3.7968
X8.9121Y-3.8968
X8.9121Y-3.9968
X8.9121Y-4.8272
X8.9121Y-4.9272
X8.9121Y-5.0272
X8.9121Y-5.1272
X8.9121Y-5.2272
X8.9121Y-5.3272
X8.9121Y-5.4272
X8.9121Y-5.5272
X8.972Y-2.894
X8.986Y-4.614
X8.9901Y-6.804
X8.993Y-8.912
X8.993Y-9.012
X8.993Y-9.112
X8.993Y-9.212
X8.993Y-9.312
X8.993Y-9.412
X8.993Y-9.512
X8.993Y-10.176
X8.993Y-10.276
X8.993Y-10.376
X8.993Y-10.476
X8.993Y-10.576
X8.993Y-10.676
X8.993Y-10.776
X9.127Y-6.994
X9.127Y-7.094
X9.127Y-7.194
X9.127Y-7.294
X9.127Y-7.394
X9.127Y-7.494
X9.127Y-7.594
X9.127Y-7.694
X9.127Y-7.794
X9.127Y-7.894
X9.187Y-6.804
X9.212Y-5.931
X9.212Y-6.031
X9.212Y-6.131
X9.212Y-6.231
X9.212Y-6.331
X9.212Y-6.431
X9.212Y-6.531
X9.2121Y-3.0968
X9.2121Y-3.1968
X9.2121Y-3.2968
X9.2121Y-3.3968
X9.2121Y-3.4968
X9.2121Y-3.5968
X9.2121Y-3.6968
X9.2121Y-3.7968
X9.2121Y-3.8968
X9.2121Y-3.9968
X9.2121Y-4.8272
X9.2121Y-4.9272
X9.2121Y-5.0272
X9.2121Y-5.1272
X9.2121Y-5.2272
X9.2121Y-5.3272
X9.2121Y-5.4272
X9.2121Y-5.5272
X9.2121Y-8.71
X9.335Y-8.911
X9.335Y-9.011
X9.335Y-9.111
X9.335Y-9.211
X9.335Y-9.311
X9.335Y-9.411
X9.335Y-9.511
X9.335Y-9.611
X9.335Y-9.711
X9.335Y-9.811
X9.336Y-10.21
X9.336Y-10.31
X9.336Y-10.41
X9.336Y-10.51
X9.336Y-10.61
X9.336Y-10.71
X9.336Y-10.81
X9.3671Y-11.09
X9.392Y-8.388
X9.409Y-8.71
X9.413Y-5.8651
X9.413Y-6.062
X9.427Y-6.994
X9.427Y-7.094
X9.427Y-7.194
X9.427Y-7.294
X9.427Y-7.394
X9.427Y-7.494
X9.427Y-7.594
X9.427Y-7.694
X9.427Y-7.794
X9.427Y-7.894
X9.4351Y-2.886
X9.492Y-8.388
X9.5001Y-4.433
X9.564Y-11.09
X9.592Y-8.388
X9.6249Y-3.0968
X9.6249Y-3.1968
X9.6249Y-3.2968
X9.6249Y-3.3968
X9.6249Y-3.4968
X9.6249Y-3.5968
X9.6249Y-3.6968
X9.6249Y-3.7968
X9.6249Y-3.8968
X9.6249Y-3.9968
X9.6249Y-4.6284
X9.6249Y-4.7284
X9.6249Y-4.8284
X9.6249Y-4.9284
X9.6249Y-5.0284
X9.6249Y-5.1284
X9.6249Y-5.2284
X9.6249Y-5.3284
X9.6249Y-5.4284
X9.6249Y-5.5284
X9.632Y-2.886
X9.635Y-8.911
X9.635Y-9.011
X9.635Y-9.111
X9.635Y-9.211
X9.635Y-9.311
X9.635Y-9.411
X9.635Y-9.511
X9.635Y-9.611
X9.635Y-9.711
X9.635Y-9.811
X9.636Y-10.21
X9.636Y-10.31
X9.636Y-10.41
X9.636Y-10.51
X9.636Y-10.61
X9.636Y-10.71
X9.636Y-10.81
X9.6871Y-6.802
X9.692Y-8.388
X9.697Y-4.433
X9.7Y-5.916
X9.7Y-6.016
X9.7Y-6.116
X9.7Y-6.216
X9.7Y-6.316
X9.7Y-6.416
X9.7Y-6.516
X9.792Y-8.388
X9.884Y-6.802
X9.887Y-6.995
X9.887Y-7.095
X9.887Y-7.195
X9.887Y-7.295
X9.887Y-7.395
X9.887Y-7.495
X9.887Y-7.595
X9.887Y-7.695
X9.887Y-7.795
X9.887Y-7.895
X9.892Y-8.388
X9.9249Y-3.0968
X9.9249Y-3.1968
X9.9249Y-3.2968
X9.9249Y-3.3968
X9.9249Y-3.4968
X9.9249Y-3.5968
X9.9249Y-3.6968
X9.9249Y-3.7968
X9.9249Y-3.8968
X9.9249Y-3.9968
X9.9249Y-4.6284
X9.9249Y-4.7284
X9.9249Y-4.8284
X9.9249Y-4.9284
X9.9249Y-5.0284
X9.9249Y-5.1284
X9.9249Y-5.2284
X9.9249Y-5.3284
X9.9249Y-5.4284
X9.9249Y-5.5284
X9.93Y-10.2
X9.93Y-10.3
X9.93Y-10.4
X9.93Y-10.5
X9.93Y-10.6
X9.93Y-10.7
X9.93Y-10.8
X9.992Y-8.388
X10.0Y-5.916
X10.0Y-6.016
X10.0Y-6.116
X10.0Y-6.216
X10.0Y-6.316
X10.0Y-6.416
X10.0Y-6.516
X10.092Y-8.388
X10.1761Y-2.886
X10.187Y-6.995
X10.187Y-7.095
X10.187Y-7.195
X10.187Y-7.295
X10.187Y-7.395
X10.187Y-7.495
X10.187Y-7.595
X10.187Y-7.695
X10.187Y-7.795
X10.187Y-7.895
X10.192Y-8.388
X10.2061Y-4.532
X10.23Y-10.2
X10.23Y-10.3
X10.23Y-10.4
X10.23Y-10.5
X10.23Y-10.6
X10.23Y-10.7
X10.23Y-10.8
X10.292Y-8.388
X10.327Y-5.938
X10.327Y-6.038
X10.327Y-6.138
X10.327Y-6.238
X10.327Y-6.338
X10.327Y-6.438
X10.327Y-6.538
X10.3376Y-3.0968
X10.3376Y-3.1968
X10.3376Y-3.2968
X10.3376Y-3.3968
X10.3376Y-3.4968
X10.3376Y-3.5968
X10.3376Y-3.6968
X10.3376Y-3.7968
X10.3376Y-3.8968
X10.3376Y-3.9968
X10.3376Y-4.7288
X10.3376Y-4.8288
X10.3376Y-4.9288
X10.3376Y-5.0288
X10.3376Y-5.1288
X10.3376Y-5.2288
X10.3376Y-5.3288
X10.3376Y-5.4288
X10.3376Y-5.5288
X10.373Y-2.886
X10.3861Y-6.805
X10.403Y-4.532
X10.468Y-8.868
X10.468Y-8.9664
X10.4713Y-9.1307
X10.4713Y-9.2292
X10.475Y-9.4
X10.475Y-9.4984
X10.481Y-9.6666
X10.481Y-9.765
X10.5038Y-7.0026
X10.5038Y-7.1026
X10.5038Y-7.2026
X10.5038Y-7.3026
X10.5038Y-7.4026
X10.5038Y-7.5026
X10.5038Y-7.6026
X10.583Y-6.805
X10.627Y-5.938
X10.627Y-6.038
X10.627Y-6.138
X10.627Y-6.238
X10.627Y-6.338
X10.627Y-6.438
X10.627Y-6.538
X10.6376Y-3.0968
X10.6376Y-3.1968
X10.6376Y-3.2968
X10.6376Y-3.3968
X10.6376Y-3.4968
X10.6376Y-3.5968
X10.6376Y-3.6968
X10.6376Y-3.7968
X10.6376Y-3.8968
X10.6376Y-3.9968
X10.6376Y-4.7288
X10.6376Y-4.8288
X10.6376Y-4.9288
X10.6376Y-5.0288
X10.6376Y-5.1288
X10.6376Y-5.2288
X10.6376Y-5.3288
X10.6376Y-5.4288
X10.6376Y-5.5288
X10.7287Y-9.1022
X10.7287Y-9.2022
X10.7287Y-9.3022
X10.7287Y-9.4022
X10.7287Y-9.5022
X10.7287Y-9.6022
X10.7287Y-9.7022
X10.7287Y-9.8022
X10.7337Y-10.1422
X10.7535Y-10.4388
X10.7535Y-10.5388
X10.7535Y-10.6388
X10.7535Y-10.7388
X10.7535Y-10.8388
X10.7535Y-10.9388
X10.7535Y-11.0388
X10.7781Y-8.855
X10.7888Y-2.8919
X10.8038Y-7.0026
X10.8038Y-7.1026
X10.8038Y-7.2026
X10.8038Y-7.3026
X10.8038Y-7.4026
X10.8038Y-7.5026
X10.8038Y-7.6026
X10.8137Y-5.2248
X10.8199Y-5.0798
X10.834Y-5.9001
X10.834Y-6.097
X10.9306Y-10.1422
X10.975Y-8.855
X10.9857Y-2.8919
X11.0106Y-5.2248
X11.016Y-3.092
X11.016Y-3.192
X11.016Y-3.292
X11.016Y-3.392
X11.016Y-3.492
X11.016Y-3.592
X11.016Y-3.692
X11.0168Y-5.0798
X11.0287Y-9.1022
X11.0287Y-9.2022
X11.0287Y-9.3022
X11.0287Y-9.4022
X11.0287Y-9.5022
X11.0287Y-9.6022
X11.0287Y-9.7022
X11.0287Y-9.8022
X11.0535Y-10.4388
X11.0535Y-10.5388
X11.0535Y-10.6388
X11.0535Y-10.7388
X11.0535Y-10.8388
X11.0535Y-10.9388
X11.0535Y-11.0388
X11.0637Y-9.9329
X11.0637Y-10.2329
X11.0861Y-6.806
X11.193Y-7.007
X11.193Y-7.107
X11.193Y-7.207
X11.193Y-7.307
X11.193Y-7.407
X11.193Y-7.507
X11.193Y-7.607
X11.2587Y-9.7552
X11.2587Y-9.8552
X11.2587Y-9.9552
X11.2587Y-10.0552
X11.2587Y-10.1552
X11.2587Y-10.2552
X11.2587Y-10.3552
X11.2587Y-10.4552
X11.2587Y-10.5552
X11.2587Y-10.6552
X11.2587Y-10.7552
X11.2587Y-10.8552
X11.2587Y-10.9552
X11.2587Y-11.0552
X11.283Y-6.806
X11.288Y-8.864
X11.288Y-8.9624
X11.316Y-3.092
X11.316Y-3.192
X11.316Y-3.292
X11.316Y-3.392
X11.316Y-3.492
X11.316Y-3.592
X11.316Y-3.692
X11.493Y-7.007
X11.493Y-7.107
X11.493Y-7.207
X11.493Y-7.307
X11.493Y-7.407
X11.493Y-7.507
X11.493Y-7.607
X11.533Y-9.207
X11.533Y-9.507
X11.7231Y-9.531
X11.8587Y-9.7552
X11.8587Y-9.8552
X11.8587Y-9.9552
X11.8587Y-10.0552
X11.8587Y-10.1552
X11.8587Y-10.2552
X11.8587Y-10.3552
X11.8587Y-10.4552
X11.8587Y-10.5552
X11.8587Y-10.6552
X11.8587Y-10.7552
X11.8587Y-10.8552
X11.8587Y-10.9552
X11.8587Y-11.0552
X11.92Y-9.531
X12.1061Y-10.4943
X12.1061Y-10.7943
X12.114Y-10.001
X12.114Y-10.301
T5
X2.8647Y-8.9522
X2.8647Y-9.1294
X3.1206Y-8.9522
X3.1206Y-9.1294
X3.2525Y-5.6052
X3.2525Y-5.7052
X3.2525Y-5.8052
X3.2525Y-5.9052
X3.2525Y-6.0052
X3.2525Y-6.1052
X3.3525Y-5.6052
X3.3525Y-5.7052
X3.3525Y-5.8052
X3.3525Y-5.9052
X3.3525Y-6.0052
X3.3525Y-6.1052
X4.0673Y-5.6052
X4.0673Y-5.7052
X4.0673Y-5.8052
X4.0673Y-5.9052
X4.0673Y-6.0052
X4.0673Y-6.1052
X4.1673Y-5.6052
X4.1673Y-5.7052
X4.1673Y-5.8052
X4.1673Y-5.9052
X4.1673Y-6.0052
X4.1673Y-6.1052
X4.66Y-8.893
X4.66Y-8.993
X4.66Y-9.093
X4.8675Y-5.6002
X4.8675Y-5.7002
X4.8675Y-5.8002
X4.8675Y-5.9002
X4.8675Y-6.0002
X4.8675Y-6.1002
X4.9675Y-5.6002
X4.9675Y-5.7002
X4.9675Y-5.8002
X4.9675Y-5.9002
X4.9675Y-6.0002
X4.9675Y-6.1002
X5.5507Y-11.458
X5.5507Y-11.558
X5.6675Y-5.6052
X5.6675Y-5.7052
X5.6675Y-5.8052
X5.6675Y-5.9052
X5.6675Y-6.0052
X5.6675Y-6.1052
X5.7675Y-5.6052
X5.7675Y-5.7052
X5.7675Y-5.8052
X5.7675Y-5.9052
X5.7675Y-6.0052
X5.7675Y-6.1052
X6.2685Y-8.5556
X6.2685Y-8.6556
X6.2685Y-8.7556
X6.2685Y-8.8556
X6.3685Y-8.5556
X6.3685Y-8.6556
X6.3685Y-8.7556
X6.3685Y-8.8556
X6.4567Y-5.6042
X6.4567Y-5.7042
X6.4567Y-5.8042
X6.4567Y-5.9042
X6.4567Y-6.0042
X6.4567Y-6.1042
X6.5567Y-5.6042
X6.5567Y-5.7042
X6.5567Y-5.8042
X6.5567Y-5.9042
X6.5567Y-6.0042
X6.5567Y-6.1042
X7.2161Y-8.5597
X7.2161Y-8.6597
X7.274Y-5.615
X7.274Y-5.715
X7.274Y-5.815
X7.274Y-5.915
X7.274Y-6.015
X7.274Y-6.115
X7.374Y-5.615
X7.374Y-5.715
X7.374Y-5.815
X7.374Y-5.915
X7.374Y-6.015
X7.374Y-6.115
X7.5263Y-8.5253
X7.5263Y-8.7025
X7.7822Y-8.5253
X7.7822Y-8.7025
X7.841Y-3.11
X7.841Y-3.21
X7.841Y-3.31
X7.841Y-3.41
X7.941Y-3.11
X7.941Y-3.21
X7.941Y-3.31
X7.941Y-3.41
X8.016Y-9.88
X8.116Y-9.88
X8.216Y-9.88
X9.907Y-2.38
X9.907Y-2.48
X10.225Y-2.368
X10.225Y-2.468
X10.325Y-2.368
X10.325Y-2.468
X10.425Y-2.368
X10.425Y-2.468
X10.525Y-2.368
X10.525Y-2.468
X10.625Y-2.368
X10.625Y-2.468
X10.97Y-2.447
X11.07Y-2.447
X11.17Y-2.447
X11.27Y-2.447
X11.299Y-9.296
X11.299Y-9.396
X11.37Y-2.447
X11.47Y-2.447
X12.0306Y-5.0318
X12.0306Y-5.1318
X12.0306Y-5.2318
X12.0306Y-5.3318
T6
X2.8687Y-3.2152
X2.8687Y-3.3152
X2.8687Y-3.4152
X2.8687Y-3.5152
X2.8687Y-3.6152
X2.8687Y-3.7152
X2.8687Y-3.8152
X2.8687Y-3.9152
X2.8687Y-4.0152
X2.8687Y-4.1152
X2.8687Y-4.2152
X2.8687Y-4.3152
X2.8687Y-4.4152
X2.8687Y-4.5152
X2.8687Y-4.6152
X2.8687Y-4.7152
X2.8687Y-4.8152
X2.8687Y-4.9152
X2.8687Y-5.0152
X2.8687Y-5.1152
X2.8687Y-5.2152
X2.8687Y-5.3152
X2.8687Y-5.4152
X2.8687Y-5.5152
X2.8687Y-5.6152
X2.8687Y-5.7152
X2.8687Y-5.8152
X2.8687Y-5.9152
X2.8687Y-6.0152
X2.8687Y-6.1152
X2.8687Y-6.2152
X3.0687Y-3.2152
X3.0687Y-3.3152
X3.0687Y-3.4152
X3.0687Y-3.5152
X3.0687Y-3.6152
X3.0687Y-3.7152
X3.0687Y-3.8152
X3.0687Y-3.9152
X3.0687Y-4.0152
X3.0687Y-4.1152
X3.0687Y-4.2152
X3.0687Y-4.3152
X3.0687Y-4.4152
X3.0687Y-4.5152
X3.0687Y-4.6152
X3.0687Y-4.7152
X3.0687Y-4.8152
X3.0687Y-4.9152
X3.0687Y-5.0152
X3.0687Y-5.1152
X3.0687Y-5.2152
X3.0687Y-5.3152
X3.0687Y-5.4152
X3.0687Y-5.5152
X3.0687Y-5.6152
X3.0687Y-5.7152
X3.0687Y-5.8152
X3.0687Y-5.9152
X3.0687Y-6.0152
X3.0687Y-6.1152
X3.0687Y-6.2152
X3.6687Y-3.2152
X3.6687Y-3.3152
X3.6687Y-3.4152
X3.6687Y-3.5152
X3.6687Y-3.6152
X3.6687Y-3.7152
X3.6687Y-3.8152
X3.6687Y-3.9152
X3.6687Y-4.0152
X3.6687Y-4.1152
X3.6687Y-4.2152
X3.6687Y-4.3152
X3.6687Y-4.4152
X3.6687Y-4.5152
X3.6687Y-4.6152
X3.6687Y-4.7152
X3.6687Y-4.8152
X3.6687Y-4.9152
X3.6687Y-5.0152
X3.6687Y-5.1152
X3.6687Y-5.2152
X3.6687Y-5.3152
X3.6687Y-5.4152
X3.6687Y-5.5152
X3.6687Y-5.6152
X3.6687Y-5.7152
X3.6687Y-5.8152
X3.6687Y-5.9152
X3.6687Y-6.0152
X3.6687Y-6.1152
X3.6687Y-6.2152
X3.8687Y-3.2152
X3.8687Y-3.3152
X3.8687Y-3.4152
X3.8687Y-3.5152
X3.8687Y-3.6152
X3.8687Y-3.7152
X3.8687Y-3.8152
X3.8687Y-3.9152
X3.8687Y-4.0152
X3.8687Y-4.1152
X3.8687Y-4.2152
X3.8687Y-4.3152
X3.8687Y-4.4152
X3.8687Y-4.5152
X3.8687Y-4.6152
X3.8687Y-4.7152
X3.8687Y-4.8152
X3.8687Y-4.9152
X3.8687Y-5.0152
X3.8687Y-5.1152
X3.8687Y-5.2152
X3.8687Y-5.3152
X3.8687Y-5.4152
X3.8687Y-5.5152
X3.8687Y-5.6152
X3.8687Y-5.7152
X3.8687Y-5.8152
X3.8687Y-5.9152
X3.8687Y-6.0152
X3.8687Y-6.1152
X3.8687Y-6.2152
X4.4687Y-3.2152
X4.4687Y-3.3152
X4.4687Y-3.4152
X4.4687Y-3.5152
X4.4687Y-3.6152
X4.4687Y-3.7152
X4.4687Y-3.8152
X4.4687Y-3.9152
X4.4687Y-4.0152
X4.4687Y-4.1152
X4.4687Y-4.2152
X4.4687Y-4.3152
X4.4687Y-4.4152
X4.4687Y-4.5152
X4.4687Y-4.6152
X4.4687Y-4.7152
X4.4687Y-4.8152
X4.4687Y-4.9152
X4.4687Y-5.0152
X4.4687Y-5.1152
X4.4687Y-5.2152
X4.4687Y-5.3152
X4.4687Y-5.4152
X4.4687Y-5.5152
X4.4687Y-5.6152
X4.4687Y-5.7152
X4.4687Y-5.8152
X4.4687Y-5.9152
X4.4687Y-6.0152
X4.4687Y-6.1152
X4.4687Y-6.2152
X4.6687Y-3.2152
X4.6687Y-3.3152
X4.6687Y-3.4152
X4.6687Y-3.5152
X4.6687Y-3.6152
X4.6687Y-3.7152
X4.6687Y-3.8152
X4.6687Y-3.9152
X4.6687Y-4.0152
X4.6687Y-4.1152
X4.6687Y-4.2152
X4.6687Y-4.3152
X4.6687Y-4.4152
X4.6687Y-4.5152
X4.6687Y-4.6152
X4.6687Y-4.7152
X4.6687Y-4.8152
X4.6687Y-4.9152
X4.6687Y-5.0152
X4.6687Y-5.1152
X4.6687Y-5.2152
X4.6687Y-5.3152
X4.6687Y-5.4152
X4.6687Y-5.5152
X4.6687Y-5.6152
X4.6687Y-5.7152
X4.6687Y-5.8152
X4.6687Y-5.9152
X4.6687Y-6.0152
X4.6687Y-6.1152
X4.6687Y-6.2152
X5.2687Y-3.2152
X5.2687Y-3.3152
X5.2687Y-3.4152
X5.2687Y-3.5152
X5.2687Y-3.6152
X5.2687Y-3.7152
X5.2687Y-3.8152
X5.2687Y-3.9152
X5.2687Y-4.0152
X5.2687Y-4.1152
X5.2687Y-4.2152
X5.2687Y-4.3152
X5.2687Y-4.4152
X5.2687Y-4.5152
X5.2687Y-4.6152
X5.2687Y-4.7152
X5.2687Y-4.8152
X5.2687Y-4.9152
X5.2687Y-5.0152
X5.2687Y-5.1152
X5.2687Y-5.2152
X5.2687Y-5.3152
X5.2687Y-5.4152
X5.2687Y-5.5152
X5.2687Y-5.6152
X5.2687Y-5.7152
X5.2687Y-5.8152
X5.2687Y-5.9152
X5.2687Y-6.0152
X5.2687Y-6.1152
X5.2687Y-6.2152
X5.4687Y-3.2152
X5.4687Y-3.3152
X5.4687Y-3.4152
X5.4687Y-3.5152
X5.4687Y-3.6152
X5.4687Y-3.7152
X5.4687Y-3.8152
X5.4687Y-3.9152
X5.4687Y-4.0152
X5.4687Y-4.1152
X5.4687Y-4.2152
X5.4687Y-4.3152
X5.4687Y-4.4152
X5.4687Y-4.5152
X5.4687Y-4.6152
X5.4687Y-4.7152
X5.4687Y-4.8152
X5.4687Y-4.9152
X5.4687Y-5.0152
X5.4687Y-5.1152
X5.4687Y-5.2152
X5.4687Y-5.3152
X5.4687Y-5.4152
X5.4687Y-5.5152
X5.4687Y-5.6152
X5.4687Y-5.7152
X5.4687Y-5.8152
X5.4687Y-5.9152
X5.4687Y-6.0152
X5.4687Y-6.1152
X5.4687Y-6.2152
X6.0687Y-3.2152
X6.0687Y-3.3152
X6.0687Y-3.4152
X6.0687Y-3.5152
X6.0687Y-3.6152
X6.0687Y-3.7152
X6.0687Y-3.8152
X6.0687Y-3.9152
X6.0687Y-4.0152
X6.0687Y-4.1152
X6.0687Y-4.2152
X6.0687Y-4.3152
X6.0687Y-4.4152
X6.0687Y-4.5152
X6.0687Y-4.6152
X6.0687Y-4.7152
X6.0687Y-4.8152
X6.0687Y-4.9152
X6.0687Y-5.0152
X6.0687Y-5.1152
X6.0687Y-5.2152
X6.0687Y-5.3152
X6.0687Y-5.4152
X6.0687Y-5.5152
X6.0687Y-5.6152
X6.0687Y-5.7152
X6.0687Y-5.8152
X6.0687Y-5.9152
X6.0687Y-6.0152
X6.0687Y-6.1152
X6.0687Y-6.2152
X6.2687Y-3.2152
X6.2687Y-3.3152
X6.2687Y-3.4152
X6.2687Y-3.5152
X6.2687Y-3.6152
X6.2687Y-3.7152
X6.2687Y-3.8152
X6.2687Y-3.9152
X6.2687Y-4.0152
X6.2687Y-4.1152
X6.2687Y-4.2152
X6.2687Y-4.3152
X6.2687Y-4.4152
X6.2687Y-4.5152
X6.2687Y-4.6152
X6.2687Y-4.7152
X6.2687Y-4.8152
X6.2687Y-4.9152
X6.2687Y-5.0152
X6.2687Y-5.1152
X6.2687Y-5.2152
X6.2687Y-5.3152
X6.2687Y-5.4152
X6.2687Y-5.5152
X6.2687Y-5.6152
X6.2687Y-5.7152
X6.2687Y-5.8152
X6.2687Y-5.9152
X6.2687Y-6.0152
X6.2687Y-6.1152
X6.2687Y-6.2152
X6.8687Y-3.2152
X6.8687Y-3.3152
X6.8687Y-3.4152
X6.8687Y-3.5152
X6.8687Y-3.6152
X6.8687Y-3.7152
X6.8687Y-3.8152
X6.8687Y-3.9152
X6.8687Y-4.0152
X6.8687Y-4.1152
X6.8687Y-4.2152
X6.8687Y-4.3152
X6.8687Y-4.4152
X6.8687Y-4.5152
X6.8687Y-4.6152
X6.8687Y-4.7152
X6.8687Y-4.8152
X6.8687Y-4.9152
X6.8687Y-5.0152
X6.8687Y-5.1152
X6.8687Y-5.2152
X6.8687Y-5.3152
X6.8687Y-5.4152
X6.8687Y-5.5152
X6.8687Y-5.6152
X6.8687Y-5.7152
X6.8687Y-5.8152
X6.8687Y-5.9152
X6.8687Y-6.0152
X6.8687Y-6.1152
X6.8687Y-6.2152
X7.0687Y-3.2152
X7.0687Y-3.3152
X7.0687Y-3.4152
X7.0687Y-3.5152
X7.0687Y-3.6152
X7.0687Y-3.7152
X7.0687Y-3.8152
X7.0687Y-3.9152
X7.0687Y-4.0152
X7.0687Y-4.1152
X7.0687Y-4.2152
X7.0687Y-4.3152
X7.0687Y-4.4152
X7.0687Y-4.5152
X7.0687Y-4.6152
X7.0687Y-4.7152
X7.0687Y-4.8152
X7.0687Y-4.9152
X7.0687Y-5.0152
X7.0687Y-5.1152
X7.0687Y-5.2152
X7.0687Y-5.3152
X7.0687Y-5.4152
X7.0687Y-5.5152
X7.0687Y-5.6152
X7.0687Y-5.7152
X7.0687Y-5.8152
X7.0687Y-5.9152
X7.0687Y-6.0152
X7.0687Y-6.1152
X7.0687Y-6.2152
T7
X3.5117Y-11.3171
X3.5117Y-11.7171
X3.7557Y-11.3171
X3.7557Y-11.7171
X11.4Y-4.9251
X11.4Y-5.3251
X11.606Y-4.8711
X11.606Y-5.2711
T8
X6.5126Y-11.4302
X6.5126Y-11.6468
X6.678Y-11.4302
X6.678Y-11.6468
X6.8433Y-11.4302
X6.8433Y-11.6468
X7.0087Y-11.4302
X7.0087Y-11.6468
X7.174Y-11.4302
X7.174Y-11.6468
X7.3394Y-11.4302
X7.3394Y-11.6468
X7.5047Y-11.4302
X7.5047Y-11.6468
X7.6701Y-11.4302
X7.6701Y-11.6468
X7.8354Y-11.4302
X7.8354Y-11.6468
X8.0008Y-11.4302
X8.0008Y-11.6468
T9
X3.2677Y-2.6131
X3.2677Y-8.7131
X3.2677Y-11.5631
X4.0677Y-2.6131
X4.0677Y-8.7131
X4.0677Y-11.5631
X5.8677Y-2.6131
X5.8677Y-8.7131
X5.8677Y-11.5631
X12.0677Y-3.5131
X12.0677Y-8.7131
X12.0677Y-11.5631
M30
