M48
; DRILL file {KiCad 8.0.6} date 2025-02-01T13:02:08-0600
; FORMAT={-:-/ absolute / inch / decimal}
; #@! TF.CreationDate,2025-02-01T13:02:08-06:00
; #@! TF.GenerationSoftware,Kicad,Pcbnew,8.0.6
; #@! TF.FileFunction,Plated,1,2,PTH
FMAT,2
INCH
; #@! TA.AperFunction,Plated,PTH,ComponentDrill
T1C0.0197
; #@! TA.AperFunction,Plated,PTH,ViaDrill
T2C0.0220
; #@! TA.AperFunction,Plated,PTH,ComponentDrill
T3C0.0295
; #@! TA.AperFunction,Plated,PTH,ComponentDrill
T4C0.0315
; #@! TA.AperFunction,Plated,PTH,ComponentDrill
T5C0.0354
; #@! TA.AperFunction,Plated,PTH,ComponentDrill
T6C0.0394
; #@! TA.AperFunction,Plated,PTH,ComponentDrill
T7C0.0400
; #@! TA.AperFunction,Plated,PTH,ComponentDrill
T8C0.0433
; #@! TA.AperFunction,Plated,PTH,ComponentDrill
T9C0.0669
; #@! TA.AperFunction,Plated,PTH,ComponentDrill
T10C0.0905
; #@! TA.AperFunction,Plated,PTH,ComponentDrill
T11C0.1260
%
G90
G05
T1
X11.7029Y-6.3097
X11.7029Y-6.3688
T2
X2.7617Y-2.2853
X2.7926Y-7.2133
X2.9142Y-3.2486
X2.9222Y-8.7216
X2.9813Y-7.2927
X2.996Y-2.2407
X3.0068Y-3.9285
X3.0104Y-6.4228
X3.1517Y-6.3633
X3.2118Y-7.0111
X3.3256Y-6.4007
X3.3421Y-4.2108
X3.4Y-5.5394
X3.4341Y-4.7835
X3.4389Y-6.0484
X3.455Y-3.1448
X3.4568Y-7.1156
X3.4571Y-7.5887
X3.5928Y-3.1313
X3.6331Y-7.514
X3.7241Y-7.6494
X3.7303Y-8.8815
X3.7319Y-6.0081
X3.7326Y-7.4707
X3.7569Y-7.7693
X3.7763Y-5.3731
X3.7901Y-5.9441
X3.7902Y-3.523
X3.7969Y-6.3316
X3.9087Y-3.3571
X3.912Y-8.0909
X3.9513Y-3.3754
X3.9766Y-3.1717
X3.9916Y-9.7352
X4.0188Y-9.4776
X4.0235Y-9.5728
X4.0247Y-9.6352
X4.0266Y-7.5473
X4.0274Y-11.2636
X4.089Y-3.3508
X4.0899Y-10.6033
X4.0908Y-10.3476
X4.0923Y-10.8363
X4.1069Y-10.2666
X4.1432Y-7.0167
X4.1443Y-10.7452
X4.1462Y-10.1243
X4.2505Y-11.269
X4.2666Y-8.0992
X4.2673Y-7.6997
X4.2997Y-11.3035
X4.3131Y-7.9026
X4.3149Y-7.8528
X4.326Y-6.8518
X4.328Y-9.6574
X4.3544Y-6.0873
X4.357Y-7.0552
X4.3587Y-5.3097
X4.3587Y-5.8074
X4.3596Y-3.0399
X4.3772Y-8.8108
X4.3925Y-8.9074
X4.3945Y-10.6273
X4.3952Y-3.1012
X4.3991Y-6.0847
X4.4184Y-4.7437
X4.4395Y-8.529
X4.4412Y-8.5724
X4.4437Y-7.2337
X4.4458Y-11.056
X4.482Y-10.5717
X4.4931Y-9.6279
X4.5097Y-11.776
X4.5135Y-9.3163
X4.5259Y-11.2283
X4.5635Y-3.0956
X4.5804Y-10.4031
X4.5927Y-11.2432
X4.6021Y-3.58
X4.613Y-6.9008
X4.7138Y-9.4332
X4.7246Y-11.0289
X4.7322Y-9.3258
X4.7483Y-6.3553
X4.7488Y-11.2592
X4.754Y-3.28
X4.7578Y-5.5597
X4.7627Y-9.2949
X4.7925Y-9.5923
X4.7941Y-11.4061
X4.8015Y-10.8415
X4.8083Y-9.3544
X4.8157Y-11.2434
X4.833Y-10.9188
X4.8972Y-9.6516
X4.9051Y-3.2413
X4.9074Y-10.7334
X4.9523Y-8.9771
X4.9847Y-6.67
X4.9998Y-7.3714
X5.0491Y-10.5357
X5.0556Y-3.2834
X5.0762Y-7.7452
X5.0791Y-9.7007
X5.0791Y-10.8564
X5.0975Y-7.2973
X5.1246Y-3.3525
X5.1297Y-8.7044
X5.131Y-8.8057
X5.1379Y-3.1435
X5.1702Y-5.5714
X5.185Y-9.2098
X5.1957Y-5.6299
X5.211Y-3.3204
X5.2445Y-8.2893
X5.2824Y-9.2028
X5.2966Y-7.1627
X5.3227Y-5.7559
X5.3306Y-7.7706
X5.3628Y-7.5452
X5.3637Y-11.0634
X5.3683Y-10.7496
X5.3799Y-8.7569
X5.381Y-8.2929
X5.3907Y-3.5152
X5.3908Y-5.9575
X5.3909Y-11.2457
X5.4323Y-9.3108
X5.4345Y-11.2426
X5.437Y-7.4525
X5.4463Y-7.6646
X5.4601Y-8.828
X5.4679Y-10.2761
X5.4739Y-9.255
X5.476Y-11.6098
X5.4796Y-11.2401
X5.4827Y-8.5149
X5.5234Y-9.1336
X5.5539Y-3.0845
X5.5647Y-5.2112
X5.6059Y-3.8152
X5.631Y-10.3791
X5.6568Y-8.0915
X5.6614Y-6.7026
X5.6694Y-6.5111
X5.6726Y-7.0157
X5.6966Y-6.6627
X5.7312Y-6.3585
X5.7325Y-6.4015
X5.7389Y-8.1352
X5.7767Y-7.8907
X5.7773Y-6.4868
X5.8165Y-8.9528
X5.8934Y-7.4858
X5.9166Y-5.1617
X5.9238Y-8.4029
X5.9548Y-4.9652
X5.9595Y-4.1663
X5.9849Y-8.4497
X5.989Y-6.261
X5.9929Y-3.2152
X6.053Y-7.0236
X6.0791Y-8.342
X6.1067Y-7.1347
X6.1146Y-6.9747
X6.1243Y-8.4073
X6.1412Y-3.5739
X6.1501Y-2.9347
X6.1589Y-11.4434
X6.1634Y-9.5702
X6.1634Y-10.1286
X6.1659Y-3.6381
X6.1739Y-7.104
X6.1794Y-5.6152
X6.2081Y-5.4152
X6.2411Y-10.6983
X6.2612Y-7.2432
X6.2614Y-8.3124
X6.3015Y-7.3754
X6.3149Y-5.0594
X6.3201Y-8.4385
X6.3237Y-7.4226
X6.3443Y-6.3854
X6.3472Y-6.0369
X6.3514Y-3.8285
X6.3542Y-4.1526
X6.3622Y-4.7244
X6.3751Y-7.2137
X6.3971Y-7.0702
X6.4119Y-9.4616
X6.4131Y-4.1822
X6.4145Y-6.4928
X6.4159Y-10.5281
X6.4168Y-4.7498
X6.4174Y-8.8911
X6.4176Y-5.4886
X6.4196Y-6.5359
X6.4233Y-10.8548
X6.4252Y-10.6064
X6.4253Y-11.0834
X6.4315Y-9.5512
X6.442Y-9.1249
X6.4488Y-4.2117
X6.4501Y-7.5835
X6.4666Y-6.325
X6.4671Y-8.9906
X6.4721Y-8.0952
X6.4729Y-9.9101
X6.4759Y-5.5051
X6.4765Y-6.6246
X6.4786Y-4.0625
X6.4836Y-4.1093
X6.4848Y-9.7955
X6.4997Y-6.2101
X6.524Y-8.3867
X6.5277Y-6.2656
X6.529Y-9.4699
X6.5477Y-4.131
X6.5529Y-5.4599
X6.5553Y-8.4221
X6.5561Y-9.9092
X6.5989Y-7.4051
X6.6003Y-8.9244
X6.6044Y-6.6271
X6.6092Y-7.0181
X6.6099Y-4.3574
X6.6171Y-7.142
X6.628Y-7.2432
X6.6333Y-6.284
X6.6346Y-6.0834
X6.6373Y-5.4214
X6.6893Y-3.0399
X6.6928Y-7.8234
X6.6974Y-8.4221
X6.6976Y-8.4941
X6.7014Y-6.925
X6.7176Y-7.1103
X6.745Y-5.1559
X6.7499Y-10.9496
X6.7651Y-7.2732
X6.7717Y-4.7426
X6.7856Y-4.5762
X6.7899Y-10.0081
X6.7937Y-3.7999
X6.7972Y-3.8464
X6.8049Y-7.4173
X6.8147Y-9.5534
X6.8154Y-7.4764
X6.8242Y-10.9186
X6.8364Y-7.0031
X6.8385Y-9.7092
X6.8422Y-9.3923
X6.8458Y-7.7443
X6.8576Y-8.738
X6.8736Y-8.2452
X6.8736Y-8.3255
X6.8958Y-5.1642
X6.8996Y-9.0439
X6.9051Y-3.7566
X6.9275Y-7.2344
X6.939Y-11.595
X6.9539Y-3.7945
X6.9585Y-4.0847
X6.9645Y-5.2551
X6.977Y-6.3852
X6.9868Y-9.9614
X6.994Y-5.2994
X6.9948Y-5.7442
X6.9948Y-5.9652
X6.995Y-7.4039
X7.0018Y-9.2478
X7.0051Y-3.9589
X7.0075Y-7.1145
X7.0225Y-6.828
X7.0232Y-10.9195
X7.0245Y-7.5912
X7.0348Y-6.4231
X7.0363Y-7.2132
X7.0478Y-8.925
X7.0511Y-8.7663
X7.0589Y-8.4119
X7.06Y-9.9584
X7.0673Y-4.0108
X7.0873Y-9.7197
X7.0898Y-4.7564
X7.0908Y-8.9728
X7.0956Y-6.5335
X7.096Y-5.202
X7.1114Y-7.5046
X7.1136Y-9.4872
X7.1389Y-6.9693
X7.1498Y-8.2518
X7.1551Y-3.7871
X7.1843Y-5.0222
X7.1904Y-7.3367
X7.2383Y-11.4866
X7.2421Y-8.7048
X7.2573Y-5.7652
X7.2974Y-4.5689
X7.3115Y-3.6073
X7.3132Y-7.6529
X7.3169Y-3.5469
X7.3277Y-5.614
X7.3306Y-8.6733
X7.3605Y-8.7302
X7.363Y-5.708
X7.3911Y-8.9858
X7.4007Y-3.9016
X7.409Y-7.7899
X7.4094Y-10.9592
X7.4153Y-6.6267
X7.4551Y-6.8702
X7.457Y-8.6982
X7.5273Y-6.4618
X7.5376Y-5.9652
X7.5436Y-6.1652
X7.5698Y-8.7619
X7.5891Y-4.1071
X7.5894Y-11.6673
X7.5918Y-4.2662
X7.5965Y-5.7546
X7.6016Y-5.5975
X7.6146Y-4.4246
X7.6209Y-8.9049
X7.6297Y-5.1272
X7.6345Y-8.533
X7.6456Y-6.3757
X7.6493Y-5.9056
X7.6694Y-3.7638
X7.6702Y-8.9836
X7.6706Y-9.4652
X7.6771Y-8.6207
X7.6999Y-6.4472
X7.7102Y-8.4772
X7.7132Y-8.9827
X7.7188Y-9.4031
X7.72Y-7.5912
X7.7268Y-8.3075
X7.7319Y-3.8548
X7.7398Y-7.9429
X7.7519Y-8.017
X7.7786Y-8.551
X7.794Y-5.8097
X7.7945Y-7.2384
X7.8004Y-6.5533
X7.807Y-6.3654
X7.8349Y-4.967
X7.8395Y-9.0105
X7.8719Y-3.5008
X7.9Y-5.3287
X7.9085Y-7.3342
X7.9099Y-4.2627
X7.9171Y-6.0327
X7.9444Y-11.2576
X7.9687Y-6.3558
X7.9742Y-2.9944
X7.9903Y-3.6979
X8.0063Y-5.1157
X8.033Y-6.4942
X8.0374Y-10.0855
X8.0467Y-5.1373
X8.0558Y-4.6983
X8.0625Y-7.6445
X8.068Y-6.9255
X8.0815Y-7.1618
X8.0866Y-4.9723
X8.1061Y-7.4213
X8.1171Y-8.5338
X8.1263Y-7.7905
X8.1295Y-3.501
X8.1295Y-11.251
X8.1527Y-8.6568
X8.1528Y-8.9073
X8.1595Y-11.5902
X8.1701Y-3.5837
X8.1772Y-6.4861
X8.1849Y-8.7472
X8.1868Y-4.8882
X8.2309Y-8.2181
X8.2312Y-6.3123
X8.2442Y-8.9724
X8.325Y-3.9026
X8.3284Y-8.368
X8.3302Y-7.2679
X8.3439Y-7.1202
X8.3526Y-7.6939
X8.3724Y-6.9294
X8.3749Y-3.8489
X8.3762Y-9.8123
X8.3823Y-8.7475
X8.3862Y-8.3363
X8.4018Y-5.3974
X8.4068Y-7.0702
X8.4244Y-7.1665
X8.4307Y-6.5262
X8.4585Y-2.6989
X8.4619Y-6.4191
X8.4795Y-7.4645
X8.4864Y-8.3506
X8.5263Y-3.2375
X8.5479Y-11.4958
X8.5545Y-3.9218
X8.5555Y-7.3928
X8.5576Y-8.3506
X8.5871Y-5.7203
X8.6002Y-11.411
X8.6115Y-5.5964
X8.622Y-4.5452
X8.6255Y-11.5325
X8.6274Y-5.1186
X8.6299Y-6.3656
X8.638Y-5.3218
X8.6485Y-5.4462
X8.6515Y-6.6444
X8.6674Y-6.7702
X8.6857Y-3.1017
X8.6874Y-4.2858
X8.688Y-7.5157
X8.6923Y-4.8413
X8.6945Y-4.8844
X8.6949Y-5.3351
X8.6989Y-6.4643
X8.7076Y-5.0243
X8.7208Y-7.6903
X8.7274Y-5.9985
X8.7313Y-7.2407
X8.7355Y-6.9499
X8.7515Y-11.3775
X8.7682Y-11.1203
X8.777Y-6.8702
X8.7839Y-11.2704
X8.7927Y-11.4346
X8.7929Y-7.8617
X8.7957Y-6.9542
X8.8034Y-6.4966
X8.8061Y-10.8271
X8.8079Y-7.6567
X8.8151Y-7.9817
X8.8202Y-6.6952
X8.8254Y-7.2249
X8.867Y-6.6949
X8.8736Y-6.9174
X8.8884Y-9.0661
X8.9071Y-2.4236
X8.9278Y-5.0182
X8.9425Y-11.3792
X8.9539Y-7.302
X8.9643Y-4.9939
X8.9804Y-5.2463
X8.9854Y-4.4977
X9.0138Y-8.2831
X9.022Y-10.5913
X9.0424Y-2.5165
X9.0477Y-9.8792
X9.0529Y-9.8202
X9.0581Y-11.1401
X9.0594Y-11.3981
X9.0777Y-7.1065
X9.0936Y-2.5211
X9.0955Y-7.8452
X9.0995Y-7.0161
X9.106Y-5.2288
X9.1072Y-8.3249
X9.1124Y-7.7473
X9.1374Y-8.9416
X9.1638Y-11.0635
X9.1712Y-6.4898
X9.1783Y-11.291
X9.2107Y-4.0583
X9.2166Y-8.2929
X9.2254Y-3.2942
X9.2381Y-4.4767
X9.2502Y-6.4034
X9.2889Y-8.2535
X9.2906Y-11.2365
X9.2936Y-5.8147
X9.3036Y-4.0195
X9.3221Y-6.4764
X9.3532Y-10.2966
X9.3942Y-3.9562
X9.4217Y-7.5122
X9.4292Y-8.8121
X9.4468Y-5.8306
X9.4555Y-3.9185
X9.4627Y-8.3267
X9.4898Y-7.505
X9.4912Y-6.6145
X9.4938Y-2.5596
X9.5255Y-8.702
X9.5255Y-6.0209
X9.5442Y-9.6047
X9.5629Y-2.5714
X9.5749Y-11.2958
X9.5781Y-7.8861
X9.6196Y-3.8938
X9.6233Y-3.794
X9.6439Y-11.1394
X9.6571Y-3.6847
X9.695Y-5.7203
X9.7149Y-3.8683
X9.7193Y-10.6342
X9.736Y-10.3301
X9.7561Y-3.7238
X9.7565Y-8.1706
X9.823Y-3.8404
X9.8346Y-3.6892
X9.8497Y-3.8966
X9.8633Y-10.3112
X9.8722Y-5.9993
X9.8765Y-5.0825
X9.8998Y-9.7332
X9.9044Y-10.7461
X9.9078Y-7.3495
X9.9521Y-7.3655
X9.9617Y-10.6035
X9.9648Y-2.9823
X9.9684Y-8.5108
X9.9865Y-5.8195
X10.0055Y-5.0843
X10.0056Y-10.4777
X10.0204Y-4.2538
X10.0224Y-6.5131
X10.0261Y-10.2115
X10.0276Y-6.2205
X10.0285Y-6.3485
X10.0317Y-5.1252
X10.0379Y-6.621
X10.0518Y-2.9545
X10.0651Y-7.2422
X10.0893Y-5.2543
X10.101Y-4.4459
X10.1352Y-10.803
X10.2095Y-8.4525
X10.23Y-6.5492
X10.2302Y-3.7863
X10.2601Y-4.716
X10.3177Y-10.3244
X10.3247Y-5.2598
X10.3353Y-5.9884
X10.3536Y-5.901
X10.3793Y-9.3127
X10.3882Y-6.0886
X10.4411Y-8.3715
X10.4698Y-7.2719
X10.4909Y-5.6051
X10.4944Y-3.4436
X10.5123Y-5.476
X10.528Y-8.04
X10.559Y-5.7742
X10.5936Y-5.7035
X10.6066Y-5.6585
X10.6114Y-9.5807
X10.6136Y-9.1922
X10.6484Y-8.3046
X10.6484Y-8.6869
X10.6553Y-9.7821
X10.6698Y-11.4587
X10.6912Y-8.5699
X10.7359Y-8.6157
X10.7663Y-9.8604
X10.7847Y-8.5842
X10.7855Y-11.4796
X10.8147Y-7.2337
X10.8441Y-4.5114
X10.8494Y-7.4833
X10.8556Y-7.008
X10.8603Y-7.1074
X10.874Y-9.6581
X10.8781Y-4.1786
X10.8898Y-6.7779
X10.9218Y-6.8089
X10.9696Y-6.3625
X10.9831Y-5.9336
X10.9906Y-6.4695
X11.056Y-6.2983
X11.082Y-7.4025
X11.1118Y-7.2364
X11.1163Y-10.0413
X11.1367Y-3.8772
X11.1424Y-3.8333
X11.165Y-8.1889
X11.1654Y-9.3782
X11.1809Y-8.5722
X11.1946Y-8.5255
X11.22Y-7.2867
X11.251Y-9.6022
X11.2969Y-6.4936
X11.3354Y-9.5955
X11.3517Y-6.5119
X11.3634Y-9.6872
X11.3649Y-4.8939
X11.3707Y-6.8702
X11.39Y-5.1441
X11.3907Y-9.8022
X11.4213Y-4.9687
X11.4238Y-9.5252
X11.444Y-4.1614
X11.4562Y-9.8471
X11.4599Y-10.8945
X11.4934Y-7.3012
X11.4934Y-8.3504
X11.494Y-10.2197
X11.4975Y-4.1853
X11.5433Y-6.4266
X11.5483Y-4.14
X11.5544Y-7.239
X11.5988Y-10.8099
X11.61Y-9.7576
X11.6786Y-9.2514
X11.7362Y-6.6267
X12.0754Y-6.4772
X12.1361Y-9.5185
X12.2417Y-6.7536
T3
X7.4313Y-8.5661
X7.4813Y-8.5161
X7.5313Y-8.5661
T4
X2.849Y-6.5702
X2.849Y-6.6702
X2.849Y-6.7702
X2.849Y-6.8702
X2.849Y-6.9702
X2.849Y-7.0702
X2.849Y-7.1702
X2.849Y-7.2702
X2.859Y-7.5452
X2.859Y-7.6452
X2.859Y-7.7452
X2.859Y-7.8452
X2.859Y-7.9452
X2.859Y-8.0452
X2.859Y-8.1452
X2.9065Y-8.4192
X2.9757Y-11.4129
X2.9757Y-11.7129
X3.0035Y-9.5564
X3.0035Y-9.6564
X3.0035Y-9.7564
X3.0035Y-9.8564
X3.0035Y-9.9564
X3.0035Y-10.0564
X3.0035Y-10.1564
X3.0035Y-10.2564
X3.0035Y-10.3564
X3.0035Y-10.4564
X3.0035Y-10.5564
X3.0035Y-10.6564
X3.0035Y-10.7564
X3.0035Y-10.8564
X3.0035Y-10.9564
X3.0035Y-11.0564
X3.1034Y-8.4192
X3.149Y-6.5702
X3.149Y-6.6702
X3.149Y-6.7702
X3.149Y-6.8702
X3.149Y-6.9702
X3.149Y-7.0702
X3.149Y-7.1702
X3.149Y-7.2702
X3.159Y-7.5452
X3.159Y-7.6452
X3.159Y-7.7452
X3.159Y-7.8452
X3.159Y-7.9452
X3.159Y-8.0452
X3.159Y-8.1452
X3.2069Y-9.3002
X3.2427Y-7.4062
X3.2625Y-6.4012
X3.2883Y-4.6562
X3.3867Y-4.6562
X3.4037Y-9.3002
X3.4396Y-7.4062
X3.4594Y-6.4012
X3.5266Y-6.5702
X3.5266Y-6.6702
X3.5266Y-6.7702
X3.5266Y-6.8702
X3.5266Y-6.9702
X3.5266Y-7.0702
X3.5266Y-7.1702
X3.5266Y-7.2702
X3.5366Y-7.5452
X3.5366Y-7.6452
X3.5366Y-7.7452
X3.5366Y-7.8452
X3.5366Y-7.9452
X3.5366Y-8.0452
X3.5366Y-8.1452
X3.6035Y-9.5564
X3.6035Y-9.6564
X3.6035Y-9.7564
X3.6035Y-9.8564
X3.6035Y-9.9564
X3.6035Y-10.0564
X3.6035Y-10.1564
X3.6035Y-10.2564
X3.6035Y-10.3564
X3.6035Y-10.4564
X3.6035Y-10.5564
X3.6035Y-10.6564
X3.6035Y-10.7564
X3.6035Y-10.8564
X3.6035Y-10.9564
X3.6035Y-11.0564
X3.7185Y-10.0872
X3.8266Y-6.5702
X3.8266Y-6.6702
X3.8266Y-6.7702
X3.8266Y-6.8702
X3.8266Y-6.9702
X3.8266Y-7.0702
X3.8266Y-7.1702
X3.8266Y-7.2702
X3.8366Y-7.5452
X3.8366Y-7.6452
X3.8366Y-7.7452
X3.8366Y-7.8452
X3.8366Y-7.9452
X3.8366Y-8.0452
X3.8366Y-8.1452
X3.9154Y-10.0872
X3.9165Y-7.4112
X3.9187Y-9.0352
X3.9187Y-9.1352
X3.9187Y-9.2352
X3.9187Y-9.3352
X3.9187Y-9.4352
X3.9187Y-9.5352
X3.9187Y-9.6352
X3.9187Y-9.7352
X3.9187Y-9.8352
X3.9187Y-9.9352
X3.9187Y-10.2452
X3.9187Y-10.3452
X3.9187Y-10.4452
X3.9187Y-10.5452
X3.9187Y-10.6452
X3.9187Y-10.7452
X3.9187Y-10.8452
X3.9187Y-10.9452
X3.9187Y-11.0452
X3.9187Y-11.1452
X4.0525Y-6.3792
X4.1075Y-4.6562
X4.1134Y-7.4112
X4.2043Y-6.5702
X4.2043Y-6.6702
X4.2043Y-6.7702
X4.2043Y-6.8702
X4.2043Y-6.9702
X4.2043Y-7.0702
X4.2043Y-7.1702
X4.2043Y-7.2702
X4.2059Y-4.6562
X4.2143Y-7.5452
X4.2143Y-7.6452
X4.2143Y-7.7452
X4.2143Y-7.8452
X4.2143Y-7.9452
X4.2143Y-8.0452
X4.2143Y-8.1452
X4.2187Y-9.0352
X4.2187Y-9.1352
X4.2187Y-9.2352
X4.2187Y-9.3352
X4.2187Y-9.4352
X4.2187Y-9.5352
X4.2187Y-9.6352
X4.2187Y-9.7352
X4.2187Y-9.8352
X4.2187Y-9.9352
X4.2187Y-10.2452
X4.2187Y-10.3452
X4.2187Y-10.4452
X4.2187Y-10.5452
X4.2187Y-10.6452
X4.2187Y-10.7452
X4.2187Y-10.8452
X4.2187Y-10.9452
X4.2187Y-11.0452
X4.2187Y-11.1452
X4.2494Y-6.3792
X4.3407Y-11.3482
X4.3407Y-11.6482
X4.3607Y-10.9222
X4.3607Y-11.2222
X4.3767Y-9.0382
X4.5043Y-6.5702
X4.5043Y-6.6702
X4.5043Y-6.7702
X4.5043Y-6.8702
X4.5043Y-6.9702
X4.5043Y-7.0702
X4.5043Y-7.1702
X4.5043Y-7.2702
X4.5143Y-7.5452
X4.5143Y-7.6452
X4.5143Y-7.7452
X4.5143Y-7.8452
X4.5143Y-7.9452
X4.5143Y-8.0452
X4.5143Y-8.1452
X4.5279Y-8.7202
X4.5736Y-9.0382
X4.5985Y-7.3992
X4.6437Y-11.3352
X4.6437Y-11.6352
X4.6546Y-9.5564
X4.6546Y-9.6564
X4.6546Y-9.7564
X4.6546Y-9.8564
X4.6546Y-9.9564
X4.6546Y-10.0564
X4.6546Y-10.1564
X4.6546Y-10.2564
X4.6546Y-10.3564
X4.6546Y-10.4564
X4.6546Y-10.5564
X4.6546Y-10.6564
X4.6546Y-10.7564
X4.6546Y-10.8564
X4.6546Y-10.9564
X4.6546Y-11.0564
X4.7247Y-8.7202
X4.7437Y-11.3352
X4.7437Y-11.6352
X4.7954Y-7.3992
X4.8437Y-11.3352
X4.8437Y-11.6352
X4.8527Y-6.3382
X4.882Y-6.5702
X4.882Y-6.6702
X4.882Y-6.7702
X4.882Y-6.8702
X4.882Y-6.9702
X4.882Y-7.0702
X4.882Y-7.1702
X4.882Y-7.2702
X4.892Y-7.5452
X4.892Y-7.6452
X4.892Y-7.7452
X4.892Y-7.8452
X4.892Y-7.9452
X4.892Y-8.0452
X4.892Y-8.1452
X4.892Y-8.2452
X4.892Y-8.3452
X4.892Y-8.4452
X4.892Y-8.5452
X4.892Y-8.6452
X4.892Y-8.7452
X4.892Y-8.8452
X4.9335Y-4.6562
X4.9437Y-11.3352
X4.9437Y-11.6352
X5.0319Y-4.6562
X5.0437Y-11.3352
X5.0437Y-11.6352
X5.0496Y-6.3382
X5.1437Y-11.3352
X5.1437Y-11.6352
X5.182Y-6.5702
X5.182Y-6.6702
X5.182Y-6.7702
X5.182Y-6.8702
X5.182Y-6.9702
X5.182Y-7.0702
X5.182Y-7.1702
X5.182Y-7.2702
X5.192Y-7.5452
X5.192Y-7.6452
X5.192Y-7.7452
X5.192Y-7.8452
X5.192Y-7.9452
X5.192Y-8.0452
X5.192Y-8.1452
X5.192Y-8.2452
X5.192Y-8.3452
X5.192Y-8.4452
X5.192Y-8.5452
X5.192Y-8.6452
X5.192Y-8.7452
X5.192Y-8.8452
X5.2437Y-11.3352
X5.2437Y-11.6352
X5.2546Y-9.5564
X5.2546Y-9.6564
X5.2546Y-9.7564
X5.2546Y-9.8564
X5.2546Y-9.9564
X5.2546Y-10.0564
X5.2546Y-10.1564
X5.2546Y-10.2564
X5.2546Y-10.3564
X5.2546Y-10.4564
X5.2546Y-10.5564
X5.2546Y-10.6564
X5.2546Y-10.7564
X5.2546Y-10.8564
X5.2546Y-10.9564
X5.2546Y-11.0564
X5.3007Y-7.3562
X5.4969Y-8.8952
X5.4976Y-7.3562
X5.5597Y-6.5702
X5.5597Y-6.6702
X5.5597Y-6.7702
X5.5597Y-6.8702
X5.5597Y-6.9702
X5.5597Y-7.0702
X5.5597Y-7.1702
X5.5597Y-7.5452
X5.5597Y-7.6452
X5.5597Y-7.7452
X5.5597Y-7.8452
X5.5597Y-7.9452
X5.5597Y-8.0452
X5.5597Y-8.1452
X5.5597Y-8.2452
X5.5597Y-8.3452
X5.5597Y-8.4452
X5.5925Y-6.3432
X5.6235Y-9.1064
X5.6235Y-9.2064
X5.6235Y-9.3064
X5.6235Y-9.4064
X5.6235Y-9.5064
X5.6235Y-9.6064
X5.6235Y-9.7064
X5.6235Y-9.8064
X5.6287Y-10.4602
X5.6287Y-10.5602
X5.6287Y-10.6602
X5.6287Y-10.7602
X5.6287Y-10.8602
X5.6287Y-10.9602
X5.6287Y-11.0602
X5.6705Y-10.1562
X5.6937Y-8.8952
X5.7127Y-4.6562
X5.7894Y-6.3432
X5.8112Y-4.6562
X5.8597Y-6.5702
X5.8597Y-6.6702
X5.8597Y-6.7702
X5.8597Y-6.8702
X5.8597Y-6.9702
X5.8597Y-7.0702
X5.8597Y-7.1702
X5.8597Y-7.5452
X5.8597Y-7.6452
X5.8597Y-7.7452
X5.8597Y-7.8452
X5.8597Y-7.9452
X5.8597Y-8.0452
X5.8597Y-8.1452
X5.8597Y-8.2452
X5.8597Y-8.3452
X5.8597Y-8.4452
X5.8674Y-10.1562
X5.9235Y-9.1064
X5.9235Y-9.2064
X5.9235Y-9.3064
X5.9235Y-9.4064
X5.9235Y-9.5064
X5.9235Y-9.6064
X5.9235Y-9.7064
X5.9235Y-9.8064
X5.9287Y-10.4602
X5.9287Y-10.5602
X5.9287Y-10.6602
X5.9287Y-10.7602
X5.9287Y-10.8602
X5.9287Y-10.9602
X5.9287Y-11.0602
X5.9605Y-7.3632
X6.0527Y-11.2742
X6.1087Y-9.5434
X6.1087Y-9.7402
X6.1512Y-11.2742
X6.1574Y-7.3632
X6.2373Y-6.5702
X6.2373Y-6.6702
X6.2373Y-6.7702
X6.2373Y-6.8702
X6.2373Y-6.9702
X6.2373Y-7.0702
X6.2373Y-7.1702
X6.2473Y-7.5452
X6.2473Y-7.6452
X6.2473Y-7.7452
X6.2473Y-7.8452
X6.2473Y-7.9452
X6.2473Y-8.0452
X6.2473Y-8.1452
X6.2473Y-8.2452
X6.3037Y-9.1552
X6.3037Y-9.2552
X6.3037Y-9.3552
X6.3037Y-9.4552
X6.3037Y-9.5552
X6.3037Y-9.6552
X6.3037Y-9.7552
X6.3037Y-9.8552
X6.3037Y-9.9552
X6.3037Y-10.0552
X6.3037Y-10.1552
X6.3037Y-10.2552
X6.3037Y-10.3552
X6.3037Y-10.4552
X6.3037Y-10.5552
X6.3037Y-10.6552
X6.3037Y-10.7552
X6.3037Y-10.8552
X6.3037Y-10.9552
X6.3037Y-11.0552
X6.5285Y-6.3752
X6.5373Y-6.5702
X6.5373Y-6.6702
X6.5373Y-6.7702
X6.5373Y-6.8702
X6.5373Y-6.9702
X6.5373Y-7.0702
X6.5373Y-7.1702
X6.5473Y-7.5452
X6.5473Y-7.6452
X6.5473Y-7.7452
X6.5473Y-7.8452
X6.5473Y-7.9452
X6.5473Y-8.0452
X6.5473Y-8.1452
X6.5473Y-8.2452
X6.6387Y-7.3622
X6.7254Y-6.3752
X6.8356Y-7.3622
X6.8787Y-4.0564
X6.8787Y-4.1564
X6.8787Y-4.2564
X6.8787Y-4.3564
X6.8787Y-4.4564
X6.8787Y-4.5564
X6.8787Y-4.6564
X6.8787Y-4.7564
X6.8787Y-4.8564
X6.8787Y-4.9564
X6.8787Y-5.3652
X6.8787Y-5.4652
X6.8787Y-5.5652
X6.8787Y-5.6652
X6.8787Y-5.7652
X6.8787Y-5.8652
X6.8787Y-5.9652
X6.8787Y-6.0652
X6.8787Y-6.1652
X6.8787Y-6.2652
X6.9037Y-9.1552
X6.9037Y-9.2552
X6.9037Y-9.3552
X6.9037Y-9.4552
X6.9037Y-9.5552
X6.9037Y-9.6552
X6.9037Y-9.7552
X6.9037Y-9.8552
X6.9037Y-9.9552
X6.9037Y-10.0552
X6.9037Y-10.1552
X6.9037Y-10.2552
X6.9037Y-10.3552
X6.9037Y-10.4552
X6.9037Y-10.5552
X6.9037Y-10.6552
X6.9037Y-10.7552
X6.9037Y-10.8552
X6.9037Y-10.9552
X6.9037Y-11.0552
X6.915Y-6.5702
X6.915Y-6.6702
X6.915Y-6.7702
X6.915Y-6.8702
X6.915Y-6.9702
X6.915Y-7.0702
X6.915Y-7.1702
X6.925Y-7.5452
X6.925Y-7.6452
X6.925Y-7.7452
X6.925Y-7.8452
X6.925Y-7.9452
X6.925Y-8.0452
X6.925Y-8.1452
X7.1787Y-4.0564
X7.1787Y-4.1564
X7.1787Y-4.2564
X7.1787Y-4.3564
X7.1787Y-4.4564
X7.1787Y-4.5564
X7.1787Y-4.6564
X7.1787Y-4.7564
X7.1787Y-4.8564
X7.1787Y-4.9564
X7.1787Y-5.3652
X7.1787Y-5.4652
X7.1787Y-5.5652
X7.1787Y-5.6652
X7.1787Y-5.7652
X7.1787Y-5.8652
X7.1787Y-5.9652
X7.1787Y-6.0652
X7.1787Y-6.1652
X7.1787Y-6.2652
X7.2007Y-3.8342
X7.2037Y-8.9152
X7.2037Y-9.0152
X7.2037Y-9.1152
X7.2037Y-9.2152
X7.2037Y-9.3152
X7.2037Y-9.4152
X7.2037Y-9.5152
X7.2037Y-9.6152
X7.2037Y-9.7152
X7.2037Y-9.8152
X7.2037Y-10.1602
X7.2037Y-10.2602
X7.2037Y-10.3602
X7.2037Y-10.4602
X7.2037Y-10.5602
X7.2037Y-10.6602
X7.2037Y-10.7602
X7.2037Y-10.8602
X7.2037Y-10.9602
X7.2037Y-11.0602
X7.2065Y-6.4232
X7.2085Y-5.1592
X7.215Y-6.5702
X7.215Y-6.6702
X7.215Y-6.7702
X7.215Y-6.8702
X7.215Y-6.9702
X7.215Y-7.0702
X7.215Y-7.1702
X7.225Y-7.5452
X7.225Y-7.6452
X7.225Y-7.7452
X7.225Y-7.8452
X7.225Y-7.9452
X7.225Y-8.0452
X7.225Y-8.1452
X7.3145Y-7.3732
X7.3976Y-3.8342
X7.4034Y-6.4232
X7.4054Y-5.1592
X7.4301Y-4.0602
X7.4301Y-4.1602
X7.4301Y-4.2602
X7.4301Y-4.3602
X7.4301Y-4.4602
X7.4301Y-4.5602
X7.4301Y-4.6602
X7.4301Y-4.7602
X7.4301Y-4.8602
X7.4301Y-4.9602
X7.4301Y-5.3652
X7.4301Y-5.4652
X7.4301Y-5.5652
X7.4301Y-5.6652
X7.4301Y-5.7652
X7.4301Y-5.8652
X7.4301Y-5.9652
X7.4301Y-6.0652
X7.4301Y-6.1652
X7.4301Y-6.2652
X7.4527Y-2.4482
X7.4527Y-2.6902
X7.5037Y-8.9152
X7.5037Y-9.0152
X7.5037Y-9.1152
X7.5037Y-9.2152
X7.5037Y-9.3152
X7.5037Y-9.4152
X7.5037Y-9.5152
X7.5037Y-9.6152
X7.5037Y-9.7152
X7.5037Y-9.8152
X7.5037Y-10.1602
X7.5037Y-10.2602
X7.5037Y-10.3602
X7.5037Y-10.4602
X7.5037Y-10.5602
X7.5037Y-10.6602
X7.5037Y-10.7602
X7.5037Y-10.8602
X7.5037Y-10.9602
X7.5037Y-11.0602
X7.5114Y-7.3732
X7.5785Y-9.9952
X7.5927Y-6.5702
X7.5927Y-6.6702
X7.5927Y-6.7702
X7.5927Y-6.8702
X7.5927Y-6.9702
X7.5927Y-7.0702
X7.5927Y-7.1702
X7.6027Y-7.5452
X7.6027Y-7.6452
X7.6027Y-7.7452
X7.6027Y-7.8452
X7.6027Y-7.9452
X7.6027Y-8.0452
X7.6027Y-8.1452
X7.6337Y-11.0602
X7.6347Y-9.0682
X7.7301Y-4.0602
X7.7301Y-4.1602
X7.7301Y-4.2602
X7.7301Y-4.3602
X7.7301Y-4.4602
X7.7301Y-4.5602
X7.7301Y-4.6602
X7.7301Y-4.7602
X7.7301Y-4.8602
X7.7301Y-4.9602
X7.7301Y-5.3652
X7.7301Y-5.4652
X7.7301Y-5.5652
X7.7301Y-5.6652
X7.7301Y-5.7652
X7.7301Y-5.8652
X7.7301Y-5.9652
X7.7301Y-6.0652
X7.7301Y-6.1652
X7.7301Y-6.2652
X7.7527Y-2.4482
X7.7527Y-2.6902
X7.7754Y-9.9952
X7.7785Y-5.1752
X7.8087Y-8.4752
X7.8306Y-11.0602
X7.8316Y-9.0682
X7.8687Y-3.9642
X7.8887Y-2.4482
X7.8887Y-2.6902
X7.8887Y-2.9342
X7.8887Y-3.1922
X7.8927Y-6.5702
X7.8927Y-6.6702
X7.8927Y-6.7702
X7.8927Y-6.8702
X7.8927Y-6.9702
X7.8927Y-7.0702
X7.8927Y-7.1702
X7.9027Y-7.5452
X7.9027Y-7.6452
X7.9027Y-7.7452
X7.9027Y-7.8452
X7.9027Y-7.9452
X7.9027Y-8.0452
X7.9027Y-8.1452
X7.9087Y-8.4752
X7.9567Y-9.1568
X7.9567Y-9.2568
X7.9567Y-9.3568
X7.9567Y-9.4568
X7.9567Y-9.5568
X7.9567Y-9.6568
X7.9567Y-9.7568
X7.9567Y-9.8568
X7.9567Y-9.9568
X7.9567Y-10.0568
X7.9567Y-10.1568
X7.9567Y-10.2568
X7.9567Y-10.3568
X7.9567Y-10.4568
X7.9567Y-10.5568
X7.9567Y-10.6568
X7.9567Y-10.7568
X7.9567Y-10.8568
X7.9567Y-10.9568
X7.9567Y-11.0568
X7.9754Y-5.1752
X7.9815Y-4.2102
X7.9815Y-4.3102
X7.9815Y-4.4102
X7.9815Y-4.5102
X7.9815Y-4.6102
X7.9815Y-4.7102
X7.9815Y-4.8102
X7.9815Y-4.9102
X7.9815Y-5.3652
X7.9815Y-5.4652
X7.9815Y-5.5652
X7.9815Y-5.6652
X7.9815Y-5.7652
X7.9815Y-5.8652
X7.9815Y-5.9652
X7.9815Y-6.0652
X7.9815Y-6.1652
X7.9815Y-6.2652
X7.9865Y-7.3832
X8.0087Y-8.4752
X8.0656Y-3.9642
X8.1087Y-8.4752
X8.1185Y-8.7712
X8.1834Y-7.3832
X8.1887Y-2.4482
X8.1887Y-2.6902
X8.1887Y-2.9342
X8.1887Y-3.1922
X8.2087Y-8.4752
X8.2704Y-6.5702
X8.2704Y-6.6702
X8.2704Y-6.7702
X8.2704Y-6.8702
X8.2704Y-6.9702
X8.2704Y-7.0702
X8.2704Y-7.1702
X8.2804Y-7.5452
X8.2804Y-7.6452
X8.2804Y-7.7452
X8.2804Y-7.8452
X8.2804Y-7.9452
X8.2804Y-8.0452
X8.2804Y-8.1452
X8.2815Y-4.2102
X8.2815Y-4.3102
X8.2815Y-4.4102
X8.2815Y-4.5102
X8.2815Y-4.6102
X8.2815Y-4.7102
X8.2815Y-4.8102
X8.2815Y-4.9102
X8.2815Y-5.3652
X8.2815Y-5.4652
X8.2815Y-5.5652
X8.2815Y-5.6652
X8.2815Y-5.7652
X8.2815Y-5.8652
X8.2815Y-5.9652
X8.2815Y-6.0652
X8.2815Y-6.1652
X8.2815Y-6.2652
X8.2881Y-2.4482
X8.2881Y-2.6902
X8.2881Y-2.9342
X8.2881Y-3.1922
X8.2905Y-3.9852
X8.3085Y-5.1592
X8.3087Y-8.4752
X8.3154Y-8.7712
X8.4087Y-8.4752
X8.4874Y-3.9852
X8.5054Y-5.1592
X8.5087Y-8.4752
X8.5329Y-4.3452
X8.5329Y-4.4452
X8.5329Y-4.5452
X8.5329Y-4.6452
X8.5329Y-4.7452
X8.5329Y-4.8452
X8.5329Y-4.9452
X8.5329Y-5.3652
X8.5329Y-5.4652
X8.5329Y-5.5652
X8.5329Y-5.6652
X8.5329Y-5.7652
X8.5329Y-5.8652
X8.5329Y-5.9652
X8.5329Y-6.0652
X8.5329Y-6.1652
X8.5329Y-6.2652
X8.5567Y-9.1568
X8.5567Y-9.2568
X8.5567Y-9.3568
X8.5567Y-9.4568
X8.5567Y-9.5568
X8.5567Y-9.6568
X8.5567Y-9.7568
X8.5567Y-9.8568
X8.5567Y-9.9568
X8.5567Y-10.0568
X8.5567Y-10.1568
X8.5567Y-10.2568
X8.5567Y-10.3568
X8.5567Y-10.4568
X8.5567Y-10.5568
X8.5567Y-10.6568
X8.5567Y-10.7568
X8.5567Y-10.8568
X8.5567Y-10.9568
X8.5567Y-11.0568
X8.5704Y-6.5702
X8.5704Y-6.6702
X8.5704Y-6.7702
X8.5704Y-6.8702
X8.5704Y-6.9702
X8.5704Y-7.0702
X8.5704Y-7.1702
X8.5804Y-7.5452
X8.5804Y-7.6452
X8.5804Y-7.7452
X8.5804Y-7.8452
X8.5804Y-7.9452
X8.5804Y-8.0452
X8.5804Y-8.1452
X8.5881Y-2.4482
X8.5881Y-2.6902
X8.5881Y-2.9342
X8.5881Y-3.1922
X8.5925Y-8.8612
X8.6087Y-8.4752
X8.6825Y-7.3692
X8.7087Y-8.4752
X8.7187Y-2.4482
X8.7187Y-2.6902
X8.7187Y-2.9342
X8.7187Y-3.1922
X8.7187Y-9.9542
X8.7487Y-4.1022
X8.7894Y-8.8612
X8.8329Y-4.3452
X8.8329Y-4.4452
X8.8329Y-4.5452
X8.8329Y-4.6452
X8.8329Y-4.7452
X8.8329Y-4.8452
X8.8329Y-4.9452
X8.8329Y-5.3652
X8.8329Y-5.4652
X8.8329Y-5.5652
X8.8329Y-5.6652
X8.8329Y-5.7652
X8.8329Y-5.8652
X8.8329Y-5.9652
X8.8329Y-6.0652
X8.8329Y-6.1652
X8.8329Y-6.2652
X8.8567Y-5.1542
X8.8794Y-7.3692
X8.9156Y-9.9542
X8.9456Y-4.1022
X8.948Y-6.5702
X8.948Y-6.6702
X8.948Y-6.7702
X8.948Y-6.8702
X8.948Y-6.9702
X8.948Y-7.0702
X8.948Y-7.1702
X8.958Y-7.5452
X8.958Y-7.6452
X8.958Y-7.7452
X8.958Y-7.8452
X8.958Y-7.9452
X8.958Y-8.0452
X8.958Y-8.1452
X8.9587Y-10.1502
X8.9587Y-10.2502
X8.9587Y-10.3502
X8.9587Y-10.4502
X8.9587Y-10.5502
X8.9587Y-10.6502
X8.9587Y-10.7502
X8.9587Y-10.8502
X8.9587Y-10.9502
X8.9587Y-11.0502
X8.9627Y-8.5302
X8.9637Y-8.8852
X8.9637Y-8.9852
X8.9637Y-9.0852
X8.9637Y-9.1852
X8.9637Y-9.2852
X8.9637Y-9.3852
X8.9637Y-9.4852
X8.9637Y-9.5852
X8.9637Y-9.6852
X8.9637Y-9.7852
X9.0187Y-2.4482
X9.0187Y-2.6902
X9.0187Y-2.9342
X9.0187Y-3.1922
X9.0536Y-5.1542
X9.0627Y-8.5302
X9.0843Y-4.0502
X9.0843Y-4.1502
X9.0843Y-4.2502
X9.0843Y-4.3502
X9.0843Y-4.4502
X9.0843Y-4.5502
X9.0843Y-4.6502
X9.0843Y-4.7502
X9.0843Y-4.8502
X9.0843Y-4.9502
X9.0843Y-5.3652
X9.0843Y-5.4652
X9.0843Y-5.5652
X9.0843Y-5.6652
X9.0843Y-5.7652
X9.0843Y-5.8652
X9.0843Y-5.9652
X9.0843Y-6.0652
X9.0843Y-6.1652
X9.0843Y-6.2652
X9.1627Y-8.5302
X9.248Y-6.5702
X9.248Y-6.6702
X9.248Y-6.7702
X9.248Y-6.8702
X9.248Y-6.9702
X9.248Y-7.0702
X9.248Y-7.1702
X9.258Y-7.5452
X9.258Y-7.6452
X9.258Y-7.7452
X9.258Y-7.8452
X9.258Y-7.9452
X9.258Y-8.0452
X9.258Y-8.1452
X9.2587Y-10.1502
X9.2587Y-10.2502
X9.2587Y-10.3502
X9.2587Y-10.4502
X9.2587Y-10.5502
X9.2587Y-10.6502
X9.2587Y-10.7502
X9.2587Y-10.8502
X9.2587Y-10.9502
X9.2587Y-11.0502
X9.2627Y-8.5302
X9.2637Y-8.8852
X9.2637Y-8.9852
X9.2637Y-9.0852
X9.2637Y-9.1852
X9.2637Y-9.2852
X9.2637Y-9.3852
X9.2637Y-9.4852
X9.2637Y-9.5852
X9.2637Y-9.6852
X9.2637Y-9.7852
X9.3137Y-2.9109
X9.3137Y-3.2109
X9.3505Y-7.3872
X9.3627Y-8.5302
X9.3843Y-4.0502
X9.3843Y-4.1502
X9.3843Y-4.2502
X9.3843Y-4.3502
X9.3843Y-4.4502
X9.3843Y-4.5502
X9.3843Y-4.6502
X9.3843Y-4.7502
X9.3843Y-4.8502
X9.3843Y-4.9502
X9.3843Y-5.3652
X9.3843Y-5.4652
X9.3843Y-5.5652
X9.3843Y-5.6652
X9.3843Y-5.7652
X9.3843Y-5.8652
X9.3843Y-5.9652
X9.3843Y-6.0652
X9.3843Y-6.1652
X9.3843Y-6.2652
X9.4147Y-5.1782
X9.4627Y-8.5302
X9.4719Y-11.2352
X9.4867Y-8.7762
X9.4867Y-9.0762
X9.5474Y-7.3872
X9.5477Y-2.9129
X9.5477Y-3.2129
X9.5627Y-8.5302
X9.6098Y-9.1582
X9.6098Y-9.2582
X9.6098Y-9.3582
X9.6098Y-9.4582
X9.6098Y-9.5582
X9.6098Y-9.6582
X9.6098Y-9.7582
X9.6098Y-9.8582
X9.6098Y-9.9582
X9.6098Y-10.0582
X9.6098Y-10.1582
X9.6098Y-10.2582
X9.6098Y-10.3582
X9.6098Y-10.4582
X9.6098Y-10.5582
X9.6098Y-10.6582
X9.6098Y-10.7582
X9.6098Y-10.8582
X9.6098Y-10.9582
X9.6098Y-11.0582
X9.6116Y-5.1782
X9.6257Y-6.5702
X9.6257Y-6.6702
X9.6257Y-6.7702
X9.6257Y-6.8702
X9.6257Y-6.9702
X9.6257Y-7.0702
X9.6257Y-7.1702
X9.6357Y-4.0602
X9.6357Y-4.1602
X9.6357Y-4.2602
X9.6357Y-4.3602
X9.6357Y-4.4602
X9.6357Y-4.5602
X9.6357Y-4.6602
X9.6357Y-4.7602
X9.6357Y-4.8602
X9.6357Y-4.9602
X9.6357Y-5.3652
X9.6357Y-5.4652
X9.6357Y-5.5652
X9.6357Y-5.6652
X9.6357Y-5.7652
X9.6357Y-5.8652
X9.6357Y-5.9652
X9.6357Y-6.0652
X9.6357Y-6.1652
X9.6357Y-6.2652
X9.6357Y-7.5452
X9.6357Y-7.6452
X9.6357Y-7.7452
X9.6357Y-7.8452
X9.6357Y-7.9452
X9.6357Y-8.0452
X9.6357Y-8.1452
X9.6357Y-8.2452
X9.6627Y-8.5302
X9.6687Y-11.2352
X9.7305Y-8.8349
X9.7627Y-8.5302
X9.7937Y-2.9636
X9.7937Y-3.1604
X9.8289Y-8.8349
X9.8627Y-8.5302
X9.9257Y-6.5702
X9.9257Y-6.6702
X9.9257Y-6.7702
X9.9257Y-6.8702
X9.9257Y-6.9702
X9.9257Y-7.0702
X9.9257Y-7.1702
X9.9357Y-4.0602
X9.9357Y-4.1602
X9.9357Y-4.2602
X9.9357Y-4.3602
X9.9357Y-4.4602
X9.9357Y-4.5602
X9.9357Y-4.6602
X9.9357Y-4.7602
X9.9357Y-4.8602
X9.9357Y-4.9602
X9.9357Y-5.3652
X9.9357Y-5.4652
X9.9357Y-5.5652
X9.9357Y-5.6652
X9.9357Y-5.7652
X9.9357Y-5.8652
X9.9357Y-5.9652
X9.9357Y-6.0652
X9.9357Y-6.1652
X9.9357Y-6.2652
X9.9357Y-7.5452
X9.9357Y-7.6452
X9.9357Y-7.7452
X9.9357Y-7.8452
X9.9357Y-7.9452
X9.9357Y-8.0452
X9.9357Y-8.1452
X9.9357Y-8.2452
X9.9805Y-8.8349
X10.0083Y-3.0382
X10.0259Y-7.3662
X10.0427Y-8.5202
X10.0789Y-8.8349
X10.1067Y-3.0382
X10.1067Y-4.0382
X10.1459Y-5.0022
X10.1545Y-6.2852
X10.2098Y-9.1582
X10.2098Y-9.2582
X10.2098Y-9.3582
X10.2098Y-9.4582
X10.2098Y-9.5582
X10.2098Y-9.6582
X10.2098Y-9.7582
X10.2098Y-9.8582
X10.2098Y-9.9582
X10.2098Y-10.0582
X10.2098Y-10.1582
X10.2098Y-10.2582
X10.2098Y-10.3582
X10.2098Y-10.4582
X10.2098Y-10.5582
X10.2098Y-10.6582
X10.2098Y-10.7582
X10.2098Y-10.8582
X10.2098Y-10.9582
X10.2098Y-11.0582
X10.2227Y-7.3662
X10.2455Y-8.8349
X10.2487Y-5.2962
X10.2487Y-5.3962
X10.2487Y-5.4962
X10.2487Y-5.5962
X10.2487Y-5.6962
X10.2487Y-5.7962
X10.2487Y-5.8962
X10.2487Y-5.9962
X10.2487Y-6.0962
X10.3034Y-6.5702
X10.3034Y-6.6702
X10.3034Y-6.7702
X10.3034Y-6.8702
X10.3034Y-6.9702
X10.3034Y-7.0702
X10.3034Y-7.1702
X10.3036Y-4.0382
X10.3134Y-7.5452
X10.3134Y-7.6452
X10.3134Y-7.7452
X10.3134Y-7.8452
X10.3134Y-7.9452
X10.3134Y-8.0452
X10.3134Y-8.1452
X10.3134Y-8.2452
X10.3427Y-5.0022
X10.3427Y-8.5202
X10.3439Y-8.8349
X10.3514Y-6.2852
X10.4045Y-3.4692
X10.4953Y-8.6452
X10.5937Y-8.6452
X10.6014Y-3.4692
X10.6034Y-6.5702
X10.6034Y-6.6702
X10.6034Y-6.7702
X10.6034Y-6.8702
X10.6034Y-6.9702
X10.6034Y-7.0702
X10.6034Y-7.1702
X10.6134Y-7.5452
X10.6134Y-7.6452
X10.6134Y-7.7452
X10.6134Y-7.8452
X10.6134Y-7.9452
X10.6134Y-8.0452
X10.6134Y-8.1452
X10.6134Y-8.2452
X10.6885Y-7.3592
X10.6919Y-8.4802
X10.7287Y-9.1022
X10.7287Y-9.2022
X10.7287Y-9.3022
X10.7287Y-9.4022
X10.7287Y-9.5022
X10.7287Y-9.6022
X10.7287Y-9.7022
X10.7287Y-9.8022
X10.7337Y-10.1422
X10.7453Y-8.7952
X10.7535Y-10.4388
X10.7535Y-10.5388
X10.7535Y-10.6388
X10.7535Y-10.7388
X10.7535Y-10.8388
X10.7535Y-10.9388
X10.7535Y-11.0388
X10.8437Y-8.7952
X10.8854Y-7.3592
X10.8887Y-8.4802
X10.9306Y-10.1422
X10.9811Y-6.5702
X10.9811Y-6.6702
X10.9811Y-6.7702
X10.9811Y-6.8702
X10.9811Y-6.9702
X10.9811Y-7.0702
X10.9811Y-7.1702
X10.9911Y-7.5452
X10.9911Y-7.6452
X10.9911Y-7.7452
X10.9911Y-7.8452
X10.9911Y-7.9452
X10.9911Y-8.0452
X10.9911Y-8.1452
X10.9911Y-8.2452
X11.0287Y-9.1022
X11.0287Y-9.2022
X11.0287Y-9.3022
X11.0287Y-9.4022
X11.0287Y-9.5022
X11.0287Y-9.6022
X11.0287Y-9.7022
X11.0287Y-9.8022
X11.0535Y-10.4388
X11.0535Y-10.5388
X11.0535Y-10.6388
X11.0535Y-10.7388
X11.0535Y-10.8388
X11.0535Y-10.9388
X11.0535Y-11.0388
X11.0637Y-9.9329
X11.0637Y-10.2329
X11.0907Y-8.5722
X11.2045Y-6.3972
X11.2107Y-6.2522
X11.2387Y-8.8452
X11.2387Y-8.9452
X11.2387Y-9.0452
X11.2387Y-9.1452
X11.2387Y-9.2452
X11.2387Y-9.3452
X11.2387Y-9.4452
X11.2525Y-7.3612
X11.2587Y-9.7552
X11.2587Y-9.8552
X11.2587Y-9.9552
X11.2587Y-10.0552
X11.2587Y-10.1552
X11.2587Y-10.2552
X11.2587Y-10.3552
X11.2587Y-10.4552
X11.2587Y-10.5552
X11.2587Y-10.6552
X11.2587Y-10.7552
X11.2587Y-10.8552
X11.2587Y-10.9552
X11.2587Y-11.0552
X11.2811Y-6.5702
X11.2811Y-6.6702
X11.2811Y-6.7702
X11.2811Y-6.8702
X11.2811Y-6.9702
X11.2811Y-7.0702
X11.2811Y-7.1702
X11.2911Y-7.5452
X11.2911Y-7.6452
X11.2911Y-7.7452
X11.2911Y-7.8452
X11.2911Y-7.9452
X11.2911Y-8.0452
X11.2911Y-8.1452
X11.2911Y-8.2452
X11.3907Y-8.5722
X11.4014Y-6.3972
X11.4076Y-6.2522
X11.4494Y-7.3612
X11.5319Y-8.6382
X11.5387Y-8.8452
X11.5387Y-8.9452
X11.5387Y-9.0452
X11.5387Y-9.1452
X11.5387Y-9.2452
X11.5387Y-9.3452
X11.5387Y-9.4452
X11.5953Y-3.2552
X11.6587Y-6.5702
X11.6587Y-6.6702
X11.6587Y-6.7702
X11.6587Y-6.8702
X11.6587Y-6.9702
X11.6587Y-7.0702
X11.6587Y-7.1702
X11.6587Y-7.2702
X11.6587Y-7.3702
X11.6687Y-7.5452
X11.6687Y-7.6452
X11.6687Y-7.7452
X11.6687Y-7.8452
X11.6687Y-7.9452
X11.6687Y-8.0452
X11.6687Y-8.1452
X11.6687Y-8.2452
X11.6937Y-3.2552
X11.7287Y-8.6382
X11.8587Y-9.7552
X11.8587Y-9.8552
X11.8587Y-9.9552
X11.8587Y-10.0552
X11.8587Y-10.1552
X11.8587Y-10.2552
X11.8587Y-10.3552
X11.8587Y-10.4552
X11.8587Y-10.5552
X11.8587Y-10.6552
X11.8587Y-10.7552
X11.8587Y-10.8552
X11.8587Y-10.9552
X11.8587Y-11.0552
X11.9587Y-6.5702
X11.9587Y-6.6702
X11.9587Y-6.7702
X11.9587Y-6.8702
X11.9587Y-6.9702
X11.9587Y-7.0702
X11.9587Y-7.1702
X11.9587Y-7.2702
X11.9587Y-7.3702
X11.9687Y-7.5452
X11.9687Y-7.6452
X11.9687Y-7.7452
X11.9687Y-7.8452
X11.9687Y-7.9452
X11.9687Y-8.0452
X11.9687Y-8.1452
X11.9687Y-8.2452
X12.0019Y-11.0502
X12.1097Y-10.0569
X12.1097Y-10.3569
X12.1187Y-10.5302
X12.1187Y-10.8302
X12.1658Y-6.558
X12.1658Y-6.7549
X12.1778Y-7.5
X12.1778Y-7.6969
X12.1987Y-11.0502
T5
X10.7287Y-2.5802
X10.7287Y-2.6766
X10.8114Y-2.5802
X10.9136Y-2.5802
X10.9963Y-2.5802
X10.9963Y-2.6786
X11.4687Y-2.5788
X11.4687Y-2.6752
X11.5514Y-2.5788
X11.6536Y-2.5788
X11.7363Y-2.5788
X11.7363Y-2.6772
T6
X2.8647Y-8.9522
X2.8647Y-9.1294
X3.1206Y-8.9522
X3.1206Y-9.1294
X3.2525Y-5.6052
X3.2525Y-5.7052
X3.2525Y-5.8052
X3.2525Y-5.9052
X3.2525Y-6.0052
X3.2525Y-6.1052
X3.3525Y-5.6052
X3.3525Y-5.7052
X3.3525Y-5.8052
X3.3525Y-5.9052
X3.3525Y-6.0052
X3.3525Y-6.1052
X4.0673Y-5.6052
X4.0673Y-5.7052
X4.0673Y-5.8052
X4.0673Y-5.9052
X4.0673Y-6.0052
X4.0673Y-6.1052
X4.1673Y-5.6052
X4.1673Y-5.7052
X4.1673Y-5.8052
X4.1673Y-5.9052
X4.1673Y-6.0052
X4.1673Y-6.1052
X4.6887Y-8.2522
X4.6887Y-8.3522
X4.8675Y-5.6002
X4.8675Y-5.7002
X4.8675Y-5.8002
X4.8675Y-5.9002
X4.8675Y-6.0002
X4.8675Y-6.1002
X4.9675Y-5.6002
X4.9675Y-5.7002
X4.9675Y-5.8002
X4.9675Y-5.9002
X4.9675Y-6.0002
X4.9675Y-6.1002
X5.5507Y-11.458
X5.5507Y-11.558
X5.5567Y-10.0362
X5.5567Y-10.1362
X5.5567Y-10.2362
X5.6675Y-5.6052
X5.6675Y-5.7052
X5.6675Y-5.8052
X5.6675Y-5.9052
X5.6675Y-6.0052
X5.6675Y-6.1052
X5.7675Y-5.6052
X5.7675Y-5.7052
X5.7675Y-5.8052
X5.7675Y-5.9052
X5.7675Y-6.0052
X5.7675Y-6.1052
X6.2685Y-8.5556
X6.2685Y-8.6556
X6.2685Y-8.7556
X6.2685Y-8.8556
X6.3685Y-8.5556
X6.3685Y-8.6556
X6.3685Y-8.7556
X6.3685Y-8.8556
X6.4567Y-5.6042
X6.4567Y-5.7042
X6.4567Y-5.8042
X6.4567Y-5.9042
X6.4567Y-6.0042
X6.4567Y-6.1042
X6.5125Y-4.8326
X6.5125Y-4.9326
X6.5125Y-5.0326
X6.5125Y-5.1326
X6.5567Y-5.6042
X6.5567Y-5.7042
X6.5567Y-5.8042
X6.5567Y-5.9042
X6.5567Y-6.0042
X6.5567Y-6.1042
X6.6125Y-4.8326
X6.6125Y-4.9326
X6.6125Y-5.0326
X6.6125Y-5.1326
X7.1387Y-8.5052
X7.1387Y-8.6052
X7.7408Y-8.685
X7.7408Y-8.8622
X7.9967Y-8.685
X7.9967Y-8.8622
X9.0487Y-3.4822
X9.1487Y-3.4822
X9.2487Y-3.4822
X9.3487Y-3.4822
X9.4447Y-3.7122
X9.4487Y-3.4822
X9.4715Y-2.7651
X9.5447Y-3.7122
X9.5487Y-3.4822
X9.5715Y-2.7651
X9.603Y-2.4573
X9.6481Y-2.3793
X9.6481Y-2.5352
X9.6715Y-2.7651
X9.6932Y-2.4573
X9.7383Y-2.3793
X9.7383Y-2.5352
X9.7647Y-3.4802
X9.7715Y-2.7651
X9.7833Y-2.4573
X9.8284Y-2.3793
X9.8284Y-2.5352
X9.8647Y-3.4802
X9.8715Y-2.7651
X9.8735Y-2.4573
X9.9186Y-2.3793
X9.9186Y-2.5352
X9.9637Y-2.4573
X9.9647Y-3.4802
X9.9715Y-2.7651
X10.0087Y-2.3793
X10.0087Y-2.5352
X10.0307Y-11.3122
X10.0307Y-11.4122
X10.0647Y-3.4802
X10.0715Y-2.7651
X10.1307Y-11.3122
X10.1307Y-11.4122
X10.1467Y-3.6942
X10.1647Y-3.4802
X10.2307Y-11.3122
X10.2307Y-11.4122
X10.2467Y-3.6942
X10.2647Y-3.4802
X10.3307Y-11.3122
X10.3307Y-11.4122
X10.3627Y-3.008
X10.3627Y-3.108
X10.4247Y-10.3482
X10.4247Y-10.4482
X10.4247Y-10.5482
X10.4247Y-10.6482
X10.4247Y-10.7482
X10.4247Y-10.8482
X10.4247Y-10.9482
X10.4247Y-11.0482
X10.4307Y-11.3122
X10.4307Y-11.4122
X10.4917Y-3.6652
X10.4917Y-4.6668
X10.4928Y-5.0582
X10.4928Y-6.0598
X10.5127Y-9.1762
X10.5127Y-9.2762
X10.5167Y-9.5882
X10.5167Y-9.6882
X10.5247Y-10.3482
X10.5247Y-10.4482
X10.5247Y-10.5482
X10.5247Y-10.6482
X10.5247Y-10.7482
X10.5247Y-10.8482
X10.5247Y-10.9482
X10.5247Y-11.0482
X10.5307Y-11.3122
X10.5307Y-11.4122
X10.5327Y-9.9722
X10.5327Y-10.0722
X10.5917Y-3.6652
X10.5917Y-4.6668
X10.5928Y-5.0582
X10.5928Y-6.0598
X10.6307Y-11.3122
X10.6307Y-11.4122
X10.6917Y-3.6652
X10.6917Y-4.6668
X10.6928Y-5.0582
X10.6928Y-6.0598
X10.7307Y-11.3122
X10.7307Y-11.4122
X10.7907Y-6.3482
X10.7907Y-6.4482
X10.7907Y-6.5482
X10.7917Y-3.6652
X10.7917Y-4.6668
X10.7928Y-5.0582
X10.7928Y-6.0598
X10.8307Y-11.3122
X10.8307Y-11.4122
X10.8917Y-3.6652
X10.8917Y-4.6668
X10.8928Y-5.0582
X10.8928Y-6.0598
X10.9307Y-11.3122
X10.9307Y-11.4122
X10.9917Y-3.6652
X10.9917Y-4.6668
X10.9928Y-5.0582
X10.9928Y-6.0598
X11.0307Y-11.3122
X11.0307Y-11.4122
X11.0917Y-3.6652
X11.0917Y-4.6668
X11.0928Y-5.0582
X11.0928Y-6.0598
X11.1307Y-11.3122
X11.1307Y-11.4122
X11.1917Y-3.6652
X11.1917Y-4.6668
X11.1928Y-5.0582
X11.1928Y-6.0598
X11.2307Y-11.3122
X11.2307Y-11.4122
X11.2483Y-3.008
X11.2483Y-3.108
X11.2483Y-3.208
X11.2483Y-3.308
X11.2917Y-3.6652
X11.2917Y-4.6668
X11.2928Y-5.0582
X11.2928Y-6.0598
X11.3917Y-3.6652
X11.3917Y-4.6668
X11.3928Y-5.0582
X11.3928Y-6.0598
X11.4917Y-3.6652
X11.4917Y-4.6668
X11.4928Y-5.0582
X11.4928Y-6.0598
X11.5807Y-11.3662
X11.5917Y-3.6652
X11.5917Y-4.6668
X11.5928Y-5.0582
X11.5928Y-6.0598
X11.6689Y-2.8784
X11.6689Y-2.9784
X11.6807Y-11.3662
X11.6917Y-3.6652
X11.6917Y-4.6668
X11.6928Y-5.0582
X11.6928Y-6.0598
X11.7689Y-2.8784
X11.7689Y-2.9784
X11.7807Y-11.3662
X11.7847Y-9.0522
X11.7847Y-9.1522
X11.7847Y-9.2522
X11.7847Y-9.3522
X11.7847Y-9.4522
X11.7917Y-3.6652
X11.7917Y-4.6668
X11.7928Y-5.0582
X11.7928Y-6.0598
X11.8689Y-2.8784
X11.8689Y-2.9784
X11.8847Y-9.0522
X11.8847Y-9.1522
X11.8847Y-9.2522
X11.8847Y-9.3522
X11.8847Y-9.4522
X11.8917Y-3.6652
X11.8917Y-4.6668
X11.8928Y-5.0582
X11.8928Y-6.0598
X11.9689Y-2.8784
X11.9689Y-2.9784
X12.0447Y-9.0242
X12.0447Y-9.1242
X12.0447Y-9.2242
X12.0447Y-9.3242
X12.0447Y-9.4242
X12.0447Y-9.5242
X12.0689Y-2.8784
X12.0689Y-2.9784
X12.1207Y-8.2902
X12.1207Y-8.3902
T7
X2.8687Y-3.2152
X2.8687Y-3.3152
X2.8687Y-3.4152
X2.8687Y-3.5152
X2.8687Y-3.6152
X2.8687Y-3.7152
X2.8687Y-3.8152
X2.8687Y-3.9152
X2.8687Y-4.0152
X2.8687Y-4.1152
X2.8687Y-4.2152
X2.8687Y-4.3152
X2.8687Y-4.4152
X2.8687Y-4.5152
X2.8687Y-4.6152
X2.8687Y-4.7152
X2.8687Y-4.8152
X2.8687Y-4.9152
X2.8687Y-5.0152
X2.8687Y-5.1152
X2.8687Y-5.2152
X2.8687Y-5.3152
X2.8687Y-5.4152
X2.8687Y-5.5152
X2.8687Y-5.6152
X2.8687Y-5.7152
X2.8687Y-5.8152
X2.8687Y-5.9152
X2.8687Y-6.0152
X2.8687Y-6.1152
X2.8687Y-6.2152
X3.0687Y-3.2152
X3.0687Y-3.3152
X3.0687Y-3.4152
X3.0687Y-3.5152
X3.0687Y-3.6152
X3.0687Y-3.7152
X3.0687Y-3.8152
X3.0687Y-3.9152
X3.0687Y-4.0152
X3.0687Y-4.1152
X3.0687Y-4.2152
X3.0687Y-4.3152
X3.0687Y-4.4152
X3.0687Y-4.5152
X3.0687Y-4.6152
X3.0687Y-4.7152
X3.0687Y-4.8152
X3.0687Y-4.9152
X3.0687Y-5.0152
X3.0687Y-5.1152
X3.0687Y-5.2152
X3.0687Y-5.3152
X3.0687Y-5.4152
X3.0687Y-5.5152
X3.0687Y-5.6152
X3.0687Y-5.7152
X3.0687Y-5.8152
X3.0687Y-5.9152
X3.0687Y-6.0152
X3.0687Y-6.1152
X3.0687Y-6.2152
X3.6687Y-3.2152
X3.6687Y-3.3152
X3.6687Y-3.4152
X3.6687Y-3.5152
X3.6687Y-3.6152
X3.6687Y-3.7152
X3.6687Y-3.8152
X3.6687Y-3.9152
X3.6687Y-4.0152
X3.6687Y-4.1152
X3.6687Y-4.2152
X3.6687Y-4.3152
X3.6687Y-4.4152
X3.6687Y-4.5152
X3.6687Y-4.6152
X3.6687Y-4.7152
X3.6687Y-4.8152
X3.6687Y-4.9152
X3.6687Y-5.0152
X3.6687Y-5.1152
X3.6687Y-5.2152
X3.6687Y-5.3152
X3.6687Y-5.4152
X3.6687Y-5.5152
X3.6687Y-5.6152
X3.6687Y-5.7152
X3.6687Y-5.8152
X3.6687Y-5.9152
X3.6687Y-6.0152
X3.6687Y-6.1152
X3.6687Y-6.2152
X3.8687Y-3.2152
X3.8687Y-3.3152
X3.8687Y-3.4152
X3.8687Y-3.5152
X3.8687Y-3.6152
X3.8687Y-3.7152
X3.8687Y-3.8152
X3.8687Y-3.9152
X3.8687Y-4.0152
X3.8687Y-4.1152
X3.8687Y-4.2152
X3.8687Y-4.3152
X3.8687Y-4.4152
X3.8687Y-4.5152
X3.8687Y-4.6152
X3.8687Y-4.7152
X3.8687Y-4.8152
X3.8687Y-4.9152
X3.8687Y-5.0152
X3.8687Y-5.1152
X3.8687Y-5.2152
X3.8687Y-5.3152
X3.8687Y-5.4152
X3.8687Y-5.5152
X3.8687Y-5.6152
X3.8687Y-5.7152
X3.8687Y-5.8152
X3.8687Y-5.9152
X3.8687Y-6.0152
X3.8687Y-6.1152
X3.8687Y-6.2152
X4.4687Y-3.2152
X4.4687Y-3.3152
X4.4687Y-3.4152
X4.4687Y-3.5152
X4.4687Y-3.6152
X4.4687Y-3.7152
X4.4687Y-3.8152
X4.4687Y-3.9152
X4.4687Y-4.0152
X4.4687Y-4.1152
X4.4687Y-4.2152
X4.4687Y-4.3152
X4.4687Y-4.4152
X4.4687Y-4.5152
X4.4687Y-4.6152
X4.4687Y-4.7152
X4.4687Y-4.8152
X4.4687Y-4.9152
X4.4687Y-5.0152
X4.4687Y-5.1152
X4.4687Y-5.2152
X4.4687Y-5.3152
X4.4687Y-5.4152
X4.4687Y-5.5152
X4.4687Y-5.6152
X4.4687Y-5.7152
X4.4687Y-5.8152
X4.4687Y-5.9152
X4.4687Y-6.0152
X4.4687Y-6.1152
X4.4687Y-6.2152
X4.6687Y-3.2152
X4.6687Y-3.3152
X4.6687Y-3.4152
X4.6687Y-3.5152
X4.6687Y-3.6152
X4.6687Y-3.7152
X4.6687Y-3.8152
X4.6687Y-3.9152
X4.6687Y-4.0152
X4.6687Y-4.1152
X4.6687Y-4.2152
X4.6687Y-4.3152
X4.6687Y-4.4152
X4.6687Y-4.5152
X4.6687Y-4.6152
X4.6687Y-4.7152
X4.6687Y-4.8152
X4.6687Y-4.9152
X4.6687Y-5.0152
X4.6687Y-5.1152
X4.6687Y-5.2152
X4.6687Y-5.3152
X4.6687Y-5.4152
X4.6687Y-5.5152
X4.6687Y-5.6152
X4.6687Y-5.7152
X4.6687Y-5.8152
X4.6687Y-5.9152
X4.6687Y-6.0152
X4.6687Y-6.1152
X4.6687Y-6.2152
X5.2687Y-3.2152
X5.2687Y-3.3152
X5.2687Y-3.4152
X5.2687Y-3.5152
X5.2687Y-3.6152
X5.2687Y-3.7152
X5.2687Y-3.8152
X5.2687Y-3.9152
X5.2687Y-4.0152
X5.2687Y-4.1152
X5.2687Y-4.2152
X5.2687Y-4.3152
X5.2687Y-4.4152
X5.2687Y-4.5152
X5.2687Y-4.6152
X5.2687Y-4.7152
X5.2687Y-4.8152
X5.2687Y-4.9152
X5.2687Y-5.0152
X5.2687Y-5.1152
X5.2687Y-5.2152
X5.2687Y-5.3152
X5.2687Y-5.4152
X5.2687Y-5.5152
X5.2687Y-5.6152
X5.2687Y-5.7152
X5.2687Y-5.8152
X5.2687Y-5.9152
X5.2687Y-6.0152
X5.2687Y-6.1152
X5.2687Y-6.2152
X5.4687Y-3.2152
X5.4687Y-3.3152
X5.4687Y-3.4152
X5.4687Y-3.5152
X5.4687Y-3.6152
X5.4687Y-3.7152
X5.4687Y-3.8152
X5.4687Y-3.9152
X5.4687Y-4.0152
X5.4687Y-4.1152
X5.4687Y-4.2152
X5.4687Y-4.3152
X5.4687Y-4.4152
X5.4687Y-4.5152
X5.4687Y-4.6152
X5.4687Y-4.7152
X5.4687Y-4.8152
X5.4687Y-4.9152
X5.4687Y-5.0152
X5.4687Y-5.1152
X5.4687Y-5.2152
X5.4687Y-5.3152
X5.4687Y-5.4152
X5.4687Y-5.5152
X5.4687Y-5.6152
X5.4687Y-5.7152
X5.4687Y-5.8152
X5.4687Y-5.9152
X5.4687Y-6.0152
X5.4687Y-6.1152
X5.4687Y-6.2152
X6.0687Y-3.2152
X6.0687Y-3.3152
X6.0687Y-3.4152
X6.0687Y-3.5152
X6.0687Y-3.6152
X6.0687Y-3.7152
X6.0687Y-3.8152
X6.0687Y-3.9152
X6.0687Y-4.0152
X6.0687Y-4.1152
X6.0687Y-4.2152
X6.0687Y-4.3152
X6.0687Y-4.4152
X6.0687Y-4.5152
X6.0687Y-4.6152
X6.0687Y-4.7152
X6.0687Y-4.8152
X6.0687Y-4.9152
X6.0687Y-5.0152
X6.0687Y-5.1152
X6.0687Y-5.2152
X6.0687Y-5.3152
X6.0687Y-5.4152
X6.0687Y-5.5152
X6.0687Y-5.6152
X6.0687Y-5.7152
X6.0687Y-5.8152
X6.0687Y-5.9152
X6.0687Y-6.0152
X6.0687Y-6.1152
X6.0687Y-6.2152
X6.2687Y-3.2152
X6.2687Y-3.3152
X6.2687Y-3.4152
X6.2687Y-3.5152
X6.2687Y-3.6152
X6.2687Y-3.7152
X6.2687Y-3.8152
X6.2687Y-3.9152
X6.2687Y-4.0152
X6.2687Y-4.1152
X6.2687Y-4.2152
X6.2687Y-4.3152
X6.2687Y-4.4152
X6.2687Y-4.5152
X6.2687Y-4.6152
X6.2687Y-4.7152
X6.2687Y-4.8152
X6.2687Y-4.9152
X6.2687Y-5.0152
X6.2687Y-5.1152
X6.2687Y-5.2152
X6.2687Y-5.3152
X6.2687Y-5.4152
X6.2687Y-5.5152
X6.2687Y-5.6152
X6.2687Y-5.7152
X6.2687Y-5.8152
X6.2687Y-5.9152
X6.2687Y-6.0152
X6.2687Y-6.1152
X6.2687Y-6.2152
T8
X3.5117Y-11.3171
X3.5117Y-11.7171
X3.7557Y-11.3171
X3.7557Y-11.7171
X10.6177Y-2.9014
X10.6177Y-3.3014
X10.8237Y-2.8474
X10.8237Y-3.2474
X12.0767Y-5.6522
X12.0767Y-6.0522
X12.0827Y-4.2802
X12.0827Y-4.6802
T9
X6.5126Y-11.4302
X6.5126Y-11.6468
X6.678Y-11.4302
X6.678Y-11.6468
X6.8433Y-11.4302
X6.8433Y-11.6468
X7.0087Y-11.4302
X7.0087Y-11.6468
X7.174Y-11.4302
X7.174Y-11.6468
X7.3394Y-11.4302
X7.3394Y-11.6468
X7.5047Y-11.4302
X7.5047Y-11.6468
X7.6701Y-11.4302
X7.6701Y-11.6468
X7.8354Y-11.4302
X7.8354Y-11.6468
X8.0008Y-11.4302
X8.0008Y-11.6468
T10
X10.5968Y-2.4621
X10.8625Y-2.4307
X11.1302Y-2.4621
X11.3368Y-2.4607
X11.6025Y-2.4293
X11.8702Y-2.4607
T11
X3.2677Y-2.6131
X3.2677Y-8.7131
X3.2677Y-11.5631
X4.0677Y-2.6131
X4.0677Y-8.7131
X4.0677Y-11.5631
X5.8677Y-2.6131
X5.8677Y-8.7131
X5.8677Y-11.5631
X9.3259Y-2.4545
X10.3101Y-2.4545
X12.0677Y-3.5131
X12.0677Y-8.7131
X12.0677Y-11.5631
M30
